<svg width="541" height="292" viewBox="0 0 541 292" fill="none" xmlns="http://www.w3.org/2000/svg">
<circle cx="129.5" cy="67" r="38" stroke="#D0D5DD" stroke-width="8"/>
<path d="M167.5 67C167.5 74.5157 165.271 81.8626 161.096 88.1117C156.92 94.3607 150.986 99.2313 144.042 102.107C137.098 104.984 129.458 105.736 122.087 104.27C114.715 102.804 107.944 99.1845 102.63 93.8701C97.3155 88.5557 93.6964 81.7847 92.2302 74.4134C90.7639 67.0422 91.5164 59.4016 94.3926 52.458C97.2687 45.5144 102.139 39.5796 108.388 35.4042C114.637 31.2287 121.984 29 129.5 29" stroke="#1C2DD8" stroke-width="8" stroke-linecap="round"/>
<circle cx="218.5" cy="50" r="5" fill="#1C2DD8"/>
<path d="M230.459 54V45.2727H235.93V46.4062H231.776V49.0653H235.645V50.1946H231.776V52.8665H235.982V54H230.459ZM238.593 47.4545L240.037 50.0028L241.495 47.4545H242.888L240.847 50.7273L242.905 54H241.512L240.037 51.554L238.567 54H237.169L239.206 50.7273L237.195 47.4545H238.593ZM246.696 54.1321C246.062 54.1321 245.517 53.9886 245.059 53.7017C244.605 53.4119 244.255 53.0128 244.011 52.5043C243.767 51.9957 243.645 51.4134 243.645 50.7571C243.645 50.0923 243.77 49.5057 244.02 48.9972C244.27 48.4858 244.622 48.0866 245.076 47.7997C245.531 47.5128 246.066 47.3693 246.683 47.3693C247.18 47.3693 247.623 47.4616 248.012 47.6463C248.402 47.8281 248.716 48.0838 248.954 48.4134C249.196 48.7429 249.339 49.1278 249.385 49.5682H248.145C248.076 49.2614 247.92 48.9972 247.676 48.7756C247.434 48.554 247.11 48.4432 246.704 48.4432C246.349 48.4432 246.038 48.5369 245.771 48.7244C245.507 48.9091 245.301 49.1733 245.153 49.517C245.005 49.858 244.931 50.2614 244.931 50.7273C244.931 51.2045 245.004 51.6165 245.149 51.9631C245.294 52.3097 245.498 52.5781 245.762 52.7685C246.029 52.9588 246.343 53.054 246.704 53.054C246.946 53.054 247.164 53.0099 247.36 52.9219C247.559 52.831 247.725 52.7017 247.859 52.5341C247.995 52.3665 248.091 52.1648 248.145 51.929H249.385C249.339 52.3523 249.201 52.7301 248.971 53.0625C248.741 53.3949 248.433 53.6562 248.047 53.8466C247.663 54.0369 247.213 54.1321 246.696 54.1321ZM253.568 54.1321C252.923 54.1321 252.368 53.9943 251.902 53.7188C251.439 53.4403 251.081 53.0497 250.828 52.5469C250.578 52.0412 250.453 51.4489 250.453 50.7699C250.453 50.0994 250.578 49.5085 250.828 48.9972C251.081 48.4858 251.433 48.0866 251.885 47.7997C252.339 47.5128 252.871 47.3693 253.479 47.3693C253.848 47.3693 254.206 47.4304 254.553 47.5526C254.899 47.6747 255.21 47.8665 255.486 48.1278C255.761 48.3892 255.979 48.7287 256.138 49.1463C256.297 49.5611 256.376 50.0653 256.376 50.6591V51.1108H251.173V50.1562H255.128C255.128 49.821 255.06 49.5241 254.923 49.2656C254.787 49.0043 254.595 48.7983 254.348 48.6477C254.104 48.4972 253.817 48.4219 253.487 48.4219C253.129 48.4219 252.817 48.5099 252.55 48.6861C252.286 48.8594 252.081 49.0866 251.936 49.3679C251.794 49.6463 251.723 49.9489 251.723 50.2756V51.0213C251.723 51.4588 251.8 51.831 251.953 52.1378C252.109 52.4446 252.327 52.679 252.605 52.8409C252.884 53 253.209 53.0795 253.581 53.0795C253.822 53.0795 254.043 53.0455 254.241 52.9773C254.44 52.9062 254.612 52.8011 254.757 52.6619C254.902 52.5227 255.013 52.3509 255.089 52.1463L256.295 52.3636C256.199 52.7187 256.026 53.0298 255.776 53.2969C255.528 53.5611 255.217 53.767 254.842 53.9148C254.47 54.0597 254.045 54.1321 253.568 54.1321ZM257.79 56.4545V47.4545H259.034V48.5156H259.141C259.215 48.3793 259.321 48.2216 259.461 48.0426C259.6 47.8636 259.793 47.7074 260.04 47.5739C260.287 47.4375 260.614 47.3693 261.02 47.3693C261.549 47.3693 262.02 47.5028 262.435 47.7699C262.85 48.0369 263.175 48.4219 263.411 48.9247C263.65 49.4276 263.769 50.0327 263.769 50.7401C263.769 51.4474 263.651 52.054 263.415 52.5597C263.179 53.0625 262.855 53.4503 262.444 53.723C262.032 53.9929 261.561 54.1278 261.033 54.1278C260.635 54.1278 260.31 54.0611 260.057 53.9276C259.807 53.794 259.611 53.6378 259.469 53.4588C259.327 53.2798 259.218 53.1207 259.141 52.9815H259.064V56.4545H257.79ZM259.039 50.7273C259.039 51.1875 259.105 51.5909 259.239 51.9375C259.373 52.2841 259.566 52.5554 259.819 52.7514C260.071 52.9446 260.381 53.0412 260.748 53.0412C261.128 53.0412 261.446 52.9403 261.702 52.7386C261.958 52.5341 262.151 52.2571 262.282 51.9077C262.415 51.5582 262.482 51.1648 262.482 50.7273C262.482 50.2955 262.417 49.9077 262.286 49.5639C262.158 49.2202 261.965 48.9489 261.706 48.75C261.451 48.5511 261.131 48.4517 260.748 48.4517C260.378 48.4517 260.066 48.5469 259.81 48.7372C259.557 48.9276 259.365 49.1932 259.235 49.5341C259.104 49.875 259.039 50.2727 259.039 50.7273ZM268.252 47.4545V48.4773H264.676V47.4545H268.252ZM265.635 45.8864H266.909V52.0781C266.909 52.3253 266.946 52.5114 267.02 52.6364C267.094 52.7585 267.189 52.8423 267.306 52.8878C267.425 52.9304 267.554 52.9517 267.694 52.9517C267.796 52.9517 267.885 52.9446 267.962 52.9304C268.039 52.9162 268.098 52.9048 268.141 52.8963L268.371 53.9489C268.297 53.9773 268.192 54.0057 268.056 54.0341C267.919 54.0653 267.749 54.0824 267.544 54.0852C267.209 54.0909 266.897 54.0312 266.607 53.9062C266.317 53.7812 266.083 53.5881 265.904 53.3267C265.725 53.0653 265.635 52.7372 265.635 52.3423V45.8864ZM269.661 54V47.4545H270.935V54H269.661ZM270.305 46.4446C270.083 46.4446 269.893 46.3707 269.734 46.223C269.577 46.0724 269.499 45.8935 269.499 45.6861C269.499 45.4759 269.577 45.2969 269.734 45.1491C269.893 44.9986 270.083 44.9233 270.305 44.9233C270.526 44.9233 270.715 44.9986 270.871 45.1491C271.031 45.2969 271.11 45.4759 271.11 45.6861C271.11 45.8935 271.031 46.0724 270.871 46.223C270.715 46.3707 270.526 46.4446 270.305 46.4446ZM275.407 54.1321C274.793 54.1321 274.257 53.9915 273.8 53.7102C273.343 53.429 272.988 53.0355 272.735 52.5298C272.482 52.0241 272.355 51.4332 272.355 50.7571C272.355 50.0781 272.482 49.4844 272.735 48.9759C272.988 48.4673 273.343 48.0724 273.8 47.7912C274.257 47.5099 274.793 47.3693 275.407 47.3693C276.02 47.3693 276.556 47.5099 277.013 47.7912C277.471 48.0724 277.826 48.4673 278.078 48.9759C278.331 49.4844 278.458 50.0781 278.458 50.7571C278.458 51.4332 278.331 52.0241 278.078 52.5298C277.826 53.0355 277.471 53.429 277.013 53.7102C276.556 53.9915 276.02 54.1321 275.407 54.1321ZM275.411 53.0625C275.809 53.0625 276.138 52.9574 276.4 52.7472C276.661 52.5369 276.854 52.2571 276.979 51.9077C277.107 51.5582 277.171 51.1733 277.171 50.7528C277.171 50.3352 277.107 49.9517 276.979 49.6023C276.854 49.25 276.661 48.9673 276.4 48.7543C276.138 48.5412 275.809 48.4347 275.411 48.4347C275.01 48.4347 274.678 48.5412 274.414 48.7543C274.152 48.9673 273.958 49.25 273.83 49.6023C273.705 49.9517 273.642 50.3352 273.642 50.7528C273.642 51.1733 273.705 51.5582 273.83 51.9077C273.958 52.2571 274.152 52.5369 274.414 52.7472C274.678 52.9574 275.01 53.0625 275.411 53.0625ZM281.154 50.1136V54H279.88V47.4545H281.103V48.5199H281.184C281.335 48.1733 281.57 47.8949 281.891 47.6847C282.215 47.4744 282.623 47.3693 283.114 47.3693C283.56 47.3693 283.951 47.4631 284.286 47.6506C284.621 47.8352 284.881 48.1108 285.066 48.4773C285.251 48.8437 285.343 49.2969 285.343 49.8366V54H284.069V49.9901C284.069 49.5156 283.945 49.1449 283.698 48.8778C283.451 48.608 283.112 48.473 282.68 48.473C282.384 48.473 282.121 48.5369 281.891 48.6648C281.664 48.7926 281.484 48.9801 281.35 49.2273C281.219 49.4716 281.154 49.767 281.154 50.1136Z" fill="#1D2939"/>
<path d="M432.288 54.1193C431.678 54.1193 431.138 54.0142 430.669 53.804C430.203 53.5937 429.838 53.304 429.574 52.9347C429.31 52.5653 429.179 52.1449 429.182 51.6733C429.179 51.304 429.254 50.9645 429.408 50.6548C429.564 50.3423 429.776 50.0824 430.043 49.875C430.31 49.6648 430.608 49.5312 430.938 49.4744V49.4233C430.503 49.3182 430.155 49.0852 429.893 48.7244C429.632 48.3636 429.503 47.9489 429.506 47.4801C429.503 47.0341 429.621 46.6364 429.859 46.2869C430.101 45.9347 430.432 45.6577 430.852 45.456C431.273 45.2543 431.751 45.1534 432.288 45.1534C432.82 45.1534 433.294 45.2557 433.712 45.4602C434.132 45.6619 434.463 45.9389 434.705 46.2912C434.946 46.6406 435.068 47.0369 435.071 47.4801C435.068 47.9489 434.935 48.3636 434.67 48.7244C434.406 49.0852 434.063 49.3182 433.639 49.4233V49.4744C433.966 49.5312 434.26 49.6648 434.521 49.875C434.786 50.0824 434.996 50.3423 435.152 50.6548C435.311 50.9645 435.392 51.304 435.395 51.6733C435.392 52.1449 435.259 52.5653 434.994 52.9347C434.73 53.304 434.364 53.5937 433.895 53.804C433.429 54.0142 432.893 54.1193 432.288 54.1193ZM432.288 53.0412C432.649 53.0412 432.962 52.9815 433.226 52.8622C433.49 52.7401 433.695 52.571 433.839 52.3551C433.984 52.1364 434.058 51.8807 434.061 51.5881C434.058 51.2841 433.979 51.0156 433.822 50.7827C433.669 50.5497 433.46 50.3665 433.196 50.233C432.932 50.0994 432.629 50.0327 432.288 50.0327C431.945 50.0327 431.639 50.0994 431.372 50.233C431.105 50.3665 430.895 50.5497 430.741 50.7827C430.588 51.0156 430.513 51.2841 430.516 51.5881C430.513 51.8807 430.582 52.1364 430.724 52.3551C430.869 52.571 431.075 52.7401 431.342 52.8622C431.609 52.9815 431.925 53.0412 432.288 53.0412ZM432.288 48.9801C432.578 48.9801 432.835 48.9219 433.06 48.8054C433.284 48.6889 433.46 48.527 433.588 48.3196C433.719 48.1122 433.786 47.8693 433.788 47.5909C433.786 47.3182 433.72 47.0795 433.592 46.875C433.467 46.6705 433.293 46.5128 433.068 46.402C432.844 46.2884 432.584 46.2315 432.288 46.2315C431.987 46.2315 431.723 46.2884 431.496 46.402C431.271 46.5128 431.097 46.6705 430.972 46.875C430.847 47.0795 430.786 47.3182 430.788 47.5909C430.786 47.8693 430.848 48.1122 430.976 48.3196C431.104 48.527 431.28 48.6889 431.504 48.8054C431.732 48.9219 431.993 48.9801 432.288 48.9801ZM439.802 54.1193C439.268 54.1193 438.788 54.017 438.362 53.8125C437.939 53.6051 437.6 53.321 437.348 52.9602C437.095 52.5994 436.96 52.1875 436.943 51.7244H438.221C438.252 52.0994 438.419 52.4077 438.72 52.6491C439.021 52.8906 439.382 53.0114 439.802 53.0114C440.137 53.0114 440.434 52.9347 440.693 52.7812C440.954 52.625 441.159 52.4105 441.306 52.1378C441.457 51.8651 441.532 51.554 441.532 51.2045C441.532 50.8494 441.456 50.5327 441.302 50.2543C441.149 49.9759 440.937 49.7571 440.667 49.598C440.4 49.4389 440.093 49.358 439.747 49.3551C439.483 49.3551 439.217 49.4006 438.95 49.4915C438.683 49.5824 438.467 49.7017 438.302 49.8494L437.096 49.6705L437.586 45.2727H442.385V46.402H438.681L438.404 48.8438H438.456C438.626 48.679 438.852 48.5412 439.133 48.4304C439.417 48.3196 439.721 48.2642 440.045 48.2642C440.576 48.2642 441.049 48.3906 441.464 48.6435C441.882 48.8963 442.21 49.2415 442.449 49.679C442.69 50.1136 442.809 50.6136 442.806 51.179C442.809 51.7443 442.681 52.2486 442.423 52.6918C442.167 53.1349 441.812 53.4844 441.358 53.7401C440.906 53.9929 440.387 54.1193 439.802 54.1193ZM448.918 52.3636V51.9034C448.918 51.5739 448.987 51.2727 449.123 51C449.262 50.7244 449.464 50.5043 449.728 50.3395C449.995 50.1719 450.317 50.0881 450.695 50.0881C451.082 50.0881 451.406 50.1705 451.667 50.3352C451.928 50.5 452.126 50.7202 452.259 50.9957C452.396 51.2713 452.464 51.5739 452.464 51.9034V52.3636C452.464 52.6932 452.396 52.9957 452.259 53.2713C452.123 53.544 451.923 53.7642 451.658 53.9318C451.397 54.0966 451.076 54.179 450.695 54.179C450.312 54.179 449.988 54.0966 449.724 53.9318C449.46 53.7642 449.259 53.544 449.123 53.2713C448.987 52.9957 448.918 52.6932 448.918 52.3636ZM449.911 51.9034V52.3636C449.911 52.608 449.969 52.8295 450.086 53.0284C450.202 53.2273 450.406 53.3267 450.695 53.3267C450.982 53.3267 451.183 53.2273 451.296 53.0284C451.41 52.8295 451.467 52.608 451.467 52.3636V51.9034C451.467 51.6591 451.411 51.4375 451.3 51.2386C451.192 51.0398 450.991 50.9403 450.695 50.9403C450.411 50.9403 450.21 51.0398 450.09 51.2386C449.971 51.4375 449.911 51.6591 449.911 51.9034ZM444.529 47.3693V46.9091C444.529 46.5795 444.597 46.277 444.734 46.0014C444.873 45.7259 445.075 45.5057 445.339 45.3409C445.606 45.1761 445.928 45.0938 446.306 45.0938C446.692 45.0938 447.016 45.1761 447.278 45.3409C447.539 45.5057 447.737 45.7259 447.87 46.0014C448.004 46.277 448.07 46.5795 448.07 46.9091V47.3693C448.07 47.6989 448.002 48.0014 447.866 48.277C447.732 48.5497 447.533 48.7699 447.269 48.9375C447.008 49.1023 446.687 49.1847 446.306 49.1847C445.92 49.1847 445.594 49.1023 445.33 48.9375C445.069 48.7699 444.87 48.5497 444.734 48.277C444.597 48.0014 444.529 47.6989 444.529 47.3693ZM445.526 46.9091V47.3693C445.526 47.6136 445.583 47.8352 445.697 48.0341C445.813 48.233 446.016 48.3324 446.306 48.3324C446.59 48.3324 446.789 48.233 446.903 48.0341C447.019 47.8352 447.077 47.6136 447.077 47.3693V46.9091C447.077 46.6648 447.022 46.4432 446.911 46.2443C446.8 46.0455 446.599 45.946 446.306 45.946C446.022 45.946 445.82 46.0455 445.701 46.2443C445.585 46.4432 445.526 46.6648 445.526 46.9091ZM444.934 54L450.934 45.2727H451.952L445.952 54H444.934Z" fill="#1D2939"/>
<path d="M453.5 66H213.5V68H453.5V66Z" fill="#EAECF0" mask="url(#path-3-inside-1_468_2749)"/>
<circle cx="218.5" cy="84" r="5" fill="#D0D5DD"/>
<path d="M235.219 81.5653C235.173 81.1619 234.986 80.8494 234.656 80.6278C234.327 80.4034 233.912 80.2912 233.412 80.2912C233.054 80.2912 232.744 80.348 232.483 80.4616C232.222 80.5724 232.018 80.7259 231.874 80.9219C231.732 81.1151 231.661 81.3352 231.661 81.5824C231.661 81.7898 231.709 81.9687 231.805 82.1193C231.905 82.2699 232.034 82.3963 232.193 82.4986C232.355 82.598 232.528 82.6818 232.713 82.75C232.898 82.8153 233.075 82.8693 233.246 82.9119L234.098 83.1335C234.376 83.2017 234.662 83.294 234.955 83.4105C235.247 83.527 235.518 83.6804 235.768 83.8707C236.018 84.0611 236.22 84.2969 236.374 84.5781C236.53 84.8594 236.608 85.196 236.608 85.5881C236.608 86.0824 236.48 86.5213 236.224 86.9048C235.972 87.2884 235.604 87.5909 235.121 87.8125C234.641 88.0341 234.06 88.1449 233.378 88.1449C232.724 88.1449 232.159 88.0412 231.682 87.8338C231.205 87.6264 230.831 87.3324 230.561 86.9517C230.291 86.5682 230.142 86.1136 230.114 85.5881H231.435C231.46 85.9034 231.563 86.1662 231.741 86.3764C231.923 86.5838 232.155 86.7386 232.436 86.8409C232.72 86.9403 233.031 86.9901 233.369 86.9901C233.741 86.9901 234.072 86.9318 234.362 86.8153C234.655 86.696 234.885 86.5312 235.053 86.321C235.22 86.108 235.304 85.8594 235.304 85.5753C235.304 85.3168 235.23 85.1051 235.082 84.9403C234.938 84.7756 234.74 84.6392 234.49 84.5312C234.243 84.4233 233.963 84.3281 233.651 84.2457L232.619 83.9645C231.92 83.7741 231.366 83.4943 230.957 83.125C230.551 82.7557 230.348 82.267 230.348 81.6591C230.348 81.1562 230.484 80.7173 230.757 80.3423C231.03 79.9673 231.399 79.6761 231.865 79.4688C232.331 79.2585 232.857 79.1534 233.442 79.1534C234.033 79.1534 234.554 79.2571 235.006 79.4645C235.46 79.6719 235.818 79.9574 236.08 80.321C236.341 80.6818 236.477 81.0966 236.489 81.5653H235.219ZM241.135 81.4545V82.4773H237.559V81.4545H241.135ZM238.518 79.8864H239.792V86.0781C239.792 86.3253 239.829 86.5114 239.903 86.6364C239.977 86.7585 240.072 86.8423 240.189 86.8878C240.308 86.9304 240.437 86.9517 240.576 86.9517C240.679 86.9517 240.768 86.9446 240.845 86.9304C240.922 86.9162 240.981 86.9048 241.024 86.8963L241.254 87.9489C241.18 87.9773 241.075 88.0057 240.939 88.0341C240.802 88.0653 240.632 88.0824 240.427 88.0852C240.092 88.0909 239.779 88.0312 239.49 87.9062C239.2 87.7812 238.966 87.5881 238.787 87.3267C238.608 87.0653 238.518 86.7372 238.518 86.3423V79.8864ZM244.449 88.1449C244.034 88.1449 243.659 88.0682 243.324 87.9148C242.989 87.7585 242.723 87.5327 242.527 87.2372C242.334 86.9418 242.237 86.5795 242.237 86.1506C242.237 85.7812 242.308 85.4773 242.45 85.2386C242.592 85 242.784 84.8111 243.026 84.6719C243.267 84.5327 243.537 84.4276 243.835 84.3565C244.134 84.2855 244.438 84.2315 244.747 84.1946C245.139 84.1491 245.457 84.1122 245.702 84.0838C245.946 84.0526 246.124 84.0028 246.234 83.9347C246.345 83.8665 246.401 83.7557 246.401 83.6023V83.5724C246.401 83.2003 246.295 82.9119 246.085 82.7074C245.878 82.5028 245.568 82.4006 245.156 82.4006C244.727 82.4006 244.389 82.4957 244.142 82.6861C243.898 82.8736 243.729 83.0824 243.635 83.3125L242.438 83.0398C242.58 82.642 242.787 82.321 243.06 82.0767C243.335 81.8295 243.652 81.6506 244.01 81.5398C244.368 81.4261 244.744 81.3693 245.139 81.3693C245.401 81.3693 245.678 81.4006 245.97 81.4631C246.266 81.5227 246.541 81.6335 246.797 81.7955C247.055 81.9574 247.267 82.1889 247.432 82.4901C247.597 82.7884 247.679 83.1761 247.679 83.6534V88H246.435V87.1051H246.384C246.301 87.2699 246.178 87.4318 246.013 87.5909C245.848 87.75 245.636 87.8821 245.378 87.9872C245.119 88.0923 244.81 88.1449 244.449 88.1449ZM244.726 87.1222C245.078 87.1222 245.379 87.0526 245.629 86.9134C245.882 86.7741 246.074 86.5923 246.205 86.3679C246.338 86.1406 246.405 85.8977 246.405 85.6392V84.7955C246.359 84.8409 246.271 84.8835 246.141 84.9233C246.013 84.9602 245.866 84.9929 245.702 85.0213C245.537 85.0469 245.376 85.071 245.22 85.0938C245.064 85.1136 244.933 85.1307 244.828 85.1449C244.581 85.1761 244.355 85.2287 244.151 85.3026C243.949 85.3764 243.787 85.483 243.665 85.6222C243.545 85.7585 243.486 85.9403 243.486 86.1676C243.486 86.483 243.602 86.7216 243.835 86.8835C244.068 87.0426 244.365 87.1222 244.726 87.1222ZM250.65 84.1136V88H249.376V81.4545H250.599V82.5199H250.68C250.831 82.1733 251.066 81.8949 251.387 81.6847C251.711 81.4744 252.119 81.3693 252.61 81.3693C253.056 81.3693 253.447 81.4631 253.782 81.6506C254.118 81.8352 254.377 82.1108 254.562 82.4773C254.747 82.8437 254.839 83.2969 254.839 83.8366V88H253.565V83.9901C253.565 83.5156 253.441 83.1449 253.194 82.8778C252.947 82.608 252.608 82.473 252.176 82.473C251.88 82.473 251.618 82.5369 251.387 82.6648C251.16 82.7926 250.98 82.9801 250.846 83.2273C250.716 83.4716 250.65 83.767 250.65 84.1136ZM258.998 88.1278C258.47 88.1278 257.998 87.9929 257.583 87.723C257.172 87.4503 256.848 87.0625 256.612 86.5597C256.379 86.054 256.262 85.4474 256.262 84.7401C256.262 84.0327 256.38 83.4276 256.616 82.9247C256.855 82.4219 257.181 82.0369 257.596 81.7699C258.011 81.5028 258.481 81.3693 259.007 81.3693C259.413 81.3693 259.74 81.4375 259.987 81.5739C260.237 81.7074 260.43 81.8636 260.566 82.0426C260.706 82.2216 260.814 82.3793 260.89 82.5156H260.967V79.2727H262.241V88H260.997V86.9815H260.89C260.814 87.1207 260.703 87.2798 260.558 87.4588C260.416 87.6378 260.22 87.794 259.97 87.9276C259.72 88.0611 259.396 88.1278 258.998 88.1278ZM259.279 87.0412C259.646 87.0412 259.956 86.9446 260.208 86.7514C260.464 86.5554 260.657 86.2841 260.788 85.9375C260.922 85.5909 260.988 85.1875 260.988 84.7273C260.988 84.2727 260.923 83.875 260.792 83.5341C260.662 83.1932 260.47 82.9276 260.217 82.7372C259.964 82.5469 259.652 82.4517 259.279 82.4517C258.896 82.4517 258.576 82.5511 258.321 82.75C258.065 82.9489 257.872 83.2202 257.741 83.5639C257.613 83.9077 257.549 84.2955 257.549 84.7273C257.549 85.1648 257.615 85.5582 257.745 85.9077C257.876 86.2571 258.069 86.5341 258.325 86.7386C258.583 86.9403 258.902 87.0412 259.279 87.0412ZM265.964 88.1449C265.55 88.1449 265.175 88.0682 264.839 87.9148C264.504 87.7585 264.239 87.5327 264.043 87.2372C263.849 86.9418 263.753 86.5795 263.753 86.1506C263.753 85.7812 263.824 85.4773 263.966 85.2386C264.108 85 264.3 84.8111 264.541 84.6719C264.783 84.5327 265.053 84.4276 265.351 84.3565C265.649 84.2855 265.953 84.2315 266.263 84.1946C266.655 84.1491 266.973 84.1122 267.217 84.0838C267.462 84.0526 267.639 84.0028 267.75 83.9347C267.861 83.8665 267.916 83.7557 267.916 83.6023V83.5724C267.916 83.2003 267.811 82.9119 267.601 82.7074C267.393 82.5028 267.084 82.4006 266.672 82.4006C266.243 82.4006 265.905 82.4957 265.658 82.6861C265.413 82.8736 265.244 83.0824 265.151 83.3125L263.953 83.0398C264.095 82.642 264.303 82.321 264.575 82.0767C264.851 81.8295 265.168 81.6506 265.526 81.5398C265.884 81.4261 266.26 81.3693 266.655 81.3693C266.916 81.3693 267.193 81.4006 267.486 81.4631C267.781 81.5227 268.057 81.6335 268.312 81.7955C268.571 81.9574 268.783 82.1889 268.947 82.4901C269.112 82.7884 269.195 83.1761 269.195 83.6534V88H267.95V87.1051H267.899C267.817 87.2699 267.693 87.4318 267.528 87.5909C267.364 87.75 267.152 87.8821 266.893 87.9872C266.635 88.0923 266.325 88.1449 265.964 88.1449ZM266.241 87.1222C266.594 87.1222 266.895 87.0526 267.145 86.9134C267.398 86.7741 267.589 86.5923 267.72 86.3679C267.854 86.1406 267.92 85.8977 267.92 85.6392V84.7955C267.875 84.8409 267.787 84.8835 267.656 84.9233C267.528 84.9602 267.382 84.9929 267.217 85.0213C267.053 85.0469 266.892 85.071 266.736 85.0938C266.58 85.1136 266.449 85.1307 266.344 85.1449C266.097 85.1761 265.871 85.2287 265.666 85.3026C265.464 85.3764 265.303 85.483 265.18 85.6222C265.061 85.7585 265.001 85.9403 265.001 86.1676C265.001 86.483 265.118 86.7216 265.351 86.8835C265.584 87.0426 265.881 87.1222 266.241 87.1222ZM270.892 88V81.4545H272.123V82.4943H272.191C272.311 82.142 272.521 81.8651 272.822 81.6634C273.126 81.4588 273.47 81.3565 273.853 81.3565C273.933 81.3565 274.027 81.3594 274.135 81.3651C274.245 81.3707 274.332 81.3778 274.395 81.3864V82.6051C274.343 82.5909 274.252 82.5753 274.122 82.5582C273.991 82.5384 273.86 82.5284 273.73 82.5284C273.429 82.5284 273.16 82.5923 272.924 82.7202C272.691 82.8452 272.507 83.0199 272.37 83.2443C272.234 83.4659 272.166 83.7187 272.166 84.0028V88H270.892ZM277.713 88.1278C277.185 88.1278 276.713 87.9929 276.298 87.723C275.886 87.4503 275.563 87.0625 275.327 86.5597C275.094 86.054 274.977 85.4474 274.977 84.7401C274.977 84.0327 275.095 83.4276 275.331 82.9247C275.57 82.4219 275.896 82.0369 276.311 81.7699C276.726 81.5028 277.196 81.3693 277.722 81.3693C278.128 81.3693 278.455 81.4375 278.702 81.5739C278.952 81.7074 279.145 81.8636 279.281 82.0426C279.42 82.2216 279.528 82.3793 279.605 82.5156H279.682V79.2727H280.956V88H279.712V86.9815H279.605C279.528 87.1207 279.418 87.2798 279.273 87.4588C279.131 87.6378 278.935 87.794 278.685 87.9276C278.435 88.0611 278.111 88.1278 277.713 88.1278ZM277.994 87.0412C278.361 87.0412 278.67 86.9446 278.923 86.7514C279.179 86.5554 279.372 86.2841 279.503 85.9375C279.636 85.5909 279.703 85.1875 279.703 84.7273C279.703 84.2727 279.638 83.875 279.507 83.5341C279.376 83.1932 279.185 82.9276 278.932 82.7372C278.679 82.5469 278.366 82.4517 277.994 82.4517C277.611 82.4517 277.291 82.5511 277.036 82.75C276.78 82.9489 276.587 83.2202 276.456 83.5639C276.328 83.9077 276.264 84.2955 276.264 84.7273C276.264 85.1648 276.33 85.5582 276.46 85.9077C276.591 86.2571 276.784 86.5341 277.04 86.7386C277.298 86.9403 277.616 87.0412 277.994 87.0412ZM286.053 88V79.2727H289.163C289.842 79.2727 290.405 79.3963 290.851 79.6435C291.297 79.8906 291.631 80.2287 291.852 80.6577C292.074 81.0838 292.185 81.5639 292.185 82.098C292.185 82.6349 292.072 83.1179 291.848 83.5469C291.626 83.973 291.291 84.3111 290.842 84.5611C290.396 84.8082 289.835 84.9318 289.159 84.9318H287.02V83.8153H289.04C289.469 83.8153 289.817 83.7415 290.084 83.5938C290.351 83.4432 290.547 83.2386 290.672 82.9801C290.797 82.7216 290.859 82.4276 290.859 82.098C290.859 81.7685 290.797 81.4759 290.672 81.2202C290.547 80.9645 290.349 80.7642 290.08 80.6193C289.813 80.4744 289.46 80.402 289.023 80.402H287.369V88H286.053ZM293.626 88V81.4545H294.858V82.4943H294.926C295.045 82.142 295.255 81.8651 295.556 81.6634C295.86 81.4588 296.204 81.3565 296.588 81.3565C296.667 81.3565 296.761 81.3594 296.869 81.3651C296.98 81.3707 297.066 81.3778 297.129 81.3864V82.6051C297.078 82.5909 296.987 82.5753 296.856 82.5582C296.725 82.5384 296.595 82.5284 296.464 82.5284C296.163 82.5284 295.895 82.5923 295.659 82.7202C295.426 82.8452 295.241 83.0199 295.105 83.2443C294.968 83.4659 294.9 83.7187 294.9 84.0028V88H293.626ZM298.232 88V81.4545H299.506V88H298.232ZM298.875 80.4446C298.653 80.4446 298.463 80.3707 298.304 80.223C298.148 80.0724 298.07 79.8935 298.07 79.6861C298.07 79.4759 298.148 79.2969 298.304 79.1491C298.463 78.9986 298.653 78.9233 298.875 78.9233C299.097 78.9233 299.286 78.9986 299.442 79.1491C299.601 79.2969 299.68 79.4759 299.68 79.6861C299.68 79.8935 299.601 80.0724 299.442 80.223C299.286 80.3707 299.097 80.4446 298.875 80.4446ZM303.977 88.1321C303.343 88.1321 302.798 87.9886 302.341 87.7017C301.886 87.4119 301.537 87.0128 301.292 86.5043C301.048 85.9957 300.926 85.4134 300.926 84.7571C300.926 84.0923 301.051 83.5057 301.301 82.9972C301.551 82.4858 301.903 82.0866 302.358 81.7997C302.812 81.5128 303.348 81.3693 303.964 81.3693C304.461 81.3693 304.904 81.4616 305.294 81.6463C305.683 81.8281 305.997 82.0838 306.235 82.4134C306.477 82.7429 306.62 83.1278 306.666 83.5682H305.426C305.358 83.2614 305.201 82.9972 304.957 82.7756C304.716 82.554 304.392 82.4432 303.985 82.4432C303.63 82.4432 303.319 82.5369 303.052 82.7244C302.788 82.9091 302.582 83.1733 302.434 83.517C302.287 83.858 302.213 84.2614 302.213 84.7273C302.213 85.2045 302.285 85.6165 302.43 85.9631C302.575 86.3097 302.779 86.5781 303.044 86.7685C303.311 86.9588 303.625 87.054 303.985 87.054C304.227 87.054 304.446 87.0099 304.642 86.9219C304.841 86.831 305.007 86.7017 305.14 86.5341C305.277 86.3665 305.372 86.1648 305.426 85.929H306.666C306.62 86.3523 306.483 86.7301 306.252 87.0625C306.022 87.3949 305.714 87.6562 305.328 87.8466C304.944 88.0369 304.494 88.1321 303.977 88.1321ZM310.849 88.1321C310.205 88.1321 309.649 87.9943 309.183 87.7188C308.72 87.4403 308.362 87.0497 308.109 86.5469C307.859 86.0412 307.734 85.4489 307.734 84.7699C307.734 84.0994 307.859 83.5085 308.109 82.9972C308.362 82.4858 308.714 82.0866 309.166 81.7997C309.621 81.5128 310.152 81.3693 310.76 81.3693C311.129 81.3693 311.487 81.4304 311.834 81.5526C312.18 81.6747 312.491 81.8665 312.767 82.1278C313.043 82.3892 313.26 82.7287 313.419 83.1463C313.578 83.5611 313.658 84.0653 313.658 84.6591V85.1108H308.455V84.1562H312.409C312.409 83.821 312.341 83.5241 312.205 83.2656C312.068 83.0043 311.876 82.7983 311.629 82.6477C311.385 82.4972 311.098 82.4219 310.768 82.4219C310.411 82.4219 310.098 82.5099 309.831 82.6861C309.567 82.8594 309.362 83.0866 309.217 83.3679C309.075 83.6463 309.004 83.9489 309.004 84.2756V85.0213C309.004 85.4588 309.081 85.831 309.234 86.1378C309.391 86.4446 309.608 86.679 309.886 86.8409C310.165 87 310.49 87.0795 310.862 87.0795C311.104 87.0795 311.324 87.0455 311.523 86.9773C311.722 86.9062 311.893 86.8011 312.038 86.6619C312.183 86.5227 312.294 86.3509 312.371 86.1463L313.577 86.3636C313.48 86.7187 313.307 87.0298 313.057 87.2969C312.81 87.5611 312.499 87.767 312.124 87.9148C311.751 88.0597 311.327 88.1321 310.849 88.1321ZM317.522 88.1278C316.993 88.1278 316.522 87.9929 316.107 87.723C315.695 87.4503 315.371 87.0625 315.135 86.5597C314.902 86.054 314.786 85.4474 314.786 84.7401C314.786 84.0327 314.904 83.4276 315.14 82.9247C315.378 82.4219 315.705 82.0369 316.12 81.7699C316.534 81.5028 317.005 81.3693 317.53 81.3693C317.936 81.3693 318.263 81.4375 318.51 81.5739C318.76 81.7074 318.953 81.8636 319.09 82.0426C319.229 82.2216 319.337 82.3793 319.414 82.5156H319.49V79.2727H320.765V88H319.52V86.9815H319.414C319.337 87.1207 319.226 87.2798 319.081 87.4588C318.939 87.6378 318.743 87.794 318.493 87.9276C318.243 88.0611 317.919 88.1278 317.522 88.1278ZM317.803 87.0412C318.169 87.0412 318.479 86.9446 318.732 86.7514C318.988 86.5554 319.181 86.2841 319.311 85.9375C319.445 85.5909 319.512 85.1875 319.512 84.7273C319.512 84.2727 319.446 83.875 319.316 83.5341C319.185 83.1932 318.993 82.9276 318.74 82.7372C318.488 82.5469 318.175 82.4517 317.803 82.4517C317.419 82.4517 317.1 82.5511 316.844 82.75C316.588 82.9489 316.395 83.2202 316.265 83.5639C316.137 83.9077 316.073 84.2955 316.073 84.7273C316.073 85.1648 316.138 85.5582 316.269 85.9077C316.4 86.2571 316.593 86.5341 316.848 86.7386C317.107 86.9403 317.425 87.0412 317.803 87.0412Z" fill="#1D2939"/>
<path d="M433.651 79.2727V88H432.33V80.5938H432.278L430.19 81.9574V80.696L432.368 79.2727H433.651ZM438.892 88.1193C438.358 88.1193 437.878 88.017 437.452 87.8125C437.028 87.6051 436.69 87.321 436.438 86.9602C436.185 86.5994 436.05 86.1875 436.033 85.7244H437.311C437.342 86.0994 437.509 86.4077 437.81 86.6491C438.111 86.8906 438.472 87.0114 438.892 87.0114C439.227 87.0114 439.524 86.9347 439.783 86.7812C440.044 86.625 440.249 86.4105 440.396 86.1378C440.547 85.8651 440.622 85.554 440.622 85.2045C440.622 84.8494 440.545 84.5327 440.392 84.2543C440.239 83.9759 440.027 83.7571 439.757 83.598C439.49 83.4389 439.183 83.358 438.837 83.3551C438.572 83.3551 438.307 83.4006 438.04 83.4915C437.773 83.5824 437.557 83.7017 437.392 83.8494L436.186 83.6705L436.676 79.2727H441.474V80.402H437.771L437.494 82.8438H437.545C437.716 82.679 437.942 82.5412 438.223 82.4304C438.507 82.3196 438.811 82.2642 439.135 82.2642C439.666 82.2642 440.139 82.3906 440.554 82.6435C440.972 82.8963 441.3 83.2415 441.538 83.679C441.78 84.1136 441.899 84.6136 441.896 85.179C441.899 85.7443 441.771 86.2486 441.513 86.6918C441.257 87.1349 440.902 87.4844 440.447 87.7401C439.996 87.9929 439.477 88.1193 438.892 88.1193ZM448.008 86.3636V85.9034C448.008 85.5739 448.076 85.2727 448.213 85C448.352 84.7244 448.554 84.5043 448.818 84.3395C449.085 84.1719 449.407 84.0881 449.785 84.0881C450.172 84.0881 450.495 84.1705 450.757 84.3352C451.018 84.5 451.216 84.7202 451.349 84.9957C451.485 85.2713 451.554 85.5739 451.554 85.9034V86.3636C451.554 86.6932 451.485 86.9957 451.349 87.2713C451.213 87.544 451.012 87.7642 450.748 87.9318C450.487 88.0966 450.166 88.179 449.785 88.179C449.402 88.179 449.078 88.0966 448.814 87.9318C448.549 87.7642 448.349 87.544 448.213 87.2713C448.076 86.9957 448.008 86.6932 448.008 86.3636ZM449.001 85.9034V86.3636C449.001 86.608 449.059 86.8295 449.176 87.0284C449.292 87.2273 449.495 87.3267 449.785 87.3267C450.072 87.3267 450.272 87.2273 450.386 87.0284C450.5 86.8295 450.556 86.608 450.556 86.3636V85.9034C450.556 85.6591 450.501 85.4375 450.39 85.2386C450.282 85.0398 450.081 84.9403 449.785 84.9403C449.501 84.9403 449.299 85.0398 449.18 85.2386C449.061 85.4375 449.001 85.6591 449.001 85.9034ZM443.619 81.3693V80.9091C443.619 80.5795 443.687 80.277 443.824 80.0014C443.963 79.7259 444.164 79.5057 444.429 79.3409C444.696 79.1761 445.018 79.0938 445.396 79.0938C445.782 79.0938 446.106 79.1761 446.368 79.3409C446.629 79.5057 446.826 79.7259 446.96 80.0014C447.093 80.277 447.16 80.5795 447.16 80.9091V81.3693C447.16 81.6989 447.092 82.0014 446.956 82.277C446.822 82.5497 446.623 82.7699 446.359 82.9375C446.098 83.1023 445.777 83.1847 445.396 83.1847C445.01 83.1847 444.684 83.1023 444.42 82.9375C444.159 82.7699 443.96 82.5497 443.824 82.277C443.687 82.0014 443.619 81.6989 443.619 81.3693ZM444.616 80.9091V81.3693C444.616 81.6136 444.673 81.8352 444.787 82.0341C444.903 82.233 445.106 82.3324 445.396 82.3324C445.68 82.3324 445.879 82.233 445.993 82.0341C446.109 81.8352 446.167 81.6136 446.167 81.3693V80.9091C446.167 80.6648 446.112 80.4432 446.001 80.2443C445.89 80.0455 445.689 79.946 445.396 79.946C445.112 79.946 444.91 80.0455 444.791 80.2443C444.674 80.4432 444.616 80.6648 444.616 80.9091ZM444.024 88L450.024 79.2727H451.042L445.042 88H444.024Z" fill="#1D2939"/>
<line y1="145.5" x2="541" y2="145.5" stroke="#EAECF0"/>
<circle cx="129.5" cy="225" r="38" stroke="#D0D5DD" stroke-width="8"/>
<path d="M163.872 208.796C166.602 214.588 167.825 220.975 167.426 227.366C167.028 233.756 165.021 239.943 161.592 245.35C158.163 250.757 153.423 255.211 147.813 258.296C142.202 261.382 135.903 263 129.5 263" stroke="#0BA5EC" stroke-width="8" stroke-linecap="round"/>
<path d="M129.5 263C124.51 263 119.568 262.017 114.958 260.107C110.348 258.198 106.159 255.399 102.63 251.87C99.1013 248.341 96.3023 244.152 94.3926 239.542C92.4829 234.932 91.5 229.99 91.5 225C91.5 220.01 92.4829 215.068 94.3926 210.458C96.3023 205.848 99.1013 201.659 102.63 198.13C106.159 194.601 110.348 191.802 114.958 189.893C119.568 187.983 124.51 187 129.5 187" stroke="#1C2DD8" stroke-width="8" stroke-linecap="round"/>
<circle cx="218.5" cy="191" r="5" fill="#1C2DD8"/>
<path d="M230.459 195V186.273H231.776V190.065H236.126V186.273H237.447V195H236.126V191.195H231.776V195H230.459ZM241.168 195.145C240.753 195.145 240.378 195.068 240.043 194.915C239.707 194.759 239.442 194.533 239.246 194.237C239.053 193.942 238.956 193.58 238.956 193.151C238.956 192.781 239.027 192.477 239.169 192.239C239.311 192 239.503 191.811 239.744 191.672C239.986 191.533 240.256 191.428 240.554 191.357C240.852 191.286 241.156 191.232 241.466 191.195C241.858 191.149 242.176 191.112 242.42 191.084C242.665 191.053 242.842 191.003 242.953 190.935C243.064 190.866 243.119 190.756 243.119 190.602V190.572C243.119 190.2 243.014 189.912 242.804 189.707C242.597 189.503 242.287 189.401 241.875 189.401C241.446 189.401 241.108 189.496 240.861 189.686C240.616 189.874 240.447 190.082 240.354 190.312L239.156 190.04C239.298 189.642 239.506 189.321 239.778 189.077C240.054 188.83 240.371 188.651 240.729 188.54C241.087 188.426 241.463 188.369 241.858 188.369C242.119 188.369 242.396 188.401 242.689 188.463C242.984 188.523 243.26 188.634 243.516 188.795C243.774 188.957 243.986 189.189 244.151 189.49C244.315 189.788 244.398 190.176 244.398 190.653V195H243.153V194.105H243.102C243.02 194.27 242.896 194.432 242.732 194.591C242.567 194.75 242.355 194.882 242.097 194.987C241.838 195.092 241.528 195.145 241.168 195.145ZM241.445 194.122C241.797 194.122 242.098 194.053 242.348 193.913C242.601 193.774 242.793 193.592 242.923 193.368C243.057 193.141 243.124 192.898 243.124 192.639V191.795C243.078 191.841 242.99 191.884 242.859 191.923C242.732 191.96 242.585 191.993 242.42 192.021C242.256 192.047 242.095 192.071 241.939 192.094C241.783 192.114 241.652 192.131 241.547 192.145C241.3 192.176 241.074 192.229 240.869 192.303C240.668 192.376 240.506 192.483 240.384 192.622C240.264 192.759 240.205 192.94 240.205 193.168C240.205 193.483 240.321 193.722 240.554 193.884C240.787 194.043 241.084 194.122 241.445 194.122ZM246.095 195V188.455H247.326V189.494H247.395C247.514 189.142 247.724 188.865 248.025 188.663C248.329 188.459 248.673 188.357 249.056 188.357C249.136 188.357 249.23 188.359 249.338 188.365C249.449 188.371 249.535 188.378 249.598 188.386V189.605C249.547 189.591 249.456 189.575 249.325 189.558C249.194 189.538 249.064 189.528 248.933 189.528C248.632 189.528 248.363 189.592 248.127 189.72C247.895 189.845 247.71 190.02 247.574 190.244C247.437 190.466 247.369 190.719 247.369 191.003V195H246.095ZM252.916 195.128C252.388 195.128 251.916 194.993 251.501 194.723C251.089 194.45 250.766 194.062 250.53 193.56C250.297 193.054 250.18 192.447 250.18 191.74C250.18 191.033 250.298 190.428 250.534 189.925C250.773 189.422 251.099 189.037 251.514 188.77C251.929 188.503 252.399 188.369 252.925 188.369C253.331 188.369 253.658 188.438 253.905 188.574C254.155 188.707 254.348 188.864 254.484 189.043C254.624 189.222 254.732 189.379 254.808 189.516H254.885V186.273H256.159V195H254.915V193.982H254.808C254.732 194.121 254.621 194.28 254.476 194.459C254.334 194.638 254.138 194.794 253.888 194.928C253.638 195.061 253.314 195.128 252.916 195.128ZM253.197 194.041C253.564 194.041 253.874 193.945 254.126 193.751C254.382 193.555 254.575 193.284 254.706 192.938C254.839 192.591 254.906 192.187 254.906 191.727C254.906 191.273 254.841 190.875 254.71 190.534C254.58 190.193 254.388 189.928 254.135 189.737C253.882 189.547 253.57 189.452 253.197 189.452C252.814 189.452 252.494 189.551 252.239 189.75C251.983 189.949 251.79 190.22 251.659 190.564C251.531 190.908 251.467 191.295 251.467 191.727C251.467 192.165 251.533 192.558 251.663 192.908C251.794 193.257 251.987 193.534 252.243 193.739C252.501 193.94 252.82 194.041 253.197 194.041ZM268.504 189.111H267.175C267.124 188.827 267.028 188.577 266.889 188.361C266.75 188.145 266.58 187.962 266.378 187.811C266.176 187.661 265.95 187.547 265.7 187.47C265.453 187.393 265.19 187.355 264.912 187.355C264.409 187.355 263.959 187.482 263.561 187.734C263.166 187.987 262.854 188.358 262.624 188.847C262.396 189.335 262.283 189.932 262.283 190.636C262.283 191.347 262.396 191.946 262.624 192.435C262.854 192.923 263.168 193.293 263.565 193.543C263.963 193.793 264.411 193.918 264.908 193.918C265.183 193.918 265.445 193.881 265.692 193.807C265.942 193.73 266.168 193.618 266.369 193.47C266.571 193.322 266.741 193.142 266.881 192.929C267.023 192.713 267.121 192.466 267.175 192.188L268.504 192.192C268.433 192.621 268.295 193.016 268.091 193.376C267.889 193.734 267.629 194.044 267.311 194.305C266.996 194.564 266.635 194.764 266.229 194.906C265.822 195.048 265.379 195.119 264.899 195.119C264.143 195.119 263.47 194.94 262.879 194.582C262.288 194.222 261.822 193.706 261.482 193.036C261.143 192.365 260.974 191.565 260.974 190.636C260.974 189.705 261.145 188.905 261.486 188.237C261.827 187.567 262.293 187.053 262.884 186.695C263.474 186.334 264.146 186.153 264.899 186.153C265.362 186.153 265.794 186.22 266.195 186.354C266.598 186.484 266.96 186.678 267.281 186.933C267.602 187.186 267.868 187.496 268.078 187.862C268.288 188.226 268.43 188.642 268.504 189.111ZM271.252 191.114V195H269.978V186.273H271.235V189.52H271.316C271.469 189.168 271.703 188.888 272.019 188.68C272.334 188.473 272.746 188.369 273.255 188.369C273.703 188.369 274.096 188.462 274.431 188.646C274.769 188.831 275.03 189.107 275.215 189.473C275.402 189.837 275.496 190.291 275.496 190.837V195H274.222V190.99C274.222 190.51 274.098 190.138 273.851 189.874C273.604 189.607 273.26 189.473 272.82 189.473C272.519 189.473 272.249 189.537 272.01 189.665C271.775 189.793 271.588 189.98 271.452 190.227C271.319 190.472 271.252 190.767 271.252 191.114ZM279.101 195.145C278.686 195.145 278.311 195.068 277.976 194.915C277.641 194.759 277.375 194.533 277.179 194.237C276.986 193.942 276.89 193.58 276.89 193.151C276.89 192.781 276.961 192.477 277.103 192.239C277.245 192 277.436 191.811 277.678 191.672C277.919 191.533 278.189 191.428 278.488 191.357C278.786 191.286 279.09 191.232 279.4 191.195C279.792 191.149 280.11 191.112 280.354 191.084C280.598 191.053 280.776 191.003 280.887 190.935C280.998 190.866 281.053 190.756 281.053 190.602V190.572C281.053 190.2 280.948 189.912 280.738 189.707C280.53 189.503 280.221 189.401 279.809 189.401C279.38 189.401 279.042 189.496 278.794 189.686C278.55 189.874 278.381 190.082 278.287 190.312L277.09 190.04C277.232 189.642 277.439 189.321 277.712 189.077C277.988 188.83 278.304 188.651 278.662 188.54C279.02 188.426 279.397 188.369 279.792 188.369C280.053 188.369 280.33 188.401 280.623 188.463C280.918 188.523 281.194 188.634 281.449 188.795C281.708 188.957 281.919 189.189 282.084 189.49C282.249 189.788 282.331 190.176 282.331 190.653V195H281.087V194.105H281.036C280.953 194.27 280.83 194.432 280.665 194.591C280.5 194.75 280.289 194.882 280.03 194.987C279.772 195.092 279.462 195.145 279.101 195.145ZM279.378 194.122C279.73 194.122 280.032 194.053 280.282 193.913C280.534 193.774 280.726 193.592 280.857 193.368C280.99 193.141 281.057 192.898 281.057 192.639V191.795C281.012 191.841 280.924 191.884 280.793 191.923C280.665 191.96 280.519 191.993 280.354 192.021C280.189 192.047 280.029 192.071 279.873 192.094C279.716 192.114 279.586 192.131 279.48 192.145C279.233 192.176 279.007 192.229 278.803 192.303C278.601 192.376 278.439 192.483 278.317 192.622C278.198 192.759 278.138 192.94 278.138 193.168C278.138 193.483 278.255 193.722 278.488 193.884C278.721 194.043 279.017 194.122 279.378 194.122ZM284.028 195V188.455H285.26V189.494H285.328C285.447 189.142 285.658 188.865 285.959 188.663C286.263 188.459 286.607 188.357 286.99 188.357C287.07 188.357 287.163 188.359 287.271 188.365C287.382 188.371 287.469 188.378 287.531 188.386V189.605C287.48 189.591 287.389 189.575 287.259 189.558C287.128 189.538 286.997 189.528 286.866 189.528C286.565 189.528 286.297 189.592 286.061 189.72C285.828 189.845 285.643 190.02 285.507 190.244C285.371 190.466 285.303 190.719 285.303 191.003V195H284.028ZM291.144 197.591C290.624 197.591 290.176 197.523 289.801 197.386C289.429 197.25 289.125 197.07 288.89 196.845C288.654 196.621 288.478 196.375 288.361 196.108L289.456 195.656C289.533 195.781 289.635 195.913 289.763 196.053C289.894 196.195 290.07 196.315 290.292 196.415C290.516 196.514 290.804 196.564 291.157 196.564C291.64 196.564 292.039 196.446 292.354 196.21C292.669 195.977 292.827 195.605 292.827 195.094V193.807H292.746C292.669 193.946 292.559 194.101 292.414 194.271C292.272 194.442 292.076 194.589 291.826 194.714C291.576 194.839 291.25 194.902 290.85 194.902C290.333 194.902 289.867 194.781 289.452 194.54C289.04 194.295 288.713 193.936 288.472 193.462C288.233 192.984 288.114 192.398 288.114 191.702C288.114 191.006 288.232 190.409 288.468 189.912C288.706 189.415 289.033 189.034 289.448 188.77C289.863 188.503 290.333 188.369 290.858 188.369C291.265 188.369 291.593 188.438 291.843 188.574C292.093 188.707 292.287 188.864 292.426 189.043C292.569 189.222 292.678 189.379 292.755 189.516H292.848V188.455H294.097V195.145C294.097 195.707 293.966 196.169 293.705 196.53C293.444 196.891 293.09 197.158 292.644 197.331C292.201 197.504 291.701 197.591 291.144 197.591ZM291.131 193.845C291.498 193.845 291.807 193.76 292.06 193.589C292.316 193.416 292.509 193.169 292.64 192.848C292.773 192.524 292.84 192.136 292.84 191.685C292.84 191.244 292.775 190.857 292.644 190.521C292.513 190.186 292.321 189.925 292.069 189.737C291.816 189.547 291.503 189.452 291.131 189.452C290.748 189.452 290.428 189.551 290.172 189.75C289.917 189.946 289.723 190.213 289.593 190.551C289.465 190.889 289.401 191.267 289.401 191.685C289.401 192.114 289.466 192.49 289.597 192.814C289.728 193.138 289.921 193.391 290.176 193.572C290.435 193.754 290.753 193.845 291.131 193.845ZM298.627 195.132C297.982 195.132 297.426 194.994 296.961 194.719C296.498 194.44 296.14 194.05 295.887 193.547C295.637 193.041 295.512 192.449 295.512 191.77C295.512 191.099 295.637 190.509 295.887 189.997C296.14 189.486 296.492 189.087 296.944 188.8C297.398 188.513 297.929 188.369 298.537 188.369C298.907 188.369 299.265 188.43 299.611 188.553C299.958 188.675 300.269 188.866 300.544 189.128C300.82 189.389 301.037 189.729 301.196 190.146C301.355 190.561 301.435 191.065 301.435 191.659V192.111H296.232V191.156H300.186C300.186 190.821 300.118 190.524 299.982 190.266C299.846 190.004 299.654 189.798 299.407 189.648C299.162 189.497 298.875 189.422 298.546 189.422C298.188 189.422 297.875 189.51 297.608 189.686C297.344 189.859 297.14 190.087 296.995 190.368C296.853 190.646 296.782 190.949 296.782 191.276V192.021C296.782 192.459 296.858 192.831 297.012 193.138C297.168 193.445 297.385 193.679 297.664 193.841C297.942 194 298.267 194.08 298.64 194.08C298.881 194.08 299.101 194.045 299.3 193.977C299.499 193.906 299.671 193.801 299.816 193.662C299.961 193.523 300.071 193.351 300.148 193.146L301.354 193.364C301.257 193.719 301.084 194.03 300.834 194.297C300.587 194.561 300.276 194.767 299.901 194.915C299.529 195.06 299.104 195.132 298.627 195.132Z" fill="#1D2939"/>
<path d="M431.22 195.119C430.686 195.119 430.206 195.017 429.78 194.812C429.357 194.605 429.018 194.321 428.766 193.96C428.513 193.599 428.378 193.188 428.361 192.724H429.639C429.67 193.099 429.837 193.408 430.138 193.649C430.439 193.891 430.8 194.011 431.22 194.011C431.555 194.011 431.852 193.935 432.111 193.781C432.372 193.625 432.577 193.411 432.724 193.138C432.875 192.865 432.95 192.554 432.95 192.205C432.95 191.849 432.874 191.533 432.72 191.254C432.567 190.976 432.355 190.757 432.085 190.598C431.818 190.439 431.511 190.358 431.165 190.355C430.901 190.355 430.635 190.401 430.368 190.491C430.101 190.582 429.885 190.702 429.72 190.849L428.514 190.67L429.004 186.273H433.803V187.402H430.099L429.822 189.844H429.874C430.044 189.679 430.27 189.541 430.551 189.43C430.835 189.32 431.139 189.264 431.463 189.264C431.994 189.264 432.467 189.391 432.882 189.643C433.3 189.896 433.628 190.241 433.866 190.679C434.108 191.114 434.227 191.614 434.224 192.179C434.227 192.744 434.099 193.249 433.841 193.692C433.585 194.135 433.23 194.484 432.776 194.74C432.324 194.993 431.805 195.119 431.22 195.119ZM438.819 195.145C438.146 195.142 437.571 194.964 437.093 194.612C436.616 194.26 436.251 193.747 435.998 193.074C435.745 192.401 435.619 191.589 435.619 190.641C435.619 189.695 435.745 188.886 435.998 188.216C436.254 187.545 436.62 187.034 437.098 186.682C437.578 186.33 438.152 186.153 438.819 186.153C439.487 186.153 440.059 186.331 440.537 186.686C441.014 187.038 441.379 187.55 441.632 188.22C441.887 188.888 442.015 189.695 442.015 190.641C442.015 191.592 441.889 192.405 441.636 193.078C441.383 193.749 441.018 194.261 440.541 194.616C440.064 194.969 439.49 195.145 438.819 195.145ZM438.819 194.007C439.41 194.007 439.872 193.719 440.204 193.142C440.539 192.565 440.707 191.732 440.707 190.641C440.707 189.916 440.63 189.304 440.477 188.804C440.326 188.301 440.109 187.92 439.825 187.662C439.544 187.401 439.208 187.27 438.819 187.27C438.231 187.27 437.77 187.56 437.434 188.139C437.099 188.719 436.93 189.553 436.927 190.641C436.927 191.368 437.002 191.983 437.153 192.486C437.306 192.986 437.524 193.365 437.805 193.624C438.086 193.879 438.424 194.007 438.819 194.007ZM448.082 193.364V192.903C448.082 192.574 448.151 192.273 448.287 192C448.426 191.724 448.628 191.504 448.892 191.339C449.159 191.172 449.482 191.088 449.859 191.088C450.246 191.088 450.57 191.17 450.831 191.335C451.092 191.5 451.29 191.72 451.423 191.996C451.56 192.271 451.628 192.574 451.628 192.903V193.364C451.628 193.693 451.56 193.996 451.423 194.271C451.287 194.544 451.087 194.764 450.822 194.932C450.561 195.097 450.24 195.179 449.859 195.179C449.476 195.179 449.152 195.097 448.888 194.932C448.624 194.764 448.423 194.544 448.287 194.271C448.151 193.996 448.082 193.693 448.082 193.364ZM449.075 192.903V193.364C449.075 193.608 449.134 193.83 449.25 194.028C449.366 194.227 449.57 194.327 449.859 194.327C450.146 194.327 450.347 194.227 450.46 194.028C450.574 193.83 450.631 193.608 450.631 193.364V192.903C450.631 192.659 450.575 192.437 450.464 192.239C450.357 192.04 450.155 191.94 449.859 191.94C449.575 191.94 449.374 192.04 449.254 192.239C449.135 192.437 449.075 192.659 449.075 192.903ZM443.693 188.369V187.909C443.693 187.58 443.761 187.277 443.898 187.001C444.037 186.726 444.239 186.506 444.503 186.341C444.77 186.176 445.092 186.094 445.47 186.094C445.857 186.094 446.18 186.176 446.442 186.341C446.703 186.506 446.901 186.726 447.034 187.001C447.168 187.277 447.234 187.58 447.234 187.909V188.369C447.234 188.699 447.166 189.001 447.03 189.277C446.896 189.55 446.697 189.77 446.433 189.938C446.172 190.102 445.851 190.185 445.47 190.185C445.084 190.185 444.759 190.102 444.494 189.938C444.233 189.77 444.034 189.55 443.898 189.277C443.761 189.001 443.693 188.699 443.693 188.369ZM444.69 187.909V188.369C444.69 188.614 444.747 188.835 444.861 189.034C444.977 189.233 445.18 189.332 445.47 189.332C445.754 189.332 445.953 189.233 446.067 189.034C446.183 188.835 446.241 188.614 446.241 188.369V187.909C446.241 187.665 446.186 187.443 446.075 187.244C445.964 187.045 445.763 186.946 445.47 186.946C445.186 186.946 444.984 187.045 444.865 187.244C444.749 187.443 444.69 187.665 444.69 187.909ZM444.098 195L450.098 186.273H451.116L445.116 195H444.098Z" fill="#1D2939"/>
<path d="M453.5 207H213.5V209H453.5V207Z" fill="#EAECF0" mask="url(#path-15-inside-2_468_2749)"/>
<circle cx="218.5" cy="225" r="5" fill="#0BA5EC"/>
<path d="M232.168 229L229.747 220.273H231.132L232.832 227.031H232.913L234.682 220.273H236.054L237.822 227.036H237.903L239.599 220.273H240.989L238.564 229H237.239L235.402 222.463H235.334L233.497 229H232.168ZM243.347 229.145C242.933 229.145 242.558 229.068 242.222 228.915C241.887 228.759 241.621 228.533 241.425 228.237C241.232 227.942 241.136 227.58 241.136 227.151C241.136 226.781 241.207 226.477 241.349 226.239C241.491 226 241.683 225.811 241.924 225.672C242.165 225.533 242.435 225.428 242.734 225.357C243.032 225.286 243.336 225.232 243.646 225.195C244.038 225.149 244.356 225.112 244.6 225.084C244.844 225.053 245.022 225.003 245.133 224.935C245.244 224.866 245.299 224.756 245.299 224.602V224.572C245.299 224.2 245.194 223.912 244.984 223.707C244.776 223.503 244.467 223.401 244.055 223.401C243.626 223.401 243.288 223.496 243.04 223.686C242.796 223.874 242.627 224.082 242.533 224.312L241.336 224.04C241.478 223.642 241.685 223.321 241.958 223.077C242.234 222.83 242.55 222.651 242.908 222.54C243.266 222.426 243.643 222.369 244.038 222.369C244.299 222.369 244.576 222.401 244.869 222.463C245.164 222.523 245.44 222.634 245.695 222.795C245.954 222.957 246.165 223.189 246.33 223.49C246.495 223.788 246.577 224.176 246.577 224.653V229H245.333V228.105H245.282C245.2 228.27 245.076 228.432 244.911 228.591C244.746 228.75 244.535 228.882 244.276 228.987C244.018 229.092 243.708 229.145 243.347 229.145ZM243.624 228.122C243.977 228.122 244.278 228.053 244.528 227.913C244.781 227.774 244.972 227.592 245.103 227.368C245.237 227.141 245.303 226.898 245.303 226.639V225.795C245.258 225.841 245.17 225.884 245.039 225.923C244.911 225.96 244.765 225.993 244.6 226.021C244.435 226.047 244.275 226.071 244.119 226.094C243.962 226.114 243.832 226.131 243.727 226.145C243.479 226.176 243.254 226.229 243.049 226.303C242.847 226.376 242.685 226.483 242.563 226.622C242.444 226.759 242.384 226.94 242.384 227.168C242.384 227.483 242.501 227.722 242.734 227.884C242.967 228.043 243.263 228.122 243.624 228.122ZM248.275 229V222.455H249.549V229H248.275ZM248.918 221.445C248.696 221.445 248.506 221.371 248.347 221.223C248.191 221.072 248.113 220.893 248.113 220.686C248.113 220.476 248.191 220.297 248.347 220.149C248.506 219.999 248.696 219.923 248.918 219.923C249.14 219.923 249.328 219.999 249.485 220.149C249.644 220.297 249.723 220.476 249.723 220.686C249.723 220.893 249.644 221.072 249.485 221.223C249.328 221.371 249.14 221.445 248.918 221.445ZM256.862 222.455L254.489 229H253.125L250.747 222.455H252.115L253.773 227.491H253.841L255.494 222.455H256.862ZM260.658 229.132C260.013 229.132 259.458 228.994 258.992 228.719C258.529 228.44 258.171 228.05 257.918 227.547C257.668 227.041 257.543 226.449 257.543 225.77C257.543 225.099 257.668 224.509 257.918 223.997C258.171 223.486 258.523 223.087 258.975 222.8C259.429 222.513 259.961 222.369 260.569 222.369C260.938 222.369 261.296 222.43 261.642 222.553C261.989 222.675 262.3 222.866 262.576 223.128C262.851 223.389 263.069 223.729 263.228 224.146C263.387 224.561 263.466 225.065 263.466 225.659V226.111H258.263V225.156H262.218C262.218 224.821 262.15 224.524 262.013 224.266C261.877 224.004 261.685 223.798 261.438 223.648C261.194 223.497 260.907 223.422 260.577 223.422C260.219 223.422 259.907 223.51 259.64 223.686C259.375 223.859 259.171 224.087 259.026 224.368C258.884 224.646 258.813 224.949 258.813 225.276V226.021C258.813 226.459 258.89 226.831 259.043 227.138C259.199 227.445 259.417 227.679 259.695 227.841C259.973 228 260.299 228.08 260.671 228.08C260.912 228.08 261.132 228.045 261.331 227.977C261.53 227.906 261.702 227.801 261.847 227.662C261.992 227.523 262.103 227.351 262.179 227.146L263.385 227.364C263.289 227.719 263.115 228.03 262.865 228.297C262.618 228.561 262.307 228.767 261.932 228.915C261.56 229.06 261.135 229.132 260.658 229.132ZM267.33 229.128C266.802 229.128 266.33 228.993 265.915 228.723C265.504 228.45 265.18 228.062 264.944 227.56C264.711 227.054 264.594 226.447 264.594 225.74C264.594 225.033 264.712 224.428 264.948 223.925C265.187 223.422 265.513 223.037 265.928 222.77C266.343 222.503 266.813 222.369 267.339 222.369C267.745 222.369 268.072 222.438 268.319 222.574C268.569 222.707 268.762 222.864 268.898 223.043C269.038 223.222 269.146 223.379 269.222 223.516H269.299V220.273H270.573V229H269.329V227.982H269.222C269.146 228.121 269.035 228.28 268.89 228.459C268.748 228.638 268.552 228.794 268.302 228.928C268.052 229.061 267.728 229.128 267.33 229.128ZM267.612 228.041C267.978 228.041 268.288 227.945 268.54 227.751C268.796 227.555 268.989 227.284 269.12 226.938C269.254 226.591 269.32 226.187 269.32 225.727C269.32 225.273 269.255 224.875 269.124 224.534C268.994 224.193 268.802 223.928 268.549 223.737C268.296 223.547 267.984 223.452 267.612 223.452C267.228 223.452 266.908 223.551 266.653 223.75C266.397 223.949 266.204 224.22 266.073 224.564C265.945 224.908 265.881 225.295 265.881 225.727C265.881 226.165 265.947 226.558 266.077 226.908C266.208 227.257 266.401 227.534 266.657 227.739C266.915 227.94 267.234 228.041 267.612 228.041Z" fill="#1D2939"/>
<path d="M431.378 229.119C430.793 229.119 430.27 229.018 429.81 228.817C429.352 228.615 428.99 228.335 428.723 227.977C428.459 227.616 428.317 227.199 428.297 226.724H429.635C429.652 226.983 429.739 227.207 429.895 227.398C430.054 227.585 430.261 227.73 430.517 227.832C430.773 227.935 431.057 227.986 431.369 227.986C431.713 227.986 432.017 227.926 432.281 227.807C432.548 227.687 432.757 227.521 432.908 227.308C433.058 227.092 433.134 226.844 433.134 226.562C433.134 226.27 433.058 226.013 432.908 225.791C432.76 225.567 432.543 225.391 432.256 225.263C431.972 225.135 431.628 225.071 431.224 225.071H430.487V223.997H431.224C431.548 223.997 431.832 223.939 432.077 223.822C432.324 223.706 432.517 223.544 432.656 223.337C432.795 223.126 432.865 222.881 432.865 222.599C432.865 222.33 432.804 222.095 432.682 221.896C432.563 221.695 432.392 221.537 432.17 221.423C431.952 221.31 431.693 221.253 431.395 221.253C431.111 221.253 430.845 221.305 430.598 221.411C430.354 221.513 430.155 221.661 430.001 221.854C429.848 222.044 429.766 222.273 429.754 222.54H428.48C428.494 222.068 428.634 221.653 428.898 221.295C429.165 220.937 429.517 220.658 429.955 220.456C430.392 220.254 430.878 220.153 431.412 220.153C431.972 220.153 432.455 220.263 432.861 220.482C433.27 220.697 433.585 220.986 433.807 221.347C434.031 221.707 434.142 222.102 434.139 222.531C434.142 223.02 434.006 223.435 433.73 223.776C433.457 224.116 433.094 224.345 432.639 224.462V224.53C433.219 224.618 433.668 224.848 433.986 225.22C434.307 225.592 434.466 226.054 434.463 226.605C434.466 227.085 434.332 227.516 434.062 227.896C433.795 228.277 433.43 228.577 432.967 228.795C432.504 229.011 431.974 229.119 431.378 229.119ZM438.955 229.119C438.42 229.119 437.94 229.017 437.514 228.812C437.091 228.605 436.753 228.321 436.5 227.96C436.247 227.599 436.112 227.188 436.095 226.724H437.374C437.405 227.099 437.571 227.408 437.872 227.649C438.173 227.891 438.534 228.011 438.955 228.011C439.29 228.011 439.587 227.935 439.845 227.781C440.107 227.625 440.311 227.411 440.459 227.138C440.609 226.865 440.685 226.554 440.685 226.205C440.685 225.849 440.608 225.533 440.455 225.254C440.301 224.976 440.089 224.757 439.82 224.598C439.553 224.439 439.246 224.358 438.899 224.355C438.635 224.355 438.369 224.401 438.102 224.491C437.835 224.582 437.619 224.702 437.455 224.849L436.249 224.67L436.739 220.273H441.537V221.402H437.834L437.557 223.844H437.608C437.778 223.679 438.004 223.541 438.286 223.43C438.57 223.32 438.874 223.264 439.197 223.264C439.729 223.264 440.202 223.391 440.616 223.643C441.034 223.896 441.362 224.241 441.601 224.679C441.842 225.114 441.962 225.614 441.959 226.179C441.962 226.744 441.834 227.249 441.575 227.692C441.32 228.135 440.964 228.484 440.51 228.74C440.058 228.993 439.54 229.119 438.955 229.119ZM448.071 227.364V226.903C448.071 226.574 448.139 226.273 448.275 226C448.414 225.724 448.616 225.504 448.88 225.339C449.147 225.172 449.47 225.088 449.848 225.088C450.234 225.088 450.558 225.17 450.819 225.335C451.081 225.5 451.278 225.72 451.412 225.996C451.548 226.271 451.616 226.574 451.616 226.903V227.364C451.616 227.693 451.548 227.996 451.412 228.271C451.275 228.544 451.075 228.764 450.811 228.932C450.549 229.097 450.228 229.179 449.848 229.179C449.464 229.179 449.14 229.097 448.876 228.932C448.612 228.764 448.412 228.544 448.275 228.271C448.139 227.996 448.071 227.693 448.071 227.364ZM449.064 226.903V227.364C449.064 227.608 449.122 227.83 449.238 228.028C449.355 228.227 449.558 228.327 449.848 228.327C450.135 228.327 450.335 228.227 450.449 228.028C450.562 227.83 450.619 227.608 450.619 227.364V226.903C450.619 226.659 450.564 226.437 450.453 226.239C450.345 226.04 450.143 225.94 449.848 225.94C449.564 225.94 449.362 226.04 449.243 226.239C449.123 226.437 449.064 226.659 449.064 226.903ZM443.681 222.369V221.909C443.681 221.58 443.75 221.277 443.886 221.001C444.025 220.726 444.227 220.506 444.491 220.341C444.758 220.176 445.081 220.094 445.458 220.094C445.845 220.094 446.169 220.176 446.43 220.341C446.691 220.506 446.889 220.726 447.022 221.001C447.156 221.277 447.223 221.58 447.223 221.909V222.369C447.223 222.699 447.154 223.001 447.018 223.277C446.885 223.55 446.686 223.77 446.422 223.938C446.16 224.102 445.839 224.185 445.458 224.185C445.072 224.185 444.747 224.102 444.483 223.938C444.221 223.77 444.022 223.55 443.886 223.277C443.75 223.001 443.681 222.699 443.681 222.369ZM444.679 221.909V222.369C444.679 222.614 444.735 222.835 444.849 223.034C444.966 223.233 445.169 223.332 445.458 223.332C445.743 223.332 445.941 223.233 446.055 223.034C446.172 222.835 446.23 222.614 446.23 222.369V221.909C446.23 221.665 446.174 221.443 446.064 221.244C445.953 221.045 445.751 220.946 445.458 220.946C445.174 220.946 444.973 221.045 444.853 221.244C444.737 221.443 444.679 221.665 444.679 221.909ZM444.086 229L450.086 220.273H451.105L445.105 229H444.086Z" fill="#1D2939"/>
<path d="M453.5 241H213.5V243H453.5V241Z" fill="#EAECF0" mask="url(#path-20-inside-3_468_2749)"/>
<circle cx="218.5" cy="259" r="5" fill="#D0D5DD"/>
<path d="M230.459 263V254.273H233.57C234.249 254.273 234.811 254.396 235.257 254.643C235.703 254.891 236.037 255.229 236.259 255.658C236.48 256.084 236.591 256.564 236.591 257.098C236.591 257.635 236.479 258.118 236.254 258.547C236.033 258.973 235.697 259.311 235.249 259.561C234.803 259.808 234.241 259.932 233.565 259.932H231.426V258.815H233.446C233.875 258.815 234.223 258.741 234.49 258.594C234.757 258.443 234.953 258.239 235.078 257.98C235.203 257.722 235.266 257.428 235.266 257.098C235.266 256.768 235.203 256.476 235.078 256.22C234.953 255.964 234.756 255.764 234.486 255.619C234.219 255.474 233.866 255.402 233.429 255.402H231.776V263H230.459ZM239.879 263.145C239.464 263.145 239.089 263.068 238.754 262.915C238.418 262.759 238.153 262.533 237.957 262.237C237.763 261.942 237.667 261.58 237.667 261.151C237.667 260.781 237.738 260.477 237.88 260.239C238.022 260 238.214 259.811 238.455 259.672C238.697 259.533 238.967 259.428 239.265 259.357C239.563 259.286 239.867 259.232 240.177 259.195C240.569 259.149 240.887 259.112 241.131 259.084C241.376 259.053 241.553 259.003 241.664 258.935C241.775 258.866 241.83 258.756 241.83 258.602V258.572C241.83 258.2 241.725 257.912 241.515 257.707C241.308 257.503 240.998 257.401 240.586 257.401C240.157 257.401 239.819 257.496 239.572 257.686C239.327 257.874 239.158 258.082 239.065 258.312L237.867 258.04C238.009 257.642 238.217 257.321 238.489 257.077C238.765 256.83 239.082 256.651 239.44 256.54C239.798 256.426 240.174 256.369 240.569 256.369C240.83 256.369 241.107 256.401 241.4 256.463C241.695 256.523 241.971 256.634 242.227 256.795C242.485 256.957 242.697 257.189 242.862 257.49C243.026 257.788 243.109 258.176 243.109 258.653V263H241.864V262.105H241.813C241.731 262.27 241.607 262.432 241.442 262.591C241.278 262.75 241.066 262.882 240.808 262.987C240.549 263.092 240.239 263.145 239.879 263.145ZM240.156 262.122C240.508 262.122 240.809 262.053 241.059 261.913C241.312 261.774 241.504 261.592 241.634 261.368C241.768 261.141 241.835 260.898 241.835 260.639V259.795C241.789 259.841 241.701 259.884 241.57 259.923C241.442 259.96 241.296 259.993 241.131 260.021C240.967 260.047 240.806 260.071 240.65 260.094C240.494 260.114 240.363 260.131 240.258 260.145C240.011 260.176 239.785 260.229 239.58 260.303C239.379 260.376 239.217 260.483 239.094 260.622C238.975 260.759 238.915 260.94 238.915 261.168C238.915 261.483 239.032 261.722 239.265 261.884C239.498 262.043 239.795 262.122 240.156 262.122ZM244.806 263V256.455H246.08V263H244.806ZM245.449 255.445C245.228 255.445 245.037 255.371 244.878 255.223C244.722 255.072 244.644 254.893 244.644 254.686C244.644 254.476 244.722 254.297 244.878 254.149C245.037 253.999 245.228 253.923 245.449 253.923C245.671 253.923 245.86 253.999 246.016 254.149C246.175 254.297 246.255 254.476 246.255 254.686C246.255 254.893 246.175 255.072 246.016 255.223C245.86 255.371 245.671 255.445 245.449 255.445ZM250.244 263.128C249.716 263.128 249.244 262.993 248.83 262.723C248.418 262.45 248.094 262.062 247.858 261.56C247.625 261.054 247.509 260.447 247.509 259.74C247.509 259.033 247.626 258.428 247.862 257.925C248.101 257.422 248.428 257.037 248.842 256.77C249.257 256.503 249.727 256.369 250.253 256.369C250.659 256.369 250.986 256.438 251.233 256.574C251.483 256.707 251.676 256.864 251.812 257.043C251.952 257.222 252.06 257.379 252.136 257.516H252.213V254.273H253.487V263H252.243V261.982H252.136C252.06 262.121 251.949 262.28 251.804 262.459C251.662 262.638 251.466 262.794 251.216 262.928C250.966 263.061 250.642 263.128 250.244 263.128ZM250.526 262.041C250.892 262.041 251.202 261.945 251.455 261.751C251.71 261.555 251.903 261.284 252.034 260.938C252.168 260.591 252.234 260.187 252.234 259.727C252.234 259.273 252.169 258.875 252.038 258.534C251.908 258.193 251.716 257.928 251.463 257.737C251.21 257.547 250.898 257.452 250.526 257.452C250.142 257.452 249.822 257.551 249.567 257.75C249.311 257.949 249.118 258.22 248.987 258.564C248.859 258.908 248.795 259.295 248.795 259.727C248.795 260.165 248.861 260.558 248.991 260.908C249.122 261.257 249.315 261.534 249.571 261.739C249.83 261.94 250.148 262.041 250.526 262.041ZM258.584 263V254.273H259.858V257.516H259.935C260.009 257.379 260.115 257.222 260.254 257.043C260.393 256.864 260.587 256.707 260.834 256.574C261.081 256.438 261.408 256.369 261.814 256.369C262.342 256.369 262.814 256.503 263.229 256.77C263.643 257.037 263.969 257.422 264.205 257.925C264.443 258.428 264.562 259.033 264.562 259.74C264.562 260.447 264.445 261.054 264.209 261.56C263.973 262.062 263.649 262.45 263.237 262.723C262.825 262.993 262.355 263.128 261.827 263.128C261.429 263.128 261.104 263.061 260.851 262.928C260.601 262.794 260.405 262.638 260.263 262.459C260.121 262.28 260.011 262.121 259.935 261.982H259.828V263H258.584ZM259.832 259.727C259.832 260.187 259.899 260.591 260.033 260.938C260.166 261.284 260.359 261.555 260.612 261.751C260.865 261.945 261.175 262.041 261.541 262.041C261.922 262.041 262.24 261.94 262.496 261.739C262.751 261.534 262.945 261.257 263.075 260.908C263.209 260.558 263.276 260.165 263.276 259.727C263.276 259.295 263.21 258.908 263.08 258.564C262.952 258.22 262.759 257.949 262.5 257.75C262.244 257.551 261.925 257.452 261.541 257.452C261.172 257.452 260.859 257.547 260.604 257.737C260.351 257.928 260.159 258.193 260.028 258.534C259.898 258.875 259.832 259.273 259.832 259.727ZM266.576 265.455C266.386 265.455 266.212 265.439 266.056 265.408C265.9 265.379 265.783 265.348 265.707 265.314L266.013 264.27C266.246 264.332 266.454 264.359 266.636 264.351C266.817 264.342 266.978 264.274 267.117 264.146C267.259 264.018 267.384 263.81 267.492 263.52L267.65 263.085L265.255 256.455H266.619L268.276 261.534H268.344L270.002 256.455H271.37L268.673 263.874C268.548 264.214 268.388 264.503 268.195 264.739C268.002 264.977 267.772 265.156 267.505 265.276C267.238 265.395 266.928 265.455 266.576 265.455ZM275.846 263V254.273H279.042C279.661 254.273 280.174 254.375 280.58 254.58C280.986 254.781 281.29 255.055 281.492 255.402C281.694 255.746 281.794 256.134 281.794 256.565C281.794 256.929 281.728 257.236 281.594 257.486C281.461 257.733 281.282 257.932 281.057 258.082C280.836 258.23 280.591 258.338 280.324 258.406V258.491C280.614 258.506 280.897 258.599 281.172 258.773C281.451 258.943 281.681 259.186 281.863 259.501C282.044 259.817 282.135 260.2 282.135 260.652C282.135 261.098 282.03 261.499 281.82 261.854C281.613 262.206 281.292 262.486 280.857 262.693C280.422 262.898 279.867 263 279.191 263H275.846ZM277.162 261.871H279.063C279.694 261.871 280.145 261.749 280.418 261.504C280.691 261.26 280.827 260.955 280.827 260.588C280.827 260.312 280.757 260.06 280.618 259.83C280.479 259.599 280.28 259.416 280.022 259.28C279.766 259.143 279.462 259.075 279.11 259.075H277.162V261.871ZM277.162 258.048H278.926C279.222 258.048 279.488 257.991 279.723 257.878C279.962 257.764 280.151 257.605 280.29 257.401C280.432 257.193 280.503 256.949 280.503 256.668C280.503 256.307 280.377 256.004 280.124 255.76C279.871 255.516 279.483 255.393 278.961 255.393H277.162V258.048ZM285.5 263.145C285.085 263.145 284.71 263.068 284.375 262.915C284.039 262.759 283.774 262.533 283.578 262.237C283.385 261.942 283.288 261.58 283.288 261.151C283.288 260.781 283.359 260.477 283.501 260.239C283.643 260 283.835 259.811 284.076 259.672C284.318 259.533 284.588 259.428 284.886 259.357C285.184 259.286 285.488 259.232 285.798 259.195C286.19 259.149 286.508 259.112 286.752 259.084C286.997 259.053 287.174 259.003 287.285 258.935C287.396 258.866 287.451 258.756 287.451 258.602V258.572C287.451 258.2 287.346 257.912 287.136 257.707C286.929 257.503 286.619 257.401 286.207 257.401C285.778 257.401 285.44 257.496 285.193 257.686C284.949 257.874 284.779 258.082 284.686 258.312L283.488 258.04C283.63 257.642 283.838 257.321 284.11 257.077C284.386 256.83 284.703 256.651 285.061 256.54C285.419 256.426 285.795 256.369 286.19 256.369C286.451 256.369 286.728 256.401 287.021 256.463C287.316 256.523 287.592 256.634 287.848 256.795C288.106 256.957 288.318 257.189 288.483 257.49C288.647 257.788 288.73 258.176 288.73 258.653V263H287.485V262.105H287.434C287.352 262.27 287.228 262.432 287.064 262.591C286.899 262.75 286.687 262.882 286.429 262.987C286.17 263.092 285.86 263.145 285.5 263.145ZM285.777 262.122C286.129 262.122 286.43 262.053 286.68 261.913C286.933 261.774 287.125 261.592 287.255 261.368C287.389 261.141 287.456 260.898 287.456 260.639V259.795C287.41 259.841 287.322 259.884 287.191 259.923C287.064 259.96 286.917 259.993 286.752 260.021C286.588 260.047 286.427 260.071 286.271 260.094C286.115 260.114 285.984 260.131 285.879 260.145C285.632 260.176 285.406 260.229 285.201 260.303C285 260.376 284.838 260.483 284.716 260.622C284.596 260.759 284.537 260.94 284.537 261.168C284.537 261.483 284.653 261.722 284.886 261.884C285.119 262.043 285.416 262.122 285.777 262.122ZM291.701 254.273V263H290.427V254.273H291.701ZM295.32 263.145C294.905 263.145 294.53 263.068 294.195 262.915C293.86 262.759 293.594 262.533 293.398 262.237C293.205 261.942 293.108 261.58 293.108 261.151C293.108 260.781 293.179 260.477 293.321 260.239C293.463 260 293.655 259.811 293.897 259.672C294.138 259.533 294.408 259.428 294.706 259.357C295.005 259.286 295.309 259.232 295.618 259.195C296.01 259.149 296.328 259.112 296.573 259.084C296.817 259.053 296.995 259.003 297.105 258.935C297.216 258.866 297.272 258.756 297.272 258.602V258.572C297.272 258.2 297.167 257.912 296.956 257.707C296.749 257.503 296.439 257.401 296.027 257.401C295.598 257.401 295.26 257.496 295.013 257.686C294.769 257.874 294.6 258.082 294.506 258.312L293.309 258.04C293.451 257.642 293.658 257.321 293.931 257.077C294.206 256.83 294.523 256.651 294.881 256.54C295.239 256.426 295.615 256.369 296.01 256.369C296.272 256.369 296.549 256.401 296.841 256.463C297.137 256.523 297.412 256.634 297.668 256.795C297.926 256.957 298.138 257.189 298.303 257.49C298.468 257.788 298.55 258.176 298.55 258.653V263H297.306V262.105H297.255C297.172 262.27 297.049 262.432 296.884 262.591C296.719 262.75 296.507 262.882 296.249 262.987C295.99 263.092 295.681 263.145 295.32 263.145ZM295.597 262.122C295.949 262.122 296.25 262.053 296.5 261.913C296.753 261.774 296.945 261.592 297.076 261.368C297.209 261.141 297.276 260.898 297.276 260.639V259.795C297.23 259.841 297.142 259.884 297.012 259.923C296.884 259.96 296.738 259.993 296.573 260.021C296.408 260.047 296.248 260.071 296.091 260.094C295.935 260.114 295.804 260.131 295.699 260.145C295.452 260.176 295.226 260.229 295.022 260.303C294.82 260.376 294.658 260.483 294.536 260.622C294.417 260.759 294.357 260.94 294.357 261.168C294.357 261.483 294.473 261.722 294.706 261.884C294.939 262.043 295.236 262.122 295.597 262.122ZM301.521 259.114V263H300.247V256.455H301.47V257.52H301.551C301.702 257.173 301.938 256.895 302.259 256.685C302.582 256.474 302.99 256.369 303.482 256.369C303.928 256.369 304.318 256.463 304.653 256.651C304.989 256.835 305.249 257.111 305.433 257.477C305.618 257.844 305.71 258.297 305.71 258.837V263H304.436V258.99C304.436 258.516 304.313 258.145 304.065 257.878C303.818 257.608 303.479 257.473 303.047 257.473C302.751 257.473 302.489 257.537 302.259 257.665C302.031 257.793 301.851 257.98 301.717 258.227C301.587 258.472 301.521 258.767 301.521 259.114ZM310.176 263.132C309.543 263.132 308.997 262.989 308.54 262.702C308.085 262.412 307.736 262.013 307.491 261.504C307.247 260.996 307.125 260.413 307.125 259.757C307.125 259.092 307.25 258.506 307.5 257.997C307.75 257.486 308.102 257.087 308.557 256.8C309.011 256.513 309.547 256.369 310.163 256.369C310.661 256.369 311.104 256.462 311.493 256.646C311.882 256.828 312.196 257.084 312.435 257.413C312.676 257.743 312.82 258.128 312.865 258.568H311.625C311.557 258.261 311.401 257.997 311.156 257.776C310.915 257.554 310.591 257.443 310.185 257.443C309.83 257.443 309.518 257.537 309.251 257.724C308.987 257.909 308.781 258.173 308.634 258.517C308.486 258.858 308.412 259.261 308.412 259.727C308.412 260.205 308.484 260.616 308.629 260.963C308.774 261.31 308.979 261.578 309.243 261.768C309.51 261.959 309.824 262.054 310.185 262.054C310.426 262.054 310.645 262.01 310.841 261.922C311.04 261.831 311.206 261.702 311.339 261.534C311.476 261.366 311.571 261.165 311.625 260.929H312.865C312.82 261.352 312.682 261.73 312.452 262.062C312.222 262.395 311.913 262.656 311.527 262.847C311.143 263.037 310.693 263.132 310.176 263.132ZM317.049 263.132C316.404 263.132 315.848 262.994 315.382 262.719C314.919 262.44 314.561 262.05 314.309 261.547C314.059 261.041 313.934 260.449 313.934 259.77C313.934 259.099 314.059 258.509 314.309 257.997C314.561 257.486 314.914 257.087 315.365 256.8C315.82 256.513 316.351 256.369 316.959 256.369C317.328 256.369 317.686 256.43 318.033 256.553C318.38 256.675 318.691 256.866 318.966 257.128C319.242 257.389 319.459 257.729 319.618 258.146C319.777 258.561 319.857 259.065 319.857 259.659V260.111H314.654V259.156H318.608C318.608 258.821 318.54 258.524 318.404 258.266C318.267 258.004 318.076 257.798 317.828 257.648C317.584 257.497 317.297 257.422 316.968 257.422C316.61 257.422 316.297 257.51 316.03 257.686C315.766 257.859 315.561 258.087 315.417 258.368C315.275 258.646 315.203 258.949 315.203 259.276V260.021C315.203 260.459 315.28 260.831 315.434 261.138C315.59 261.445 315.807 261.679 316.086 261.841C316.364 262 316.689 262.08 317.061 262.08C317.303 262.08 317.523 262.045 317.722 261.977C317.921 261.906 318.093 261.801 318.238 261.662C318.382 261.523 318.493 261.351 318.57 261.146L319.776 261.364C319.679 261.719 319.506 262.03 319.256 262.297C319.009 262.561 318.698 262.767 318.323 262.915C317.951 263.06 317.526 263.132 317.049 263.132Z" fill="#1D2939"/>
<path d="M433.651 254.273V263H432.33V255.594H432.278L430.19 256.957V255.696L432.368 254.273H433.651ZM438.892 263.119C438.358 263.119 437.878 263.017 437.452 262.812C437.028 262.605 436.69 262.321 436.438 261.96C436.185 261.599 436.05 261.188 436.033 260.724H437.311C437.342 261.099 437.509 261.408 437.81 261.649C438.111 261.891 438.472 262.011 438.892 262.011C439.227 262.011 439.524 261.935 439.783 261.781C440.044 261.625 440.249 261.411 440.396 261.138C440.547 260.865 440.622 260.554 440.622 260.205C440.622 259.849 440.545 259.533 440.392 259.254C440.239 258.976 440.027 258.757 439.757 258.598C439.49 258.439 439.183 258.358 438.837 258.355C438.572 258.355 438.307 258.401 438.04 258.491C437.773 258.582 437.557 258.702 437.392 258.849L436.186 258.67L436.676 254.273H441.474V255.402H437.771L437.494 257.844H437.545C437.716 257.679 437.942 257.541 438.223 257.43C438.507 257.32 438.811 257.264 439.135 257.264C439.666 257.264 440.139 257.391 440.554 257.643C440.972 257.896 441.3 258.241 441.538 258.679C441.78 259.114 441.899 259.614 441.896 260.179C441.899 260.744 441.771 261.249 441.513 261.692C441.257 262.135 440.902 262.484 440.447 262.74C439.996 262.993 439.477 263.119 438.892 263.119ZM448.008 261.364V260.903C448.008 260.574 448.076 260.273 448.213 260C448.352 259.724 448.554 259.504 448.818 259.339C449.085 259.172 449.407 259.088 449.785 259.088C450.172 259.088 450.495 259.17 450.757 259.335C451.018 259.5 451.216 259.72 451.349 259.996C451.485 260.271 451.554 260.574 451.554 260.903V261.364C451.554 261.693 451.485 261.996 451.349 262.271C451.213 262.544 451.012 262.764 450.748 262.932C450.487 263.097 450.166 263.179 449.785 263.179C449.402 263.179 449.078 263.097 448.814 262.932C448.549 262.764 448.349 262.544 448.213 262.271C448.076 261.996 448.008 261.693 448.008 261.364ZM449.001 260.903V261.364C449.001 261.608 449.059 261.83 449.176 262.028C449.292 262.227 449.495 262.327 449.785 262.327C450.072 262.327 450.272 262.227 450.386 262.028C450.5 261.83 450.556 261.608 450.556 261.364V260.903C450.556 260.659 450.501 260.437 450.39 260.239C450.282 260.04 450.081 259.94 449.785 259.94C449.501 259.94 449.299 260.04 449.18 260.239C449.061 260.437 449.001 260.659 449.001 260.903ZM443.619 256.369V255.909C443.619 255.58 443.687 255.277 443.824 255.001C443.963 254.726 444.164 254.506 444.429 254.341C444.696 254.176 445.018 254.094 445.396 254.094C445.782 254.094 446.106 254.176 446.368 254.341C446.629 254.506 446.826 254.726 446.96 255.001C447.093 255.277 447.16 255.58 447.16 255.909V256.369C447.16 256.699 447.092 257.001 446.956 257.277C446.822 257.55 446.623 257.77 446.359 257.938C446.098 258.102 445.777 258.185 445.396 258.185C445.01 258.185 444.684 258.102 444.42 257.938C444.159 257.77 443.96 257.55 443.824 257.277C443.687 257.001 443.619 256.699 443.619 256.369ZM444.616 255.909V256.369C444.616 256.614 444.673 256.835 444.787 257.034C444.903 257.233 445.106 257.332 445.396 257.332C445.68 257.332 445.879 257.233 445.993 257.034C446.109 256.835 446.167 256.614 446.167 256.369V255.909C446.167 255.665 446.112 255.443 446.001 255.244C445.89 255.045 445.689 254.946 445.396 254.946C445.112 254.946 444.91 255.045 444.791 255.244C444.674 255.443 444.616 255.665 444.616 255.909ZM444.024 263L450.024 254.273H451.042L445.042 263H444.024Z" fill="#1D2939"/>
</svg>
