<svg width="541" height="300" viewBox="0 0 541 300" fill="none" xmlns="http://www.w3.org/2000/svg">
<rect width="541" height="300" rx="8" fill="#F9FAFB"/>
<path d="M228.977 52.098V50.7727H235.94V52.098H233.243V59.5H231.675V52.098H228.977ZM239.12 59.6278C238.481 59.6278 237.927 59.4872 237.458 59.206C236.99 58.9247 236.626 58.5312 236.368 58.0256C236.112 57.5199 235.984 56.929 235.984 56.2528C235.984 55.5767 236.112 54.9844 236.368 54.4759C236.626 53.9673 236.99 53.5724 237.458 53.2912C237.927 53.0099 238.481 52.8693 239.12 52.8693C239.76 52.8693 240.314 53.0099 240.782 53.2912C241.251 53.5724 241.613 53.9673 241.869 54.4759C242.127 54.9844 242.257 55.5767 242.257 56.2528C242.257 56.929 242.127 57.5199 241.869 58.0256C241.613 58.5312 241.251 58.9247 240.782 59.206C240.314 59.4872 239.76 59.6278 239.12 59.6278ZM239.129 58.392C239.475 58.392 239.765 58.2969 239.998 58.1065C240.231 57.9134 240.404 57.6548 240.518 57.331C240.635 57.0071 240.693 56.6463 240.693 56.2486C240.693 55.848 240.635 55.4858 240.518 55.1619C240.404 54.8352 240.231 54.5753 239.998 54.3821C239.765 54.1889 239.475 54.0923 239.129 54.0923C238.774 54.0923 238.478 54.1889 238.243 54.3821C238.01 54.5753 237.835 54.8352 237.718 55.1619C237.605 55.4858 237.548 55.848 237.548 56.2486C237.548 56.6463 237.605 57.0071 237.718 57.331C237.835 57.6548 238.01 57.9134 238.243 58.1065C238.478 58.2969 238.774 58.392 239.129 58.392ZM246.835 52.9545V54.1477H243.072V52.9545H246.835ZM244.001 51.3864H245.543V57.5312C245.543 57.7386 245.575 57.8977 245.637 58.0085C245.702 58.1165 245.788 58.1903 245.893 58.2301C245.998 58.2699 246.114 58.2898 246.242 58.2898C246.339 58.2898 246.427 58.2827 246.506 58.2685C246.589 58.2543 246.651 58.2415 246.694 58.2301L246.954 59.4361C246.871 59.4645 246.754 59.4957 246.6 59.5298C246.45 59.5639 246.265 59.5838 246.046 59.5895C245.66 59.6009 245.312 59.5426 245.002 59.4148C244.692 59.2841 244.447 59.0824 244.265 58.8097C244.086 58.5369 243.998 58.196 244.001 57.7869V51.3864ZM250.008 59.6321C249.593 59.6321 249.22 59.5582 248.887 59.4105C248.558 59.2599 248.297 59.0384 248.103 58.7457C247.913 58.4531 247.818 58.0923 247.818 57.6634C247.818 57.294 247.886 56.9886 248.022 56.7472C248.159 56.5057 248.345 56.3125 248.581 56.1676C248.816 56.0227 249.082 55.9134 249.377 55.8395C249.676 55.7628 249.984 55.7074 250.302 55.6733C250.686 55.6335 250.997 55.598 251.235 55.5668C251.474 55.5327 251.647 55.4815 251.755 55.4134C251.866 55.3423 251.922 55.233 251.922 55.0852V55.0597C251.922 54.7386 251.826 54.4901 251.636 54.3139C251.446 54.1378 251.172 54.0497 250.814 54.0497C250.436 54.0497 250.136 54.1321 249.914 54.2969C249.696 54.4616 249.548 54.6562 249.471 54.8807L248.031 54.6761C248.145 54.2784 248.332 53.946 248.593 53.679C248.855 53.4091 249.174 53.2074 249.552 53.0739C249.93 52.9375 250.348 52.8693 250.805 52.8693C251.12 52.8693 251.434 52.9062 251.747 52.9801C252.059 53.054 252.345 53.1761 252.603 53.3466C252.862 53.5142 253.069 53.7429 253.225 54.0327C253.385 54.3224 253.464 54.6847 253.464 55.1193V59.5H251.981V58.6009H251.93C251.836 58.7827 251.704 58.9531 251.534 59.1122C251.366 59.2685 251.154 59.3949 250.899 59.4915C250.646 59.5852 250.349 59.6321 250.008 59.6321ZM250.409 58.4986C250.718 58.4986 250.987 58.4375 251.214 58.3153C251.441 58.1903 251.616 58.0256 251.738 57.821C251.863 57.6165 251.926 57.3935 251.926 57.152V56.3807C251.877 56.4205 251.795 56.4574 251.679 56.4915C251.565 56.5256 251.437 56.5554 251.295 56.581C251.153 56.6065 251.012 56.6293 250.873 56.6491C250.734 56.669 250.613 56.6861 250.511 56.7003C250.281 56.7315 250.075 56.7827 249.893 56.8537C249.711 56.9247 249.568 57.0241 249.463 57.152C249.358 57.277 249.305 57.4389 249.305 57.6378C249.305 57.9219 249.409 58.1364 249.616 58.2812C249.824 58.4261 250.088 58.4986 250.409 58.4986ZM256.558 50.7727V59.5H255.015V50.7727H256.558ZM264.146 59.5H261.189V50.7727H264.206C265.072 50.7727 265.817 50.9474 266.439 51.2969C267.064 51.6435 267.544 52.142 267.879 52.7926C268.214 53.4432 268.382 54.2216 268.382 55.1278C268.382 56.0369 268.213 56.8182 267.875 57.4716C267.54 58.125 267.055 58.6264 266.422 58.9759C265.791 59.3253 265.033 59.5 264.146 59.5ZM262.77 58.1321H264.07C264.678 58.1321 265.185 58.0213 265.591 57.7997C265.997 57.5753 266.303 57.2415 266.507 56.7983C266.712 56.3523 266.814 55.7955 266.814 55.1278C266.814 54.4602 266.712 53.9062 266.507 53.4659C266.303 53.0227 266 52.6918 265.599 52.473C265.202 52.2514 264.707 52.1406 264.116 52.1406H262.77V58.1321ZM272.714 59.6278C272.058 59.6278 271.491 59.4915 271.013 59.2188C270.539 58.9432 270.174 58.554 269.918 58.0511C269.663 57.5455 269.535 56.9503 269.535 56.2656C269.535 55.5923 269.663 55.0014 269.918 54.4929C270.177 53.9815 270.538 53.5838 271.001 53.2997C271.464 53.0128 272.008 52.8693 272.633 52.8693C273.036 52.8693 273.417 52.9347 273.775 53.0653C274.136 53.1932 274.454 53.392 274.729 53.6619C275.008 53.9318 275.227 54.2756 275.386 54.6932C275.545 55.108 275.624 55.6023 275.624 56.1761V56.6491H270.259V55.6094H274.146C274.143 55.3139 274.079 55.0511 273.954 54.821C273.829 54.5881 273.654 54.4048 273.43 54.2713C273.208 54.1378 272.95 54.071 272.654 54.071C272.339 54.071 272.062 54.1477 271.823 54.3011C271.585 54.4517 271.398 54.6506 271.265 54.8977C271.134 55.142 271.067 55.4105 271.065 55.7031V56.6108C271.065 56.9915 271.134 57.3182 271.273 57.5909C271.413 57.8608 271.607 58.0682 271.857 58.2131C272.107 58.3551 272.4 58.4261 272.735 58.4261C272.96 58.4261 273.163 58.3949 273.344 58.3324C273.526 58.267 273.684 58.1719 273.817 58.0469C273.951 57.9219 274.052 57.767 274.12 57.5824L275.56 57.7443C275.469 58.125 275.296 58.4574 275.04 58.7415C274.788 59.0227 274.464 59.2415 274.069 59.3977C273.674 59.5511 273.222 59.6278 272.714 59.6278ZM276.929 61.9545V52.9545H278.446V54.0369H278.536C278.615 53.8778 278.728 53.7088 278.873 53.5298C279.017 53.348 279.213 53.1932 279.461 53.0653C279.708 52.9347 280.023 52.8693 280.407 52.8693C280.912 52.8693 281.368 52.9986 281.775 53.2571C282.184 53.5128 282.507 53.892 282.746 54.3949C282.988 54.8949 283.108 55.5085 283.108 56.2358C283.108 56.9545 282.99 57.5653 282.755 58.0682C282.519 58.571 282.198 58.9545 281.792 59.2188C281.385 59.483 280.925 59.6151 280.411 59.6151C280.036 59.6151 279.725 59.5526 279.478 59.4276C279.23 59.3026 279.032 59.152 278.881 58.9759C278.733 58.7969 278.618 58.6278 278.536 58.4688H278.472V61.9545H276.929ZM278.442 56.2273C278.442 56.6506 278.502 57.0213 278.621 57.3395C278.743 57.6577 278.918 57.9062 279.145 58.0852C279.375 58.2614 279.654 58.3494 279.98 58.3494C280.321 58.3494 280.607 58.2585 280.837 58.0767C281.067 57.892 281.24 57.6406 281.357 57.3224C281.476 57.0014 281.536 56.6364 281.536 56.2273C281.536 55.821 281.478 55.4602 281.361 55.1449C281.245 54.8295 281.071 54.5824 280.841 54.4034C280.611 54.2244 280.324 54.1349 279.98 54.1349C279.651 54.1349 279.371 54.2216 279.141 54.3949C278.911 54.5682 278.736 54.8111 278.617 55.1236C278.5 55.4361 278.442 55.804 278.442 56.2273ZM287.284 59.6278C286.645 59.6278 286.091 59.4872 285.623 59.206C285.154 58.9247 284.79 58.5312 284.532 58.0256C284.276 57.5199 284.148 56.929 284.148 56.2528C284.148 55.5767 284.276 54.9844 284.532 54.4759C284.79 53.9673 285.154 53.5724 285.623 53.2912C286.091 53.0099 286.645 52.8693 287.284 52.8693C287.924 52.8693 288.478 53.0099 288.946 53.2912C289.415 53.5724 289.777 53.9673 290.033 54.4759C290.292 54.9844 290.421 55.5767 290.421 56.2528C290.421 56.929 290.292 57.5199 290.033 58.0256C289.777 58.5312 289.415 58.9247 288.946 59.206C288.478 59.4872 287.924 59.6278 287.284 59.6278ZM287.293 58.392C287.64 58.392 287.929 58.2969 288.162 58.1065C288.395 57.9134 288.569 57.6548 288.682 57.331C288.799 57.0071 288.857 56.6463 288.857 56.2486C288.857 55.848 288.799 55.4858 288.682 55.1619C288.569 54.8352 288.395 54.5753 288.162 54.3821C287.929 54.1889 287.64 54.0923 287.293 54.0923C286.938 54.0923 286.642 54.1889 286.407 54.3821C286.174 54.5753 285.999 54.8352 285.882 55.1619C285.769 55.4858 285.712 55.848 285.712 56.2486C285.712 56.6463 285.769 57.0071 285.882 57.331C285.999 57.6548 286.174 57.9134 286.407 58.1065C286.642 58.2969 286.938 58.392 287.293 58.392ZM296.903 54.6847L295.497 54.8381C295.457 54.696 295.388 54.5625 295.288 54.4375C295.192 54.3125 295.061 54.2116 294.896 54.1349C294.732 54.0582 294.53 54.0199 294.291 54.0199C293.97 54.0199 293.7 54.0895 293.482 54.2287C293.266 54.3679 293.159 54.5483 293.162 54.7699C293.159 54.9602 293.229 55.1151 293.371 55.2344C293.516 55.3537 293.754 55.4517 294.087 55.5284L295.203 55.767C295.822 55.9006 296.283 56.1122 296.584 56.402C296.888 56.6918 297.041 57.071 297.044 57.5398C297.041 57.9517 296.92 58.3153 296.682 58.6307C296.446 58.9432 296.118 59.1875 295.697 59.3636C295.277 59.5398 294.794 59.6278 294.249 59.6278C293.447 59.6278 292.803 59.4602 292.314 59.125C291.825 58.7869 291.534 58.3168 291.44 57.7145L292.945 57.5696C293.013 57.8651 293.158 58.0881 293.379 58.2386C293.601 58.3892 293.889 58.4645 294.244 58.4645C294.611 58.4645 294.905 58.3892 295.126 58.2386C295.351 58.0881 295.463 57.902 295.463 57.6804C295.463 57.4929 295.391 57.3381 295.246 57.2159C295.104 57.0937 294.882 57 294.581 56.9347L293.464 56.7003C292.837 56.5696 292.372 56.3494 292.071 56.0398C291.77 55.7273 291.621 55.3324 291.624 54.8551C291.621 54.4517 291.73 54.1023 291.952 53.8068C292.176 53.5085 292.487 53.2784 292.885 53.1165C293.286 52.9517 293.747 52.8693 294.27 52.8693C295.037 52.8693 295.641 53.0327 296.081 53.3594C296.524 53.6861 296.798 54.1278 296.903 54.6847ZM298.316 59.5V52.9545H299.859V59.5H298.316ZM299.092 52.0256C298.847 52.0256 298.637 51.9446 298.461 51.7827C298.285 51.6179 298.197 51.4205 298.197 51.1903C298.197 50.9574 298.285 50.7599 298.461 50.598C298.637 50.4332 298.847 50.3509 299.092 50.3509C299.339 50.3509 299.549 50.4332 299.722 50.598C299.898 50.7599 299.987 50.9574 299.987 51.1903C299.987 51.4205 299.898 51.6179 299.722 51.7827C299.549 51.9446 299.339 52.0256 299.092 52.0256ZM304.713 52.9545V54.1477H300.951V52.9545H304.713ZM301.88 51.3864H303.422V57.5312C303.422 57.7386 303.453 57.8977 303.516 58.0085C303.581 58.1165 303.667 58.1903 303.772 58.2301C303.877 58.2699 303.993 58.2898 304.121 58.2898C304.218 58.2898 304.306 58.2827 304.385 58.2685C304.468 58.2543 304.53 58.2415 304.573 58.2301L304.833 59.4361C304.75 59.4645 304.632 59.4957 304.479 59.5298C304.328 59.5639 304.144 59.5838 303.925 59.5895C303.539 59.6009 303.191 59.5426 302.881 59.4148C302.571 59.2841 302.326 59.0824 302.144 58.8097C301.965 58.5369 301.877 58.196 301.88 57.7869V51.3864ZM311.083 54.6847L309.677 54.8381C309.637 54.696 309.567 54.5625 309.468 54.4375C309.371 54.3125 309.241 54.2116 309.076 54.1349C308.911 54.0582 308.71 54.0199 308.471 54.0199C308.15 54.0199 307.88 54.0895 307.661 54.2287C307.445 54.3679 307.339 54.5483 307.342 54.7699C307.339 54.9602 307.408 55.1151 307.55 55.2344C307.695 55.3537 307.934 55.4517 308.266 55.5284L309.383 55.767C310.002 55.9006 310.462 56.1122 310.763 56.402C311.067 56.6918 311.221 57.071 311.224 57.5398C311.221 57.9517 311.1 58.3153 310.862 58.6307C310.626 58.9432 310.298 59.1875 309.877 59.3636C309.457 59.5398 308.974 59.6278 308.428 59.6278C307.627 59.6278 306.982 59.4602 306.494 59.125C306.005 58.7869 305.714 58.3168 305.62 57.7145L307.124 57.5696C307.192 57.8651 307.337 58.0881 307.559 58.2386C307.781 58.3892 308.069 58.4645 308.424 58.4645C308.79 58.4645 309.085 58.3892 309.306 58.2386C309.531 58.0881 309.643 57.902 309.643 57.6804C309.643 57.4929 309.57 57.3381 309.425 57.2159C309.283 57.0937 309.062 57 308.761 56.9347L307.644 56.7003C307.016 56.5696 306.552 56.3494 306.251 56.0398C305.95 55.7273 305.8 55.3324 305.803 54.8551C305.8 54.4517 305.91 54.1023 306.131 53.8068C306.356 53.5085 306.667 53.2784 307.065 53.1165C307.465 52.9517 307.927 52.8693 308.45 52.8693C309.217 52.8693 309.82 53.0327 310.261 53.3594C310.704 53.6861 310.978 54.1278 311.083 54.6847Z" fill="#1D2939"/>
<path d="M178.418 104.773V72.0455H180.514V104.773H178.418ZM183.979 82.848C183.876 81.8168 183.438 81.0156 182.662 80.4446C181.886 79.8736 180.834 79.5881 179.504 79.5881C178.601 79.5881 177.838 79.7159 177.216 79.9716C176.594 80.2188 176.116 80.5639 175.784 81.0071C175.46 81.4503 175.298 81.9531 175.298 82.5156C175.281 82.9844 175.379 83.3935 175.592 83.7429C175.814 84.0923 176.116 84.3949 176.5 84.6506C176.884 84.8977 177.327 85.1151 177.83 85.3026C178.332 85.4815 178.869 85.6349 179.44 85.7628L181.793 86.3253C182.935 86.581 183.983 86.9219 184.938 87.348C185.892 87.7741 186.719 88.2983 187.418 88.9205C188.116 89.5426 188.658 90.2756 189.041 91.1193C189.433 91.9631 189.634 92.9304 189.642 94.0213C189.634 95.6236 189.224 97.0128 188.415 98.1889C187.614 99.3565 186.455 100.264 184.938 100.912C183.429 101.551 181.609 101.871 179.479 101.871C177.365 101.871 175.524 101.547 173.956 100.899C172.396 100.251 171.178 99.2926 170.3 98.0227C169.43 96.7443 168.974 95.1634 168.932 93.2798H174.288C174.348 94.1577 174.599 94.8906 175.043 95.4787C175.494 96.0582 176.095 96.4972 176.845 96.7955C177.604 97.0852 178.46 97.2301 179.415 97.2301C180.352 97.2301 181.166 97.0937 181.857 96.821C182.555 96.5483 183.097 96.169 183.48 95.6832C183.864 95.1974 184.055 94.6392 184.055 94.0085C184.055 93.4205 183.881 92.9261 183.531 92.5256C183.19 92.125 182.688 91.7841 182.023 91.5028C181.366 91.2216 180.561 90.9659 179.607 90.7358L176.756 90.0199C174.548 89.483 172.805 88.6435 171.527 87.5014C170.249 86.3594 169.614 84.821 169.622 82.8864C169.614 81.3011 170.036 79.9162 170.888 78.7315C171.749 77.5469 172.929 76.6222 174.429 75.9574C175.929 75.2926 177.634 74.9602 179.543 74.9602C181.486 74.9602 183.182 75.2926 184.631 75.9574C186.088 76.6222 187.222 77.5469 188.031 78.7315C188.841 79.9162 189.259 81.2884 189.284 82.848H183.979ZM202.055 101.858C200.248 101.858 198.637 101.526 197.222 100.861C195.816 100.196 194.699 99.2798 193.873 98.1122C193.046 96.9446 192.616 95.6065 192.581 94.098H197.951C198.01 95.1122 198.437 95.9347 199.229 96.5653C200.022 97.196 200.964 97.5114 202.055 97.5114C202.924 97.5114 203.691 97.3196 204.356 96.9361C205.029 96.544 205.553 96.0028 205.928 95.3125C206.312 94.6136 206.503 93.8125 206.503 92.9091C206.503 91.9886 206.307 91.179 205.915 90.4801C205.532 89.7812 204.999 89.2358 204.317 88.8438C203.635 88.4517 202.856 88.2514 201.978 88.2429C201.211 88.2429 200.465 88.4006 199.741 88.7159C199.025 89.0312 198.466 89.4616 198.066 90.0071L193.144 89.125L194.384 75.3182H210.39V79.8438H198.948L198.27 86.402H198.424C198.884 85.7543 199.579 85.2173 200.508 84.7912C201.437 84.3651 202.476 84.152 203.627 84.152C205.204 84.152 206.61 84.5227 207.846 85.2642C209.081 86.0057 210.057 87.0241 210.773 88.3196C211.489 89.6065 211.843 91.0895 211.834 92.7685C211.843 94.5327 211.434 96.1009 210.607 97.473C209.789 98.8366 208.643 99.9105 207.168 100.695C205.702 101.47 203.998 101.858 202.055 101.858ZM220.102 97.9205L219.961 99.3267C219.85 100.452 219.637 101.572 219.322 102.689C219.015 103.814 218.691 104.832 218.35 105.744C218.018 106.656 217.749 107.372 217.545 107.892H214.016C214.144 107.389 214.319 106.686 214.54 105.783C214.762 104.888 214.971 103.882 215.167 102.766C215.363 101.649 215.486 100.511 215.538 99.3523L215.602 97.9205H220.102ZM233.022 101.858C231.053 101.858 229.302 101.538 227.768 100.899C226.242 100.251 225.045 99.3693 224.176 98.2528C223.306 97.1364 222.872 95.8707 222.872 94.456C222.872 93.3651 223.119 92.3636 223.613 91.4517C224.116 90.5312 224.798 89.7685 225.659 89.1634C226.519 88.5497 227.482 88.1577 228.548 87.9872V87.8082C227.15 87.527 226.016 86.8494 225.147 85.7756C224.278 84.6932 223.843 83.4361 223.843 82.0043C223.843 80.6491 224.24 79.4432 225.032 78.3864C225.825 77.321 226.911 76.4858 228.292 75.8807C229.681 75.267 231.258 74.9602 233.022 74.9602C234.786 74.9602 236.359 75.267 237.74 75.8807C239.129 76.4943 240.22 77.3338 241.012 78.3991C241.805 79.456 242.205 80.6577 242.214 82.0043C242.205 83.4446 241.762 84.7017 240.884 85.7756C240.007 86.8494 238.882 87.527 237.509 87.8082V87.9872C238.558 88.1577 239.508 88.5497 240.36 89.1634C241.221 89.7685 241.903 90.5312 242.406 91.4517C242.917 92.3636 243.177 93.3651 243.186 94.456C243.177 95.8707 242.738 97.1364 241.869 98.2528C240.999 99.3693 239.798 100.251 238.264 100.899C236.738 101.538 234.991 101.858 233.022 101.858ZM233.022 97.7926C233.9 97.7926 234.667 97.6349 235.323 97.3196C235.98 96.9957 236.491 96.5526 236.857 95.9901C237.232 95.419 237.42 94.7628 237.42 94.0213C237.42 93.2628 237.228 92.5938 236.845 92.0142C236.461 91.4261 235.941 90.9659 235.285 90.6335C234.629 90.2926 233.874 90.1222 233.022 90.1222C232.178 90.1222 231.424 90.2926 230.759 90.6335C230.095 90.9659 229.57 91.4261 229.187 92.0142C228.812 92.5938 228.624 93.2628 228.624 94.0213C228.624 94.7628 228.808 95.419 229.174 95.9901C229.541 96.5526 230.056 96.9957 230.721 97.3196C231.386 97.6349 232.153 97.7926 233.022 97.7926ZM233.022 86.0952C233.755 86.0952 234.407 85.946 234.978 85.6477C235.549 85.3494 235.997 84.9361 236.32 84.4077C236.644 83.8793 236.806 83.2699 236.806 82.5795C236.806 81.8977 236.644 81.3011 236.32 80.7898C235.997 80.2699 235.553 79.8651 234.991 79.5753C234.428 79.277 233.772 79.1278 233.022 79.1278C232.281 79.1278 231.624 79.277 231.053 79.5753C230.482 79.8651 230.035 80.2699 229.711 80.7898C229.396 81.3011 229.238 81.8977 229.238 82.5795C229.238 83.2699 229.4 83.8793 229.724 84.4077C230.048 84.9361 230.495 85.3494 231.066 85.6477C231.637 85.946 232.289 86.0952 233.022 86.0952ZM256.602 102.075C254.403 102.067 252.511 101.526 250.925 100.452C249.349 99.3778 248.134 97.8224 247.282 95.7855C246.438 93.7486 246.021 91.2983 246.029 88.4347C246.029 85.5795 246.451 83.1463 247.295 81.1349C248.147 79.1236 249.361 77.5937 250.938 76.5455C252.523 75.4886 254.411 74.9602 256.602 74.9602C258.792 74.9602 260.675 75.4886 262.252 76.5455C263.837 77.6023 265.056 79.1364 265.908 81.1477C266.761 83.1506 267.183 85.5795 267.174 88.4347C267.174 91.3068 266.748 93.7614 265.896 95.7983C265.052 97.8352 263.842 99.3906 262.265 100.464C260.688 101.538 258.8 102.075 256.602 102.075ZM256.602 97.4858C258.102 97.4858 259.299 96.7315 260.194 95.223C261.089 93.7145 261.532 91.4517 261.523 88.4347C261.523 86.4489 261.319 84.7955 260.91 83.4744C260.509 82.1534 259.938 81.1605 259.197 80.4957C258.464 79.831 257.599 79.4986 256.602 79.4986C255.11 79.4986 253.917 80.2443 253.022 81.7358C252.127 83.2273 251.675 85.4602 251.667 88.4347C251.667 90.446 251.867 92.125 252.268 93.4716C252.677 94.8097 253.252 95.8153 253.994 96.4886C254.735 97.1534 255.604 97.4858 256.602 97.4858ZM280.667 102.075C278.468 102.067 276.576 101.526 274.991 100.452C273.414 99.3778 272.199 97.8224 271.347 95.7855C270.503 93.7486 270.086 91.2983 270.094 88.4347C270.094 85.5795 270.516 83.1463 271.36 81.1349C272.212 79.1236 273.427 77.5937 275.003 76.5455C276.589 75.4886 278.476 74.9602 280.667 74.9602C282.857 74.9602 284.741 75.4886 286.317 76.5455C287.902 77.6023 289.121 79.1364 289.974 81.1477C290.826 83.1506 291.248 85.5795 291.239 88.4347C291.239 91.3068 290.813 93.7614 289.961 95.7983C289.117 97.8352 287.907 99.3906 286.33 100.464C284.753 101.538 282.866 102.075 280.667 102.075ZM280.667 97.4858C282.167 97.4858 283.364 96.7315 284.259 95.223C285.154 93.7145 285.597 91.4517 285.589 88.4347C285.589 86.4489 285.384 84.7955 284.975 83.4744C284.574 82.1534 284.003 81.1605 283.262 80.4957C282.529 79.831 281.664 79.4986 280.667 79.4986C279.175 79.4986 277.982 80.2443 277.087 81.7358C276.192 83.2273 275.741 85.4602 275.732 88.4347C275.732 90.446 275.932 92.125 276.333 93.4716C276.742 94.8097 277.317 95.8153 278.059 96.4886C278.8 97.1534 279.67 97.4858 280.667 97.4858ZM299.382 97.9205L299.241 99.3267C299.13 100.452 298.917 101.572 298.602 102.689C298.295 103.814 297.971 104.832 297.63 105.744C297.298 106.656 297.029 107.372 296.825 107.892H293.296C293.424 107.389 293.599 106.686 293.821 105.783C294.042 104.888 294.251 103.882 294.447 102.766C294.643 101.649 294.767 100.511 294.818 99.3523L294.882 97.9205H299.382ZM312.801 102.075C310.602 102.067 308.71 101.526 307.125 100.452C305.548 99.3778 304.334 97.8224 303.481 95.7855C302.638 93.7486 302.22 91.2983 302.228 88.4347C302.228 85.5795 302.65 83.1463 303.494 81.1349C304.346 79.1236 305.561 77.5937 307.138 76.5455C308.723 75.4886 310.611 74.9602 312.801 74.9602C314.991 74.9602 316.875 75.4886 318.451 76.5455C320.037 77.6023 321.255 79.1364 322.108 81.1477C322.96 83.1506 323.382 85.5795 323.373 88.4347C323.373 91.3068 322.947 93.7614 322.095 95.7983C321.251 97.8352 320.041 99.3906 318.464 100.464C316.888 101.538 315 102.075 312.801 102.075ZM312.801 97.4858C314.301 97.4858 315.498 96.7315 316.393 95.223C317.288 93.7145 317.731 91.4517 317.723 88.4347C317.723 86.4489 317.518 84.7955 317.109 83.4744C316.709 82.1534 316.138 81.1605 315.396 80.4957C314.663 79.831 313.798 79.4986 312.801 79.4986C311.309 79.4986 310.116 80.2443 309.221 81.7358C308.326 83.2273 307.875 85.4602 307.866 88.4347C307.866 90.446 308.067 92.125 308.467 93.4716C308.876 94.8097 309.451 95.8153 310.193 96.4886C310.934 97.1534 311.804 97.4858 312.801 97.4858ZM336.866 102.075C334.667 102.067 332.775 101.526 331.19 100.452C329.613 99.3778 328.399 97.8224 327.546 95.7855C326.703 93.7486 326.285 91.2983 326.294 88.4347C326.294 85.5795 326.716 83.1463 327.559 81.1349C328.412 79.1236 329.626 77.5937 331.203 76.5455C332.788 75.4886 334.676 74.9602 336.866 74.9602C339.056 74.9602 340.94 75.4886 342.517 76.5455C344.102 77.6023 345.321 79.1364 346.173 81.1477C347.025 83.1506 347.447 85.5795 347.439 88.4347C347.439 91.3068 347.012 93.7614 346.16 95.7983C345.316 97.8352 344.106 99.3906 342.529 100.464C340.953 101.538 339.065 102.075 336.866 102.075ZM336.866 97.4858C338.366 97.4858 339.564 96.7315 340.458 95.223C341.353 93.7145 341.796 91.4517 341.788 88.4347C341.788 86.4489 341.583 84.7955 341.174 83.4744C340.774 82.1534 340.203 81.1605 339.461 80.4957C338.728 79.831 337.863 79.4986 336.866 79.4986C335.375 79.4986 334.181 80.2443 333.287 81.7358C332.392 83.2273 331.94 85.4602 331.931 88.4347C331.931 90.446 332.132 92.125 332.532 93.4716C332.941 94.8097 333.517 95.8153 334.258 96.4886C335 97.1534 335.869 97.4858 336.866 97.4858ZM360.931 102.075C358.732 102.067 356.84 101.526 355.255 100.452C353.678 99.3778 352.464 97.8224 351.612 95.7855C350.768 93.7486 350.35 91.2983 350.359 88.4347C350.359 85.5795 350.781 83.1463 351.624 81.1349C352.477 79.1236 353.691 77.5937 355.268 76.5455C356.853 75.4886 358.741 74.9602 360.931 74.9602C363.122 74.9602 365.005 75.4886 366.582 76.5455C368.167 77.6023 369.386 79.1364 370.238 81.1477C371.09 83.1506 371.512 85.5795 371.504 88.4347C371.504 91.3068 371.078 93.7614 370.225 95.7983C369.382 97.8352 368.171 99.3906 366.595 100.464C365.018 101.538 363.13 102.075 360.931 102.075ZM360.931 97.4858C362.431 97.4858 363.629 96.7315 364.524 95.223C365.418 93.7145 365.862 91.4517 365.853 88.4347C365.853 86.4489 365.649 84.7955 365.239 83.4744C364.839 82.1534 364.268 81.1605 363.526 80.4957C362.793 79.831 361.928 79.4986 360.931 79.4986C359.44 79.4986 358.247 80.2443 357.352 81.7358C356.457 83.2273 356.005 85.4602 355.997 88.4347C355.997 90.446 356.197 92.125 356.597 93.4716C357.007 94.8097 357.582 95.8153 358.323 96.4886C359.065 97.1534 359.934 97.4858 360.931 97.4858Z" fill="#1D2939"/>
<path d="M529 144H12V146H529V144Z" fill="#EAECF0" mask="url(#path-2-inside-1_468_3041)"/>
<circle cx="20" cy="20" r="19.4664" transform="matrix(1 0 0 -1 54.25 241.5)" fill="white" stroke="#EBD2D0" stroke-width="1.06716"/>
<g filter="url(#filter0_d_468_3041)">
<circle cx="16.7742" cy="16.7742" r="16.7742" transform="matrix(1 0 0 -1 57.4742 238.276)" fill="url(#paint0_linear_468_3041)"/>
</g>
<path d="M75.7891 215.704V225.077L79.8842 220.982C80.2115 220.655 80.7485 220.655 81.0758 220.982C81.1536 221.06 81.2153 221.152 81.2574 221.254C81.2996 221.355 81.3212 221.464 81.3212 221.574C81.3212 221.684 81.2996 221.793 81.2574 221.894C81.2153 221.996 81.1536 222.088 81.0758 222.165L75.5457 227.696C75.4681 227.773 75.3759 227.835 75.2744 227.877C75.1729 227.919 75.064 227.941 74.9541 227.941C74.8442 227.941 74.7354 227.919 74.6339 227.877C74.5324 227.835 74.4401 227.773 74.3625 227.696L68.824 222.174C68.7463 222.096 68.6847 222.004 68.6427 221.902C68.6006 221.801 68.579 221.692 68.579 221.582C68.579 221.472 68.6006 221.364 68.6427 221.262C68.6847 221.161 68.7463 221.068 68.824 220.991C68.9017 220.913 68.994 220.851 69.0955 220.809C69.197 220.767 69.3058 220.746 69.4156 220.746C69.5255 220.746 69.6343 220.767 69.7358 220.809C69.8373 220.851 69.9296 220.913 70.0073 220.991L74.1108 225.077V215.704C74.1108 215.242 74.4884 214.865 74.9499 214.865C75.4115 214.865 75.7891 215.242 75.7891 215.704Z" fill="white"/>
<path d="M110.315 221.318V203.136H111.48V221.318H110.315ZM113.405 209.138C113.348 208.565 113.104 208.12 112.673 207.803C112.242 207.485 111.658 207.327 110.919 207.327C110.417 207.327 109.993 207.398 109.648 207.54C109.302 207.677 109.037 207.869 108.852 208.115C108.672 208.361 108.582 208.641 108.582 208.953C108.573 209.214 108.627 209.441 108.746 209.635C108.869 209.829 109.037 209.997 109.25 210.139C109.463 210.277 109.709 210.397 109.989 210.501C110.268 210.601 110.566 210.686 110.884 210.757L112.19 211.07C112.825 211.212 113.407 211.401 113.938 211.638C114.468 211.875 114.927 212.166 115.315 212.511C115.704 212.857 116.004 213.264 116.217 213.733C116.435 214.202 116.546 214.739 116.551 215.345C116.546 216.235 116.319 217.007 115.869 217.661C115.424 218.309 114.78 218.813 113.938 219.173C113.099 219.528 112.089 219.706 110.905 219.706C109.731 219.706 108.708 219.526 107.837 219.166C106.97 218.806 106.293 218.274 105.805 217.568C105.322 216.858 105.069 215.98 105.045 214.933H108.021C108.054 215.421 108.194 215.828 108.44 216.155C108.691 216.477 109.025 216.721 109.442 216.886C109.863 217.047 110.339 217.128 110.869 217.128C111.39 217.128 111.842 217.052 112.226 216.901C112.614 216.749 112.915 216.538 113.128 216.268C113.341 215.999 113.447 215.688 113.447 215.338C113.447 215.011 113.35 214.737 113.156 214.514C112.967 214.292 112.688 214.102 112.318 213.946C111.954 213.79 111.506 213.648 110.976 213.52L109.392 213.122C108.166 212.824 107.197 212.357 106.487 211.723C105.777 211.089 105.424 210.234 105.429 209.159C105.424 208.278 105.659 207.509 106.132 206.851C106.61 206.193 107.266 205.679 108.099 205.31C108.933 204.94 109.88 204.756 110.94 204.756C112.02 204.756 112.962 204.94 113.767 205.31C114.577 205.679 115.206 206.193 115.656 206.851C116.106 207.509 116.338 208.271 116.352 209.138H113.405ZM123.911 219.699C122.85 219.699 121.906 219.517 121.077 219.152C120.253 218.783 119.602 218.276 119.124 217.632C118.65 216.983 118.407 216.235 118.392 215.388H121.489C121.508 215.743 121.624 216.055 121.837 216.325C122.055 216.59 122.344 216.796 122.703 216.943C123.063 217.09 123.468 217.163 123.918 217.163C124.387 217.163 124.801 217.08 125.161 216.915C125.521 216.749 125.802 216.519 126.006 216.226C126.21 215.932 126.311 215.594 126.311 215.21C126.311 214.822 126.203 214.479 125.985 214.18C125.772 213.877 125.464 213.641 125.061 213.47C124.664 213.3 124.19 213.214 123.641 213.214H122.284V210.956H123.641C124.105 210.956 124.515 210.875 124.87 210.714C125.23 210.554 125.509 210.331 125.708 210.047C125.907 209.758 126.006 209.422 126.006 209.038C126.006 208.674 125.918 208.354 125.743 208.08C125.573 207.8 125.331 207.582 125.019 207.426C124.711 207.27 124.351 207.192 123.939 207.192C123.523 207.192 123.141 207.268 122.796 207.419C122.45 207.566 122.173 207.777 121.965 208.051C121.757 208.326 121.645 208.648 121.631 209.017H118.684C118.698 208.179 118.937 207.44 119.401 206.801C119.865 206.162 120.49 205.662 121.276 205.303C122.067 204.938 122.959 204.756 123.953 204.756C124.957 204.756 125.836 204.938 126.588 205.303C127.341 205.667 127.926 206.16 128.343 206.78C128.764 207.395 128.972 208.087 128.968 208.854C128.972 209.668 128.719 210.348 128.208 210.892C127.701 211.437 127.041 211.782 126.226 211.929V212.043C127.296 212.18 128.111 212.552 128.669 213.158C129.233 213.759 129.512 214.512 129.507 215.416C129.512 216.245 129.273 216.981 128.79 217.625C128.312 218.269 127.651 218.776 126.809 219.145C125.966 219.514 125 219.699 123.911 219.699ZM134.625 217.511L134.547 218.293C134.485 218.918 134.367 219.54 134.191 220.161C134.021 220.786 133.841 221.351 133.652 221.858C133.467 222.365 133.318 222.762 133.204 223.051H131.244C131.315 222.772 131.412 222.381 131.535 221.879C131.658 221.382 131.774 220.823 131.883 220.203C131.992 219.583 132.061 218.951 132.089 218.307L132.125 217.511H134.625ZM142.352 204.756C143.1 204.756 143.82 204.881 144.511 205.132C145.207 205.383 145.827 205.783 146.372 206.332C146.921 206.882 147.354 207.611 147.672 208.52C147.993 209.424 148.157 210.535 148.162 211.851C148.162 213.087 148.022 214.19 147.743 215.161C147.468 216.126 147.073 216.948 146.556 217.625C146.04 218.302 145.418 218.818 144.689 219.173C143.959 219.524 143.145 219.699 142.245 219.699C141.275 219.699 140.418 219.512 139.674 219.138C138.931 218.759 138.332 218.245 137.877 217.597C137.428 216.943 137.155 216.209 137.061 215.395H140.093C140.212 215.925 140.46 216.337 140.839 216.631C141.218 216.92 141.687 217.064 142.245 217.064C143.192 217.064 143.912 216.652 144.404 215.828C144.897 215 145.145 213.866 145.15 212.426H145.051C144.833 212.852 144.539 213.219 144.17 213.527C143.801 213.83 143.377 214.064 142.899 214.23C142.425 214.396 141.921 214.479 141.386 214.479C140.529 214.479 139.764 214.277 139.092 213.875C138.42 213.473 137.889 212.919 137.501 212.213C137.113 211.508 136.919 210.703 136.919 209.798C136.914 208.823 137.139 207.954 137.593 207.192C138.048 206.429 138.682 205.833 139.497 205.402C140.316 204.966 141.268 204.751 142.352 204.756ZM142.373 207.17C141.895 207.17 141.469 207.284 141.095 207.511C140.725 207.739 140.432 208.044 140.214 208.428C140.001 208.811 139.897 209.24 139.902 209.713C139.902 210.191 140.006 210.622 140.214 211.006C140.427 211.384 140.716 211.687 141.081 211.915C141.45 212.137 141.871 212.249 142.345 212.249C142.7 212.249 143.029 212.182 143.332 212.05C143.635 211.917 143.898 211.735 144.12 211.503C144.348 211.266 144.525 210.994 144.653 210.686C144.781 210.378 144.845 210.052 144.845 209.706C144.84 209.247 144.731 208.825 144.518 208.442C144.305 208.058 144.011 207.75 143.637 207.518C143.263 207.286 142.842 207.17 142.373 207.17ZM150.072 216.943V214.521L156.145 204.955H158.233V208.307H156.997L153.169 214.365V214.479H161.798V216.943H150.072ZM157.054 219.5V216.205L157.11 215.132V204.955H159.994V219.5H157.054ZM169.55 219.82C168.328 219.815 167.277 219.514 166.397 218.918C165.521 218.321 164.846 217.457 164.373 216.325C163.904 215.194 163.672 213.832 163.676 212.241C163.676 210.655 163.911 209.304 164.38 208.186C164.853 207.069 165.528 206.219 166.404 205.636C167.284 205.049 168.333 204.756 169.55 204.756C170.767 204.756 171.813 205.049 172.689 205.636C173.57 206.223 174.247 207.076 174.721 208.193C175.194 209.306 175.428 210.655 175.424 212.241C175.424 213.837 175.187 215.201 174.713 216.332C174.245 217.464 173.572 218.328 172.696 218.925C171.82 219.521 170.772 219.82 169.55 219.82ZM169.55 217.27C170.383 217.27 171.049 216.851 171.546 216.013C172.043 215.175 172.289 213.918 172.284 212.241C172.284 211.138 172.171 210.22 171.944 209.486C171.721 208.752 171.404 208.2 170.992 207.831C170.585 207.462 170.104 207.277 169.55 207.277C168.721 207.277 168.059 207.691 167.561 208.52C167.064 209.348 166.813 210.589 166.809 212.241C166.809 213.359 166.92 214.292 167.142 215.04C167.37 215.783 167.689 216.342 168.101 216.716C168.513 217.085 168.996 217.27 169.55 217.27ZM180.347 217.511L180.269 218.293C180.208 218.918 180.089 219.54 179.914 220.161C179.744 220.786 179.564 221.351 179.374 221.858C179.19 222.365 179.04 222.762 178.927 223.051H176.967C177.038 222.772 177.135 222.381 177.258 221.879C177.381 221.382 177.497 220.823 177.606 220.203C177.715 219.583 177.783 218.951 177.812 218.307L177.847 217.511H180.347ZM187.993 219.699C186.932 219.699 185.988 219.517 185.159 219.152C184.335 218.783 183.684 218.276 183.206 217.632C182.732 216.983 182.489 216.235 182.474 215.388H185.571C185.59 215.743 185.706 216.055 185.919 216.325C186.137 216.59 186.426 216.796 186.786 216.943C187.145 217.09 187.55 217.163 188 217.163C188.469 217.163 188.883 217.08 189.243 216.915C189.603 216.749 189.884 216.519 190.088 216.226C190.292 215.932 190.393 215.594 190.393 215.21C190.393 214.822 190.285 214.479 190.067 214.18C189.854 213.877 189.546 213.641 189.143 213.47C188.746 213.3 188.272 213.214 187.723 213.214H186.366V210.956H187.723C188.187 210.956 188.597 210.875 188.952 210.714C189.312 210.554 189.591 210.331 189.79 210.047C189.989 209.758 190.088 209.422 190.088 209.038C190.088 208.674 190 208.354 189.825 208.08C189.655 207.8 189.413 207.582 189.101 207.426C188.793 207.27 188.433 207.192 188.021 207.192C187.605 207.192 187.223 207.268 186.878 207.419C186.532 207.566 186.255 207.777 186.047 208.051C185.839 208.326 185.727 208.648 185.713 209.017H182.766C182.78 208.179 183.019 207.44 183.483 206.801C183.947 206.162 184.572 205.662 185.358 205.303C186.149 204.938 187.041 204.756 188.036 204.756C189.039 204.756 189.918 204.938 190.67 205.303C191.423 205.667 192.008 206.16 192.425 206.78C192.846 207.395 193.054 208.087 193.05 208.854C193.054 209.668 192.801 210.348 192.29 210.892C191.783 211.437 191.123 211.782 190.308 211.929V212.043C191.378 212.18 192.193 212.552 192.751 213.158C193.315 213.759 193.594 214.512 193.589 215.416C193.594 216.245 193.355 216.981 192.872 217.625C192.394 218.269 191.733 218.776 190.891 219.145C190.048 219.514 189.082 219.699 187.993 219.699ZM201.176 219.699C200.116 219.699 199.171 219.517 198.343 219.152C197.519 218.783 196.868 218.276 196.39 217.632C195.916 216.983 195.672 216.235 195.658 215.388H198.755C198.774 215.743 198.89 216.055 199.103 216.325C199.32 216.59 199.609 216.796 199.969 216.943C200.329 217.09 200.734 217.163 201.184 217.163C201.652 217.163 202.067 217.08 202.426 216.915C202.786 216.749 203.068 216.519 203.272 216.226C203.475 215.932 203.577 215.594 203.577 215.21C203.577 214.822 203.468 214.479 203.25 214.18C203.037 213.877 202.73 213.641 202.327 213.47C201.929 213.3 201.456 213.214 200.907 213.214H199.55V210.956H200.907C201.371 210.956 201.78 210.875 202.135 210.714C202.495 210.554 202.775 210.331 202.973 210.047C203.172 209.758 203.272 209.422 203.272 209.038C203.272 208.674 203.184 208.354 203.009 208.08C202.838 207.8 202.597 207.582 202.284 207.426C201.977 207.27 201.617 207.192 201.205 207.192C200.788 207.192 200.407 207.268 200.061 207.419C199.716 207.566 199.439 207.777 199.23 208.051C199.022 208.326 198.911 208.648 198.897 209.017H195.949C195.963 208.179 196.203 207.44 196.667 206.801C197.131 206.162 197.756 205.662 198.542 205.303C199.332 204.938 200.225 204.756 201.219 204.756C202.223 204.756 203.101 204.938 203.854 205.303C204.607 205.667 205.192 206.16 205.608 206.78C206.03 207.395 206.238 208.087 206.233 208.854C206.238 209.668 205.985 210.348 205.473 210.892C204.967 211.437 204.306 211.782 203.492 211.929V212.043C204.562 212.18 205.376 212.552 205.935 213.158C206.498 213.759 206.778 214.512 206.773 215.416C206.778 216.245 206.539 216.981 206.056 217.625C205.578 218.269 204.917 218.776 204.074 219.145C203.231 219.514 202.266 219.699 201.176 219.699ZM214.246 204.756C214.995 204.756 215.714 204.881 216.406 205.132C217.102 205.383 217.722 205.783 218.266 206.332C218.816 206.882 219.249 207.611 219.566 208.52C219.888 209.424 220.051 210.535 220.056 211.851C220.056 213.087 219.916 214.19 219.637 215.161C219.362 216.126 218.967 216.948 218.451 217.625C217.935 218.302 217.312 218.818 216.583 219.173C215.854 219.524 215.04 219.699 214.14 219.699C213.169 219.699 212.312 219.512 211.569 219.138C210.826 218.759 210.227 218.245 209.772 217.597C209.322 216.943 209.05 216.209 208.955 215.395H211.988C212.106 215.925 212.355 216.337 212.734 216.631C213.112 216.92 213.581 217.064 214.14 217.064C215.087 217.064 215.807 216.652 216.299 215.828C216.791 215 217.04 213.866 217.045 212.426H216.945C216.728 212.852 216.434 213.219 216.065 213.527C215.695 213.83 215.272 214.064 214.793 214.23C214.32 214.396 213.816 214.479 213.281 214.479C212.424 214.479 211.659 214.277 210.987 213.875C210.314 213.473 209.784 212.919 209.396 212.213C209.007 211.508 208.813 210.703 208.813 209.798C208.808 208.823 209.033 207.954 209.488 207.192C209.942 206.429 210.577 205.833 211.391 205.402C212.21 204.966 213.162 204.751 214.246 204.756ZM214.268 207.17C213.79 207.17 213.363 207.284 212.989 207.511C212.62 207.739 212.326 208.044 212.109 208.428C211.896 208.811 211.791 209.24 211.796 209.713C211.796 210.191 211.9 210.622 212.109 211.006C212.322 211.384 212.611 211.687 212.975 211.915C213.344 212.137 213.766 212.249 214.239 212.249C214.594 212.249 214.924 212.182 215.227 212.05C215.53 211.917 215.792 211.735 216.015 211.503C216.242 211.266 216.42 210.994 216.548 210.686C216.675 210.378 216.739 210.052 216.739 209.706C216.735 209.247 216.626 208.825 216.413 208.442C216.2 208.058 215.906 207.75 215.532 207.518C215.158 207.286 214.737 207.17 214.268 207.17Z" fill="#F04438"/>
<path d="M105.111 231.773H107.045L109.636 238.097H109.739L112.33 231.773H114.264V240.5H112.747V234.504H112.666L110.254 240.474H109.121L106.709 234.491H106.628V240.5H105.111V231.773ZM115.602 233.098V231.773H122.565V233.098H119.868V240.5H118.3V233.098H115.602ZM126.865 240.5H123.908V231.773H126.925C127.791 231.773 128.536 231.947 129.158 232.297C129.783 232.643 130.263 233.142 130.598 233.793C130.933 234.443 131.101 235.222 131.101 236.128C131.101 237.037 130.932 237.818 130.594 238.472C130.259 239.125 129.774 239.626 129.141 239.976C128.51 240.325 127.751 240.5 126.865 240.5ZM125.489 239.132H126.788C127.396 239.132 127.903 239.021 128.31 238.8C128.716 238.575 129.021 238.241 129.226 237.798C129.43 237.352 129.533 236.795 129.533 236.128C129.533 235.46 129.43 234.906 129.226 234.466C129.021 234.023 128.719 233.692 128.318 233.473C127.92 233.251 127.426 233.141 126.835 233.141H125.489V239.132ZM138.537 240.5H135.58V231.773H138.597C139.463 231.773 140.207 231.947 140.83 232.297C141.455 232.643 141.935 233.142 142.27 233.793C142.605 234.443 142.773 235.222 142.773 236.128C142.773 237.037 142.604 237.818 142.266 238.472C141.93 239.125 141.446 239.626 140.812 239.976C140.182 240.325 139.423 240.5 138.537 240.5ZM137.161 239.132H138.46C139.068 239.132 139.575 239.021 139.982 238.8C140.388 238.575 140.693 238.241 140.898 237.798C141.102 237.352 141.205 236.795 141.205 236.128C141.205 235.46 141.102 234.906 140.898 234.466C140.693 234.023 140.391 233.692 139.99 233.473C139.592 233.251 139.098 233.141 138.507 233.141H137.161V239.132ZM147.104 240.628C146.448 240.628 145.881 240.491 145.404 240.219C144.93 239.943 144.565 239.554 144.309 239.051C144.053 238.545 143.925 237.95 143.925 237.266C143.925 236.592 144.053 236.001 144.309 235.493C144.567 234.982 144.928 234.584 145.391 234.3C145.854 234.013 146.398 233.869 147.023 233.869C147.427 233.869 147.808 233.935 148.165 234.065C148.526 234.193 148.844 234.392 149.12 234.662C149.398 234.932 149.617 235.276 149.776 235.693C149.935 236.108 150.015 236.602 150.015 237.176V237.649H144.65V236.609H148.536C148.533 236.314 148.469 236.051 148.344 235.821C148.219 235.588 148.045 235.405 147.82 235.271C147.599 235.138 147.34 235.071 147.045 235.071C146.729 235.071 146.452 235.148 146.214 235.301C145.975 235.452 145.789 235.651 145.656 235.898C145.525 236.142 145.458 236.411 145.455 236.703V237.611C145.455 237.991 145.525 238.318 145.664 238.591C145.803 238.861 145.998 239.068 146.248 239.213C146.498 239.355 146.79 239.426 147.126 239.426C147.35 239.426 147.553 239.395 147.735 239.332C147.917 239.267 148.075 239.172 148.208 239.047C148.342 238.922 148.442 238.767 148.511 238.582L149.951 238.744C149.86 239.125 149.687 239.457 149.431 239.741C149.178 240.023 148.854 240.241 148.46 240.398C148.065 240.551 147.613 240.628 147.104 240.628ZM151.32 242.955V233.955H152.837V235.037H152.926C153.006 234.878 153.118 234.709 153.263 234.53C153.408 234.348 153.604 234.193 153.851 234.065C154.098 233.935 154.414 233.869 154.797 233.869C155.303 233.869 155.759 233.999 156.165 234.257C156.574 234.513 156.898 234.892 157.137 235.395C157.378 235.895 157.499 236.509 157.499 237.236C157.499 237.955 157.381 238.565 157.145 239.068C156.909 239.571 156.588 239.955 156.182 240.219C155.776 240.483 155.316 240.615 154.801 240.615C154.426 240.615 154.115 240.553 153.868 240.428C153.621 240.303 153.422 240.152 153.272 239.976C153.124 239.797 153.009 239.628 152.926 239.469H152.863V242.955H151.32ZM152.833 237.227C152.833 237.651 152.892 238.021 153.012 238.339C153.134 238.658 153.309 238.906 153.536 239.085C153.766 239.261 154.044 239.349 154.371 239.349C154.712 239.349 154.998 239.259 155.228 239.077C155.458 238.892 155.631 238.641 155.748 238.322C155.867 238.001 155.926 237.636 155.926 237.227C155.926 236.821 155.868 236.46 155.752 236.145C155.635 235.83 155.462 235.582 155.232 235.403C155.002 235.224 154.715 235.135 154.371 235.135C154.042 235.135 153.762 235.222 153.532 235.395C153.301 235.568 153.127 235.811 153.007 236.124C152.891 236.436 152.833 236.804 152.833 237.227ZM161.675 240.628C161.036 240.628 160.482 240.487 160.013 240.206C159.544 239.925 159.181 239.531 158.922 239.026C158.667 238.52 158.539 237.929 158.539 237.253C158.539 236.577 158.667 235.984 158.922 235.476C159.181 234.967 159.544 234.572 160.013 234.291C160.482 234.01 161.036 233.869 161.675 233.869C162.314 233.869 162.868 234.01 163.337 234.291C163.806 234.572 164.168 234.967 164.424 235.476C164.682 235.984 164.811 236.577 164.811 237.253C164.811 237.929 164.682 238.52 164.424 239.026C164.168 239.531 163.806 239.925 163.337 240.206C162.868 240.487 162.314 240.628 161.675 240.628ZM161.684 239.392C162.03 239.392 162.32 239.297 162.553 239.107C162.786 238.913 162.959 238.655 163.073 238.331C163.189 238.007 163.248 237.646 163.248 237.249C163.248 236.848 163.189 236.486 163.073 236.162C162.959 235.835 162.786 235.575 162.553 235.382C162.32 235.189 162.03 235.092 161.684 235.092C161.328 235.092 161.033 235.189 160.797 235.382C160.564 235.575 160.39 235.835 160.273 236.162C160.159 236.486 160.103 236.848 160.103 237.249C160.103 237.646 160.159 238.007 160.273 238.331C160.39 238.655 160.564 238.913 160.797 239.107C161.033 239.297 161.328 239.392 161.684 239.392ZM171.294 235.685L169.888 235.838C169.848 235.696 169.778 235.562 169.679 235.438C169.582 235.312 169.452 235.212 169.287 235.135C169.122 235.058 168.92 235.02 168.682 235.02C168.361 235.02 168.091 235.089 167.872 235.229C167.656 235.368 167.55 235.548 167.553 235.77C167.55 235.96 167.619 236.115 167.761 236.234C167.906 236.354 168.145 236.452 168.477 236.528L169.594 236.767C170.213 236.901 170.673 237.112 170.974 237.402C171.278 237.692 171.432 238.071 171.435 238.54C171.432 238.952 171.311 239.315 171.072 239.631C170.837 239.943 170.509 240.187 170.088 240.364C169.668 240.54 169.185 240.628 168.639 240.628C167.838 240.628 167.193 240.46 166.705 240.125C166.216 239.787 165.925 239.317 165.831 238.714L167.335 238.57C167.403 238.865 167.548 239.088 167.77 239.239C167.991 239.389 168.28 239.464 168.635 239.464C169.001 239.464 169.295 239.389 169.517 239.239C169.741 239.088 169.854 238.902 169.854 238.68C169.854 238.493 169.781 238.338 169.636 238.216C169.494 238.094 169.273 238 168.972 237.935L167.855 237.7C167.227 237.57 166.763 237.349 166.462 237.04C166.161 236.727 166.011 236.332 166.014 235.855C166.011 235.452 166.121 235.102 166.342 234.807C166.567 234.509 166.878 234.278 167.276 234.116C167.676 233.952 168.138 233.869 168.661 233.869C169.428 233.869 170.031 234.033 170.472 234.359C170.915 234.686 171.189 235.128 171.294 235.685ZM172.707 240.5V233.955H174.249V240.5H172.707ZM173.482 233.026C173.238 233.026 173.028 232.945 172.852 232.783C172.675 232.618 172.587 232.42 172.587 232.19C172.587 231.957 172.675 231.76 172.852 231.598C173.028 231.433 173.238 231.351 173.482 231.351C173.729 231.351 173.94 231.433 174.113 231.598C174.289 231.76 174.377 231.957 174.377 232.19C174.377 232.42 174.289 232.618 174.113 232.783C173.94 232.945 173.729 233.026 173.482 233.026ZM179.104 233.955V235.148H175.341V233.955H179.104ZM176.27 232.386H177.813V238.531C177.813 238.739 177.844 238.898 177.907 239.009C177.972 239.116 178.057 239.19 178.162 239.23C178.267 239.27 178.384 239.29 178.512 239.29C178.608 239.29 178.696 239.283 178.776 239.268C178.858 239.254 178.921 239.241 178.963 239.23L179.223 240.436C179.141 240.464 179.023 240.496 178.87 240.53C178.719 240.564 178.534 240.584 178.316 240.589C177.929 240.601 177.581 240.543 177.272 240.415C176.962 240.284 176.716 240.082 176.534 239.81C176.355 239.537 176.267 239.196 176.27 238.787V232.386ZM190.909 234.717H189.315C189.27 234.456 189.186 234.224 189.064 234.023C188.942 233.818 188.79 233.645 188.608 233.503C188.426 233.361 188.219 233.254 187.986 233.183C187.756 233.109 187.507 233.072 187.24 233.072C186.766 233.072 186.345 233.192 185.979 233.43C185.612 233.666 185.325 234.013 185.118 234.47C184.911 234.925 184.807 235.48 184.807 236.136C184.807 236.804 184.911 237.366 185.118 237.824C185.328 238.278 185.615 238.622 185.979 238.855C186.345 239.085 186.764 239.2 187.236 239.2C187.497 239.2 187.741 239.166 187.969 239.098C188.199 239.027 188.405 238.923 188.587 238.787C188.771 238.651 188.926 238.483 189.051 238.284C189.179 238.085 189.267 237.858 189.315 237.602L190.909 237.611C190.849 238.026 190.72 238.415 190.521 238.778C190.325 239.142 190.068 239.463 189.75 239.741C189.432 240.017 189.06 240.233 188.634 240.389C188.207 240.543 187.734 240.619 187.214 240.619C186.447 240.619 185.763 240.442 185.161 240.087C184.558 239.732 184.084 239.219 183.737 238.548C183.391 237.878 183.217 237.074 183.217 236.136C183.217 235.196 183.392 234.392 183.741 233.724C184.091 233.054 184.567 232.541 185.169 232.186C185.771 231.831 186.453 231.653 187.214 231.653C187.7 231.653 188.152 231.722 188.57 231.858C188.987 231.994 189.359 232.195 189.686 232.459C190.013 232.72 190.281 233.041 190.491 233.422C190.705 233.8 190.844 234.232 190.909 234.717ZM193.831 236.665V240.5H192.289V231.773H193.797V235.067H193.874C194.027 234.697 194.265 234.406 194.586 234.193C194.909 233.977 195.321 233.869 195.821 233.869C196.276 233.869 196.672 233.964 197.01 234.155C197.348 234.345 197.61 234.624 197.794 234.99C197.982 235.357 198.076 235.804 198.076 236.332V240.5H196.533V236.571C196.533 236.131 196.419 235.788 196.192 235.544C195.968 235.297 195.652 235.173 195.246 235.173C194.973 235.173 194.729 235.233 194.513 235.352C194.3 235.469 194.132 235.638 194.01 235.859C193.891 236.081 193.831 236.349 193.831 236.665ZM201.532 240.632C201.117 240.632 200.743 240.558 200.411 240.411C200.081 240.26 199.82 240.038 199.627 239.746C199.436 239.453 199.341 239.092 199.341 238.663C199.341 238.294 199.409 237.989 199.546 237.747C199.682 237.506 199.868 237.312 200.104 237.168C200.34 237.023 200.605 236.913 200.901 236.839C201.199 236.763 201.507 236.707 201.826 236.673C202.209 236.634 202.52 236.598 202.759 236.567C202.998 236.533 203.171 236.482 203.279 236.413C203.39 236.342 203.445 236.233 203.445 236.085V236.06C203.445 235.739 203.35 235.49 203.159 235.314C202.969 235.138 202.695 235.05 202.337 235.05C201.959 235.05 201.659 235.132 201.438 235.297C201.219 235.462 201.071 235.656 200.995 235.881L199.554 235.676C199.668 235.278 199.855 234.946 200.117 234.679C200.378 234.409 200.698 234.207 201.076 234.074C201.453 233.938 201.871 233.869 202.328 233.869C202.644 233.869 202.958 233.906 203.27 233.98C203.583 234.054 203.868 234.176 204.127 234.347C204.385 234.514 204.593 234.743 204.749 235.033C204.908 235.322 204.988 235.685 204.988 236.119V240.5H203.505V239.601H203.453C203.36 239.783 203.228 239.953 203.057 240.112C202.89 240.268 202.678 240.395 202.422 240.491C202.169 240.585 201.873 240.632 201.532 240.632ZM201.932 239.499C202.242 239.499 202.51 239.437 202.738 239.315C202.965 239.19 203.14 239.026 203.262 238.821C203.387 238.616 203.449 238.393 203.449 238.152V237.381C203.401 237.42 203.319 237.457 203.202 237.491C203.088 237.526 202.961 237.555 202.819 237.581C202.676 237.607 202.536 237.629 202.397 237.649C202.257 237.669 202.137 237.686 202.034 237.7C201.804 237.732 201.598 237.783 201.417 237.854C201.235 237.925 201.091 238.024 200.986 238.152C200.881 238.277 200.828 238.439 200.828 238.638C200.828 238.922 200.932 239.136 201.14 239.281C201.347 239.426 201.611 239.499 201.932 239.499ZM208.081 236.665V240.5H206.539V233.955H208.013V235.067H208.09C208.24 234.7 208.48 234.409 208.81 234.193C209.142 233.977 209.553 233.869 210.042 233.869C210.493 233.869 210.887 233.966 211.222 234.159C211.56 234.352 211.821 234.632 212.006 234.999C212.194 235.365 212.286 235.81 212.283 236.332V240.5H210.74V236.571C210.74 236.134 210.627 235.791 210.4 235.544C210.175 235.297 209.864 235.173 209.466 235.173C209.196 235.173 208.956 235.233 208.746 235.352C208.539 235.469 208.375 235.638 208.256 235.859C208.14 236.081 208.081 236.349 208.081 236.665ZM216.698 243.091C216.144 243.091 215.668 243.016 215.27 242.865C214.873 242.717 214.553 242.518 214.311 242.268C214.07 242.018 213.902 241.741 213.809 241.438L215.198 241.101C215.26 241.229 215.351 241.355 215.471 241.48C215.59 241.608 215.75 241.713 215.952 241.795C216.157 241.881 216.414 241.923 216.723 241.923C217.161 241.923 217.523 241.817 217.81 241.604C218.097 241.393 218.24 241.047 218.24 240.564V239.324H218.164C218.084 239.483 217.968 239.646 217.814 239.814C217.664 239.982 217.463 240.122 217.213 240.236C216.966 240.349 216.655 240.406 216.28 240.406C215.777 240.406 215.321 240.288 214.912 240.053C214.506 239.814 214.182 239.459 213.941 238.987C213.702 238.513 213.583 237.919 213.583 237.206C213.583 236.487 213.702 235.881 213.941 235.386C214.182 234.889 214.507 234.513 214.917 234.257C215.326 233.999 215.782 233.869 216.284 233.869C216.668 233.869 216.983 233.935 217.23 234.065C217.48 234.193 217.679 234.348 217.827 234.53C217.975 234.709 218.087 234.878 218.164 235.037H218.249V233.955H219.77V240.607C219.77 241.166 219.637 241.629 219.37 241.996C219.103 242.362 218.738 242.636 218.275 242.818C217.811 243 217.286 243.091 216.698 243.091ZM216.711 239.196C217.037 239.196 217.316 239.116 217.546 238.957C217.776 238.798 217.951 238.57 218.07 238.271C218.189 237.973 218.249 237.615 218.249 237.197C218.249 236.786 218.189 236.425 218.07 236.115C217.953 235.805 217.78 235.565 217.55 235.395C217.323 235.222 217.043 235.135 216.711 235.135C216.367 235.135 216.08 235.224 215.85 235.403C215.62 235.582 215.446 235.828 215.33 236.141C215.213 236.45 215.155 236.803 215.155 237.197C215.155 237.598 215.213 237.949 215.33 238.25C215.449 238.548 215.624 238.781 215.854 238.949C216.087 239.114 216.373 239.196 216.711 239.196ZM224.249 240.628C223.593 240.628 223.026 240.491 222.549 240.219C222.074 239.943 221.709 239.554 221.453 239.051C221.198 238.545 221.07 237.95 221.07 237.266C221.07 236.592 221.198 236.001 221.453 235.493C221.712 234.982 222.073 234.584 222.536 234.3C222.999 234.013 223.543 233.869 224.168 233.869C224.571 233.869 224.952 233.935 225.31 234.065C225.671 234.193 225.989 234.392 226.265 234.662C226.543 234.932 226.762 235.276 226.921 235.693C227.08 236.108 227.159 236.602 227.159 237.176V237.649H221.794V236.609H225.681C225.678 236.314 225.614 236.051 225.489 235.821C225.364 235.588 225.189 235.405 224.965 235.271C224.743 235.138 224.485 235.071 224.189 235.071C223.874 235.071 223.597 235.148 223.358 235.301C223.12 235.452 222.934 235.651 222.8 235.898C222.669 236.142 222.603 236.411 222.6 236.703V237.611C222.6 237.991 222.669 238.318 222.809 238.591C222.948 238.861 223.142 239.068 223.392 239.213C223.642 239.355 223.935 239.426 224.27 239.426C224.495 239.426 224.698 239.395 224.88 239.332C225.061 239.267 225.219 239.172 225.353 239.047C225.486 238.922 225.587 238.767 225.655 238.582L227.096 238.744C227.005 239.125 226.831 239.457 226.576 239.741C226.323 240.023 225.999 240.241 225.604 240.398C225.209 240.551 224.757 240.628 224.249 240.628Z" fill="#1D2939"/>
<path d="M269.5 155V288H271.5V155H269.5Z" fill="#EAECF0" mask="url(#path-6-inside-2_468_3041)"/>
<circle cx="333.75" cy="221.5" r="19.4664" fill="white" stroke="#C4E3D2" stroke-width="1.06716"/>
<g filter="url(#filter1_d_468_3041)">
<circle cx="333.75" cy="221.5" r="16.7742" fill="url(#paint1_linear_468_3041)"/>
</g>
<path d="M335.293 227.295V217.922L339.388 222.017C339.715 222.344 340.252 222.344 340.58 222.017C340.657 221.939 340.719 221.847 340.761 221.746C340.803 221.644 340.825 221.535 340.825 221.425C340.825 221.315 340.803 221.207 340.761 221.105C340.719 221.004 340.657 220.911 340.58 220.834L335.05 215.304C334.972 215.226 334.88 215.164 334.778 215.122C334.677 215.08 334.568 215.058 334.458 215.058C334.348 215.058 334.239 215.08 334.138 215.122C334.036 215.164 333.944 215.226 333.866 215.304L328.328 220.825C328.25 220.903 328.189 220.995 328.147 221.097C328.104 221.198 328.083 221.307 328.083 221.417C328.083 221.527 328.104 221.636 328.147 221.737C328.189 221.839 328.25 221.931 328.328 222.009C328.406 222.086 328.498 222.148 328.599 222.19C328.701 222.232 328.81 222.254 328.919 222.254C329.029 222.254 329.138 222.232 329.24 222.19C329.341 222.148 329.433 222.086 329.511 222.009L333.615 217.922V227.295C333.615 227.757 333.992 228.134 334.454 228.134C334.915 228.134 335.293 227.757 335.293 227.295Z" fill="white"/>
<path d="M369.815 221.318V203.136H370.98V221.318H369.815ZM372.905 209.138C372.848 208.565 372.604 208.12 372.173 207.803C371.742 207.485 371.158 207.327 370.419 207.327C369.917 207.327 369.493 207.398 369.148 207.54C368.802 207.677 368.537 207.869 368.352 208.115C368.172 208.361 368.082 208.641 368.082 208.953C368.073 209.214 368.127 209.441 368.246 209.635C368.369 209.829 368.537 209.997 368.75 210.139C368.963 210.277 369.209 210.397 369.489 210.501C369.768 210.601 370.066 210.686 370.384 210.757L371.69 211.07C372.325 211.212 372.907 211.401 373.438 211.638C373.968 211.875 374.427 212.166 374.815 212.511C375.204 212.857 375.504 213.264 375.717 213.733C375.935 214.202 376.046 214.739 376.051 215.345C376.046 216.235 375.819 217.007 375.369 217.661C374.924 218.309 374.28 218.813 373.438 219.173C372.599 219.528 371.589 219.706 370.405 219.706C369.231 219.706 368.208 219.526 367.337 219.166C366.47 218.806 365.793 218.274 365.305 217.568C364.822 216.858 364.569 215.98 364.545 214.933H367.521C367.554 215.421 367.694 215.828 367.94 216.155C368.191 216.477 368.525 216.721 368.942 216.886C369.363 217.047 369.839 217.128 370.369 217.128C370.89 217.128 371.342 217.052 371.726 216.901C372.114 216.749 372.415 216.538 372.628 216.268C372.841 215.999 372.947 215.688 372.947 215.338C372.947 215.011 372.85 214.737 372.656 214.514C372.467 214.292 372.188 214.102 371.818 213.946C371.454 213.79 371.006 213.648 370.476 213.52L368.892 213.122C367.666 212.824 366.697 212.357 365.987 211.723C365.277 211.089 364.924 210.234 364.929 209.159C364.924 208.278 365.159 207.509 365.632 206.851C366.11 206.193 366.766 205.679 367.599 205.31C368.433 204.94 369.38 204.756 370.44 204.756C371.52 204.756 372.462 204.94 373.267 205.31C374.077 205.679 374.706 206.193 375.156 206.851C375.606 207.509 375.838 208.271 375.852 209.138H372.905ZM378.034 219.5V217.284L383.212 212.49C383.652 212.064 384.022 211.68 384.32 211.339C384.623 210.999 384.853 210.665 385.009 210.338C385.165 210.007 385.243 209.649 385.243 209.266C385.243 208.839 385.146 208.473 384.952 208.165C384.758 207.852 384.493 207.613 384.157 207.447C383.82 207.277 383.439 207.192 383.013 207.192C382.568 207.192 382.18 207.282 381.848 207.462C381.517 207.642 381.261 207.9 381.081 208.236C380.901 208.572 380.811 208.972 380.811 209.436H377.892C377.892 208.484 378.108 207.658 378.539 206.957C378.97 206.257 379.573 205.714 380.35 205.331C381.126 204.947 382.021 204.756 383.034 204.756C384.076 204.756 384.983 204.94 385.755 205.31C386.531 205.674 387.135 206.181 387.566 206.83C387.997 207.478 388.212 208.222 388.212 209.06C388.212 209.609 388.103 210.151 387.885 210.686C387.672 211.221 387.291 211.815 386.742 212.469C386.193 213.117 385.418 213.896 384.419 214.805L382.296 216.886V216.986H388.404V219.5H378.034ZM393.949 217.511L393.871 218.293C393.809 218.918 393.691 219.54 393.516 220.161C393.345 220.786 393.165 221.351 392.976 221.858C392.791 222.365 392.642 222.762 392.528 223.051H390.568C390.639 222.772 390.736 222.381 390.859 221.879C390.982 221.382 391.098 220.823 391.207 220.203C391.316 219.583 391.385 218.951 391.413 218.307L391.449 217.511H393.949ZM396.467 216.943V214.521L402.539 204.955H404.627V208.307H403.391L399.563 214.365V214.479H408.192V216.943H396.467ZM403.448 219.5V216.205L403.505 215.132V204.955H406.388V219.5H403.448ZM410.021 216.943V214.521L416.094 204.955H418.182V208.307H416.946L413.118 214.365V214.479H421.747V216.943H410.021ZM417.003 219.5V216.205L417.06 215.132V204.955H419.943V219.5H417.003ZM429.499 219.82C428.278 219.815 427.227 219.514 426.346 218.918C425.47 218.321 424.795 217.457 424.322 216.325C423.853 215.194 423.621 213.832 423.626 212.241C423.626 210.655 423.86 209.304 424.329 208.186C424.802 207.069 425.477 206.219 426.353 205.636C427.234 205.049 428.282 204.756 429.499 204.756C430.716 204.756 431.763 205.049 432.638 205.636C433.519 206.223 434.196 207.076 434.67 208.193C435.143 209.306 435.378 210.655 435.373 212.241C435.373 213.837 435.136 215.201 434.663 216.332C434.194 217.464 433.522 218.328 432.646 218.925C431.77 219.521 430.721 219.82 429.499 219.82ZM429.499 217.27C430.333 217.27 430.998 216.851 431.495 216.013C431.992 215.175 432.238 213.918 432.234 212.241C432.234 211.138 432.12 210.22 431.893 209.486C431.67 208.752 431.353 208.2 430.941 207.831C430.534 207.462 430.053 207.277 429.499 207.277C428.671 207.277 428.008 207.691 427.511 208.52C427.013 209.348 426.763 210.589 426.758 212.241C426.758 213.359 426.869 214.292 427.092 215.04C427.319 215.783 427.638 216.342 428.05 216.716C428.462 217.085 428.945 217.27 429.499 217.27ZM440.297 217.511L440.218 218.293C440.157 218.918 440.038 219.54 439.863 220.161C439.693 220.786 439.513 221.351 439.324 221.858C439.139 222.365 438.99 222.762 438.876 223.051H436.916C436.987 222.772 437.084 222.381 437.207 221.879C437.33 221.382 437.446 220.823 437.555 220.203C437.664 219.583 437.733 218.951 437.761 218.307L437.797 217.511H440.297ZM448.23 219.699C447.226 219.699 446.331 219.514 445.545 219.145C444.764 218.776 444.144 218.267 443.684 217.618C443.225 216.969 442.986 216.226 442.967 215.388H445.95C445.983 215.951 446.22 216.408 446.66 216.759C447.1 217.109 447.624 217.284 448.23 217.284C448.713 217.284 449.139 217.178 449.508 216.964C449.882 216.747 450.173 216.446 450.382 216.062C450.595 215.674 450.701 215.229 450.701 214.727C450.701 214.216 450.592 213.766 450.375 213.378C450.162 212.99 449.866 212.687 449.487 212.469C449.108 212.251 448.675 212.14 448.187 212.135C447.761 212.135 447.347 212.223 446.944 212.398C446.547 212.573 446.236 212.812 446.014 213.115L443.279 212.625L443.968 204.955H452.86V207.469H446.504L446.127 211.112H446.213C446.468 210.752 446.854 210.454 447.37 210.217C447.886 209.981 448.464 209.862 449.103 209.862C449.979 209.862 450.761 210.068 451.447 210.48C452.134 210.892 452.676 211.458 453.074 212.178C453.471 212.893 453.668 213.716 453.663 214.649C453.668 215.629 453.44 216.5 452.981 217.263C452.527 218.02 451.89 218.617 451.071 219.053C450.256 219.483 449.309 219.699 448.23 219.699ZM461.184 219.699C460.124 219.699 459.179 219.517 458.35 219.152C457.527 218.783 456.876 218.276 456.397 217.632C455.924 216.983 455.68 216.235 455.666 215.388H458.762C458.781 215.743 458.897 216.055 459.11 216.325C459.328 216.59 459.617 216.796 459.977 216.943C460.337 217.09 460.742 217.163 461.191 217.163C461.66 217.163 462.074 217.08 462.434 216.915C462.794 216.749 463.076 216.519 463.279 216.226C463.483 215.932 463.585 215.594 463.585 215.21C463.585 214.822 463.476 214.479 463.258 214.18C463.045 213.877 462.737 213.641 462.335 213.47C461.937 213.3 461.464 213.214 460.914 213.214H459.558V210.956H460.914C461.378 210.956 461.788 210.875 462.143 210.714C462.503 210.554 462.782 210.331 462.981 210.047C463.18 209.758 463.279 209.422 463.279 209.038C463.279 208.674 463.192 208.354 463.017 208.08C462.846 207.8 462.605 207.582 462.292 207.426C461.984 207.27 461.625 207.192 461.213 207.192C460.796 207.192 460.415 207.268 460.069 207.419C459.724 207.566 459.447 207.777 459.238 208.051C459.03 208.326 458.919 208.648 458.904 209.017H455.957C455.971 208.179 456.21 207.44 456.674 206.801C457.138 206.162 457.763 205.662 458.549 205.303C459.34 204.938 460.233 204.756 461.227 204.756C462.231 204.756 463.109 204.938 463.862 205.303C464.615 205.667 465.199 206.16 465.616 206.78C466.038 207.395 466.246 208.087 466.241 208.854C466.246 209.668 465.993 210.348 465.481 210.892C464.975 211.437 464.314 211.782 463.5 211.929V212.043C464.57 212.18 465.384 212.552 465.943 213.158C466.506 213.759 466.786 214.512 466.781 215.416C466.786 216.245 466.547 216.981 466.064 217.625C465.585 218.269 464.925 218.776 464.082 219.145C463.239 219.514 462.273 219.699 461.184 219.699ZM474.254 204.756C475.002 204.756 475.722 204.881 476.413 205.132C477.109 205.383 477.73 205.783 478.274 206.332C478.823 206.882 479.257 207.611 479.574 208.52C479.896 209.424 480.059 210.535 480.064 211.851C480.064 213.087 479.924 214.19 479.645 215.161C479.37 216.126 478.975 216.948 478.459 217.625C477.943 218.302 477.32 218.818 476.591 219.173C475.862 219.524 475.047 219.699 474.148 219.699C473.177 219.699 472.32 219.512 471.577 219.138C470.833 218.759 470.234 218.245 469.78 217.597C469.33 216.943 469.058 216.209 468.963 215.395H471.996C472.114 215.925 472.363 216.337 472.741 216.631C473.12 216.92 473.589 217.064 474.148 217.064C475.095 217.064 475.814 216.652 476.307 215.828C476.799 215 477.048 213.866 477.053 212.426H476.953C476.735 212.852 476.442 213.219 476.072 213.527C475.703 213.83 475.279 214.064 474.801 214.23C474.328 214.396 473.823 214.479 473.288 214.479C472.431 214.479 471.667 214.277 470.994 213.875C470.322 213.473 469.792 212.919 469.403 212.213C469.015 211.508 468.821 210.703 468.821 209.798C468.816 208.823 469.041 207.954 469.496 207.192C469.95 206.429 470.585 205.833 471.399 205.402C472.218 204.966 473.17 204.751 474.254 204.756ZM474.276 207.17C473.797 207.17 473.371 207.284 472.997 207.511C472.628 207.739 472.334 208.044 472.116 208.428C471.903 208.811 471.799 209.24 471.804 209.713C471.804 210.191 471.908 210.622 472.116 211.006C472.33 211.384 472.618 211.687 472.983 211.915C473.352 212.137 473.774 212.249 474.247 212.249C474.602 212.249 474.931 212.182 475.234 212.05C475.537 211.917 475.8 211.735 476.023 211.503C476.25 211.266 476.428 210.994 476.555 210.686C476.683 210.378 476.747 210.052 476.747 209.706C476.742 209.247 476.634 208.825 476.42 208.442C476.207 208.058 475.914 207.75 475.54 207.518C475.166 207.286 474.744 207.17 474.276 207.17Z" fill="#039855"/>
<path d="M364.014 231.773H365.8L367.935 235.634H368.02L370.155 231.773H371.94L368.766 237.244V240.5H367.189V237.244L364.014 231.773ZM373.227 233.098V231.773H380.19V233.098H377.493V240.5H375.925V233.098H373.227ZM384.49 240.5H381.533V231.773H384.55C385.416 231.773 386.161 231.947 386.783 232.297C387.408 232.643 387.888 233.142 388.223 233.793C388.558 234.443 388.726 235.222 388.726 236.128C388.726 237.037 388.557 237.818 388.219 238.472C387.884 239.125 387.399 239.626 386.766 239.976C386.135 240.325 385.376 240.5 384.49 240.5ZM383.114 239.132H384.413C385.021 239.132 385.528 239.021 385.935 238.8C386.341 238.575 386.646 238.241 386.851 237.798C387.055 237.352 387.158 236.795 387.158 236.128C387.158 235.46 387.055 234.906 386.851 234.466C386.646 234.023 386.344 233.692 385.943 233.473C385.545 233.251 385.051 233.141 384.46 233.141H383.114V239.132ZM396.162 240.5H393.205V231.773H396.222C397.088 231.773 397.832 231.947 398.455 232.297C399.08 232.643 399.56 233.142 399.895 233.793C400.23 234.443 400.398 235.222 400.398 236.128C400.398 237.037 400.229 237.818 399.891 238.472C399.555 239.125 399.071 239.626 398.438 239.976C397.807 240.325 397.048 240.5 396.162 240.5ZM394.786 239.132H396.085C396.693 239.132 397.2 239.021 397.607 238.8C398.013 238.575 398.318 238.241 398.523 237.798C398.727 237.352 398.83 236.795 398.83 236.128C398.83 235.46 398.727 234.906 398.523 234.466C398.318 234.023 398.016 233.692 397.615 233.473C397.217 233.251 396.723 233.141 396.132 233.141H394.786V239.132ZM404.729 240.628C404.073 240.628 403.506 240.491 403.029 240.219C402.555 239.943 402.19 239.554 401.934 239.051C401.678 238.545 401.55 237.95 401.55 237.266C401.55 236.592 401.678 236.001 401.934 235.493C402.192 234.982 402.553 234.584 403.016 234.3C403.479 234.013 404.023 233.869 404.648 233.869C405.052 233.869 405.433 233.935 405.79 234.065C406.151 234.193 406.469 234.392 406.745 234.662C407.023 234.932 407.242 235.276 407.401 235.693C407.56 236.108 407.64 236.602 407.64 237.176V237.649H402.275V236.609H406.161C406.158 236.314 406.094 236.051 405.969 235.821C405.844 235.588 405.67 235.405 405.445 235.271C405.224 235.138 404.965 235.071 404.67 235.071C404.354 235.071 404.077 235.148 403.839 235.301C403.6 235.452 403.414 235.651 403.281 235.898C403.15 236.142 403.083 236.411 403.08 236.703V237.611C403.08 237.991 403.15 238.318 403.289 238.591C403.428 238.861 403.623 239.068 403.873 239.213C404.123 239.355 404.415 239.426 404.751 239.426C404.975 239.426 405.178 239.395 405.36 239.332C405.542 239.267 405.7 239.172 405.833 239.047C405.967 238.922 406.067 238.767 406.136 238.582L407.576 238.744C407.485 239.125 407.312 239.457 407.056 239.741C406.803 240.023 406.479 240.241 406.085 240.398C405.69 240.551 405.238 240.628 404.729 240.628ZM408.945 242.955V233.955H410.462V235.037H410.551C410.631 234.878 410.743 234.709 410.888 234.53C411.033 234.348 411.229 234.193 411.476 234.065C411.723 233.935 412.039 233.869 412.422 233.869C412.928 233.869 413.384 233.999 413.79 234.257C414.199 234.513 414.523 234.892 414.762 235.395C415.003 235.895 415.124 236.509 415.124 237.236C415.124 237.955 415.006 238.565 414.77 239.068C414.534 239.571 414.213 239.955 413.807 240.219C413.401 240.483 412.941 240.615 412.426 240.615C412.051 240.615 411.74 240.553 411.493 240.428C411.246 240.303 411.047 240.152 410.897 239.976C410.749 239.797 410.634 239.628 410.551 239.469H410.488V242.955H408.945ZM410.458 237.227C410.458 237.651 410.517 238.021 410.637 238.339C410.759 238.658 410.934 238.906 411.161 239.085C411.391 239.261 411.669 239.349 411.996 239.349C412.337 239.349 412.623 239.259 412.853 239.077C413.083 238.892 413.256 238.641 413.373 238.322C413.492 238.001 413.551 237.636 413.551 237.227C413.551 236.821 413.493 236.46 413.377 236.145C413.26 235.83 413.087 235.582 412.857 235.403C412.627 235.224 412.34 235.135 411.996 235.135C411.667 235.135 411.387 235.222 411.157 235.395C410.926 235.568 410.752 235.811 410.632 236.124C410.516 236.436 410.458 236.804 410.458 237.227ZM419.3 240.628C418.661 240.628 418.107 240.487 417.638 240.206C417.169 239.925 416.806 239.531 416.547 239.026C416.292 238.52 416.164 237.929 416.164 237.253C416.164 236.577 416.292 235.984 416.547 235.476C416.806 234.967 417.169 234.572 417.638 234.291C418.107 234.01 418.661 233.869 419.3 233.869C419.939 233.869 420.493 234.01 420.962 234.291C421.431 234.572 421.793 234.967 422.049 235.476C422.307 235.984 422.436 236.577 422.436 237.253C422.436 237.929 422.307 238.52 422.049 239.026C421.793 239.531 421.431 239.925 420.962 240.206C420.493 240.487 419.939 240.628 419.3 240.628ZM419.309 239.392C419.655 239.392 419.945 239.297 420.178 239.107C420.411 238.913 420.584 238.655 420.698 238.331C420.814 238.007 420.873 237.646 420.873 237.249C420.873 236.848 420.814 236.486 420.698 236.162C420.584 235.835 420.411 235.575 420.178 235.382C419.945 235.189 419.655 235.092 419.309 235.092C418.953 235.092 418.658 235.189 418.422 235.382C418.189 235.575 418.015 235.835 417.898 236.162C417.784 236.486 417.728 236.848 417.728 237.249C417.728 237.646 417.784 238.007 417.898 238.331C418.015 238.655 418.189 238.913 418.422 239.107C418.658 239.297 418.953 239.392 419.309 239.392ZM428.919 235.685L427.513 235.838C427.473 235.696 427.403 235.562 427.304 235.438C427.207 235.312 427.077 235.212 426.912 235.135C426.747 235.058 426.545 235.02 426.307 235.02C425.986 235.02 425.716 235.089 425.497 235.229C425.281 235.368 425.175 235.548 425.178 235.77C425.175 235.96 425.244 236.115 425.386 236.234C425.531 236.354 425.77 236.452 426.102 236.528L427.219 236.767C427.838 236.901 428.298 237.112 428.599 237.402C428.903 237.692 429.057 238.071 429.06 238.54C429.057 238.952 428.936 239.315 428.697 239.631C428.462 239.943 428.134 240.187 427.713 240.364C427.293 240.54 426.81 240.628 426.264 240.628C425.463 240.628 424.818 240.46 424.33 240.125C423.841 239.787 423.55 239.317 423.456 238.714L424.96 238.57C425.028 238.865 425.173 239.088 425.395 239.239C425.616 239.389 425.905 239.464 426.26 239.464C426.626 239.464 426.92 239.389 427.142 239.239C427.366 239.088 427.479 238.902 427.479 238.68C427.479 238.493 427.406 238.338 427.261 238.216C427.119 238.094 426.898 238 426.597 237.935L425.48 237.7C424.852 237.57 424.388 237.349 424.087 237.04C423.786 236.727 423.636 236.332 423.639 235.855C423.636 235.452 423.746 235.102 423.967 234.807C424.192 234.509 424.503 234.278 424.901 234.116C425.301 233.952 425.763 233.869 426.286 233.869C427.053 233.869 427.656 234.033 428.097 234.359C428.54 234.686 428.814 235.128 428.919 235.685ZM430.332 240.5V233.955H431.874V240.5H430.332ZM431.107 233.026C430.863 233.026 430.653 232.945 430.477 232.783C430.3 232.618 430.212 232.42 430.212 232.19C430.212 231.957 430.3 231.76 430.477 231.598C430.653 231.433 430.863 231.351 431.107 231.351C431.354 231.351 431.565 231.433 431.738 231.598C431.914 231.76 432.002 231.957 432.002 232.19C432.002 232.42 431.914 232.618 431.738 232.783C431.565 232.945 431.354 233.026 431.107 233.026ZM436.729 233.955V235.148H432.966V233.955H436.729ZM433.895 232.386H435.438V238.531C435.438 238.739 435.469 238.898 435.532 239.009C435.597 239.116 435.682 239.19 435.787 239.23C435.892 239.27 436.009 239.29 436.137 239.29C436.233 239.29 436.321 239.283 436.401 239.268C436.483 239.254 436.546 239.241 436.588 239.23L436.848 240.436C436.766 240.464 436.648 240.496 436.495 240.53C436.344 240.564 436.159 240.584 435.941 240.589C435.554 240.601 435.206 240.543 434.897 240.415C434.587 240.284 434.341 240.082 434.159 239.81C433.98 239.537 433.892 239.196 433.895 238.787V232.386ZM448.534 234.717H446.94C446.895 234.456 446.811 234.224 446.689 234.023C446.567 233.818 446.415 233.645 446.233 233.503C446.051 233.361 445.844 233.254 445.611 233.183C445.381 233.109 445.132 233.072 444.865 233.072C444.391 233.072 443.97 233.192 443.604 233.43C443.237 233.666 442.95 234.013 442.743 234.47C442.536 234.925 442.432 235.48 442.432 236.136C442.432 236.804 442.536 237.366 442.743 237.824C442.953 238.278 443.24 238.622 443.604 238.855C443.97 239.085 444.389 239.2 444.861 239.2C445.122 239.2 445.366 239.166 445.594 239.098C445.824 239.027 446.03 238.923 446.212 238.787C446.396 238.651 446.551 238.483 446.676 238.284C446.804 238.085 446.892 237.858 446.94 237.602L448.534 237.611C448.474 238.026 448.345 238.415 448.146 238.778C447.95 239.142 447.693 239.463 447.375 239.741C447.057 240.017 446.685 240.233 446.259 240.389C445.832 240.543 445.359 240.619 444.839 240.619C444.072 240.619 443.388 240.442 442.786 240.087C442.183 239.732 441.709 239.219 441.362 238.548C441.016 237.878 440.842 237.074 440.842 236.136C440.842 235.196 441.017 234.392 441.366 233.724C441.716 233.054 442.192 232.541 442.794 232.186C443.396 231.831 444.078 231.653 444.839 231.653C445.325 231.653 445.777 231.722 446.195 231.858C446.612 231.994 446.984 232.195 447.311 232.459C447.638 232.72 447.906 233.041 448.116 233.422C448.33 233.8 448.469 234.232 448.534 234.717ZM451.456 236.665V240.5H449.914V231.773H451.422V235.067H451.499C451.652 234.697 451.89 234.406 452.211 234.193C452.534 233.977 452.946 233.869 453.446 233.869C453.901 233.869 454.297 233.964 454.635 234.155C454.973 234.345 455.235 234.624 455.419 234.99C455.607 235.357 455.701 235.804 455.701 236.332V240.5H454.158V236.571C454.158 236.131 454.044 235.788 453.817 235.544C453.593 235.297 453.277 235.173 452.871 235.173C452.598 235.173 452.354 235.233 452.138 235.352C451.925 235.469 451.757 235.638 451.635 235.859C451.516 236.081 451.456 236.349 451.456 236.665ZM459.157 240.632C458.742 240.632 458.368 240.558 458.036 240.411C457.706 240.26 457.445 240.038 457.252 239.746C457.061 239.453 456.966 239.092 456.966 238.663C456.966 238.294 457.034 237.989 457.171 237.747C457.307 237.506 457.493 237.312 457.729 237.168C457.965 237.023 458.23 236.913 458.526 236.839C458.824 236.763 459.132 236.707 459.451 236.673C459.834 236.634 460.145 236.598 460.384 236.567C460.623 236.533 460.796 236.482 460.904 236.413C461.015 236.342 461.07 236.233 461.07 236.085V236.06C461.07 235.739 460.975 235.49 460.784 235.314C460.594 235.138 460.32 235.05 459.962 235.05C459.584 235.05 459.284 235.132 459.063 235.297C458.844 235.462 458.696 235.656 458.62 235.881L457.179 235.676C457.293 235.278 457.48 234.946 457.742 234.679C458.003 234.409 458.323 234.207 458.701 234.074C459.078 233.938 459.496 233.869 459.953 233.869C460.269 233.869 460.583 233.906 460.895 233.98C461.208 234.054 461.493 234.176 461.752 234.347C462.01 234.514 462.218 234.743 462.374 235.033C462.533 235.322 462.613 235.685 462.613 236.119V240.5H461.13V239.601H461.078C460.985 239.783 460.853 239.953 460.682 240.112C460.515 240.268 460.303 240.395 460.047 240.491C459.794 240.585 459.498 240.632 459.157 240.632ZM459.557 239.499C459.867 239.499 460.135 239.437 460.363 239.315C460.59 239.19 460.765 239.026 460.887 238.821C461.012 238.616 461.074 238.393 461.074 238.152V237.381C461.026 237.42 460.944 237.457 460.827 237.491C460.713 237.526 460.586 237.555 460.444 237.581C460.301 237.607 460.161 237.629 460.022 237.649C459.882 237.669 459.762 237.686 459.659 237.7C459.429 237.732 459.223 237.783 459.042 237.854C458.86 237.925 458.716 238.024 458.611 238.152C458.506 238.277 458.453 238.439 458.453 238.638C458.453 238.922 458.557 239.136 458.765 239.281C458.972 239.426 459.236 239.499 459.557 239.499ZM465.706 236.665V240.5H464.164V233.955H465.638V235.067H465.715C465.865 234.7 466.105 234.409 466.435 234.193C466.767 233.977 467.178 233.869 467.667 233.869C468.118 233.869 468.512 233.966 468.847 234.159C469.185 234.352 469.446 234.632 469.631 234.999C469.819 235.365 469.911 235.81 469.908 236.332V240.5H468.365V236.571C468.365 236.134 468.252 235.791 468.025 235.544C467.8 235.297 467.489 235.173 467.091 235.173C466.821 235.173 466.581 235.233 466.371 235.352C466.164 235.469 466 235.638 465.881 235.859C465.765 236.081 465.706 236.349 465.706 236.665ZM474.323 243.091C473.769 243.091 473.293 243.016 472.895 242.865C472.498 242.717 472.178 242.518 471.936 242.268C471.695 242.018 471.527 241.741 471.434 241.438L472.823 241.101C472.885 241.229 472.976 241.355 473.096 241.48C473.215 241.608 473.375 241.713 473.577 241.795C473.782 241.881 474.039 241.923 474.348 241.923C474.786 241.923 475.148 241.817 475.435 241.604C475.722 241.393 475.865 241.047 475.865 240.564V239.324H475.789C475.709 239.483 475.593 239.646 475.439 239.814C475.289 239.982 475.088 240.122 474.838 240.236C474.591 240.349 474.28 240.406 473.905 240.406C473.402 240.406 472.946 240.288 472.537 240.053C472.131 239.814 471.807 239.459 471.566 238.987C471.327 238.513 471.208 237.919 471.208 237.206C471.208 236.487 471.327 235.881 471.566 235.386C471.807 234.889 472.132 234.513 472.542 234.257C472.951 233.999 473.407 233.869 473.909 233.869C474.293 233.869 474.608 233.935 474.855 234.065C475.105 234.193 475.304 234.348 475.452 234.53C475.6 234.709 475.712 234.878 475.789 235.037H475.874V233.955H477.395V240.607C477.395 241.166 477.262 241.629 476.995 241.996C476.728 242.362 476.363 242.636 475.9 242.818C475.436 243 474.911 243.091 474.323 243.091ZM474.336 239.196C474.662 239.196 474.941 239.116 475.171 238.957C475.401 238.798 475.576 238.57 475.695 238.271C475.814 237.973 475.874 237.615 475.874 237.197C475.874 236.786 475.814 236.425 475.695 236.115C475.578 235.805 475.405 235.565 475.175 235.395C474.948 235.222 474.668 235.135 474.336 235.135C473.992 235.135 473.705 235.224 473.475 235.403C473.245 235.582 473.071 235.828 472.955 236.141C472.838 236.45 472.78 236.803 472.78 237.197C472.78 237.598 472.838 237.949 472.955 238.25C473.074 238.548 473.249 238.781 473.479 238.949C473.712 239.114 473.998 239.196 474.336 239.196ZM481.874 240.628C481.218 240.628 480.651 240.491 480.174 240.219C479.699 239.943 479.334 239.554 479.078 239.051C478.823 238.545 478.695 237.95 478.695 237.266C478.695 236.592 478.823 236.001 479.078 235.493C479.337 234.982 479.698 234.584 480.161 234.3C480.624 234.013 481.168 233.869 481.793 233.869C482.196 233.869 482.577 233.935 482.935 234.065C483.296 234.193 483.614 234.392 483.89 234.662C484.168 234.932 484.387 235.276 484.546 235.693C484.705 236.108 484.784 236.602 484.784 237.176V237.649H479.419V236.609H483.306C483.303 236.314 483.239 236.051 483.114 235.821C482.989 235.588 482.814 235.405 482.59 235.271C482.368 235.138 482.11 235.071 481.814 235.071C481.499 235.071 481.222 235.148 480.983 235.301C480.745 235.452 480.559 235.651 480.425 235.898C480.294 236.142 480.228 236.411 480.225 236.703V237.611C480.225 237.991 480.294 238.318 480.434 238.591C480.573 238.861 480.767 239.068 481.017 239.213C481.267 239.355 481.56 239.426 481.895 239.426C482.12 239.426 482.323 239.395 482.505 239.332C482.686 239.267 482.844 239.172 482.978 239.047C483.111 238.922 483.212 238.767 483.28 238.582L484.721 238.744C484.63 239.125 484.456 239.457 484.201 239.741C483.948 240.023 483.624 240.241 483.229 240.398C482.834 240.551 482.382 240.628 481.874 240.628Z" fill="#1D2939"/>
<defs>
<filter id="filter0_d_468_3041" x="52.0925" y="200.883" width="44.3118" height="44.3118" filterUnits="userSpaceOnUse" color-interpolation-filters="sRGB">
<feFlood flood-opacity="0" result="BackgroundImageFix"/>
<feColorMatrix in="SourceAlpha" type="matrix" values="0 0 0 0 0 0 0 0 0 0 0 0 0 0 0 0 0 0 127 0" result="hardAlpha"/>
<feOffset dy="1.53763"/>
<feGaussianBlur stdDeviation="2.69085"/>
<feComposite in2="hardAlpha" operator="out"/>
<feColorMatrix type="matrix" values="0 0 0 0 0.941176 0 0 0 0 0.266667 0 0 0 0 0.219608 0 0 0 0.24 0"/>
<feBlend mode="normal" in2="BackgroundImageFix" result="effect1_dropShadow_468_3041"/>
<feBlend mode="normal" in="SourceGraphic" in2="effect1_dropShadow_468_3041" result="shape"/>
</filter>
<filter id="filter1_d_468_3041" x="311.594" y="200.881" width="44.3118" height="44.3118" filterUnits="userSpaceOnUse" color-interpolation-filters="sRGB">
<feFlood flood-opacity="0" result="BackgroundImageFix"/>
<feColorMatrix in="SourceAlpha" type="matrix" values="0 0 0 0 0 0 0 0 0 0 0 0 0 0 0 0 0 0 127 0" result="hardAlpha"/>
<feOffset dy="1.53763"/>
<feGaussianBlur stdDeviation="2.69085"/>
<feComposite in2="hardAlpha" operator="out"/>
<feColorMatrix type="matrix" values="0 0 0 0 0.211765 0 0 0 0 0.678431 0 0 0 0 0.482353 0 0 0 0.33 0"/>
<feBlend mode="normal" in2="BackgroundImageFix" result="effect1_dropShadow_468_3041"/>
<feBlend mode="normal" in="SourceGraphic" in2="effect1_dropShadow_468_3041" result="shape"/>
</filter>
<linearGradient id="paint0_linear_468_3041" x1="8.85755" y1="8.99641" x2="60.0506" y2="75.7985" gradientUnits="userSpaceOnUse">
<stop stop-color="#F04438"/>
<stop offset="1" stop-color="white"/>
</linearGradient>
<linearGradient id="paint1_linear_468_3041" x1="325.833" y1="213.722" x2="377.026" y2="280.524" gradientUnits="userSpaceOnUse">
<stop stop-color="#039855"/>
<stop offset="1" stop-color="white"/>
</linearGradient>
</defs>
</svg>
