<svg width="431" height="136" viewBox="0 0 431 136" fill="none" xmlns="http://www.w3.org/2000/svg">
<circle cx="68.5" cy="68" r="64" stroke="#D0D5DD" stroke-width="8"/>
<path d="M108.838 117.688C97.9 126.567 84.3377 131.59 70.2544 131.976C56.1711 132.362 42.3539 128.091 30.9458 119.824C19.5376 111.557 11.1761 99.7563 7.15805 86.2528C3.13998 72.7494 3.68991 58.2974 8.72254 45.1383" stroke="#FD853A" stroke-width="8" stroke-linecap="round"/>
<path d="M130.319 51.4356C133.595 63.6623 133.172 76.5859 129.104 88.5721C125.035 100.558 117.503 111.069 107.461 118.775C97.4185 126.48 85.3167 131.035 72.6858 131.863C60.0549 132.691 47.4621 129.755 36.5 123.426" stroke="#0BA5EC" stroke-width="8" stroke-linecap="round"/>
<path d="M68.5 4C76.9046 4 85.2269 5.65541 92.9917 8.87171C100.757 12.088 107.812 16.8022 113.755 22.7452C119.698 28.6881 124.412 35.7434 127.628 43.5083C130.845 51.2731 132.5 59.5954 132.5 68" stroke="#1C2DD8" stroke-width="8" stroke-linecap="round"/>
<circle cx="183.5" cy="17" r="5" fill="#1C2DD8"/>
<path d="M198.284 21H195.459V12.2727H198.374C199.229 12.2727 199.963 12.4474 200.577 12.7969C201.19 13.1435 201.661 13.642 201.987 14.2926C202.317 14.9403 202.482 15.7173 202.482 16.6236C202.482 17.5327 202.315 18.3139 201.983 18.9673C201.653 19.6207 201.176 20.1236 200.551 20.4759C199.926 20.8253 199.17 21 198.284 21ZM196.776 19.8494H198.212C198.876 19.8494 199.429 19.7244 199.869 19.4744C200.31 19.2216 200.639 18.8565 200.858 18.3793C201.077 17.8991 201.186 17.3139 201.186 16.6236C201.186 15.9389 201.077 15.358 200.858 14.8807C200.642 14.4034 200.32 14.0412 199.891 13.794C199.462 13.5469 198.929 13.4233 198.293 13.4233H196.776V19.8494ZM206.838 21.1321C206.193 21.1321 205.637 20.9943 205.172 20.7188C204.708 20.4403 204.35 20.0497 204.098 19.5469C203.848 19.0412 203.723 18.4489 203.723 17.7699C203.723 17.0994 203.848 16.5085 204.098 15.9972C204.35 15.4858 204.703 15.0866 205.154 14.7997C205.609 14.5128 206.14 14.3693 206.748 14.3693C207.118 14.3693 207.475 14.4304 207.822 14.5526C208.169 14.6747 208.48 14.8665 208.755 15.1278C209.031 15.3892 209.248 15.7287 209.407 16.1463C209.566 16.5611 209.646 17.0653 209.646 17.6591V18.1108H204.443V17.1562H208.397C208.397 16.821 208.329 16.5241 208.193 16.2656C208.056 16.0043 207.865 15.7983 207.618 15.6477C207.373 15.4972 207.086 15.4219 206.757 15.4219C206.399 15.4219 206.086 15.5099 205.819 15.6861C205.555 15.8594 205.35 16.0866 205.206 16.3679C205.064 16.6463 204.993 16.9489 204.993 17.2756V18.0213C204.993 18.4588 205.069 18.831 205.223 19.1378C205.379 19.4446 205.596 19.679 205.875 19.8409C206.153 20 206.478 20.0795 206.85 20.0795C207.092 20.0795 207.312 20.0455 207.511 19.9773C207.71 19.9062 207.882 19.8011 208.027 19.6619C208.172 19.5227 208.282 19.3509 208.359 19.1463L209.565 19.3636C209.468 19.7187 209.295 20.0298 209.045 20.2969C208.798 20.5611 208.487 20.767 208.112 20.9148C207.74 21.0597 207.315 21.1321 206.838 21.1321ZM211.06 23.4545V14.4545H212.304V15.5156H212.411C212.484 15.3793 212.591 15.2216 212.73 15.0426C212.869 14.8636 213.063 14.7074 213.31 14.5739C213.557 14.4375 213.884 14.3693 214.29 14.3693C214.818 14.3693 215.29 14.5028 215.705 14.7699C216.119 15.0369 216.445 15.4219 216.68 15.9247C216.919 16.4276 217.038 17.0327 217.038 17.7401C217.038 18.4474 216.92 19.054 216.685 19.5597C216.449 20.0625 216.125 20.4503 215.713 20.723C215.301 20.9929 214.831 21.1278 214.303 21.1278C213.905 21.1278 213.58 21.0611 213.327 20.9276C213.077 20.794 212.881 20.6378 212.739 20.4588C212.597 20.2798 212.487 20.1207 212.411 19.9815H212.334V23.4545H211.06ZM212.308 17.7273C212.308 18.1875 212.375 18.5909 212.509 18.9375C212.642 19.2841 212.835 19.5554 213.088 19.7514C213.341 19.9446 213.651 20.0412 214.017 20.0412C214.398 20.0412 214.716 19.9403 214.972 19.7386C215.227 19.5341 215.42 19.2571 215.551 18.9077C215.685 18.5582 215.751 18.1648 215.751 17.7273C215.751 17.2955 215.686 16.9077 215.555 16.5639C215.428 16.2202 215.234 15.9489 214.976 15.75C214.72 15.5511 214.401 15.4517 214.017 15.4517C213.648 15.4517 213.335 15.5469 213.08 15.7372C212.827 15.9276 212.635 16.1932 212.504 16.5341C212.374 16.875 212.308 17.2727 212.308 17.7273ZM221.223 21.1321C220.609 21.1321 220.074 20.9915 219.616 20.7102C219.159 20.429 218.804 20.0355 218.551 19.5298C218.298 19.0241 218.172 18.4332 218.172 17.7571C218.172 17.0781 218.298 16.4844 218.551 15.9759C218.804 15.4673 219.159 15.0724 219.616 14.7912C220.074 14.5099 220.609 14.3693 221.223 14.3693C221.837 14.3693 222.372 14.5099 222.83 14.7912C223.287 15.0724 223.642 15.4673 223.895 15.9759C224.148 16.4844 224.274 17.0781 224.274 17.7571C224.274 18.4332 224.148 19.0241 223.895 19.5298C223.642 20.0355 223.287 20.429 222.83 20.7102C222.372 20.9915 221.837 21.1321 221.223 21.1321ZM221.227 20.0625C221.625 20.0625 221.955 19.9574 222.216 19.7472C222.477 19.5369 222.67 19.2571 222.795 18.9077C222.923 18.5582 222.987 18.1733 222.987 17.7528C222.987 17.3352 222.923 16.9517 222.795 16.6023C222.67 16.25 222.477 15.9673 222.216 15.7543C221.955 15.5412 221.625 15.4347 221.227 15.4347C220.827 15.4347 220.494 15.5412 220.23 15.7543C219.969 15.9673 219.774 16.25 219.646 16.6023C219.521 16.9517 219.459 17.3352 219.459 17.7528C219.459 18.1733 219.521 18.5582 219.646 18.9077C219.774 19.2571 219.969 19.5369 220.23 19.7472C220.494 19.9574 220.827 20.0625 221.227 20.0625ZM230.601 16.0526L229.446 16.2571C229.398 16.1094 229.321 15.9687 229.216 15.8352C229.114 15.7017 228.975 15.5923 228.799 15.5071C228.623 15.4219 228.402 15.3793 228.138 15.3793C227.777 15.3793 227.476 15.4602 227.235 15.6222C226.993 15.7812 226.873 15.9872 226.873 16.2401C226.873 16.4588 226.953 16.6349 227.115 16.7685C227.277 16.902 227.539 17.0114 227.9 17.0966L228.939 17.3352C229.542 17.4744 229.99 17.6889 230.286 17.9787C230.581 18.2685 230.729 18.6449 230.729 19.108C230.729 19.5 230.615 19.8494 230.388 20.1562C230.164 20.4602 229.85 20.6989 229.446 20.8722C229.046 21.0455 228.581 21.1321 228.053 21.1321C227.32 21.1321 226.722 20.9759 226.259 20.6634C225.796 20.348 225.512 19.9006 225.407 19.321L226.638 19.1335C226.715 19.4545 226.873 19.6974 227.111 19.8622C227.35 20.0241 227.661 20.1051 228.044 20.1051C228.462 20.1051 228.796 20.0185 229.046 19.8452C229.296 19.669 229.421 19.4545 229.421 19.2017C229.421 18.9972 229.344 18.8253 229.191 18.6861C229.04 18.5469 228.809 18.4418 228.496 18.3707L227.388 18.1278C226.777 17.9886 226.326 17.767 226.033 17.4631C225.743 17.1591 225.598 16.7741 225.598 16.3082C225.598 15.9219 225.706 15.5838 225.922 15.294C226.138 15.0043 226.436 14.7784 226.817 14.6165C227.198 14.4517 227.634 14.3693 228.125 14.3693C228.833 14.3693 229.39 14.5227 229.796 14.8295C230.202 15.1335 230.471 15.5412 230.601 16.0526ZM232.13 21V14.4545H233.404V21H232.13ZM232.773 13.4446C232.552 13.4446 232.362 13.3707 232.202 13.223C232.046 13.0724 231.968 12.8935 231.968 12.6861C231.968 12.4759 232.046 12.2969 232.202 12.1491C232.362 11.9986 232.552 11.9233 232.773 11.9233C232.995 11.9233 233.184 11.9986 233.34 12.1491C233.499 12.2969 233.579 12.4759 233.579 12.6861C233.579 12.8935 233.499 13.0724 233.34 13.223C233.184 13.3707 232.995 13.4446 232.773 13.4446ZM238.174 14.4545V15.4773H234.598V14.4545H238.174ZM235.557 12.8864H236.831V19.0781C236.831 19.3253 236.868 19.5114 236.942 19.6364C237.016 19.7585 237.111 19.8423 237.228 19.8878C237.347 19.9304 237.476 19.9517 237.615 19.9517C237.718 19.9517 237.807 19.9446 237.884 19.9304C237.961 19.9162 238.02 19.9048 238.063 19.8963L238.293 20.9489C238.219 20.9773 238.114 21.0057 237.978 21.0341C237.841 21.0653 237.671 21.0824 237.466 21.0852C237.131 21.0909 236.819 21.0312 236.529 20.9062C236.239 20.7812 236.005 20.5881 235.826 20.3267C235.647 20.0653 235.557 19.7372 235.557 19.3423V12.8864ZM244.382 16.0526L243.228 16.2571C243.179 16.1094 243.103 15.9687 242.998 15.8352C242.895 15.7017 242.756 15.5923 242.58 15.5071C242.404 15.4219 242.184 15.3793 241.919 15.3793C241.559 15.3793 241.257 15.4602 241.016 15.6222C240.775 15.7812 240.654 15.9872 240.654 16.2401C240.654 16.4588 240.735 16.6349 240.897 16.7685C241.059 16.902 241.32 17.0114 241.681 17.0966L242.721 17.3352C243.323 17.4744 243.772 17.6889 244.067 17.9787C244.363 18.2685 244.51 18.6449 244.51 19.108C244.51 19.5 244.397 19.8494 244.169 20.1562C243.945 20.4602 243.631 20.6989 243.228 20.8722C242.827 21.0455 242.363 21.1321 241.834 21.1321C241.101 21.1321 240.503 20.9759 240.04 20.6634C239.577 20.348 239.293 19.9006 239.188 19.321L240.419 19.1335C240.496 19.4545 240.654 19.6974 240.892 19.8622C241.131 20.0241 241.442 20.1051 241.826 20.1051C242.243 20.1051 242.577 20.0185 242.827 19.8452C243.077 19.669 243.202 19.4545 243.202 19.2017C243.202 18.9972 243.125 18.8253 242.972 18.6861C242.821 18.5469 242.59 18.4418 242.277 18.3707L241.169 18.1278C240.559 17.9886 240.107 17.767 239.814 17.4631C239.525 17.1591 239.38 16.7741 239.38 16.3082C239.38 15.9219 239.488 15.5838 239.703 15.294C239.919 15.0043 240.218 14.7784 240.598 14.6165C240.979 14.4517 241.415 14.3693 241.907 14.3693C242.614 14.3693 243.171 14.5227 243.577 14.8295C243.983 15.1335 244.252 15.5412 244.382 16.0526Z" fill="#1D2939"/>
<path d="M406.339 21V20.0455L409.293 16.9858C409.608 16.6534 409.868 16.3622 410.072 16.1122C410.28 15.8594 410.435 15.6193 410.537 15.392C410.639 15.1648 410.69 14.9233 410.69 14.6676C410.69 14.3778 410.622 14.1278 410.486 13.9176C410.349 13.7045 410.163 13.5412 409.928 13.4276C409.692 13.3111 409.426 13.2528 409.131 13.2528C408.818 13.2528 408.545 13.3168 408.312 13.4446C408.08 13.5724 407.901 13.7528 407.776 13.9858C407.651 14.2187 407.588 14.4915 407.588 14.804H406.331C406.331 14.2727 406.453 13.8082 406.697 13.4105C406.942 13.0128 407.277 12.7045 407.703 12.4858C408.129 12.2642 408.614 12.1534 409.156 12.1534C409.705 12.1534 410.188 12.2628 410.605 12.4815C411.026 12.6974 411.354 12.9929 411.589 13.3679C411.825 13.7401 411.943 14.1605 411.943 14.6293C411.943 14.9531 411.882 15.2699 411.76 15.5795C411.641 15.8892 411.432 16.2344 411.134 16.6151C410.835 16.9929 410.42 17.4517 409.889 17.9915L408.155 19.8068V19.8707H412.084V21H406.339ZM416.58 21.1193C416.045 21.1193 415.565 21.017 415.139 20.8125C414.716 20.6051 414.378 20.321 414.125 19.9602C413.872 19.5994 413.737 19.1875 413.72 18.7244H414.999C415.03 19.0994 415.196 19.4077 415.497 19.6491C415.798 19.8906 416.159 20.0114 416.58 20.0114C416.915 20.0114 417.212 19.9347 417.47 19.7812C417.732 19.625 417.936 19.4105 418.084 19.1378C418.234 18.8651 418.31 18.554 418.31 18.2045C418.31 17.8494 418.233 17.5327 418.08 17.2543C417.926 16.9759 417.714 16.7571 417.445 16.598C417.178 16.4389 416.871 16.358 416.524 16.3551C416.26 16.3551 415.994 16.4006 415.727 16.4915C415.46 16.5824 415.244 16.7017 415.08 16.8494L413.874 16.6705L414.364 12.2727H419.162V13.402H415.459L415.182 15.8438H415.233C415.403 15.679 415.629 15.5412 415.911 15.4304C416.195 15.3196 416.499 15.2642 416.822 15.2642C417.354 15.2642 417.827 15.3906 418.241 15.6435C418.659 15.8963 418.987 16.2415 419.226 16.679C419.467 17.1136 419.587 17.6136 419.584 18.179C419.587 18.7443 419.459 19.2486 419.2 19.6918C418.945 20.1349 418.589 20.4844 418.135 20.7401C417.683 20.9929 417.165 21.1193 416.58 21.1193ZM425.696 19.3636V18.9034C425.696 18.5739 425.764 18.2727 425.9 18C426.039 17.7244 426.241 17.5043 426.505 17.3395C426.772 17.1719 427.095 17.0881 427.473 17.0881C427.859 17.0881 428.183 17.1705 428.444 17.3352C428.706 17.5 428.903 17.7202 429.037 17.9957C429.173 18.2713 429.241 18.5739 429.241 18.9034V19.3636C429.241 19.6932 429.173 19.9957 429.037 20.2713C428.9 20.544 428.7 20.7642 428.436 20.9318C428.174 21.0966 427.853 21.179 427.473 21.179C427.089 21.179 426.765 21.0966 426.501 20.9318C426.237 20.7642 426.037 20.544 425.9 20.2713C425.764 19.9957 425.696 19.6932 425.696 19.3636ZM426.689 18.9034V19.3636C426.689 19.608 426.747 19.8295 426.863 20.0284C426.98 20.2273 427.183 20.3267 427.473 20.3267C427.76 20.3267 427.96 20.2273 428.074 20.0284C428.187 19.8295 428.244 19.608 428.244 19.3636V18.9034C428.244 18.6591 428.189 18.4375 428.078 18.2386C427.97 18.0398 427.768 17.9403 427.473 17.9403C427.189 17.9403 426.987 18.0398 426.868 18.2386C426.748 18.4375 426.689 18.6591 426.689 18.9034ZM421.306 14.3693V13.9091C421.306 13.5795 421.375 13.277 421.511 13.0014C421.65 12.7259 421.852 12.5057 422.116 12.3409C422.383 12.1761 422.706 12.0938 423.083 12.0938C423.47 12.0938 423.794 12.1761 424.055 12.3409C424.316 12.5057 424.514 12.7259 424.647 13.0014C424.781 13.277 424.848 13.5795 424.848 13.9091V14.3693C424.848 14.6989 424.779 15.0014 424.643 15.277C424.51 15.5497 424.311 15.7699 424.047 15.9375C423.785 16.1023 423.464 16.1847 423.083 16.1847C422.697 16.1847 422.372 16.1023 422.108 15.9375C421.846 15.7699 421.647 15.5497 421.511 15.277C421.375 15.0014 421.306 14.6989 421.306 14.3693ZM422.304 13.9091V14.3693C422.304 14.6136 422.36 14.8352 422.474 15.0341C422.591 15.233 422.794 15.3324 423.083 15.3324C423.368 15.3324 423.566 15.233 423.68 15.0341C423.797 14.8352 423.855 14.6136 423.855 14.3693V13.9091C423.855 13.6648 423.799 13.4432 423.689 13.2443C423.578 13.0455 423.376 12.946 423.083 12.946C422.799 12.946 422.598 13.0455 422.478 13.2443C422.362 13.4432 422.304 13.6648 422.304 13.9091ZM421.711 21L427.711 12.2727H428.73L422.73 21H421.711Z" fill="#1D2939"/>
<path d="M430.5 33H178.5V35H430.5V33Z" fill="#EAECF0" mask="url(#path-5-inside-1_665_368)"/>
<circle cx="183.5" cy="51" r="5" fill="#0BA5EC"/>
<path d="M200.219 48.5653C200.173 48.1619 199.986 47.8494 199.656 47.6278C199.327 47.4034 198.912 47.2912 198.412 47.2912C198.054 47.2912 197.744 47.348 197.483 47.4616C197.222 47.5724 197.018 47.7259 196.874 47.9219C196.732 48.1151 196.661 48.3352 196.661 48.5824C196.661 48.7898 196.709 48.9687 196.805 49.1193C196.905 49.2699 197.034 49.3963 197.193 49.4986C197.355 49.598 197.528 49.6818 197.713 49.75C197.898 49.8153 198.075 49.8693 198.246 49.9119L199.098 50.1335C199.376 50.2017 199.662 50.294 199.955 50.4105C200.247 50.527 200.518 50.6804 200.768 50.8707C201.018 51.0611 201.22 51.2969 201.374 51.5781C201.53 51.8594 201.608 52.196 201.608 52.5881C201.608 53.0824 201.48 53.5213 201.224 53.9048C200.972 54.2884 200.604 54.5909 200.121 54.8125C199.641 55.0341 199.06 55.1449 198.378 55.1449C197.724 55.1449 197.159 55.0412 196.682 54.8338C196.205 54.6264 195.831 54.3324 195.561 53.9517C195.291 53.5682 195.142 53.1136 195.114 52.5881H196.435C196.46 52.9034 196.563 53.1662 196.741 53.3764C196.923 53.5838 197.155 53.7386 197.436 53.8409C197.72 53.9403 198.031 53.9901 198.369 53.9901C198.741 53.9901 199.072 53.9318 199.362 53.8153C199.655 53.696 199.885 53.5312 200.053 53.321C200.22 53.108 200.304 52.8594 200.304 52.5753C200.304 52.3168 200.23 52.1051 200.082 51.9403C199.938 51.7756 199.74 51.6392 199.49 51.5312C199.243 51.4233 198.963 51.3281 198.651 51.2457L197.619 50.9645C196.92 50.7741 196.366 50.4943 195.957 50.125C195.551 49.7557 195.348 49.267 195.348 48.6591C195.348 48.1562 195.484 47.7173 195.757 47.3423C196.03 46.9673 196.399 46.6761 196.865 46.4688C197.331 46.2585 197.857 46.1534 198.442 46.1534C199.033 46.1534 199.554 46.2571 200.006 46.4645C200.46 46.6719 200.818 46.9574 201.08 47.321C201.341 47.6818 201.477 48.0966 201.489 48.5653H200.219ZM204.984 55.1449C204.569 55.1449 204.194 55.0682 203.859 54.9148C203.524 54.7585 203.258 54.5327 203.062 54.2372C202.869 53.9418 202.772 53.5795 202.772 53.1506C202.772 52.7812 202.843 52.4773 202.985 52.2386C203.127 52 203.319 51.8111 203.561 51.6719C203.802 51.5327 204.072 51.4276 204.37 51.3565C204.669 51.2855 204.973 51.2315 205.282 51.1946C205.674 51.1491 205.993 51.1122 206.237 51.0838C206.481 51.0526 206.659 51.0028 206.77 50.9347C206.88 50.8665 206.936 50.7557 206.936 50.6023V50.5724C206.936 50.2003 206.831 49.9119 206.62 49.7074C206.413 49.5028 206.103 49.4006 205.691 49.4006C205.262 49.4006 204.924 49.4957 204.677 49.6861C204.433 49.8736 204.264 50.0824 204.17 50.3125L202.973 50.0398C203.115 49.642 203.322 49.321 203.595 49.0767C203.87 48.8295 204.187 48.6506 204.545 48.5398C204.903 48.4261 205.279 48.3693 205.674 48.3693C205.936 48.3693 206.213 48.4006 206.505 48.4631C206.801 48.5227 207.076 48.6335 207.332 48.7955C207.591 48.9574 207.802 49.1889 207.967 49.4901C208.132 49.7884 208.214 50.1761 208.214 50.6534V55H206.97V54.1051H206.919C206.836 54.2699 206.713 54.4318 206.548 54.5909C206.383 54.75 206.172 54.8821 205.913 54.9872C205.654 55.0923 205.345 55.1449 204.984 55.1449ZM205.261 54.1222C205.613 54.1222 205.914 54.0526 206.164 53.9134C206.417 53.7741 206.609 53.5923 206.74 53.3679C206.873 53.1406 206.94 52.8977 206.94 52.6392V51.7955C206.895 51.8409 206.806 51.8835 206.676 51.9233C206.548 51.9602 206.402 51.9929 206.237 52.0213C206.072 52.0469 205.912 52.071 205.755 52.0938C205.599 52.1136 205.468 52.1307 205.363 52.1449C205.116 52.1761 204.89 52.2287 204.686 52.3026C204.484 52.3764 204.322 52.483 204.2 52.6222C204.081 52.7585 204.021 52.9403 204.021 53.1676C204.021 53.483 204.137 53.7216 204.37 53.8835C204.603 54.0426 204.9 54.1222 205.261 54.1222ZM215.276 48.4545L212.903 55H211.539L209.161 48.4545H210.529L212.187 53.4915H212.255L213.908 48.4545H215.276ZM216.474 55V48.4545H217.748V55H216.474ZM217.117 47.4446C216.896 47.4446 216.705 47.3707 216.546 47.223C216.39 47.0724 216.312 46.8935 216.312 46.6861C216.312 46.4759 216.39 46.2969 216.546 46.1491C216.705 45.9986 216.896 45.9233 217.117 45.9233C217.339 45.9233 217.528 45.9986 217.684 46.1491C217.843 46.2969 217.923 46.4759 217.923 46.6861C217.923 46.8935 217.843 47.0724 217.684 47.223C217.528 47.3707 217.339 47.4446 217.117 47.4446ZM220.736 51.1136V55H219.462V48.4545H220.685V49.5199H220.766C220.917 49.1733 221.152 48.8949 221.473 48.6847C221.797 48.4744 222.205 48.3693 222.696 48.3693C223.142 48.3693 223.533 48.4631 223.868 48.6506C224.203 48.8352 224.463 49.1108 224.648 49.4773C224.833 49.8437 224.925 50.2969 224.925 50.8366V55H223.651V50.9901C223.651 50.5156 223.527 50.1449 223.28 49.8778C223.033 49.608 222.694 49.473 222.262 49.473C221.966 49.473 221.703 49.5369 221.473 49.6648C221.246 49.7926 221.066 49.9801 220.932 50.2273C220.801 50.4716 220.736 50.767 220.736 51.1136ZM229.378 57.5909C228.858 57.5909 228.411 57.5227 228.036 57.3864C227.664 57.25 227.36 57.0696 227.124 56.8452C226.888 56.6207 226.712 56.375 226.596 56.108L227.691 55.6562C227.767 55.7812 227.87 55.9134 227.998 56.0526C228.128 56.1946 228.304 56.3153 228.526 56.4148C228.75 56.5142 229.039 56.5639 229.391 56.5639C229.874 56.5639 230.273 56.446 230.588 56.2102C230.904 55.9773 231.061 55.6051 231.061 55.0938V53.8068H230.98C230.904 53.946 230.793 54.1009 230.648 54.2713C230.506 54.4418 230.31 54.5895 230.06 54.7145C229.81 54.8395 229.485 54.902 229.084 54.902C228.567 54.902 228.101 54.7812 227.686 54.5398C227.275 54.2955 226.948 53.9361 226.706 53.4616C226.468 52.9844 226.348 52.3977 226.348 51.7017C226.348 51.0057 226.466 50.4091 226.702 49.9119C226.941 49.4148 227.267 49.0341 227.682 48.7699C228.097 48.5028 228.567 48.3693 229.093 48.3693C229.499 48.3693 229.827 48.4375 230.077 48.5739C230.327 48.7074 230.522 48.8636 230.661 49.0426C230.803 49.2216 230.912 49.3793 230.989 49.5156H231.083V48.4545H232.331V55.1449C232.331 55.7074 232.201 56.169 231.939 56.5298C231.678 56.8906 231.324 57.1577 230.878 57.331C230.435 57.5043 229.935 57.5909 229.378 57.5909ZM229.365 53.8452C229.732 53.8452 230.042 53.7599 230.294 53.5895C230.55 53.4162 230.743 53.169 230.874 52.848C231.007 52.5241 231.074 52.1364 231.074 51.6847C231.074 51.2443 231.009 50.8565 230.878 50.5213C230.748 50.1861 230.556 49.9247 230.303 49.7372C230.05 49.5469 229.738 49.4517 229.365 49.4517C228.982 49.4517 228.662 49.5511 228.407 49.75C228.151 49.946 227.958 50.2131 227.827 50.5511C227.699 50.8892 227.635 51.267 227.635 51.6847C227.635 52.1136 227.701 52.4901 227.831 52.8139C227.962 53.1378 228.155 53.3906 228.411 53.5724C228.669 53.7543 228.988 53.8452 229.365 53.8452ZM238.945 50.0526L237.79 50.2571C237.742 50.1094 237.665 49.9687 237.56 49.8352C237.458 49.7017 237.319 49.5923 237.142 49.5071C236.966 49.4219 236.746 49.3793 236.482 49.3793C236.121 49.3793 235.82 49.4602 235.578 49.6222C235.337 49.7812 235.216 49.9872 235.216 50.2401C235.216 50.4588 235.297 50.6349 235.459 50.7685C235.621 50.902 235.882 51.0114 236.243 51.0966L237.283 51.3352C237.885 51.4744 238.334 51.6889 238.63 51.9787C238.925 52.2685 239.073 52.6449 239.073 53.108C239.073 53.5 238.959 53.8494 238.732 54.1562C238.507 54.4602 238.194 54.6989 237.79 54.8722C237.39 55.0455 236.925 55.1321 236.397 55.1321C235.664 55.1321 235.066 54.9759 234.603 54.6634C234.14 54.348 233.855 53.9006 233.75 53.321L234.982 53.1335C235.059 53.4545 235.216 53.6974 235.455 53.8622C235.694 54.0241 236.005 54.1051 236.388 54.1051C236.806 54.1051 237.14 54.0185 237.39 53.8452C237.64 53.669 237.765 53.4545 237.765 53.2017C237.765 52.9972 237.688 52.8253 237.534 52.6861C237.384 52.5469 237.152 52.4418 236.84 52.3707L235.732 52.1278C235.121 51.9886 234.669 51.767 234.377 51.4631C234.087 51.1591 233.942 50.7741 233.942 50.3082C233.942 49.9219 234.05 49.5838 234.266 49.294C234.482 49.0043 234.78 48.7784 235.161 48.6165C235.542 48.4517 235.978 48.3693 236.469 48.3693C237.176 48.3693 237.733 48.5227 238.14 48.8295C238.546 49.1335 238.814 49.5412 238.945 50.0526Z" fill="#1D2939"/>
<path d="M400.378 55.1193C399.793 55.1193 399.27 55.0185 398.81 54.8168C398.352 54.6151 397.99 54.3352 397.723 53.9773C397.459 53.6165 397.317 53.1989 397.297 52.7244H398.635C398.652 52.983 398.739 53.2074 398.895 53.3977C399.054 53.5852 399.261 53.7301 399.517 53.8324C399.773 53.9347 400.057 53.9858 400.369 53.9858C400.713 53.9858 401.017 53.9261 401.281 53.8068C401.548 53.6875 401.757 53.5213 401.908 53.3082C402.058 53.0923 402.134 52.8438 402.134 52.5625C402.134 52.2699 402.058 52.0128 401.908 51.7912C401.76 51.5668 401.543 51.3906 401.256 51.2628C400.972 51.1349 400.628 51.071 400.224 51.071H399.487V49.9972H400.224C400.548 49.9972 400.832 49.9389 401.077 49.8224C401.324 49.706 401.517 49.544 401.656 49.3366C401.795 49.1264 401.865 48.8807 401.865 48.5994C401.865 48.3295 401.804 48.0952 401.682 47.8963C401.563 47.6946 401.392 47.5369 401.17 47.4233C400.952 47.3097 400.693 47.2528 400.395 47.2528C400.111 47.2528 399.845 47.3054 399.598 47.4105C399.354 47.5128 399.155 47.6605 399.001 47.8537C398.848 48.044 398.766 48.2727 398.754 48.5398H397.48C397.494 48.0682 397.634 47.6534 397.898 47.2955C398.165 46.9375 398.517 46.6577 398.955 46.456C399.392 46.2543 399.878 46.1534 400.412 46.1534C400.972 46.1534 401.455 46.2628 401.861 46.4815C402.27 46.6974 402.585 46.9858 402.807 47.3466C403.031 47.7074 403.142 48.1023 403.139 48.5312C403.142 49.0199 403.006 49.4347 402.73 49.7756C402.457 50.1165 402.094 50.3452 401.639 50.4616V50.5298C402.219 50.6179 402.668 50.848 402.986 51.2202C403.307 51.5923 403.466 52.054 403.463 52.6051C403.466 53.0852 403.332 53.5156 403.062 53.8963C402.795 54.277 402.43 54.5767 401.967 54.7955C401.504 55.0114 400.974 55.1193 400.378 55.1193ZM404.891 53.2955V52.2301L408.662 46.2727H409.501V47.8409H408.969L406.271 52.1108V52.179H411.44V53.2955H404.891ZM409.028 55V52.9716L409.037 52.4858V46.2727H410.286V55H409.028ZM413.454 55.081C413.221 55.081 413.021 54.9986 412.853 54.8338C412.685 54.6662 412.602 54.4645 412.602 54.2287C412.602 53.9957 412.685 53.7969 412.853 53.6321C413.021 53.4645 413.221 53.3807 413.454 53.3807C413.687 53.3807 413.887 53.4645 414.055 53.6321C414.222 53.7969 414.306 53.9957 414.306 54.2287C414.306 54.3849 414.266 54.5284 414.187 54.6591C414.11 54.7869 414.008 54.8892 413.88 54.9659C413.752 55.0426 413.61 55.081 413.454 55.081ZM418.252 46.2727V55H416.931V47.5938H416.88L414.792 48.9574V47.696L416.969 46.2727H418.252ZM425.168 53.3636V52.9034C425.168 52.5739 425.237 52.2727 425.373 52C425.512 51.7244 425.714 51.5043 425.978 51.3395C426.245 51.1719 426.567 51.0881 426.945 51.0881C427.332 51.0881 427.656 51.1705 427.917 51.3352C428.178 51.5 428.376 51.7202 428.509 51.9957C428.646 52.2713 428.714 52.5739 428.714 52.9034V53.3636C428.714 53.6932 428.646 53.9957 428.509 54.2713C428.373 54.544 428.173 54.7642 427.908 54.9318C427.647 55.0966 427.326 55.179 426.945 55.179C426.562 55.179 426.238 55.0966 425.974 54.9318C425.71 54.7642 425.509 54.544 425.373 54.2713C425.237 53.9957 425.168 53.6932 425.168 53.3636ZM426.161 52.9034V53.3636C426.161 53.608 426.219 53.8295 426.336 54.0284C426.452 54.2273 426.656 54.3267 426.945 54.3267C427.232 54.3267 427.433 54.2273 427.546 54.0284C427.66 53.8295 427.717 53.608 427.717 53.3636V52.9034C427.717 52.6591 427.661 52.4375 427.55 52.2386C427.442 52.0398 427.241 51.9403 426.945 51.9403C426.661 51.9403 426.46 52.0398 426.34 52.2386C426.221 52.4375 426.161 52.6591 426.161 52.9034ZM420.779 48.3693V47.9091C420.779 47.5795 420.847 47.277 420.984 47.0014C421.123 46.7259 421.325 46.5057 421.589 46.3409C421.856 46.1761 422.178 46.0938 422.556 46.0938C422.942 46.0938 423.266 46.1761 423.528 46.3409C423.789 46.5057 423.987 46.7259 424.12 47.0014C424.254 47.277 424.32 47.5795 424.32 47.9091V48.3693C424.32 48.6989 424.252 49.0014 424.116 49.277C423.982 49.5497 423.783 49.7699 423.519 49.9375C423.258 50.1023 422.937 50.1847 422.556 50.1847C422.17 50.1847 421.844 50.1023 421.58 49.9375C421.319 49.7699 421.12 49.5497 420.984 49.277C420.847 49.0014 420.779 48.6989 420.779 48.3693ZM421.776 47.9091V48.3693C421.776 48.6136 421.833 48.8352 421.947 49.0341C422.063 49.233 422.266 49.3324 422.556 49.3324C422.84 49.3324 423.039 49.233 423.153 49.0341C423.269 48.8352 423.327 48.6136 423.327 48.3693V47.9091C423.327 47.6648 423.272 47.4432 423.161 47.2443C423.05 47.0455 422.849 46.946 422.556 46.946C422.272 46.946 422.07 47.0455 421.951 47.2443C421.835 47.4432 421.776 47.6648 421.776 47.9091ZM421.184 55L427.184 46.2727H428.202L422.202 55H421.184Z" fill="#1D2939"/>
<path d="M430.5 67H178.5V69H430.5V67Z" fill="#EAECF0" mask="url(#path-10-inside-2_665_368)"/>
<circle cx="183.5" cy="85" r="5" fill="#FD853A"/>
<path d="M195.459 80.2727H197.057L199.835 87.0568H199.938L202.716 80.2727H204.314V89H203.061V82.6847H202.98L200.406 88.9872H199.366L196.793 82.6804H196.712V89H195.459V80.2727ZM208.883 89.1321C208.27 89.1321 207.734 88.9915 207.277 88.7102C206.819 88.429 206.464 88.0355 206.211 87.5298C205.958 87.0241 205.832 86.4332 205.832 85.7571C205.832 85.0781 205.958 84.4844 206.211 83.9759C206.464 83.4673 206.819 83.0724 207.277 82.7912C207.734 82.5099 208.27 82.3693 208.883 82.3693C209.497 82.3693 210.032 82.5099 210.49 82.7912C210.947 83.0724 211.302 83.4673 211.555 83.9759C211.808 84.4844 211.934 85.0781 211.934 85.7571C211.934 86.4332 211.808 87.0241 211.555 87.5298C211.302 88.0355 210.947 88.429 210.49 88.7102C210.032 88.9915 209.497 89.1321 208.883 89.1321ZM208.887 88.0625C209.285 88.0625 209.615 87.9574 209.876 87.7472C210.137 87.5369 210.331 87.2571 210.456 86.9077C210.583 86.5582 210.647 86.1733 210.647 85.7528C210.647 85.3352 210.583 84.9517 210.456 84.6023C210.331 84.25 210.137 83.9673 209.876 83.7543C209.615 83.5412 209.285 83.4347 208.887 83.4347C208.487 83.4347 208.154 83.5412 207.89 83.7543C207.629 83.9673 207.434 84.25 207.306 84.6023C207.181 84.9517 207.119 85.3352 207.119 85.7528C207.119 86.1733 207.181 86.5582 207.306 86.9077C207.434 87.2571 207.629 87.5369 207.89 87.7472C208.154 87.9574 208.487 88.0625 208.887 88.0625ZM214.631 85.1136V89H213.357V82.4545H214.58V83.5199H214.661C214.811 83.1733 215.047 82.8949 215.368 82.6847C215.692 82.4744 216.099 82.3693 216.591 82.3693C217.037 82.3693 217.428 82.4631 217.763 82.6506C218.098 82.8352 218.358 83.1108 218.543 83.4773C218.727 83.8437 218.82 84.2969 218.82 84.8366V89H217.545V84.9901C217.545 84.5156 217.422 84.1449 217.175 83.8778C216.928 83.608 216.588 83.473 216.156 83.473C215.861 83.473 215.598 83.5369 215.368 83.6648C215.141 83.7926 214.96 83.9801 214.827 84.2273C214.696 84.4716 214.631 84.767 214.631 85.1136ZM223.349 89.1321C222.705 89.1321 222.149 88.9943 221.683 88.7188C221.22 88.4403 220.862 88.0497 220.609 87.5469C220.359 87.0412 220.234 86.4489 220.234 85.7699C220.234 85.0994 220.359 84.5085 220.609 83.9972C220.862 83.4858 221.214 83.0866 221.666 82.7997C222.121 82.5128 222.652 82.3693 223.26 82.3693C223.629 82.3693 223.987 82.4304 224.334 82.5526C224.68 82.6747 224.991 82.8665 225.267 83.1278C225.543 83.3892 225.76 83.7287 225.919 84.1463C226.078 84.5611 226.158 85.0653 226.158 85.6591V86.1108H220.955V85.1562H224.909C224.909 84.821 224.841 84.5241 224.705 84.2656C224.568 84.0043 224.376 83.7983 224.129 83.6477C223.885 83.4972 223.598 83.4219 223.268 83.4219C222.911 83.4219 222.598 83.5099 222.331 83.6861C222.067 83.8594 221.862 84.0866 221.717 84.3679C221.575 84.6463 221.504 84.9489 221.504 85.2756V86.0213C221.504 86.4588 221.581 86.831 221.734 87.1378C221.891 87.4446 222.108 87.679 222.386 87.8409C222.665 88 222.99 88.0795 223.362 88.0795C223.604 88.0795 223.824 88.0455 224.023 87.9773C224.222 87.9062 224.393 87.8011 224.538 87.6619C224.683 87.5227 224.794 87.3509 224.871 87.1463L226.077 87.3636C225.98 87.7187 225.807 88.0298 225.557 88.2969C225.31 88.5611 224.999 88.767 224.624 88.9148C224.251 89.0597 223.827 89.1321 223.349 89.1321ZM228.189 91.4545C227.999 91.4545 227.826 91.4389 227.669 91.4077C227.513 91.3793 227.397 91.348 227.32 91.3139L227.627 90.2699C227.86 90.3324 228.067 90.3594 228.249 90.3509C228.431 90.3423 228.591 90.2741 228.73 90.1463C228.873 90.0185 228.998 89.8097 229.105 89.5199L229.263 89.0852L226.868 82.4545H228.232L229.89 87.5341H229.958L231.615 82.4545H232.983L230.286 89.8736C230.161 90.2145 230.002 90.5028 229.809 90.7386C229.615 90.9773 229.385 91.1563 229.118 91.2756C228.851 91.3949 228.542 91.4545 228.189 91.4545ZM237.459 80.2727H239.057L241.835 87.0568H241.938L244.716 80.2727H246.314V89H245.061V82.6847H244.98L242.406 88.9872H241.366L238.793 82.6804H238.712V89H237.459V80.2727ZM250.031 89.1449C249.616 89.1449 249.241 89.0682 248.906 88.9148C248.571 88.7585 248.305 88.5327 248.109 88.2372C247.916 87.9418 247.819 87.5795 247.819 87.1506C247.819 86.7812 247.89 86.4773 248.032 86.2386C248.174 86 248.366 85.8111 248.608 85.6719C248.849 85.5327 249.119 85.4276 249.417 85.3565C249.716 85.2855 250.02 85.2315 250.329 85.1946C250.721 85.1491 251.039 85.1122 251.284 85.0838C251.528 85.0526 251.706 85.0028 251.816 84.9347C251.927 84.8665 251.983 84.7557 251.983 84.6023V84.5724C251.983 84.2003 251.877 83.9119 251.667 83.7074C251.46 83.5028 251.15 83.4006 250.738 83.4006C250.309 83.4006 249.971 83.4957 249.724 83.6861C249.48 83.8736 249.311 84.0824 249.217 84.3125L248.02 84.0398C248.162 83.642 248.369 83.321 248.642 83.0767C248.917 82.8295 249.234 82.6506 249.592 82.5398C249.95 82.4261 250.326 82.3693 250.721 82.3693C250.983 82.3693 251.26 82.4006 251.552 82.4631C251.848 82.5227 252.123 82.6335 252.379 82.7955C252.637 82.9574 252.849 83.1889 253.014 83.4901C253.179 83.7884 253.261 84.1761 253.261 84.6534V89H252.017V88.1051H251.966C251.883 88.2699 251.76 88.4318 251.595 88.5909C251.43 88.75 251.218 88.8821 250.96 88.9872C250.701 89.0923 250.392 89.1449 250.031 89.1449ZM250.308 88.1222C250.66 88.1222 250.961 88.0526 251.211 87.9134C251.464 87.7741 251.656 87.5923 251.787 87.3679C251.92 87.1406 251.987 86.8977 251.987 86.6392V85.7955C251.941 85.8409 251.853 85.8835 251.723 85.9233C251.595 85.9602 251.449 85.9929 251.284 86.0213C251.119 86.0469 250.958 86.071 250.802 86.0938C250.646 86.1136 250.515 86.1307 250.41 86.1449C250.163 86.1761 249.937 86.2287 249.733 86.3026C249.531 86.3764 249.369 86.483 249.247 86.6222C249.127 86.7585 249.068 86.9403 249.068 87.1676C249.068 87.483 249.184 87.7216 249.417 87.8835C249.65 88.0426 249.947 88.1222 250.308 88.1222ZM254.958 89V82.4545H256.19V83.4943H256.258C256.377 83.142 256.587 82.8651 256.888 82.6634C257.192 82.4588 257.536 82.3565 257.92 82.3565C257.999 82.3565 258.093 82.3594 258.201 82.3651C258.312 82.3707 258.398 82.3778 258.461 82.3864V83.6051C258.41 83.5909 258.319 83.5753 258.188 83.5582C258.058 83.5384 257.927 83.5284 257.796 83.5284C257.495 83.5284 257.227 83.5923 256.991 83.7202C256.758 83.8452 256.573 84.0199 256.437 84.2443C256.3 84.4659 256.232 84.7187 256.232 85.0028V89H254.958ZM260.735 86.7798L260.727 85.2244H260.949L263.556 82.4545H265.082L262.108 85.608H261.907L260.735 86.7798ZM259.564 89V80.2727H260.838V89H259.564ZM263.697 89L261.353 85.8892L262.231 84.9986L265.261 89H263.697ZM268.795 89.1321C268.15 89.1321 267.594 88.9943 267.129 88.7188C266.665 88.4403 266.308 88.0497 266.055 87.5469C265.805 87.0412 265.68 86.4489 265.68 85.7699C265.68 85.0994 265.805 84.5085 266.055 83.9972C266.308 83.4858 266.66 83.0866 267.112 82.7997C267.566 82.5128 268.097 82.3693 268.705 82.3693C269.075 82.3693 269.433 82.4304 269.779 82.5526C270.126 82.6747 270.437 82.8665 270.712 83.1278C270.988 83.3892 271.205 83.7287 271.364 84.1463C271.523 84.5611 271.603 85.0653 271.603 85.6591V86.1108H266.4V85.1562H270.354C270.354 84.821 270.286 84.5241 270.15 84.2656C270.013 84.0043 269.822 83.7983 269.575 83.6477C269.33 83.4972 269.043 83.4219 268.714 83.4219C268.356 83.4219 268.043 83.5099 267.776 83.6861C267.512 83.8594 267.308 84.0866 267.163 84.3679C267.021 84.6463 266.95 84.9489 266.95 85.2756V86.0213C266.95 86.4588 267.026 86.831 267.18 87.1378C267.336 87.4446 267.553 87.679 267.832 87.8409C268.11 88 268.435 88.0795 268.808 88.0795C269.049 88.0795 269.269 88.0455 269.468 87.9773C269.667 87.9062 269.839 87.8011 269.984 87.6619C270.129 87.5227 270.239 87.3509 270.316 87.1463L271.522 87.3636C271.425 87.7187 271.252 88.0298 271.002 88.2969C270.755 88.5611 270.444 88.767 270.069 88.9148C269.697 89.0597 269.272 89.1321 268.795 89.1321ZM276.072 82.4545V83.4773H272.497V82.4545H276.072ZM273.456 80.8864H274.73V87.0781C274.73 87.3253 274.767 87.5114 274.841 87.6364C274.914 87.7585 275.01 87.8423 275.126 87.8878C275.245 87.9304 275.375 87.9517 275.514 87.9517C275.616 87.9517 275.706 87.9446 275.782 87.9304C275.859 87.9162 275.919 87.9048 275.961 87.8963L276.191 88.9489C276.118 88.9773 276.012 89.0057 275.876 89.0341C275.74 89.0653 275.569 89.0824 275.365 89.0852C275.029 89.0909 274.717 89.0312 274.427 88.9062C274.137 88.7812 273.903 88.5881 273.724 88.3267C273.545 88.0653 273.456 87.7372 273.456 87.3423V80.8864Z" fill="#1D2939"/>
<path d="M396.339 89V88.0455L399.293 84.9858C399.608 84.6534 399.868 84.3622 400.072 84.1122C400.28 83.8594 400.435 83.6193 400.537 83.392C400.639 83.1648 400.69 82.9233 400.69 82.6676C400.69 82.3778 400.622 82.1278 400.486 81.9176C400.349 81.7045 400.163 81.5412 399.928 81.4276C399.692 81.3111 399.426 81.2528 399.131 81.2528C398.818 81.2528 398.545 81.3168 398.312 81.4446C398.08 81.5724 397.901 81.7528 397.776 81.9858C397.651 82.2187 397.588 82.4915 397.588 82.804H396.331C396.331 82.2727 396.453 81.8082 396.697 81.4105C396.942 81.0128 397.277 80.7045 397.703 80.4858C398.129 80.2642 398.614 80.1534 399.156 80.1534C399.705 80.1534 400.188 80.2628 400.605 80.4815C401.026 80.6974 401.354 80.9929 401.589 81.3679C401.825 81.7401 401.943 82.1605 401.943 82.6293C401.943 82.9531 401.882 83.2699 401.76 83.5795C401.641 83.8892 401.432 84.2344 401.134 84.6151C400.835 84.9929 400.42 85.4517 399.889 85.9915L398.155 87.8068V87.8707H402.084V89H396.339ZM403.699 89V88.0455L406.652 84.9858C406.967 84.6534 407.227 84.3622 407.432 84.1122C407.639 83.8594 407.794 83.6193 407.896 83.392C407.999 83.1648 408.05 82.9233 408.05 82.6676C408.05 82.3778 407.982 82.1278 407.845 81.9176C407.709 81.7045 407.523 81.5412 407.287 81.4276C407.051 81.3111 406.786 81.2528 406.49 81.2528C406.178 81.2528 405.905 81.3168 405.672 81.4446C405.439 81.5724 405.26 81.7528 405.135 81.9858C405.01 82.2187 404.947 82.4915 404.947 82.804H403.69C403.69 82.2727 403.813 81.8082 404.057 81.4105C404.301 81.0128 404.636 80.7045 405.062 80.4858C405.489 80.2642 405.973 80.1534 406.516 80.1534C407.064 80.1534 407.547 80.2628 407.964 80.4815C408.385 80.6974 408.713 80.9929 408.949 81.3679C409.185 81.7401 409.303 82.1605 409.303 82.6293C409.303 82.9531 409.241 83.2699 409.119 83.5795C409 83.8892 408.791 84.2344 408.493 84.6151C408.195 84.9929 407.78 85.4517 407.249 85.9915L405.514 87.8068V87.8707H409.443V89H403.699ZM411.915 89.081C411.682 89.081 411.482 88.9986 411.314 88.8338C411.146 88.6662 411.062 88.4645 411.062 88.2287C411.062 87.9957 411.146 87.7969 411.314 87.6321C411.482 87.4645 411.682 87.3807 411.915 87.3807C412.148 87.3807 412.348 87.4645 412.516 87.6321C412.683 87.7969 412.767 87.9957 412.767 88.2287C412.767 88.3849 412.727 88.5284 412.648 88.6591C412.571 88.7869 412.469 88.8892 412.341 88.9659C412.213 89.0426 412.071 89.081 411.915 89.081ZM414.528 89L418.338 81.4659V81.402H413.931V80.2727H419.701V81.4403L415.904 89H414.528ZM425.739 87.3636V86.9034C425.739 86.5739 425.807 86.2727 425.943 86C426.082 85.7244 426.284 85.5043 426.548 85.3395C426.815 85.1719 427.138 85.0881 427.516 85.0881C427.902 85.0881 428.226 85.1705 428.487 85.3352C428.749 85.5 428.946 85.7202 429.08 85.9957C429.216 86.2713 429.284 86.5739 429.284 86.9034V87.3636C429.284 87.6932 429.216 87.9957 429.08 88.2713C428.943 88.544 428.743 88.7642 428.479 88.9318C428.217 89.0966 427.896 89.179 427.516 89.179C427.132 89.179 426.808 89.0966 426.544 88.9318C426.28 88.7642 426.08 88.544 425.943 88.2713C425.807 87.9957 425.739 87.6932 425.739 87.3636ZM426.732 86.9034V87.3636C426.732 87.608 426.79 87.8295 426.906 88.0284C427.023 88.2273 427.226 88.3267 427.516 88.3267C427.803 88.3267 428.003 88.2273 428.116 88.0284C428.23 87.8295 428.287 87.608 428.287 87.3636V86.9034C428.287 86.6591 428.232 86.4375 428.121 86.2386C428.013 86.0398 427.811 85.9403 427.516 85.9403C427.232 85.9403 427.03 86.0398 426.911 86.2386C426.791 86.4375 426.732 86.6591 426.732 86.9034ZM421.349 82.3693V81.9091C421.349 81.5795 421.418 81.277 421.554 81.0014C421.693 80.7259 421.895 80.5057 422.159 80.3409C422.426 80.1761 422.749 80.0938 423.126 80.0938C423.513 80.0938 423.837 80.1761 424.098 80.3409C424.359 80.5057 424.557 80.7259 424.69 81.0014C424.824 81.277 424.891 81.5795 424.891 81.9091V82.3693C424.891 82.6989 424.822 83.0014 424.686 83.277C424.553 83.5497 424.354 83.7699 424.089 83.9375C423.828 84.1023 423.507 84.1847 423.126 84.1847C422.74 84.1847 422.415 84.1023 422.151 83.9375C421.889 83.7699 421.69 83.5497 421.554 83.277C421.418 83.0014 421.349 82.6989 421.349 82.3693ZM422.347 81.9091V82.3693C422.347 82.6136 422.403 82.8352 422.517 83.0341C422.634 83.233 422.837 83.3324 423.126 83.3324C423.411 83.3324 423.609 83.233 423.723 83.0341C423.839 82.8352 423.898 82.6136 423.898 82.3693V81.9091C423.898 81.6648 423.842 81.4432 423.732 81.2443C423.621 81.0455 423.419 80.946 423.126 80.946C422.842 80.946 422.641 81.0455 422.521 81.2443C422.405 81.4432 422.347 81.6648 422.347 81.9091ZM421.754 89L427.754 80.2727H428.773L422.773 89H421.754Z" fill="#1D2939"/>
<path d="M430.5 101H178.5V103H430.5V101Z" fill="#EAECF0" mask="url(#path-15-inside-3_665_368)"/>
<circle cx="183.5" cy="119" r="5" fill="#D0D5DD"/>
<path d="M196.776 114.273V123H195.459V114.273H196.776ZM199.865 119.114V123H198.591V116.455H199.814V117.52H199.895C200.045 117.173 200.281 116.895 200.602 116.685C200.926 116.474 201.334 116.369 201.825 116.369C202.271 116.369 202.662 116.463 202.997 116.651C203.332 116.835 203.592 117.111 203.777 117.477C203.962 117.844 204.054 118.297 204.054 118.837V123H202.78V118.99C202.78 118.516 202.656 118.145 202.409 117.878C202.162 117.608 201.822 117.473 201.391 117.473C201.095 117.473 200.832 117.537 200.602 117.665C200.375 117.793 200.195 117.98 200.061 118.227C199.93 118.472 199.865 118.767 199.865 119.114ZM208.818 116.455V117.477H205.243V116.455H208.818ZM206.202 114.886H207.476V121.078C207.476 121.325 207.513 121.511 207.587 121.636C207.661 121.759 207.756 121.842 207.872 121.888C207.991 121.93 208.121 121.952 208.26 121.952C208.362 121.952 208.452 121.945 208.528 121.93C208.605 121.916 208.665 121.905 208.707 121.896L208.938 122.949C208.864 122.977 208.759 123.006 208.622 123.034C208.486 123.065 208.315 123.082 208.111 123.085C207.776 123.091 207.463 123.031 207.173 122.906C206.884 122.781 206.649 122.588 206.47 122.327C206.291 122.065 206.202 121.737 206.202 121.342V114.886ZM212.978 123.132C212.333 123.132 211.778 122.994 211.312 122.719C210.849 122.44 210.491 122.05 210.238 121.547C209.988 121.041 209.863 120.449 209.863 119.77C209.863 119.099 209.988 118.509 210.238 117.997C210.491 117.486 210.843 117.087 211.295 116.8C211.75 116.513 212.281 116.369 212.889 116.369C213.258 116.369 213.616 116.43 213.963 116.553C214.309 116.675 214.62 116.866 214.896 117.128C215.172 117.389 215.389 117.729 215.548 118.146C215.707 118.561 215.787 119.065 215.787 119.659V120.111H210.583V119.156H214.538C214.538 118.821 214.47 118.524 214.333 118.266C214.197 118.004 214.005 117.798 213.758 117.648C213.514 117.497 213.227 117.422 212.897 117.422C212.539 117.422 212.227 117.51 211.96 117.686C211.696 117.859 211.491 118.087 211.346 118.368C211.204 118.646 211.133 118.949 211.133 119.276V120.021C211.133 120.459 211.21 120.831 211.363 121.138C211.52 121.445 211.737 121.679 212.015 121.841C212.294 122 212.619 122.08 212.991 122.08C213.233 122.08 213.453 122.045 213.652 121.977C213.85 121.906 214.022 121.801 214.167 121.662C214.312 121.523 214.423 121.351 214.5 121.146L215.706 121.364C215.609 121.719 215.436 122.03 215.186 122.297C214.939 122.561 214.627 122.767 214.252 122.915C213.88 123.06 213.456 123.132 212.978 123.132ZM217.2 123V116.455H218.432V117.494H218.5C218.619 117.142 218.83 116.865 219.131 116.663C219.435 116.459 219.778 116.357 220.162 116.357C220.241 116.357 220.335 116.359 220.443 116.365C220.554 116.371 220.641 116.378 220.703 116.386V117.605C220.652 117.591 220.561 117.575 220.43 117.558C220.3 117.538 220.169 117.528 220.038 117.528C219.737 117.528 219.469 117.592 219.233 117.72C219 117.845 218.815 118.02 218.679 118.244C218.543 118.466 218.474 118.719 218.474 119.003V123H217.2ZM224.392 123.132C223.748 123.132 223.192 122.994 222.726 122.719C222.263 122.44 221.905 122.05 221.652 121.547C221.402 121.041 221.277 120.449 221.277 119.77C221.277 119.099 221.402 118.509 221.652 117.997C221.905 117.486 222.257 117.087 222.709 116.8C223.164 116.513 223.695 116.369 224.303 116.369C224.672 116.369 225.03 116.43 225.377 116.553C225.723 116.675 226.034 116.866 226.31 117.128C226.586 117.389 226.803 117.729 226.962 118.146C227.121 118.561 227.201 119.065 227.201 119.659V120.111H221.998V119.156H225.952C225.952 118.821 225.884 118.524 225.748 118.266C225.611 118.004 225.419 117.798 225.172 117.648C224.928 117.497 224.641 117.422 224.311 117.422C223.953 117.422 223.641 117.51 223.374 117.686C223.11 117.859 222.905 118.087 222.76 118.368C222.618 118.646 222.547 118.949 222.547 119.276V120.021C222.547 120.459 222.624 120.831 222.777 121.138C222.934 121.445 223.151 121.679 223.429 121.841C223.708 122 224.033 122.08 224.405 122.08C224.647 122.08 224.867 122.045 225.066 121.977C225.265 121.906 225.436 121.801 225.581 121.662C225.726 121.523 225.837 121.351 225.914 121.146L227.12 121.364C227.023 121.719 226.85 122.03 226.6 122.297C226.353 122.561 226.042 122.767 225.667 122.915C225.294 123.06 224.87 123.132 224.392 123.132ZM233.519 118.053L232.364 118.257C232.316 118.109 232.239 117.969 232.134 117.835C232.032 117.702 231.893 117.592 231.717 117.507C231.54 117.422 231.32 117.379 231.056 117.379C230.695 117.379 230.394 117.46 230.153 117.622C229.911 117.781 229.79 117.987 229.79 118.24C229.79 118.459 229.871 118.635 230.033 118.768C230.195 118.902 230.457 119.011 230.817 119.097L231.857 119.335C232.46 119.474 232.908 119.689 233.204 119.979C233.499 120.268 233.647 120.645 233.647 121.108C233.647 121.5 233.533 121.849 233.306 122.156C233.082 122.46 232.768 122.699 232.364 122.872C231.964 123.045 231.499 123.132 230.971 123.132C230.238 123.132 229.64 122.976 229.177 122.663C228.714 122.348 228.43 121.901 228.325 121.321L229.556 121.134C229.633 121.455 229.79 121.697 230.029 121.862C230.268 122.024 230.579 122.105 230.962 122.105C231.38 122.105 231.714 122.018 231.964 121.845C232.214 121.669 232.339 121.455 232.339 121.202C232.339 120.997 232.262 120.825 232.109 120.686C231.958 120.547 231.727 120.442 231.414 120.371L230.306 120.128C229.695 119.989 229.244 119.767 228.951 119.463C228.661 119.159 228.516 118.774 228.516 118.308C228.516 117.922 228.624 117.584 228.84 117.294C229.056 117.004 229.354 116.778 229.735 116.616C230.116 116.452 230.552 116.369 231.043 116.369C231.751 116.369 232.308 116.523 232.714 116.83C233.12 117.134 233.388 117.541 233.519 118.053ZM238.103 116.455V117.477H234.528V116.455H238.103ZM235.487 114.886H236.761V121.078C236.761 121.325 236.798 121.511 236.872 121.636C236.946 121.759 237.041 121.842 237.157 121.888C237.277 121.93 237.406 121.952 237.545 121.952C237.647 121.952 237.737 121.945 237.814 121.93C237.89 121.916 237.95 121.905 237.993 121.896L238.223 122.949C238.149 122.977 238.044 123.006 237.907 123.034C237.771 123.065 237.6 123.082 237.396 123.085C237.061 123.091 236.748 123.031 236.458 122.906C236.169 122.781 235.934 122.588 235.755 122.327C235.576 122.065 235.487 121.737 235.487 121.342V114.886ZM242.791 123V114.273H245.987C246.606 114.273 247.119 114.375 247.525 114.58C247.931 114.781 248.235 115.055 248.437 115.402C248.639 115.746 248.74 116.134 248.74 116.565C248.74 116.929 248.673 117.236 248.539 117.486C248.406 117.733 248.227 117.932 248.002 118.082C247.781 118.23 247.537 118.338 247.27 118.406V118.491C247.559 118.506 247.842 118.599 248.118 118.773C248.396 118.943 248.626 119.186 248.808 119.501C248.99 119.817 249.081 120.2 249.081 120.652C249.081 121.098 248.975 121.499 248.765 121.854C248.558 122.206 248.237 122.486 247.802 122.693C247.368 122.898 246.812 123 246.136 123H242.791ZM244.108 121.871H246.008C246.639 121.871 247.091 121.749 247.363 121.504C247.636 121.26 247.772 120.955 247.772 120.588C247.772 120.312 247.703 120.06 247.564 119.83C247.424 119.599 247.225 119.416 246.967 119.28C246.711 119.143 246.407 119.075 246.055 119.075H244.108V121.871ZM244.108 118.048H245.872C246.167 118.048 246.433 117.991 246.669 117.878C246.907 117.764 247.096 117.605 247.235 117.401C247.377 117.193 247.449 116.949 247.449 116.668C247.449 116.307 247.322 116.004 247.069 115.76C246.816 115.516 246.429 115.393 245.906 115.393H244.108V118.048ZM253.361 123.132C252.716 123.132 252.161 122.994 251.695 122.719C251.232 122.44 250.874 122.05 250.621 121.547C250.371 121.041 250.246 120.449 250.246 119.77C250.246 119.099 250.371 118.509 250.621 117.997C250.874 117.486 251.226 117.087 251.678 116.8C252.132 116.513 252.664 116.369 253.272 116.369C253.641 116.369 253.999 116.43 254.346 116.553C254.692 116.675 255.003 116.866 255.279 117.128C255.554 117.389 255.772 117.729 255.931 118.146C256.09 118.561 256.169 119.065 256.169 119.659V120.111H250.966V119.156H254.921C254.921 118.821 254.853 118.524 254.716 118.266C254.58 118.004 254.388 117.798 254.141 117.648C253.897 117.497 253.61 117.422 253.28 117.422C252.922 117.422 252.61 117.51 252.343 117.686C252.078 117.859 251.874 118.087 251.729 118.368C251.587 118.646 251.516 118.949 251.516 119.276V120.021C251.516 120.459 251.593 120.831 251.746 121.138C251.902 121.445 252.12 121.679 252.398 121.841C252.676 122 253.002 122.08 253.374 122.08C253.615 122.08 253.836 122.045 254.034 121.977C254.233 121.906 254.405 121.801 254.55 121.662C254.695 121.523 254.806 121.351 254.882 121.146L256.088 121.364C255.992 121.719 255.819 122.03 255.569 122.297C255.321 122.561 255.01 122.767 254.635 122.915C254.263 123.06 253.838 123.132 253.361 123.132ZM259.488 123.145C259.073 123.145 258.698 123.068 258.363 122.915C258.028 122.759 257.762 122.533 257.566 122.237C257.373 121.942 257.276 121.58 257.276 121.151C257.276 120.781 257.347 120.477 257.489 120.239C257.631 120 257.823 119.811 258.065 119.672C258.306 119.533 258.576 119.428 258.874 119.357C259.173 119.286 259.477 119.232 259.786 119.195C260.178 119.149 260.496 119.112 260.741 119.084C260.985 119.053 261.163 119.003 261.273 118.935C261.384 118.866 261.44 118.756 261.44 118.602V118.572C261.44 118.2 261.335 117.912 261.124 117.707C260.917 117.503 260.607 117.401 260.195 117.401C259.766 117.401 259.428 117.496 259.181 117.686C258.937 117.874 258.768 118.082 258.674 118.312L257.477 118.04C257.619 117.642 257.826 117.321 258.099 117.077C258.374 116.83 258.691 116.651 259.049 116.54C259.407 116.426 259.783 116.369 260.178 116.369C260.44 116.369 260.717 116.401 261.009 116.463C261.305 116.523 261.58 116.634 261.836 116.795C262.094 116.957 262.306 117.189 262.471 117.49C262.636 117.788 262.718 118.176 262.718 118.653V123H261.474V122.105H261.423C261.34 122.27 261.217 122.432 261.052 122.591C260.887 122.75 260.675 122.882 260.417 122.987C260.158 123.092 259.849 123.145 259.488 123.145ZM259.765 122.122C260.117 122.122 260.418 122.053 260.668 121.913C260.921 121.774 261.113 121.592 261.244 121.368C261.377 121.141 261.444 120.898 261.444 120.639V119.795C261.398 119.841 261.31 119.884 261.18 119.923C261.052 119.96 260.906 119.993 260.741 120.021C260.576 120.047 260.415 120.071 260.259 120.094C260.103 120.114 259.972 120.131 259.867 120.145C259.62 120.176 259.394 120.229 259.19 120.303C258.988 120.376 258.826 120.483 258.704 120.622C258.585 120.759 258.525 120.94 258.525 121.168C258.525 121.483 258.641 121.722 258.874 121.884C259.107 122.043 259.404 122.122 259.765 122.122ZM264.415 123V116.455H265.647V117.494H265.715C265.834 117.142 266.044 116.865 266.346 116.663C266.65 116.459 266.993 116.357 267.377 116.357C267.456 116.357 267.55 116.359 267.658 116.365C267.769 116.371 267.855 116.378 267.918 116.386V117.605C267.867 117.591 267.776 117.575 267.645 117.558C267.515 117.538 267.384 117.528 267.253 117.528C266.952 117.528 266.684 117.592 266.448 117.72C266.215 117.845 266.03 118.02 265.894 118.244C265.757 118.466 265.689 118.719 265.689 119.003V123H264.415ZM269.021 123V116.455H270.295V123H269.021ZM269.664 115.445C269.442 115.445 269.252 115.371 269.093 115.223C268.937 115.072 268.859 114.893 268.859 114.686C268.859 114.476 268.937 114.297 269.093 114.149C269.252 113.999 269.442 113.923 269.664 113.923C269.886 113.923 270.075 113.999 270.231 114.149C270.39 114.297 270.469 114.476 270.469 114.686C270.469 114.893 270.39 115.072 270.231 115.223C270.075 115.371 269.886 115.445 269.664 115.445ZM273.283 119.114V123H272.009V116.455H273.232V117.52H273.313C273.463 117.173 273.699 116.895 274.02 116.685C274.344 116.474 274.752 116.369 275.243 116.369C275.689 116.369 276.08 116.463 276.415 116.651C276.75 116.835 277.01 117.111 277.195 117.477C277.38 117.844 277.472 118.297 277.472 118.837V123H276.198V118.99C276.198 118.516 276.074 118.145 275.827 117.878C275.58 117.608 275.24 117.473 274.809 117.473C274.513 117.473 274.25 117.537 274.02 117.665C273.793 117.793 273.613 117.98 273.479 118.227C273.348 118.472 273.283 118.767 273.283 119.114ZM281.925 125.591C281.405 125.591 280.958 125.523 280.583 125.386C280.211 125.25 279.907 125.07 279.671 124.845C279.435 124.621 279.259 124.375 279.142 124.108L280.238 123.656C280.314 123.781 280.417 123.913 280.544 124.053C280.675 124.195 280.851 124.315 281.073 124.415C281.297 124.514 281.586 124.564 281.938 124.564C282.421 124.564 282.82 124.446 283.135 124.21C283.451 123.977 283.608 123.605 283.608 123.094V121.807H283.527C283.451 121.946 283.34 122.101 283.195 122.271C283.053 122.442 282.857 122.589 282.607 122.714C282.357 122.839 282.032 122.902 281.631 122.902C281.114 122.902 280.648 122.781 280.233 122.54C279.821 122.295 279.495 121.936 279.253 121.462C279.015 120.984 278.895 120.398 278.895 119.702C278.895 119.006 279.013 118.409 279.249 117.912C279.488 117.415 279.814 117.034 280.229 116.77C280.644 116.503 281.114 116.369 281.64 116.369C282.046 116.369 282.374 116.438 282.624 116.574C282.874 116.707 283.069 116.864 283.208 117.043C283.35 117.222 283.459 117.379 283.536 117.516H283.63V116.455H284.878V123.145C284.878 123.707 284.748 124.169 284.486 124.53C284.225 124.891 283.871 125.158 283.425 125.331C282.982 125.504 282.482 125.591 281.925 125.591ZM281.912 121.845C282.279 121.845 282.588 121.76 282.841 121.589C283.097 121.416 283.29 121.169 283.421 120.848C283.554 120.524 283.621 120.136 283.621 119.685C283.621 119.244 283.556 118.857 283.425 118.521C283.294 118.186 283.103 117.925 282.85 117.737C282.597 117.547 282.284 117.452 281.912 117.452C281.529 117.452 281.209 117.551 280.953 117.75C280.698 117.946 280.505 118.213 280.374 118.551C280.246 118.889 280.182 119.267 280.182 119.685C280.182 120.114 280.248 120.49 280.378 120.814C280.509 121.138 280.702 121.391 280.958 121.572C281.216 121.754 281.534 121.845 281.912 121.845Z" fill="#1D2939"/>
<path d="M400.651 114.273V123H399.33V115.594H399.278L397.19 116.957V115.696L399.368 114.273H400.651ZM405.96 123.119C405.349 123.119 404.81 123.014 404.341 122.804C403.875 122.594 403.51 122.304 403.246 121.935C402.982 121.565 402.851 121.145 402.854 120.673C402.851 120.304 402.926 119.964 403.08 119.655C403.236 119.342 403.447 119.082 403.714 118.875C403.982 118.665 404.28 118.531 404.609 118.474V118.423C404.175 118.318 403.827 118.085 403.565 117.724C403.304 117.364 403.175 116.949 403.178 116.48C403.175 116.034 403.293 115.636 403.531 115.287C403.773 114.935 404.104 114.658 404.524 114.456C404.945 114.254 405.423 114.153 405.96 114.153C406.491 114.153 406.966 114.256 407.384 114.46C407.804 114.662 408.135 114.939 408.376 115.291C408.618 115.641 408.74 116.037 408.743 116.48C408.74 116.949 408.607 117.364 408.342 117.724C408.078 118.085 407.734 118.318 407.311 118.423V118.474C407.638 118.531 407.932 118.665 408.193 118.875C408.457 119.082 408.668 119.342 408.824 119.655C408.983 119.964 409.064 120.304 409.067 120.673C409.064 121.145 408.93 121.565 408.666 121.935C408.402 122.304 408.036 122.594 407.567 122.804C407.101 123.014 406.565 123.119 405.96 123.119ZM405.96 122.041C406.321 122.041 406.634 121.982 406.898 121.862C407.162 121.74 407.366 121.571 407.511 121.355C407.656 121.136 407.73 120.881 407.733 120.588C407.73 120.284 407.651 120.016 407.494 119.783C407.341 119.55 407.132 119.366 406.868 119.233C406.604 119.099 406.301 119.033 405.96 119.033C405.616 119.033 405.311 119.099 405.044 119.233C404.777 119.366 404.567 119.55 404.413 119.783C404.26 120.016 404.185 120.284 404.188 120.588C404.185 120.881 404.254 121.136 404.396 121.355C404.541 121.571 404.747 121.74 405.014 121.862C405.281 121.982 405.597 122.041 405.96 122.041ZM405.96 117.98C406.25 117.98 406.507 117.922 406.732 117.805C406.956 117.689 407.132 117.527 407.26 117.32C407.391 117.112 407.457 116.869 407.46 116.591C407.457 116.318 407.392 116.08 407.264 115.875C407.139 115.67 406.964 115.513 406.74 115.402C406.516 115.288 406.256 115.232 405.96 115.232C405.659 115.232 405.395 115.288 405.168 115.402C404.943 115.513 404.768 115.67 404.643 115.875C404.518 116.08 404.457 116.318 404.46 116.591C404.457 116.869 404.52 117.112 404.648 117.32C404.776 117.527 404.952 117.689 405.176 117.805C405.403 117.922 405.665 117.98 405.96 117.98ZM411.192 123.081C410.959 123.081 410.759 122.999 410.591 122.834C410.424 122.666 410.34 122.464 410.34 122.229C410.34 121.996 410.424 121.797 410.591 121.632C410.759 121.464 410.959 121.381 411.192 121.381C411.425 121.381 411.625 121.464 411.793 121.632C411.961 121.797 412.044 121.996 412.044 122.229C412.044 122.385 412.005 122.528 411.925 122.659C411.848 122.787 411.746 122.889 411.618 122.966C411.49 123.043 411.348 123.081 411.192 123.081ZM413.734 123V122.045L416.687 118.986C417.002 118.653 417.262 118.362 417.467 118.112C417.674 117.859 417.829 117.619 417.931 117.392C418.034 117.165 418.085 116.923 418.085 116.668C418.085 116.378 418.017 116.128 417.88 115.918C417.744 115.705 417.558 115.541 417.322 115.428C417.086 115.311 416.821 115.253 416.525 115.253C416.213 115.253 415.94 115.317 415.707 115.445C415.474 115.572 415.295 115.753 415.17 115.986C415.045 116.219 414.983 116.491 414.983 116.804H413.725C413.725 116.273 413.848 115.808 414.092 115.411C414.336 115.013 414.672 114.705 415.098 114.486C415.524 114.264 416.008 114.153 416.551 114.153C417.099 114.153 417.582 114.263 418 114.482C418.42 114.697 418.748 114.993 418.984 115.368C419.22 115.74 419.338 116.161 419.338 116.629C419.338 116.953 419.277 117.27 419.154 117.58C419.035 117.889 418.826 118.234 418.528 118.615C418.23 118.993 417.815 119.452 417.284 119.991L415.549 121.807V121.871H419.478V123H413.734ZM425.649 121.364V120.903C425.649 120.574 425.717 120.273 425.853 120C425.993 119.724 426.194 119.504 426.458 119.339C426.725 119.172 427.048 119.088 427.426 119.088C427.812 119.088 428.136 119.17 428.397 119.335C428.659 119.5 428.856 119.72 428.99 119.996C429.126 120.271 429.194 120.574 429.194 120.903V121.364C429.194 121.693 429.126 121.996 428.99 122.271C428.853 122.544 428.653 122.764 428.389 122.932C428.127 123.097 427.806 123.179 427.426 123.179C427.042 123.179 426.718 123.097 426.454 122.932C426.19 122.764 425.99 122.544 425.853 122.271C425.717 121.996 425.649 121.693 425.649 121.364ZM426.642 120.903V121.364C426.642 121.608 426.7 121.83 426.816 122.028C426.933 122.227 427.136 122.327 427.426 122.327C427.713 122.327 427.913 122.227 428.027 122.028C428.14 121.83 428.197 121.608 428.197 121.364V120.903C428.197 120.659 428.142 120.437 428.031 120.239C427.923 120.04 427.721 119.94 427.426 119.94C427.142 119.94 426.94 120.04 426.821 120.239C426.701 120.437 426.642 120.659 426.642 120.903ZM421.26 116.369V115.909C421.26 115.58 421.328 115.277 421.464 115.001C421.603 114.726 421.805 114.506 422.069 114.341C422.336 114.176 422.659 114.094 423.037 114.094C423.423 114.094 423.747 114.176 424.008 114.341C424.27 114.506 424.467 114.726 424.6 115.001C424.734 115.277 424.801 115.58 424.801 115.909V116.369C424.801 116.699 424.733 117.001 424.596 117.277C424.463 117.55 424.264 117.77 424 117.938C423.738 118.102 423.417 118.185 423.037 118.185C422.65 118.185 422.325 118.102 422.061 117.938C421.799 117.77 421.6 117.55 421.464 117.277C421.328 117.001 421.26 116.699 421.26 116.369ZM422.257 115.909V116.369C422.257 116.614 422.314 116.835 422.427 117.034C422.544 117.233 422.747 117.332 423.037 117.332C423.321 117.332 423.52 117.233 423.633 117.034C423.75 116.835 423.808 116.614 423.808 116.369V115.909C423.808 115.665 423.752 115.443 423.642 115.244C423.531 115.045 423.329 114.946 423.037 114.946C422.752 114.946 422.551 115.045 422.431 115.244C422.315 115.443 422.257 115.665 422.257 115.909ZM421.664 123L427.664 114.273H428.683L422.683 123H421.664Z" fill="#1D2939"/>
</svg>
