<svg width="542" height="294" viewBox="0 0 542 294" fill="none" xmlns="http://www.w3.org/2000/svg">
<path d="M48.3977 238.273H49.4545V244.511C49.4545 245.068 49.3523 245.541 49.1477 245.93C48.9432 246.32 48.6548 246.615 48.2827 246.817C47.9105 247.018 47.4716 247.119 46.9659 247.119C46.4886 247.119 46.0639 247.033 45.6918 246.859C45.3196 246.683 45.027 246.433 44.8139 246.109C44.6009 245.786 44.4943 245.401 44.4943 244.955H45.5341C45.5341 245.202 45.5952 245.418 45.7173 245.602C45.8423 245.784 46.0128 245.926 46.2287 246.028C46.4446 246.131 46.6903 246.182 46.9659 246.182C47.2699 246.182 47.5284 246.118 47.7415 245.99C47.9545 245.862 48.1165 245.675 48.2273 245.428C48.3409 245.178 48.3977 244.872 48.3977 244.511V238.273ZM53.3622 247.153C52.9474 247.153 52.571 247.075 52.233 246.919C51.8949 246.76 51.6264 246.531 51.4276 246.233C51.2287 245.932 51.1293 245.568 51.1293 245.142C51.1293 244.767 51.2031 244.463 51.3509 244.23C51.4986 243.994 51.696 243.81 51.9432 243.676C52.1903 243.543 52.4631 243.443 52.7614 243.378C53.0625 243.31 53.3651 243.256 53.669 243.216C54.0668 243.165 54.3892 243.126 54.6364 243.101C54.8864 243.072 55.0682 243.026 55.1818 242.96C55.2983 242.895 55.3565 242.781 55.3565 242.619V242.585C55.3565 242.165 55.2415 241.838 55.0114 241.605C54.7841 241.372 54.4389 241.256 53.9759 241.256C53.4957 241.256 53.1193 241.361 52.8466 241.571C52.5739 241.781 52.3821 242.006 52.2713 242.244L51.3168 241.903C51.4872 241.506 51.7145 241.196 51.9986 240.974C52.2855 240.75 52.598 240.594 52.9361 240.506C53.277 240.415 53.6122 240.369 53.9418 240.369C54.152 240.369 54.3935 240.395 54.6662 240.446C54.9418 240.494 55.2074 240.595 55.4631 240.749C55.7216 240.902 55.9361 241.134 56.1065 241.443C56.277 241.753 56.3622 242.168 56.3622 242.688V247H55.3565V246.114H55.3054C55.2372 246.256 55.1236 246.408 54.9645 246.57C54.8054 246.732 54.5938 246.869 54.3295 246.983C54.0653 247.097 53.7429 247.153 53.3622 247.153ZM53.5156 246.25C53.9134 246.25 54.2486 246.172 54.5213 246.016C54.7969 245.859 55.0043 245.658 55.1435 245.411C55.2855 245.163 55.3565 244.903 55.3565 244.631V243.71C55.3139 243.761 55.2202 243.808 55.0753 243.851C54.9332 243.891 54.7685 243.926 54.581 243.957C54.3963 243.986 54.2159 244.011 54.0398 244.034C53.8665 244.054 53.7259 244.071 53.6179 244.085C53.3565 244.119 53.1122 244.175 52.8849 244.251C52.6605 244.325 52.4787 244.437 52.3395 244.588C52.2031 244.736 52.1349 244.937 52.1349 245.193C52.1349 245.543 52.2642 245.807 52.5227 245.986C52.7841 246.162 53.1151 246.25 53.5156 246.25ZM59.2035 243.062V247H58.1978V240.455H59.1694V241.477H59.2546C59.408 241.145 59.641 240.878 59.9535 240.676C60.266 240.472 60.6694 240.369 61.1637 240.369C61.6069 240.369 61.9947 240.46 62.3271 240.642C62.6594 240.821 62.918 241.094 63.1026 241.46C63.2873 241.824 63.3796 242.284 63.3796 242.841V247H62.3739V242.909C62.3739 242.395 62.2404 241.994 61.9734 241.707C61.7063 241.418 61.3398 241.273 60.8739 241.273C60.5529 241.273 60.266 241.342 60.0131 241.482C59.7631 241.621 59.5657 241.824 59.4208 242.091C59.2759 242.358 59.2035 242.682 59.2035 243.062Z" fill="#667085"/>
<path d="M87.7841 247V238.273H93.0171V239.21H88.8409V242.159H92.625V243.097H88.8409V247H87.7841ZM96.9546 247.136C96.3239 247.136 95.7799 246.997 95.3225 246.719C94.8679 246.438 94.5171 246.045 94.2699 245.543C94.0256 245.037 93.9034 244.449 93.9034 243.778C93.9034 243.108 94.0256 242.517 94.2699 242.006C94.5171 241.491 94.8608 241.091 95.3012 240.804C95.7443 240.514 96.2614 240.369 96.8523 240.369C97.1932 240.369 97.5299 240.426 97.8622 240.54C98.1946 240.653 98.4972 240.838 98.7699 241.094C99.0426 241.347 99.26 241.682 99.4219 242.099C99.5838 242.517 99.6648 243.031 99.6648 243.642V244.068H94.6193V243.199H98.6421C98.6421 242.83 98.5682 242.5 98.4205 242.21C98.2756 241.92 98.0682 241.692 97.7983 241.524C97.5313 241.357 97.2159 241.273 96.8523 241.273C96.4517 241.273 96.1051 241.372 95.8125 241.571C95.5227 241.767 95.2997 242.023 95.1435 242.338C94.9872 242.653 94.9091 242.991 94.9091 243.352V243.932C94.9091 244.426 94.9943 244.845 95.1648 245.189C95.3381 245.53 95.5781 245.79 95.885 245.969C96.1918 246.145 96.5483 246.233 96.9546 246.233C97.2188 246.233 97.4574 246.196 97.6705 246.122C97.8864 246.045 98.0725 245.932 98.2287 245.781C98.385 245.628 98.5057 245.437 98.5909 245.21L99.5625 245.483C99.4602 245.812 99.2884 246.102 99.0469 246.352C98.8054 246.599 98.5071 246.793 98.152 246.932C97.7969 247.068 97.3977 247.136 96.9546 247.136ZM101.331 247V238.273H102.337V241.494H102.422C102.496 241.381 102.598 241.236 102.729 241.06C102.862 240.881 103.053 240.722 103.3 240.582C103.55 240.44 103.888 240.369 104.314 240.369C104.865 240.369 105.351 240.507 105.771 240.783C106.192 241.058 106.52 241.449 106.756 241.955C106.991 242.46 107.109 243.057 107.109 243.744C107.109 244.438 106.991 245.038 106.756 245.547C106.52 246.053 106.193 246.445 105.776 246.723C105.358 246.999 104.876 247.136 104.331 247.136C103.911 247.136 103.574 247.067 103.321 246.928C103.068 246.786 102.874 246.625 102.737 246.446C102.601 246.264 102.496 246.114 102.422 245.994H102.303V247H101.331ZM102.32 243.727C102.32 244.222 102.392 244.658 102.537 245.036C102.682 245.411 102.893 245.705 103.172 245.918C103.45 246.128 103.791 246.233 104.195 246.233C104.615 246.233 104.966 246.122 105.247 245.901C105.531 245.676 105.744 245.375 105.886 244.997C106.031 244.616 106.104 244.193 106.104 243.727C106.104 243.267 106.033 242.852 105.891 242.483C105.751 242.111 105.54 241.817 105.256 241.601C104.974 241.382 104.621 241.273 104.195 241.273C103.786 241.273 103.442 241.376 103.163 241.584C102.885 241.788 102.675 242.075 102.533 242.445C102.391 242.811 102.32 243.239 102.32 243.727Z" fill="#667085"/>
<path d="M130.511 238.273H131.773L134.739 245.517H134.841L137.807 238.273H139.068V247H138.08V240.369H137.994L135.267 247H134.313L131.585 240.369H131.5V247H130.511V238.273ZM142.977 247.153C142.562 247.153 142.186 247.075 141.848 246.919C141.51 246.76 141.241 246.531 141.042 246.233C140.843 245.932 140.744 245.568 140.744 245.142C140.744 244.767 140.818 244.463 140.966 244.23C141.113 243.994 141.311 243.81 141.558 243.676C141.805 243.543 142.078 243.443 142.376 243.378C142.677 243.31 142.98 243.256 143.284 243.216C143.682 243.165 144.004 243.126 144.251 243.101C144.501 243.072 144.683 243.026 144.797 242.96C144.913 242.895 144.971 242.781 144.971 242.619V242.585C144.971 242.165 144.856 241.838 144.626 241.605C144.399 241.372 144.054 241.256 143.591 241.256C143.11 241.256 142.734 241.361 142.461 241.571C142.189 241.781 141.997 242.006 141.886 242.244L140.932 241.903C141.102 241.506 141.329 241.196 141.613 240.974C141.9 240.75 142.213 240.594 142.551 240.506C142.892 240.415 143.227 240.369 143.557 240.369C143.767 240.369 144.008 240.395 144.281 240.446C144.557 240.494 144.822 240.595 145.078 240.749C145.336 240.902 145.551 241.134 145.721 241.443C145.892 241.753 145.977 242.168 145.977 242.688V247H144.971V246.114H144.92C144.852 246.256 144.738 246.408 144.579 246.57C144.42 246.732 144.208 246.869 143.944 246.983C143.68 247.097 143.358 247.153 142.977 247.153ZM143.13 246.25C143.528 246.25 143.863 246.172 144.136 246.016C144.412 245.859 144.619 245.658 144.758 245.411C144.9 245.163 144.971 244.903 144.971 244.631V243.71C144.929 243.761 144.835 243.808 144.69 243.851C144.548 243.891 144.383 243.926 144.196 243.957C144.011 243.986 143.831 244.011 143.655 244.034C143.481 244.054 143.341 244.071 143.233 244.085C142.971 244.119 142.727 244.175 142.5 244.251C142.275 244.325 142.093 244.437 141.954 244.588C141.818 244.736 141.75 244.937 141.75 245.193C141.75 245.543 141.879 245.807 142.137 245.986C142.399 246.162 142.73 246.25 143.13 246.25ZM147.813 247V240.455H148.784V241.443H148.852C148.972 241.119 149.188 240.857 149.5 240.655C149.813 240.453 150.165 240.352 150.557 240.352C150.631 240.352 150.723 240.354 150.834 240.357C150.945 240.359 151.028 240.364 151.085 240.369V241.392C151.051 241.384 150.973 241.371 150.851 241.354C150.732 241.334 150.605 241.324 150.472 241.324C150.153 241.324 149.869 241.391 149.619 241.524C149.372 241.655 149.176 241.837 149.031 242.07C148.889 242.3 148.818 242.562 148.818 242.858V247H147.813Z" fill="#667085"/>
<path d="M174.597 247H173.489L176.693 238.273H177.784L180.989 247H179.881L177.273 239.653H177.205L174.597 247ZM175.006 243.591H179.472V244.528H175.006V243.591ZM182.212 249.455V240.455H183.183V241.494H183.303C183.376 241.381 183.479 241.236 183.609 241.06C183.743 240.881 183.933 240.722 184.18 240.582C184.43 240.44 184.769 240.369 185.195 240.369C185.746 240.369 186.232 240.507 186.652 240.783C187.073 241.058 187.401 241.449 187.636 241.955C187.872 242.46 187.99 243.057 187.99 243.744C187.99 244.438 187.872 245.038 187.636 245.547C187.401 246.053 187.074 246.445 186.656 246.723C186.239 246.999 185.757 247.136 185.212 247.136C184.791 247.136 184.455 247.067 184.202 246.928C183.949 246.786 183.754 246.625 183.618 246.446C183.482 246.264 183.376 246.114 183.303 245.994H183.217V249.455H182.212ZM183.2 243.727C183.2 244.222 183.273 244.658 183.418 245.036C183.563 245.411 183.774 245.705 184.053 245.918C184.331 246.128 184.672 246.233 185.075 246.233C185.496 246.233 185.847 246.122 186.128 245.901C186.412 245.676 186.625 245.375 186.767 244.997C186.912 244.616 186.984 244.193 186.984 243.727C186.984 243.267 186.913 242.852 186.771 242.483C186.632 242.111 186.421 241.817 186.136 241.601C185.855 241.382 185.501 241.273 185.075 241.273C184.666 241.273 184.323 241.376 184.044 241.584C183.766 241.788 183.555 242.075 183.413 242.445C183.271 242.811 183.2 243.239 183.2 243.727ZM189.524 247V240.455H190.496V241.443H190.564C190.683 241.119 190.899 240.857 191.212 240.655C191.524 240.453 191.876 240.352 192.269 240.352C192.342 240.352 192.435 240.354 192.546 240.357C192.656 240.359 192.74 240.364 192.797 240.369V241.392C192.763 241.384 192.685 241.371 192.563 241.354C192.443 241.334 192.317 241.324 192.183 241.324C191.865 241.324 191.581 241.391 191.331 241.524C191.084 241.655 190.888 241.837 190.743 242.07C190.601 242.3 190.53 242.562 190.53 242.858V247H189.524Z" fill="#667085"/>
<path d="M215.966 238.273H217.227L220.193 245.517H220.295L223.261 238.273H224.523V247H223.534V240.369H223.449L220.722 247H219.767L217.04 240.369H216.955V247H215.966V238.273ZM228.431 247.153C228.017 247.153 227.64 247.075 227.302 246.919C226.964 246.76 226.696 246.531 226.497 246.233C226.298 245.932 226.198 245.568 226.198 245.142C226.198 244.767 226.272 244.463 226.42 244.23C226.568 243.994 226.765 243.81 227.012 243.676C227.26 243.543 227.532 243.443 227.831 243.378C228.132 243.31 228.434 243.256 228.738 243.216C229.136 243.165 229.458 243.126 229.706 243.101C229.956 243.072 230.137 243.026 230.251 242.96C230.368 242.895 230.426 242.781 230.426 242.619V242.585C230.426 242.165 230.311 241.838 230.081 241.605C229.853 241.372 229.508 241.256 229.045 241.256C228.565 241.256 228.189 241.361 227.916 241.571C227.643 241.781 227.451 242.006 227.341 242.244L226.386 241.903C226.556 241.506 226.784 241.196 227.068 240.974C227.355 240.75 227.667 240.594 228.005 240.506C228.346 240.415 228.681 240.369 229.011 240.369C229.221 240.369 229.463 240.395 229.735 240.446C230.011 240.494 230.277 240.595 230.532 240.749C230.791 240.902 231.005 241.134 231.176 241.443C231.346 241.753 231.431 242.168 231.431 242.688V247H230.426V246.114H230.375C230.306 246.256 230.193 246.408 230.034 246.57C229.875 246.732 229.663 246.869 229.399 246.983C229.135 247.097 228.812 247.153 228.431 247.153ZM228.585 246.25C228.983 246.25 229.318 246.172 229.591 246.016C229.866 245.859 230.073 245.658 230.213 245.411C230.355 245.163 230.426 244.903 230.426 244.631V243.71C230.383 243.761 230.289 243.808 230.144 243.851C230.002 243.891 229.838 243.926 229.65 243.957C229.466 243.986 229.285 244.011 229.109 244.034C228.936 244.054 228.795 244.071 228.687 244.085C228.426 244.119 228.181 244.175 227.954 244.251C227.73 244.325 227.548 244.437 227.409 244.588C227.272 244.736 227.204 244.937 227.204 245.193C227.204 245.543 227.333 245.807 227.592 245.986C227.853 246.162 228.184 246.25 228.585 246.25ZM233.68 249.455C233.51 249.455 233.358 249.44 233.224 249.412C233.091 249.386 232.999 249.361 232.947 249.335L233.203 248.449C233.447 248.511 233.663 248.534 233.851 248.517C234.038 248.5 234.205 248.416 234.349 248.266C234.497 248.118 234.632 247.878 234.754 247.545L234.942 247.034L232.521 240.455H233.612L235.419 245.67H235.487L237.294 240.455H238.385L235.607 247.955C235.482 248.293 235.327 248.572 235.142 248.794C234.957 249.018 234.743 249.185 234.499 249.293C234.257 249.401 233.984 249.455 233.68 249.455Z" fill="#667085"/>
<path d="M265.034 238.273H266.091V244.511C266.091 245.068 265.989 245.541 265.784 245.93C265.58 246.32 265.291 246.615 264.919 246.817C264.547 247.018 264.108 247.119 263.602 247.119C263.125 247.119 262.7 247.033 262.328 246.859C261.956 246.683 261.663 246.433 261.45 246.109C261.237 245.786 261.131 245.401 261.131 244.955H262.17C262.17 245.202 262.232 245.418 262.354 245.602C262.479 245.784 262.649 245.926 262.865 246.028C263.081 246.131 263.327 246.182 263.602 246.182C263.906 246.182 264.165 246.118 264.378 245.99C264.591 245.862 264.753 245.675 264.864 245.428C264.977 245.178 265.034 244.872 265.034 244.511V238.273ZM272.197 244.324V240.455H273.203V247H272.197V245.892H272.129C271.976 246.224 271.737 246.507 271.413 246.74C271.089 246.97 270.68 247.085 270.186 247.085C269.777 247.085 269.413 246.996 269.095 246.817C268.777 246.635 268.527 246.362 268.345 245.999C268.163 245.632 268.072 245.17 268.072 244.614V240.455H269.078V244.545C269.078 245.023 269.212 245.403 269.479 245.688C269.749 245.972 270.092 246.114 270.51 246.114C270.76 246.114 271.014 246.05 271.273 245.922C271.534 245.794 271.753 245.598 271.929 245.334C272.108 245.07 272.197 244.733 272.197 244.324ZM276.051 243.062V247H275.045V240.455H276.017V241.477H276.102C276.255 241.145 276.488 240.878 276.801 240.676C277.113 240.472 277.517 240.369 278.011 240.369C278.454 240.369 278.842 240.46 279.174 240.642C279.507 240.821 279.765 241.094 279.95 241.46C280.135 241.824 280.227 242.284 280.227 242.841V247H279.221V242.909C279.221 242.395 279.088 241.994 278.821 241.707C278.554 241.418 278.187 241.273 277.721 241.273C277.4 241.273 277.113 241.342 276.86 241.482C276.61 241.621 276.413 241.824 276.268 242.091C276.123 242.358 276.051 242.682 276.051 243.062Z" fill="#667085"/>
<path d="M307.761 238.273H308.818V244.511C308.818 245.068 308.716 245.541 308.511 245.93C308.307 246.32 308.018 246.615 307.646 246.817C307.274 247.018 306.835 247.119 306.33 247.119C305.852 247.119 305.428 247.033 305.055 246.859C304.683 246.683 304.391 246.433 304.178 246.109C303.964 245.786 303.858 245.401 303.858 244.955H304.898C304.898 245.202 304.959 245.418 305.081 245.602C305.206 245.784 305.376 245.926 305.592 246.028C305.808 246.131 306.054 246.182 306.33 246.182C306.634 246.182 306.892 246.118 307.105 245.99C307.318 245.862 307.48 245.675 307.591 245.428C307.705 245.178 307.761 244.872 307.761 244.511V238.273ZM314.925 244.324V240.455H315.93V247H314.925V245.892H314.857C314.703 246.224 314.464 246.507 314.141 246.74C313.817 246.97 313.408 247.085 312.913 247.085C312.504 247.085 312.141 246.996 311.822 246.817C311.504 246.635 311.254 246.362 311.072 245.999C310.891 245.632 310.8 245.17 310.8 244.614V240.455H311.805V244.545C311.805 245.023 311.939 245.403 312.206 245.688C312.476 245.972 312.82 246.114 313.237 246.114C313.487 246.114 313.741 246.05 314 245.922C314.261 245.794 314.48 245.598 314.656 245.334C314.835 245.07 314.925 244.733 314.925 244.324ZM318.778 238.273V247H317.772V238.273H318.778Z" fill="#667085"/>
<path d="M343.506 247H342.398L345.602 238.273H346.693L349.898 247H348.79L346.182 239.653H346.114L343.506 247ZM343.915 243.591H348.381V244.528H343.915V243.591ZM355.246 244.324V240.455H356.251V247H355.246V245.892H355.178C355.024 246.224 354.785 246.507 354.462 246.74C354.138 246.97 353.729 247.085 353.234 247.085C352.825 247.085 352.462 246.996 352.143 246.817C351.825 246.635 351.575 246.362 351.393 245.999C351.212 245.632 351.121 245.17 351.121 244.614V240.455H352.126V244.545C352.126 245.023 352.26 245.403 352.527 245.688C352.797 245.972 353.141 246.114 353.558 246.114C353.808 246.114 354.062 246.05 354.321 245.922C354.582 245.794 354.801 245.598 354.977 245.334C355.156 245.07 355.246 244.733 355.246 244.324ZM360.735 249.591C360.25 249.591 359.832 249.528 359.483 249.403C359.133 249.281 358.842 249.119 358.609 248.918C358.379 248.719 358.196 248.506 358.059 248.278L358.86 247.716C358.951 247.835 359.066 247.972 359.206 248.125C359.345 248.281 359.535 248.416 359.777 248.53C360.021 248.646 360.341 248.705 360.735 248.705C361.264 248.705 361.7 248.577 362.044 248.321C362.387 248.065 362.559 247.665 362.559 247.119V245.79H362.474C362.4 245.909 362.295 246.057 362.159 246.233C362.025 246.406 361.832 246.561 361.579 246.697C361.329 246.831 360.991 246.898 360.565 246.898C360.037 246.898 359.562 246.773 359.142 246.523C358.724 246.273 358.393 245.909 358.149 245.432C357.907 244.955 357.787 244.375 357.787 243.693C357.787 243.023 357.904 242.439 358.14 241.942C358.376 241.442 358.704 241.055 359.125 240.783C359.545 240.507 360.031 240.369 360.582 240.369C361.008 240.369 361.346 240.44 361.596 240.582C361.849 240.722 362.042 240.881 362.176 241.06C362.312 241.236 362.417 241.381 362.491 241.494H362.593V240.455H363.565V247.188C363.565 247.75 363.437 248.207 363.181 248.56C362.929 248.915 362.588 249.175 362.159 249.339C361.733 249.507 361.258 249.591 360.735 249.591ZM360.701 245.994C361.105 245.994 361.446 245.902 361.724 245.717C362.002 245.533 362.214 245.267 362.359 244.92C362.504 244.574 362.576 244.159 362.576 243.676C362.576 243.205 362.505 242.788 362.363 242.428C362.221 242.067 362.011 241.784 361.733 241.58C361.454 241.375 361.11 241.273 360.701 241.273C360.275 241.273 359.92 241.381 359.636 241.597C359.355 241.812 359.143 242.102 359.001 242.466C358.862 242.83 358.792 243.233 358.792 243.676C358.792 244.131 358.863 244.533 359.005 244.882C359.15 245.229 359.363 245.501 359.645 245.7C359.929 245.896 360.281 245.994 360.701 245.994Z" fill="#667085"/>
<path d="M392.648 240.455C392.597 240.023 392.389 239.688 392.026 239.449C391.662 239.21 391.216 239.091 390.687 239.091C390.301 239.091 389.963 239.153 389.673 239.278C389.386 239.403 389.162 239.575 389 239.794C388.841 240.013 388.761 240.261 388.761 240.54C388.761 240.773 388.817 240.973 388.927 241.141C389.041 241.305 389.186 241.443 389.362 241.554C389.538 241.662 389.723 241.751 389.916 241.822C390.109 241.891 390.287 241.946 390.449 241.989L391.335 242.227C391.562 242.287 391.815 242.369 392.094 242.474C392.375 242.58 392.643 242.723 392.899 242.905C393.158 243.084 393.371 243.314 393.538 243.595C393.706 243.876 393.79 244.222 393.79 244.631C393.79 245.102 393.666 245.528 393.419 245.909C393.175 246.29 392.817 246.592 392.345 246.817C391.876 247.041 391.307 247.153 390.636 247.153C390.011 247.153 389.47 247.053 389.013 246.851C388.558 246.649 388.2 246.368 387.939 246.007C387.68 245.646 387.534 245.227 387.5 244.75H388.591C388.619 245.08 388.73 245.352 388.923 245.568C389.119 245.781 389.366 245.94 389.665 246.045C389.966 246.148 390.29 246.199 390.636 246.199C391.04 246.199 391.402 246.134 391.723 246.003C392.044 245.869 392.298 245.685 392.486 245.449C392.673 245.21 392.767 244.932 392.767 244.614C392.767 244.324 392.686 244.088 392.524 243.906C392.362 243.724 392.149 243.577 391.885 243.463C391.621 243.349 391.335 243.25 391.028 243.165L389.954 242.858C389.273 242.662 388.733 242.382 388.335 242.018C387.937 241.655 387.739 241.179 387.739 240.591C387.739 240.102 387.871 239.676 388.135 239.312C388.402 238.946 388.76 238.662 389.209 238.46C389.66 238.256 390.165 238.153 390.722 238.153C391.284 238.153 391.784 238.254 392.222 238.456C392.659 238.655 393.006 238.928 393.261 239.274C393.52 239.621 393.656 240.014 393.67 240.455H392.648ZM398.135 247.136C397.505 247.136 396.961 246.997 396.503 246.719C396.049 246.438 395.698 246.045 395.451 245.543C395.206 245.037 395.084 244.449 395.084 243.778C395.084 243.108 395.206 242.517 395.451 242.006C395.698 241.491 396.041 241.091 396.482 240.804C396.925 240.514 397.442 240.369 398.033 240.369C398.374 240.369 398.711 240.426 399.043 240.54C399.375 240.653 399.678 240.838 399.951 241.094C400.223 241.347 400.441 241.682 400.603 242.099C400.764 242.517 400.845 243.031 400.845 243.642V244.068H395.8V243.199H399.823C399.823 242.83 399.749 242.5 399.601 242.21C399.456 241.92 399.249 241.692 398.979 241.524C398.712 241.357 398.397 241.273 398.033 241.273C397.632 241.273 397.286 241.372 396.993 241.571C396.703 241.767 396.48 242.023 396.324 242.338C396.168 242.653 396.09 242.991 396.09 243.352V243.932C396.09 244.426 396.175 244.845 396.345 245.189C396.519 245.53 396.759 245.79 397.066 245.969C397.372 246.145 397.729 246.233 398.135 246.233C398.399 246.233 398.638 246.196 398.851 246.122C399.067 246.045 399.253 245.932 399.409 245.781C399.566 245.628 399.686 245.437 399.772 245.21L400.743 245.483C400.641 245.812 400.469 246.102 400.228 246.352C399.986 246.599 399.688 246.793 399.333 246.932C398.978 247.068 398.578 247.136 398.135 247.136ZM402.375 249.455V240.455H403.347V241.494H403.466C403.54 241.381 403.642 241.236 403.773 241.06C403.907 240.881 404.097 240.722 404.344 240.582C404.594 240.44 404.932 240.369 405.358 240.369C405.909 240.369 406.395 240.507 406.816 240.783C407.236 241.058 407.564 241.449 407.8 241.955C408.036 242.46 408.154 243.057 408.154 243.744C408.154 244.438 408.036 245.038 407.8 245.547C407.564 246.053 407.238 246.445 406.82 246.723C406.402 246.999 405.921 247.136 405.375 247.136C404.955 247.136 404.618 247.067 404.365 246.928C404.113 246.786 403.918 246.625 403.782 246.446C403.645 246.264 403.54 246.114 403.466 245.994H403.381V249.455H402.375ZM403.364 243.727C403.364 244.222 403.436 244.658 403.581 245.036C403.726 245.411 403.938 245.705 404.216 245.918C404.495 246.128 404.836 246.233 405.239 246.233C405.659 246.233 406.01 246.122 406.291 245.901C406.576 245.676 406.789 245.375 406.931 244.997C407.076 244.616 407.148 244.193 407.148 243.727C407.148 243.267 407.077 242.852 406.935 242.483C406.796 242.111 406.584 241.817 406.3 241.601C406.019 241.382 405.665 241.273 405.239 241.273C404.83 241.273 404.486 241.376 404.208 241.584C403.929 241.788 403.719 242.075 403.577 242.445C403.435 242.811 403.364 243.239 403.364 243.727Z" fill="#667085"/>
<path d="M438.966 242.636C438.966 243.557 438.8 244.352 438.467 245.023C438.135 245.693 437.679 246.21 437.099 246.574C436.52 246.938 435.858 247.119 435.114 247.119C434.369 247.119 433.707 246.938 433.128 246.574C432.548 246.21 432.092 245.693 431.76 245.023C431.428 244.352 431.261 243.557 431.261 242.636C431.261 241.716 431.428 240.92 431.76 240.25C432.092 239.58 432.548 239.062 433.128 238.699C433.707 238.335 434.369 238.153 435.114 238.153C435.858 238.153 436.52 238.335 437.099 238.699C437.679 239.062 438.135 239.58 438.467 240.25C438.8 240.92 438.966 241.716 438.966 242.636ZM437.943 242.636C437.943 241.881 437.817 241.243 437.564 240.723C437.314 240.203 436.974 239.81 436.545 239.543C436.119 239.276 435.642 239.142 435.114 239.142C434.585 239.142 434.106 239.276 433.678 239.543C433.251 239.81 432.912 240.203 432.659 240.723C432.409 241.243 432.284 241.881 432.284 242.636C432.284 243.392 432.409 244.03 432.659 244.55C432.912 245.07 433.251 245.463 433.678 245.73C434.106 245.997 434.585 246.131 435.114 246.131C435.642 246.131 436.119 245.997 436.545 245.73C436.974 245.463 437.314 245.07 437.564 244.55C437.817 244.03 437.943 243.392 437.943 242.636ZM443.266 247.136C442.652 247.136 442.124 246.991 441.68 246.702C441.237 246.412 440.896 246.013 440.658 245.504C440.419 244.996 440.3 244.415 440.3 243.761C440.3 243.097 440.422 242.51 440.666 242.001C440.913 241.49 441.257 241.091 441.697 240.804C442.141 240.514 442.658 240.369 443.249 240.369C443.709 240.369 444.124 240.455 444.493 240.625C444.862 240.795 445.165 241.034 445.401 241.341C445.636 241.648 445.783 242.006 445.839 242.415H444.834C444.757 242.116 444.587 241.852 444.322 241.622C444.061 241.389 443.709 241.273 443.266 241.273C442.874 241.273 442.53 241.375 442.234 241.58C441.942 241.781 441.713 242.067 441.548 242.436C441.386 242.803 441.305 243.233 441.305 243.727C441.305 244.233 441.385 244.673 441.544 245.048C441.706 245.423 441.933 245.714 442.226 245.922C442.521 246.129 442.868 246.233 443.266 246.233C443.527 246.233 443.764 246.188 443.977 246.097C444.19 246.006 444.371 245.875 444.518 245.705C444.666 245.534 444.771 245.33 444.834 245.091H445.839C445.783 245.477 445.642 245.825 445.418 246.135C445.196 246.442 444.902 246.686 444.535 246.868C444.172 247.047 443.749 247.136 443.266 247.136ZM450.156 240.455V241.307H446.764V240.455H450.156ZM447.753 238.886H448.758V245.125C448.758 245.409 448.8 245.622 448.882 245.764C448.967 245.903 449.075 245.997 449.206 246.045C449.339 246.091 449.48 246.114 449.628 246.114C449.739 246.114 449.83 246.108 449.901 246.097C449.972 246.082 450.028 246.071 450.071 246.062L450.276 246.966C450.207 246.991 450.112 247.017 449.99 247.043C449.868 247.071 449.713 247.085 449.526 247.085C449.241 247.085 448.963 247.024 448.69 246.902C448.42 246.78 448.196 246.594 448.017 246.344C447.841 246.094 447.753 245.778 447.753 245.398V238.886Z" fill="#667085"/>
<path d="M481.25 238.273V247H480.227L475.472 240.148H475.386V247H474.33V238.273H475.352L480.125 245.142H480.21V238.273H481.25ZM485.887 247.136C485.296 247.136 484.778 246.996 484.332 246.714C483.889 246.433 483.542 246.04 483.292 245.534C483.045 245.028 482.921 244.437 482.921 243.761C482.921 243.08 483.045 242.484 483.292 241.976C483.542 241.467 483.889 241.072 484.332 240.791C484.778 240.51 485.296 240.369 485.887 240.369C486.478 240.369 486.995 240.51 487.439 240.791C487.885 241.072 488.231 241.467 488.478 241.976C488.728 242.484 488.853 243.08 488.853 243.761C488.853 244.437 488.728 245.028 488.478 245.534C488.231 246.04 487.885 246.433 487.439 246.714C486.995 246.996 486.478 247.136 485.887 247.136ZM485.887 246.233C486.336 246.233 486.706 246.118 486.995 245.888C487.285 245.658 487.5 245.355 487.639 244.98C487.778 244.605 487.848 244.199 487.848 243.761C487.848 243.324 487.778 242.916 487.639 242.538C487.5 242.161 487.285 241.855 486.995 241.622C486.706 241.389 486.336 241.273 485.887 241.273C485.439 241.273 485.069 241.389 484.779 241.622C484.49 241.855 484.275 242.161 484.136 242.538C483.997 242.916 483.927 243.324 483.927 243.761C483.927 244.199 483.997 244.605 484.136 244.98C484.275 245.355 484.49 245.658 484.779 245.888C485.069 246.118 485.439 246.233 485.887 246.233ZM495.506 240.455L493.086 247H492.063L489.643 240.455H490.734L492.54 245.67H492.609L494.415 240.455H495.506Z" fill="#667085"/>
<path d="M521.75 247H519.057V238.273H521.869C522.716 238.273 523.44 238.447 524.043 238.797C524.645 239.143 525.106 239.642 525.427 240.293C525.749 240.94 525.909 241.716 525.909 242.619C525.909 243.528 525.747 244.311 525.423 244.967C525.099 245.621 524.628 246.124 524.008 246.476C523.389 246.825 522.636 247 521.75 247ZM520.114 246.062H521.682C522.403 246.062 523.001 245.923 523.476 245.645C523.95 245.366 524.304 244.97 524.537 244.456C524.77 243.942 524.886 243.33 524.886 242.619C524.886 241.915 524.771 241.308 524.541 240.8C524.311 240.288 523.967 239.896 523.51 239.624C523.052 239.348 522.483 239.21 521.801 239.21H520.114V246.062ZM530.29 247.136C529.659 247.136 529.115 246.997 528.658 246.719C528.203 246.438 527.852 246.045 527.605 245.543C527.361 245.037 527.239 244.449 527.239 243.778C527.239 243.108 527.361 242.517 527.605 242.006C527.852 241.491 528.196 241.091 528.636 240.804C529.079 240.514 529.597 240.369 530.187 240.369C530.528 240.369 530.865 240.426 531.197 240.54C531.53 240.653 531.832 240.838 532.105 241.094C532.378 241.347 532.595 241.682 532.757 242.099C532.919 242.517 533 243.031 533 243.642V244.068H527.954V243.199H531.977C531.977 242.83 531.903 242.5 531.756 242.21C531.611 241.92 531.403 241.692 531.133 241.524C530.866 241.357 530.551 241.273 530.187 241.273C529.787 241.273 529.44 241.372 529.148 241.571C528.858 241.767 528.635 242.023 528.479 242.338C528.322 242.653 528.244 242.991 528.244 243.352V243.932C528.244 244.426 528.329 244.845 528.5 245.189C528.673 245.53 528.913 245.79 529.22 245.969C529.527 246.145 529.883 246.233 530.29 246.233C530.554 246.233 530.793 246.196 531.006 246.122C531.222 246.045 531.408 245.932 531.564 245.781C531.72 245.628 531.841 245.437 531.926 245.21L532.898 245.483C532.795 245.812 532.624 246.102 532.382 246.352C532.141 246.599 531.842 246.793 531.487 246.932C531.132 247.068 530.733 247.136 530.29 247.136ZM537.189 247.136C536.575 247.136 536.047 246.991 535.604 246.702C535.16 246.412 534.82 246.013 534.581 245.504C534.342 244.996 534.223 244.415 534.223 243.761C534.223 243.097 534.345 242.51 534.589 242.001C534.837 241.49 535.18 241.091 535.621 240.804C536.064 240.514 536.581 240.369 537.172 240.369C537.632 240.369 538.047 240.455 538.416 240.625C538.785 240.795 539.088 241.034 539.324 241.341C539.56 241.648 539.706 242.006 539.763 242.415H538.757C538.68 242.116 538.51 241.852 538.246 241.622C537.984 241.389 537.632 241.273 537.189 241.273C536.797 241.273 536.453 241.375 536.158 241.58C535.865 241.781 535.636 242.067 535.472 242.436C535.31 242.803 535.229 243.233 535.229 243.727C535.229 244.233 535.308 244.673 535.467 245.048C535.629 245.423 535.856 245.714 536.149 245.922C536.445 246.129 536.791 246.233 537.189 246.233C537.45 246.233 537.687 246.188 537.901 246.097C538.114 246.006 538.294 245.875 538.442 245.705C538.589 245.534 538.695 245.33 538.757 245.091H539.763C539.706 245.477 539.565 245.825 539.341 246.135C539.119 246.442 538.825 246.686 538.459 246.868C538.095 247.047 537.672 247.136 537.189 247.136Z" fill="#667085"/>
<path d="M3.47727 14.0909V3.18182H4.17614V14.0909H3.47727ZM5.82955 6.45455C5.77841 6.02273 5.57102 5.6875 5.20739 5.44886C4.84375 5.21023 4.39773 5.09091 3.86932 5.09091C3.48295 5.09091 3.14489 5.15341 2.85511 5.27841C2.56818 5.40341 2.34375 5.57528 2.18182 5.79403C2.02273 6.01278 1.94318 6.26136 1.94318 6.53977C1.94318 6.77273 1.99858 6.97301 2.10938 7.14062C2.22301 7.3054 2.3679 7.44318 2.54403 7.55398C2.72017 7.66193 2.90483 7.75142 3.09801 7.82244C3.29119 7.89062 3.46875 7.94602 3.63068 7.98864L4.51705 8.22727C4.74432 8.28693 4.99716 8.36932 5.27557 8.47443C5.55682 8.57955 5.82528 8.72301 6.08097 8.90483C6.33949 9.08381 6.55256 9.31392 6.72017 9.59517C6.88778 9.87642 6.97159 10.2216 6.97159 10.6307C6.97159 11.1023 6.84801 11.5284 6.60085 11.9091C6.35653 12.2898 5.99858 12.5923 5.52699 12.8168C5.05824 13.0412 4.48864 13.1534 3.81818 13.1534C3.19318 13.1534 2.65199 13.0526 2.1946 12.8509C1.74006 12.6491 1.3821 12.3679 1.12074 12.0071C0.862216 11.6463 0.715909 11.2273 0.681818 10.75H1.77273C1.80114 11.0795 1.91193 11.3523 2.10511 11.5682C2.30114 11.7812 2.5483 11.9403 2.84659 12.0455C3.14773 12.1477 3.47159 12.1989 3.81818 12.1989C4.22159 12.1989 4.58381 12.1335 4.90483 12.0028C5.22585 11.8693 5.48011 11.6847 5.66761 11.4489C5.85511 11.2102 5.94886 10.9318 5.94886 10.6136C5.94886 10.3239 5.8679 10.0881 5.70597 9.90625C5.54403 9.72443 5.33097 9.5767 5.06676 9.46307C4.80256 9.34943 4.51705 9.25 4.21023 9.16477L3.13636 8.85795C2.45455 8.66193 1.91477 8.3821 1.51705 8.01847C1.11932 7.65483 0.920455 7.17898 0.920455 6.59091C0.920455 6.10227 1.05256 5.67614 1.31676 5.3125C1.58381 4.94602 1.94176 4.66193 2.39062 4.46023C2.84233 4.25568 3.34659 4.15341 3.90341 4.15341C4.46591 4.15341 4.96591 4.25426 5.40341 4.45597C5.84091 4.65483 6.1875 4.92756 6.44318 5.27415C6.7017 5.62074 6.83807 6.0142 6.85227 6.45455H5.82955ZM8.55575 13V12.233L11.4364 9.07955C11.7745 8.71023 12.0529 8.3892 12.2717 8.11648C12.4904 7.84091 12.6523 7.58239 12.7575 7.34091C12.8654 7.09659 12.9194 6.84091 12.9194 6.57386C12.9194 6.26705 12.8455 6.00142 12.6978 5.77699C12.5529 5.55256 12.354 5.37926 12.1012 5.2571C11.8484 5.13494 11.5643 5.07386 11.2489 5.07386C10.9137 5.07386 10.6211 5.14347 10.3711 5.28267C10.1239 5.41903 9.93217 5.6108 9.79581 5.85795C9.66229 6.10511 9.59553 6.39489 9.59553 6.72727H8.58984C8.58984 6.21591 8.70774 5.76705 8.94354 5.38068C9.17933 4.99432 9.50036 4.69318 9.90661 4.47727C10.3157 4.26136 10.7745 4.15341 11.283 4.15341C11.7944 4.15341 12.2475 4.26136 12.6424 4.47727C13.0373 4.69318 13.3469 4.98437 13.5714 5.35085C13.7958 5.71733 13.908 6.125 13.908 6.57386C13.908 6.89489 13.8498 7.20881 13.7333 7.51562C13.6197 7.8196 13.4208 8.15909 13.1367 8.53409C12.8555 8.90625 12.4648 9.3608 11.9648 9.89773L10.0046 11.9943V12.0625H14.0614V13H8.55575ZM18.5487 13.1193C18.0487 13.1193 17.5984 13.0199 17.1978 12.821C16.7972 12.6222 16.4762 12.3494 16.2347 12.0028C15.9933 11.6562 15.8612 11.2614 15.8384 10.8182H16.8612C16.9009 11.2131 17.0799 11.5398 17.3981 11.7983C17.7191 12.054 18.1026 12.1818 18.5487 12.1818C18.9066 12.1818 19.2248 12.098 19.5032 11.9304C19.7844 11.7628 20.0046 11.5327 20.1637 11.2401C20.3256 10.9446 20.4066 10.6108 20.4066 10.2386C20.4066 9.85795 20.3228 9.51847 20.1552 9.22017C19.9904 8.91903 19.7631 8.68182 19.4734 8.50852C19.1836 8.33523 18.8526 8.24716 18.4805 8.24432C18.2134 8.24148 17.9393 8.28267 17.658 8.3679C17.3768 8.45028 17.1452 8.55682 16.9634 8.6875L15.9748 8.56818L16.5032 4.27273H21.0373V5.21023H17.3896L17.0827 7.78409H17.1339C17.3129 7.64205 17.5373 7.52415 17.8072 7.4304C18.0771 7.33665 18.3583 7.28977 18.6509 7.28977C19.185 7.28977 19.6609 7.41761 20.0785 7.6733C20.4989 7.92614 20.8285 8.27273 21.0671 8.71307C21.3086 9.15341 21.4293 9.65625 21.4293 10.2216C21.4293 10.7784 21.3043 11.2756 21.0543 11.7131C20.8072 12.1477 20.4663 12.4915 20.0316 12.7443C19.5969 12.9943 19.1026 13.1193 18.5487 13.1193ZM23.2756 13V4.27273H24.3324V8.60227H24.4347L28.3551 4.27273H29.7358L26.071 8.21023L29.7358 13H28.4574L25.4233 8.94318L24.3324 10.1705V13H23.2756Z" fill="#667085"/>
<path d="M3.47727 57.2909V46.3818H4.17614V57.2909H3.47727ZM5.82955 49.6546C5.77841 49.2227 5.57102 48.8875 5.20739 48.6489C4.84375 48.4102 4.39773 48.2909 3.86932 48.2909C3.48295 48.2909 3.14489 48.3534 2.85511 48.4784C2.56818 48.6034 2.34375 48.7753 2.18182 48.994C2.02273 49.2128 1.94318 49.4614 1.94318 49.7398C1.94318 49.9727 1.99858 50.173 2.10938 50.3406C2.22301 50.5054 2.3679 50.6432 2.54403 50.754C2.72017 50.8619 2.90483 50.9514 3.09801 51.0225C3.29119 51.0906 3.46875 51.146 3.63068 51.1886L4.51705 51.4273C4.74432 51.4869 4.99716 51.5693 5.27557 51.6744C5.55682 51.7796 5.82528 51.923 6.08097 52.1048C6.33949 52.2838 6.55256 52.5139 6.72017 52.7952C6.88778 53.0764 6.97159 53.4216 6.97159 53.8307C6.97159 54.3023 6.84801 54.7284 6.60085 55.1091C6.35653 55.4898 5.99858 55.7923 5.52699 56.0168C5.05824 56.2412 4.48864 56.3534 3.81818 56.3534C3.19318 56.3534 2.65199 56.2526 2.1946 56.0509C1.74006 55.8492 1.3821 55.5679 1.12074 55.2071C0.862216 54.8463 0.715909 54.4273 0.681818 53.95H1.77273C1.80114 54.2796 1.91193 54.5523 2.10511 54.7682C2.30114 54.9813 2.5483 55.1404 2.84659 55.2455C3.14773 55.3477 3.47159 55.3989 3.81818 55.3989C4.22159 55.3989 4.58381 55.3335 4.90483 55.2029C5.22585 55.0693 5.48011 54.8847 5.66761 54.6489C5.85511 54.4102 5.94886 54.1318 5.94886 53.8136C5.94886 53.5239 5.8679 53.2881 5.70597 53.1063C5.54403 52.9244 5.33097 52.7767 5.06676 52.6631C4.80256 52.5494 4.51705 52.45 4.21023 52.3648L3.13636 52.058C2.45455 51.8619 1.91477 51.5821 1.51705 51.2185C1.11932 50.8548 0.920455 50.379 0.920455 49.7909C0.920455 49.3023 1.05256 48.8761 1.31676 48.5125C1.58381 48.146 1.94176 47.8619 2.39062 47.6602C2.84233 47.4557 3.34659 47.3534 3.90341 47.3534C4.46591 47.3534 4.96591 47.4543 5.40341 47.656C5.84091 47.8548 6.1875 48.1276 6.44318 48.4742C6.7017 48.8208 6.83807 49.2142 6.85227 49.6546H5.82955ZM8.55575 56.2V55.433L11.4364 52.2796C11.7745 51.9102 12.0529 51.5892 12.2717 51.3165C12.4904 51.0409 12.6523 50.7824 12.7575 50.5409C12.8654 50.2966 12.9194 50.0409 12.9194 49.7739C12.9194 49.4671 12.8455 49.2014 12.6978 48.977C12.5529 48.7526 12.354 48.5793 12.1012 48.4571C11.8484 48.335 11.5643 48.2739 11.2489 48.2739C10.9137 48.2739 10.6211 48.3435 10.3711 48.4827C10.1239 48.619 9.93217 48.8108 9.79581 49.058C9.66229 49.3051 9.59553 49.5949 9.59553 49.9273H8.58984C8.58984 49.4159 8.70774 48.9671 8.94354 48.5807C9.17933 48.1943 9.50036 47.8932 9.90661 47.6773C10.3157 47.4614 10.7745 47.3534 11.283 47.3534C11.7944 47.3534 12.2475 47.4614 12.6424 47.6773C13.0373 47.8932 13.3469 48.1844 13.5714 48.5509C13.7958 48.9173 13.908 49.325 13.908 49.7739C13.908 50.0949 13.8498 50.4088 13.7333 50.7156C13.6197 51.0196 13.4208 51.3591 13.1367 51.7341C12.8555 52.1063 12.4648 52.5608 11.9648 53.0977L10.0046 55.1943V55.2625H14.0614V56.2H8.55575ZM18.668 56.3193C18.0259 56.3193 17.479 56.1446 17.0273 55.7952C16.5756 55.4429 16.2305 54.933 15.9918 54.2654C15.7532 53.5949 15.6339 52.7852 15.6339 51.8364C15.6339 50.8932 15.7532 50.0878 15.9918 49.4202C16.2333 48.7497 16.5799 48.2384 17.0316 47.8861C17.4862 47.531 18.0316 47.3534 18.668 47.3534C19.3043 47.3534 19.8484 47.531 20.3001 47.8861C20.7546 48.2384 21.1012 48.7497 21.3398 49.4202C21.5813 50.0878 21.7021 50.8932 21.7021 51.8364C21.7021 52.7852 21.5827 53.5949 21.3441 54.2654C21.1055 54.933 20.7603 55.4429 20.3086 55.7952C19.8569 56.1446 19.31 56.3193 18.668 56.3193ZM18.668 55.3818C19.3043 55.3818 19.7987 55.075 20.1509 54.4614C20.5032 53.8477 20.6793 52.9727 20.6793 51.8364C20.6793 51.0807 20.5984 50.4372 20.4364 49.906C20.2773 49.3747 20.0472 48.9699 19.7461 48.6915C19.4478 48.4131 19.0884 48.2739 18.668 48.2739C18.0373 48.2739 17.5444 48.585 17.1893 49.2071C16.8342 49.8264 16.6566 50.7029 16.6566 51.8364C16.6566 52.5921 16.7362 53.2341 16.8952 53.7625C17.0543 54.2909 17.283 54.6929 17.5813 54.9685C17.8825 55.244 18.2447 55.3818 18.668 55.3818ZM23.4748 56.2V47.4727H24.5316V51.8023H24.6339L28.5543 47.4727H29.935L26.2702 51.4102L29.935 56.2H28.6566L25.6225 52.1432L24.5316 53.3705V56.2H23.4748Z" fill="#667085"/>
<path d="M5.47727 100.491V89.5818H6.17614V100.491H5.47727ZM7.82955 92.8546C7.77841 92.4228 7.57102 92.0875 7.20739 91.8489C6.84375 91.6103 6.39773 91.4909 5.86932 91.4909C5.48295 91.4909 5.14489 91.5534 4.85511 91.6784C4.56818 91.8034 4.34375 91.9753 4.18182 92.1941C4.02273 92.4128 3.94318 92.6614 3.94318 92.9398C3.94318 93.1728 3.99858 93.373 4.10938 93.5406C4.22301 93.7054 4.3679 93.8432 4.54403 93.954C4.72017 94.062 4.90483 94.1514 5.09801 94.2225C5.29119 94.2906 5.46875 94.346 5.63068 94.3887L6.51705 94.6273C6.74432 94.687 6.99716 94.7693 7.27557 94.8745C7.55682 94.9796 7.82528 95.123 8.08097 95.3049C8.33949 95.4838 8.55256 95.7139 8.72017 95.9952C8.88778 96.2764 8.97159 96.6216 8.97159 97.0307C8.97159 97.5023 8.84801 97.9284 8.60085 98.3091C8.35653 98.6898 7.99858 98.9924 7.52699 99.2168C7.05824 99.4412 6.48864 99.5534 5.81818 99.5534C5.19318 99.5534 4.65199 99.4526 4.1946 99.2509C3.74006 99.0492 3.3821 98.7679 3.12074 98.4071C2.86222 98.0463 2.71591 97.6273 2.68182 97.15H3.77273C3.80114 97.4796 3.91193 97.7523 4.10511 97.9682C4.30114 98.1813 4.5483 98.3404 4.84659 98.4455C5.14773 98.5478 5.47159 98.5989 5.81818 98.5989C6.22159 98.5989 6.58381 98.5335 6.90483 98.4029C7.22585 98.2693 7.48011 98.0847 7.66761 97.8489C7.85511 97.6103 7.94886 97.3318 7.94886 97.0137C7.94886 96.7239 7.8679 96.4881 7.70597 96.3063C7.54403 96.1245 7.33097 95.9767 7.06676 95.8631C6.80256 95.7495 6.51705 95.65 6.21023 95.5648L5.13636 95.258C4.45455 95.062 3.91477 94.7821 3.51705 94.4185C3.11932 94.0549 2.92045 93.579 2.92045 92.9909C2.92045 92.5023 3.05256 92.0762 3.31676 91.7125C3.58381 91.346 3.94176 91.062 4.39062 90.8603C4.84233 90.6557 5.34659 90.5534 5.90341 90.5534C6.46591 90.5534 6.96591 90.6543 7.40341 90.856C7.84091 91.0549 8.1875 91.3276 8.44318 91.6742C8.7017 92.0208 8.83807 92.4142 8.85227 92.8546H7.82955ZM13.6239 90.6728V99.4H12.5671V91.7807H12.516L10.3853 93.1955V92.1216L12.5671 90.6728H13.6239ZM18.8612 99.5193C18.3612 99.5193 17.9109 99.4199 17.5103 99.221C17.1097 99.0222 16.7887 98.7495 16.5472 98.4029C16.3058 98.0563 16.1737 97.6614 16.1509 97.2182H17.1737C17.2134 97.6131 17.3924 97.9398 17.7106 98.1983C18.0316 98.454 18.4151 98.5818 18.8612 98.5818C19.2191 98.5818 19.5373 98.498 19.8157 98.3304C20.0969 98.1628 20.3171 97.9327 20.4762 97.6401C20.6381 97.3446 20.7191 97.0108 20.7191 96.6387C20.7191 96.258 20.6353 95.9185 20.4677 95.6202C20.3029 95.3191 20.0756 95.0818 19.7859 94.9085C19.4961 94.7353 19.1651 94.6472 18.793 94.6443C18.5259 94.6415 18.2518 94.6827 17.9705 94.7679C17.6893 94.8503 17.4577 94.9568 17.2759 95.0875L16.2873 94.9682L16.8157 90.6728H21.3498V91.6103H17.7021L17.3952 94.1841H17.4464C17.6254 94.0421 17.8498 93.9242 18.1197 93.8304C18.3896 93.7367 18.6708 93.6898 18.9634 93.6898C19.4975 93.6898 19.9734 93.8176 20.391 94.0733C20.8114 94.3262 21.141 94.6728 21.3796 95.1131C21.6211 95.5534 21.7418 96.0563 21.7418 96.6216C21.7418 97.1784 21.6168 97.6756 21.3668 98.1131C21.1197 98.5478 20.7788 98.8915 20.3441 99.1443C19.9094 99.3943 19.4151 99.5193 18.8612 99.5193ZM23.5881 99.4V90.6728H24.6449V95.0023H24.7472L28.6676 90.6728H30.0483L26.3835 94.6103L30.0483 99.4H28.7699L25.7358 95.3432L24.6449 96.5705V99.4H23.5881Z" fill="#667085"/>
<path d="M5.47727 143.691V132.782H6.17614V143.691H5.47727ZM7.82955 136.055C7.77841 135.623 7.57102 135.287 7.20739 135.049C6.84375 134.81 6.39773 134.691 5.86932 134.691C5.48295 134.691 5.14489 134.753 4.85511 134.878C4.56818 135.003 4.34375 135.175 4.18182 135.394C4.02273 135.613 3.94318 135.861 3.94318 136.14C3.94318 136.373 3.99858 136.573 4.10938 136.741C4.22301 136.905 4.3679 137.043 4.54403 137.154C4.72017 137.262 4.90483 137.351 5.09801 137.422C5.29119 137.491 5.46875 137.546 5.63068 137.589L6.51705 137.827C6.74432 137.887 6.99716 137.969 7.27557 138.074C7.55682 138.18 7.82528 138.323 8.08097 138.505C8.33949 138.684 8.55256 138.914 8.72017 139.195C8.88778 139.476 8.97159 139.822 8.97159 140.231C8.97159 140.702 8.84801 141.128 8.60085 141.509C8.35653 141.89 7.99858 142.192 7.52699 142.417C7.05824 142.641 6.48864 142.753 5.81818 142.753C5.19318 142.753 4.65199 142.653 4.1946 142.451C3.74006 142.249 3.3821 141.968 3.12074 141.607C2.86222 141.246 2.71591 140.827 2.68182 140.35H3.77273C3.80114 140.68 3.91193 140.952 4.10511 141.168C4.30114 141.381 4.5483 141.54 4.84659 141.645C5.14773 141.748 5.47159 141.799 5.81818 141.799C6.22159 141.799 6.58381 141.733 6.90483 141.603C7.22585 141.469 7.48011 141.285 7.66761 141.049C7.85511 140.81 7.94886 140.532 7.94886 140.214C7.94886 139.924 7.8679 139.688 7.70597 139.506C7.54403 139.324 7.33097 139.177 7.06676 139.063C6.80256 138.949 6.51705 138.85 6.21023 138.765L5.13636 138.458C4.45455 138.262 3.91477 137.982 3.51705 137.618C3.11932 137.255 2.92045 136.779 2.92045 136.191C2.92045 135.702 3.05256 135.276 3.31676 134.912C3.58381 134.546 3.94176 134.262 4.39062 134.06C4.84233 133.856 5.34659 133.753 5.90341 133.753C6.46591 133.753 6.96591 133.854 7.40341 134.056C7.84091 134.255 8.1875 134.528 8.44318 134.874C8.7017 135.221 8.83807 135.614 8.85227 136.055H7.82955ZM13.6239 133.873V142.6H12.5671V134.981H12.516L10.3853 136.395V135.322L12.5671 133.873H13.6239ZM18.9805 142.719C18.3384 142.719 17.7915 142.545 17.3398 142.195C16.8881 141.843 16.543 141.333 16.3043 140.665C16.0657 139.995 15.9464 139.185 15.9464 138.236C15.9464 137.293 16.0657 136.488 16.3043 135.82C16.5458 135.15 16.8924 134.638 17.3441 134.286C17.7987 133.931 18.3441 133.753 18.9805 133.753C19.6168 133.753 20.1609 133.931 20.6126 134.286C21.0671 134.638 21.4137 135.15 21.6523 135.82C21.8938 136.488 22.0146 137.293 22.0146 138.236C22.0146 139.185 21.8952 139.995 21.6566 140.665C21.418 141.333 21.0728 141.843 20.6211 142.195C20.1694 142.545 19.6225 142.719 18.9805 142.719ZM18.9805 141.782C19.6168 141.782 20.1112 141.475 20.4634 140.861C20.8157 140.248 20.9918 139.373 20.9918 138.236C20.9918 137.481 20.9109 136.837 20.7489 136.306C20.5898 135.775 20.3597 135.37 20.0586 135.091C19.7603 134.813 19.4009 134.674 18.9805 134.674C18.3498 134.674 17.8569 134.985 17.5018 135.607C17.1467 136.226 16.9691 137.103 16.9691 138.236C16.9691 138.992 17.0487 139.634 17.2077 140.162C17.3668 140.691 17.5955 141.093 17.8938 141.368C18.195 141.644 18.5572 141.782 18.9805 141.782ZM23.7873 142.6V133.873H24.8441V138.202H24.9464L28.8668 133.873H30.2475L26.5827 137.81L30.2475 142.6H28.9691L25.935 138.543L24.8441 139.77V142.6H23.7873Z" fill="#667085"/>
<path d="M11.4773 186.891V175.982H12.1761V186.891H11.4773ZM13.8295 179.255C13.7784 178.823 13.571 178.487 13.2074 178.249C12.8438 178.01 12.3977 177.891 11.8693 177.891C11.483 177.891 11.1449 177.953 10.8551 178.078C10.5682 178.203 10.3438 178.375 10.1818 178.594C10.0227 178.813 9.94318 179.061 9.94318 179.34C9.94318 179.573 9.99858 179.773 10.1094 179.941C10.223 180.105 10.3679 180.243 10.544 180.354C10.7202 180.462 10.9048 180.551 11.098 180.622C11.2912 180.691 11.4688 180.746 11.6307 180.789L12.517 181.027C12.7443 181.087 12.9972 181.169 13.2756 181.274C13.5568 181.38 13.8253 181.523 14.081 181.705C14.3395 181.884 14.5526 182.114 14.7202 182.395C14.8878 182.676 14.9716 183.022 14.9716 183.431C14.9716 183.902 14.848 184.328 14.6009 184.709C14.3565 185.09 13.9986 185.392 13.527 185.617C13.0582 185.841 12.4886 185.953 11.8182 185.953C11.1932 185.953 10.652 185.853 10.1946 185.651C9.74006 185.449 9.3821 185.168 9.12074 184.807C8.86222 184.446 8.71591 184.027 8.68182 183.55H9.77273C9.80114 183.88 9.91193 184.152 10.1051 184.368C10.3011 184.581 10.5483 184.74 10.8466 184.845C11.1477 184.948 11.4716 184.999 11.8182 184.999C12.2216 184.999 12.5838 184.934 12.9048 184.803C13.2259 184.669 13.4801 184.485 13.6676 184.249C13.8551 184.01 13.9489 183.732 13.9489 183.414C13.9489 183.124 13.8679 182.888 13.706 182.706C13.544 182.524 13.331 182.377 13.0668 182.263C12.8026 182.149 12.517 182.05 12.2102 181.965L11.1364 181.658C10.4545 181.462 9.91477 181.182 9.51705 180.818C9.11932 180.455 8.92045 179.979 8.92045 179.391C8.92045 178.902 9.05256 178.476 9.31676 178.112C9.58381 177.746 9.94176 177.462 10.3906 177.26C10.8423 177.056 11.3466 176.953 11.9034 176.953C12.4659 176.953 12.9659 177.054 13.4034 177.256C13.8409 177.455 14.1875 177.728 14.4432 178.074C14.7017 178.421 14.8381 178.814 14.8523 179.255H13.8295ZM19.283 185.919C18.783 185.919 18.3327 185.82 17.9322 185.621C17.5316 185.422 17.2106 185.149 16.9691 184.803C16.7276 184.456 16.5955 184.061 16.5728 183.618H17.5955C17.6353 184.013 17.8143 184.34 18.1325 184.598C18.4535 184.854 18.837 184.982 19.283 184.982C19.641 184.982 19.9592 184.898 20.2376 184.73C20.5188 184.563 20.739 184.333 20.8981 184.04C21.06 183.745 21.141 183.411 21.141 183.039C21.141 182.658 21.0572 182.318 20.8896 182.02C20.7248 181.719 20.4975 181.482 20.2077 181.309C19.918 181.135 19.587 181.047 19.2148 181.044C18.9478 181.041 18.6737 181.083 18.3924 181.168C18.1112 181.25 17.8796 181.357 17.6978 181.487L16.7092 181.368L17.2376 177.073H21.7717V178.01H18.1239L17.8171 180.584H17.8683C18.0472 180.442 18.2717 180.324 18.5415 180.23C18.8114 180.137 19.0927 180.09 19.3853 180.09C19.9194 180.09 20.3952 180.218 20.8129 180.473C21.2333 180.726 21.5629 181.073 21.8015 181.513C22.043 181.953 22.1637 182.456 22.1637 183.022C22.1637 183.578 22.0387 184.076 21.7887 184.513C21.5415 184.948 21.2006 185.291 20.766 185.544C20.3313 185.794 19.837 185.919 19.283 185.919ZM24.0099 185.8V177.073H25.0668V181.402H25.169L29.0895 177.073H30.4702L26.8054 181.01L30.4702 185.8H29.1918L26.1577 181.743L25.0668 182.97V185.8H24.0099Z" fill="#667085"/>
<path d="M26.75 229.119C26.108 229.119 25.5611 228.945 25.1094 228.595C24.6577 228.243 24.3125 227.733 24.0739 227.065C23.8352 226.395 23.7159 225.585 23.7159 224.636C23.7159 223.693 23.8352 222.888 24.0739 222.22C24.3153 221.55 24.6619 221.038 25.1136 220.686C25.5682 220.331 26.1136 220.153 26.75 220.153C27.3864 220.153 27.9304 220.331 28.3821 220.686C28.8366 221.038 29.1832 221.55 29.4219 222.22C29.6634 222.888 29.7841 223.693 29.7841 224.636C29.7841 225.585 29.6648 226.395 29.4261 227.065C29.1875 227.733 28.8423 228.243 28.3906 228.595C27.9389 228.945 27.392 229.119 26.75 229.119ZM26.75 228.182C27.3864 228.182 27.8807 227.875 28.233 227.261C28.5852 226.648 28.7614 225.773 28.7614 224.636C28.7614 223.881 28.6804 223.237 28.5185 222.706C28.3594 222.175 28.1293 221.77 27.8281 221.491C27.5298 221.213 27.1705 221.074 26.75 221.074C26.1193 221.074 25.6264 221.385 25.2713 222.007C24.9162 222.626 24.7386 223.503 24.7386 224.636C24.7386 225.392 24.8182 226.034 24.9773 226.562C25.1364 227.091 25.3651 227.493 25.6634 227.768C25.9645 228.044 26.3267 228.182 26.75 228.182Z" fill="#667085"/>
<path d="M44 8L541 8.00004" stroke="#EAECF0" stroke-linecap="round" stroke-dasharray="5 4"/>
<path d="M44 51L541 51" stroke="#EAECF0" stroke-linecap="round" stroke-dasharray="5 4"/>
<path d="M44 94L541 94" stroke="#EAECF0" stroke-linecap="round" stroke-dasharray="5 4"/>
<path d="M44 137L541 137" stroke="#EAECF0" stroke-linecap="round" stroke-dasharray="5 4"/>
<path d="M44 180L541 180" stroke="#EAECF0" stroke-linecap="round" stroke-dasharray="5 4"/>
<path d="M44 223L541 223" stroke="#EAECF0" stroke-linecap="round" stroke-dasharray="5 4"/>
<path d="M52 193L200 128L288.5 57.5L423 79L514.5 50.5" stroke="#DCDEF9" stroke-width="2" stroke-linecap="round" stroke-dasharray="6 6"/>
<path d="M48 161L182.5 97.5L316 120L379 53L518 8" stroke="#1C2DD8" stroke-width="3" stroke-linecap="round"/>
<line x1="182.5" y1="8.5" x2="182.5" y2="222.5" stroke="#D0D5DD" stroke-linecap="round" stroke-dasharray="5 4"/>
<circle cx="50.5" cy="159.5" r="4" fill="white" stroke="#1C2DD8" stroke-width="3"/>
<circle cx="182.5" cy="97.5" r="4" fill="white" stroke="#1C2DD8" stroke-width="3"/>
<circle cx="315.5" cy="118.5" r="4" fill="white" stroke="#1C2DD8" stroke-width="3"/>
<circle cx="516.5" cy="8.5" r="4" fill="white" stroke="#1C2DD8" stroke-width="3"/>
<circle cx="377.5" cy="53.5" r="4" fill="white" stroke="#1C2DD8" stroke-width="3"/>
<circle cx="143" cy="285" r="5" fill="#1C2DD8"/>
<path d="M155.057 289V280.273H160.324V281.21H156.114V284.159H160.051V285.097H156.114V288.062H160.392V289H155.057ZM162.842 282.455L164.411 285.131L165.979 282.455H167.138L165.024 285.727L167.138 289H165.979L164.411 286.46L162.842 289H161.683L163.763 285.727L161.683 282.455H162.842ZM168.573 291.455V282.455H169.544V283.494H169.664C169.738 283.381 169.84 283.236 169.971 283.06C170.104 282.881 170.294 282.722 170.542 282.582C170.792 282.44 171.13 282.369 171.556 282.369C172.107 282.369 172.593 282.507 173.013 282.783C173.434 283.058 173.762 283.449 173.998 283.955C174.233 284.46 174.351 285.057 174.351 285.744C174.351 286.438 174.233 287.038 173.998 287.547C173.762 288.053 173.435 288.445 173.017 288.723C172.6 288.999 172.118 289.136 171.573 289.136C171.152 289.136 170.816 289.067 170.563 288.928C170.31 288.786 170.115 288.625 169.979 288.446C169.843 288.264 169.738 288.114 169.664 287.994H169.578V291.455H168.573ZM169.561 285.727C169.561 286.222 169.634 286.658 169.779 287.036C169.924 287.411 170.135 287.705 170.414 287.918C170.692 288.128 171.033 288.233 171.436 288.233C171.857 288.233 172.208 288.122 172.489 287.901C172.773 287.676 172.986 287.375 173.128 286.997C173.273 286.616 173.346 286.193 173.346 285.727C173.346 285.267 173.275 284.852 173.132 284.483C172.993 284.111 172.782 283.817 172.498 283.601C172.216 283.382 171.863 283.273 171.436 283.273C171.027 283.273 170.684 283.376 170.405 283.584C170.127 283.788 169.917 284.075 169.775 284.445C169.632 284.811 169.561 285.239 169.561 285.727ZM178.63 289.136C177.999 289.136 177.455 288.997 176.998 288.719C176.543 288.438 176.192 288.045 175.945 287.543C175.701 287.037 175.578 286.449 175.578 285.778C175.578 285.108 175.701 284.517 175.945 284.006C176.192 283.491 176.536 283.091 176.976 282.804C177.419 282.514 177.936 282.369 178.527 282.369C178.868 282.369 179.205 282.426 179.537 282.54C179.87 282.653 180.172 282.838 180.445 283.094C180.718 283.347 180.935 283.682 181.097 284.099C181.259 284.517 181.34 285.031 181.34 285.642V286.068H176.294V285.199H180.317C180.317 284.83 180.243 284.5 180.096 284.21C179.951 283.92 179.743 283.692 179.473 283.524C179.206 283.357 178.891 283.273 178.527 283.273C178.127 283.273 177.78 283.372 177.488 283.571C177.198 283.767 176.975 284.023 176.819 284.338C176.662 284.653 176.584 284.991 176.584 285.352V285.932C176.584 286.426 176.669 286.845 176.84 287.189C177.013 287.53 177.253 287.79 177.56 287.969C177.867 288.145 178.223 288.233 178.63 288.233C178.894 288.233 179.132 288.196 179.346 288.122C179.561 288.045 179.748 287.932 179.904 287.781C180.06 287.628 180.181 287.437 180.266 287.21L181.238 287.483C181.135 287.812 180.963 288.102 180.722 288.352C180.48 288.599 180.182 288.793 179.827 288.932C179.472 289.068 179.073 289.136 178.63 289.136ZM185.529 289.136C184.915 289.136 184.387 288.991 183.944 288.702C183.5 288.412 183.159 288.013 182.921 287.504C182.682 286.996 182.563 286.415 182.563 285.761C182.563 285.097 182.685 284.51 182.929 284.001C183.176 283.49 183.52 283.091 183.961 282.804C184.404 282.514 184.921 282.369 185.512 282.369C185.972 282.369 186.387 282.455 186.756 282.625C187.125 282.795 187.428 283.034 187.664 283.341C187.9 283.648 188.046 284.006 188.103 284.415H187.097C187.02 284.116 186.85 283.852 186.586 283.622C186.324 283.389 185.972 283.273 185.529 283.273C185.137 283.273 184.793 283.375 184.498 283.58C184.205 283.781 183.976 284.067 183.811 284.436C183.65 284.803 183.569 285.233 183.569 285.727C183.569 286.233 183.648 286.673 183.807 287.048C183.969 287.423 184.196 287.714 184.489 287.922C184.784 288.129 185.131 288.233 185.529 288.233C185.79 288.233 186.027 288.188 186.24 288.097C186.453 288.006 186.634 287.875 186.782 287.705C186.929 287.534 187.034 287.33 187.097 287.091H188.103C188.046 287.477 187.905 287.825 187.681 288.135C187.459 288.442 187.165 288.686 186.799 288.868C186.435 289.047 186.012 289.136 185.529 289.136ZM192.419 282.455V283.307H189.027V282.455H192.419ZM190.016 280.886H191.022V287.125C191.022 287.409 191.063 287.622 191.145 287.764C191.23 287.903 191.338 287.997 191.469 288.045C191.603 288.091 191.743 288.114 191.891 288.114C192.002 288.114 192.093 288.108 192.164 288.097C192.235 288.082 192.292 288.071 192.334 288.062L192.539 288.966C192.471 288.991 192.375 289.017 192.253 289.043C192.131 289.071 191.976 289.085 191.789 289.085C191.505 289.085 191.226 289.024 190.953 288.902C190.684 288.78 190.459 288.594 190.28 288.344C190.104 288.094 190.016 287.778 190.016 287.398V280.886ZM196.606 289.136C195.975 289.136 195.431 288.997 194.974 288.719C194.52 288.438 194.169 288.045 193.922 287.543C193.677 287.037 193.555 286.449 193.555 285.778C193.555 285.108 193.677 284.517 193.922 284.006C194.169 283.491 194.512 283.091 194.953 282.804C195.396 282.514 195.913 282.369 196.504 282.369C196.845 282.369 197.181 282.426 197.514 282.54C197.846 282.653 198.149 282.838 198.422 283.094C198.694 283.347 198.912 283.682 199.074 284.099C199.235 284.517 199.316 285.031 199.316 285.642V286.068H194.271V285.199H198.294C198.294 284.83 198.22 284.5 198.072 284.21C197.927 283.92 197.72 283.692 197.45 283.524C197.183 283.357 196.868 283.273 196.504 283.273C196.103 283.273 195.757 283.372 195.464 283.571C195.174 283.767 194.951 284.023 194.795 284.338C194.639 284.653 194.561 284.991 194.561 285.352V285.932C194.561 286.426 194.646 286.845 194.816 287.189C194.99 287.53 195.23 287.79 195.537 287.969C195.843 288.145 196.2 288.233 196.606 288.233C196.87 288.233 197.109 288.196 197.322 288.122C197.538 288.045 197.724 287.932 197.88 287.781C198.037 287.628 198.157 287.437 198.243 287.21L199.214 287.483C199.112 287.812 198.94 288.102 198.699 288.352C198.457 288.599 198.159 288.793 197.804 288.932C197.449 289.068 197.049 289.136 196.606 289.136ZM203.318 289.136C202.772 289.136 202.291 288.999 201.873 288.723C201.456 288.445 201.129 288.053 200.893 287.547C200.657 287.038 200.539 286.438 200.539 285.744C200.539 285.057 200.657 284.46 200.893 283.955C201.129 283.449 201.457 283.058 201.877 282.783C202.298 282.507 202.784 282.369 203.335 282.369C203.761 282.369 204.098 282.44 204.345 282.582C204.595 282.722 204.785 282.881 204.916 283.06C205.049 283.236 205.153 283.381 205.227 283.494H205.312V280.273H206.318V289H205.346V287.994H205.227C205.153 288.114 205.048 288.264 204.912 288.446C204.775 288.625 204.581 288.786 204.328 288.928C204.075 289.067 203.738 289.136 203.318 289.136ZM203.454 288.233C203.858 288.233 204.199 288.128 204.477 287.918C204.755 287.705 204.967 287.411 205.112 287.036C205.257 286.658 205.329 286.222 205.329 285.727C205.329 285.239 205.258 284.811 205.116 284.445C204.974 284.075 204.764 283.788 204.485 283.584C204.207 283.376 203.863 283.273 203.454 283.273C203.028 283.273 202.673 283.382 202.389 283.601C202.108 283.817 201.896 284.111 201.754 284.483C201.615 284.852 201.545 285.267 201.545 285.727C201.545 286.193 201.616 286.616 201.758 286.997C201.903 287.375 202.116 287.676 202.397 287.901C202.681 288.122 203.034 288.233 203.454 288.233ZM214.504 289H211.811V280.273H214.623C215.47 280.273 216.194 280.447 216.797 280.797C217.399 281.143 217.86 281.642 218.181 282.293C218.502 282.94 218.663 283.716 218.663 284.619C218.663 285.528 218.501 286.311 218.177 286.967C217.853 287.621 217.382 288.124 216.762 288.476C216.143 288.825 215.39 289 214.504 289ZM212.868 288.062H214.436C215.157 288.062 215.755 287.923 216.23 287.645C216.704 287.366 217.058 286.97 217.291 286.456C217.524 285.942 217.64 285.33 217.64 284.619C217.64 283.915 217.525 283.308 217.295 282.8C217.065 282.288 216.721 281.896 216.264 281.624C215.806 281.348 215.237 281.21 214.555 281.21H212.868V288.062ZM223.044 289.136C222.413 289.136 221.869 288.997 221.412 288.719C220.957 288.438 220.606 288.045 220.359 287.543C220.115 287.037 219.993 286.449 219.993 285.778C219.993 285.108 220.115 284.517 220.359 284.006C220.606 283.491 220.95 283.091 221.39 282.804C221.833 282.514 222.35 282.369 222.941 282.369C223.282 282.369 223.619 282.426 223.951 282.54C224.284 282.653 224.586 282.838 224.859 283.094C225.132 283.347 225.349 283.682 225.511 284.099C225.673 284.517 225.754 285.031 225.754 285.642V286.068H220.708V285.199H224.731C224.731 284.83 224.657 284.5 224.51 284.21C224.365 283.92 224.157 283.692 223.887 283.524C223.62 283.357 223.305 283.273 222.941 283.273C222.541 283.273 222.194 283.372 221.902 283.571C221.612 283.767 221.389 284.023 221.233 284.338C221.076 284.653 220.998 284.991 220.998 285.352V285.932C220.998 286.426 221.083 286.845 221.254 287.189C221.427 287.53 221.667 287.79 221.974 287.969C222.281 288.145 222.637 288.233 223.044 288.233C223.308 288.233 223.547 288.196 223.76 288.122C223.975 288.045 224.162 287.932 224.318 287.781C224.474 287.628 224.595 287.437 224.68 287.21L225.652 287.483C225.549 287.812 225.377 288.102 225.136 288.352C224.895 288.599 224.596 288.793 224.241 288.932C223.886 289.068 223.487 289.136 223.044 289.136ZM227.284 291.455V282.455H228.255V283.494H228.375C228.449 283.381 228.551 283.236 228.681 283.06C228.815 282.881 229.005 282.722 229.252 282.582C229.502 282.44 229.841 282.369 230.267 282.369C230.818 282.369 231.304 282.507 231.724 282.783C232.145 283.058 232.473 283.449 232.708 283.955C232.944 284.46 233.062 285.057 233.062 285.744C233.062 286.438 232.944 287.038 232.708 287.547C232.473 288.053 232.146 288.445 231.728 288.723C231.311 288.999 230.829 289.136 230.284 289.136C229.863 289.136 229.527 289.067 229.274 288.928C229.021 288.786 228.826 288.625 228.69 288.446C228.554 288.264 228.449 288.114 228.375 287.994H228.289V291.455H227.284ZM228.272 285.727C228.272 286.222 228.345 286.658 228.49 287.036C228.635 287.411 228.846 287.705 229.125 287.918C229.403 288.128 229.744 288.233 230.147 288.233C230.568 288.233 230.919 288.122 231.2 287.901C231.484 287.676 231.697 287.375 231.839 286.997C231.984 286.616 232.056 286.193 232.056 285.727C232.056 285.267 231.985 284.852 231.843 284.483C231.704 284.111 231.493 283.817 231.208 283.601C230.927 283.382 230.574 283.273 230.147 283.273C229.738 283.273 229.395 283.376 229.116 283.584C228.838 283.788 228.627 284.075 228.485 284.445C228.343 284.811 228.272 285.239 228.272 285.727ZM237.255 289.136C236.664 289.136 236.146 288.996 235.7 288.714C235.257 288.433 234.91 288.04 234.66 287.534C234.413 287.028 234.289 286.437 234.289 285.761C234.289 285.08 234.413 284.484 234.66 283.976C234.91 283.467 235.257 283.072 235.7 282.791C236.146 282.51 236.664 282.369 237.255 282.369C237.846 282.369 238.363 282.51 238.806 282.791C239.252 283.072 239.599 283.467 239.846 283.976C240.096 284.484 240.221 285.08 240.221 285.761C240.221 286.437 240.096 287.028 239.846 287.534C239.599 288.04 239.252 288.433 238.806 288.714C238.363 288.996 237.846 289.136 237.255 289.136ZM237.255 288.233C237.704 288.233 238.074 288.118 238.363 287.888C238.653 287.658 238.868 287.355 239.007 286.98C239.146 286.605 239.216 286.199 239.216 285.761C239.216 285.324 239.146 284.916 239.007 284.538C238.868 284.161 238.653 283.855 238.363 283.622C238.074 283.389 237.704 283.273 237.255 283.273C236.806 283.273 236.437 283.389 236.147 283.622C235.858 283.855 235.643 284.161 235.504 284.538C235.365 284.916 235.295 285.324 235.295 285.761C235.295 286.199 235.365 286.605 235.504 286.98C235.643 287.355 235.858 287.658 236.147 287.888C236.437 288.118 236.806 288.233 237.255 288.233ZM246.393 283.92L245.489 284.176C245.433 284.026 245.349 283.879 245.238 283.737C245.13 283.592 244.982 283.473 244.795 283.379C244.607 283.286 244.367 283.239 244.075 283.239C243.674 283.239 243.34 283.331 243.073 283.516C242.809 283.697 242.677 283.929 242.677 284.21C242.677 284.46 242.768 284.658 242.95 284.803C243.131 284.947 243.415 285.068 243.802 285.165L244.773 285.403C245.359 285.545 245.795 285.763 246.082 286.055C246.369 286.345 246.512 286.719 246.512 287.176C246.512 287.551 246.404 287.886 246.188 288.182C245.975 288.477 245.677 288.71 245.293 288.881C244.91 289.051 244.464 289.136 243.955 289.136C243.288 289.136 242.735 288.991 242.298 288.702C241.86 288.412 241.583 287.989 241.467 287.432L242.421 287.193C242.512 287.545 242.684 287.81 242.937 287.986C243.192 288.162 243.526 288.25 243.938 288.25C244.407 288.25 244.779 288.151 245.055 287.952C245.333 287.75 245.472 287.509 245.472 287.227C245.472 287 245.393 286.81 245.234 286.656C245.075 286.5 244.83 286.384 244.501 286.307L243.41 286.051C242.81 285.909 242.37 285.689 242.089 285.391C241.81 285.089 241.671 284.713 241.671 284.261C241.671 283.892 241.775 283.565 241.982 283.281C242.192 282.997 242.478 282.774 242.839 282.612C243.202 282.45 243.614 282.369 244.075 282.369C244.722 282.369 245.231 282.511 245.6 282.795C245.972 283.08 246.237 283.455 246.393 283.92ZM248.026 289V282.455H249.032V289H248.026ZM248.537 281.364C248.341 281.364 248.172 281.297 248.03 281.163C247.891 281.03 247.821 280.869 247.821 280.682C247.821 280.494 247.891 280.334 248.03 280.2C248.172 280.067 248.341 280 248.537 280C248.733 280 248.901 280.067 249.04 280.2C249.182 280.334 249.253 280.494 249.253 280.682C249.253 280.869 249.182 281.03 249.04 281.163C248.901 281.297 248.733 281.364 248.537 281.364ZM253.72 282.455V283.307H250.328V282.455H253.72ZM251.317 280.886H252.322V287.125C252.322 287.409 252.364 287.622 252.446 287.764C252.531 287.903 252.639 287.997 252.77 288.045C252.903 288.091 253.044 288.114 253.192 288.114C253.303 288.114 253.393 288.108 253.464 288.097C253.536 288.082 253.592 288.071 253.635 288.062L253.839 288.966C253.771 288.991 253.676 289.017 253.554 289.043C253.432 289.071 253.277 289.085 253.089 289.085C252.805 289.085 252.527 289.024 252.254 288.902C251.984 288.78 251.76 288.594 251.581 288.344C251.405 288.094 251.317 287.778 251.317 287.398V280.886ZM259.752 283.92L258.849 284.176C258.792 284.026 258.708 283.879 258.597 283.737C258.489 283.592 258.342 283.473 258.154 283.379C257.967 283.286 257.727 283.239 257.434 283.239C257.033 283.239 256.7 283.331 256.433 283.516C256.168 283.697 256.036 283.929 256.036 284.21C256.036 284.46 256.127 284.658 256.309 284.803C256.491 284.947 256.775 285.068 257.161 285.165L258.133 285.403C258.718 285.545 259.154 285.763 259.441 286.055C259.728 286.345 259.871 286.719 259.871 287.176C259.871 287.551 259.763 287.886 259.548 288.182C259.335 288.477 259.036 288.71 258.653 288.881C258.269 289.051 257.823 289.136 257.315 289.136C256.647 289.136 256.094 288.991 255.657 288.702C255.219 288.412 254.942 287.989 254.826 287.432L255.781 287.193C255.871 287.545 256.043 287.81 256.296 287.986C256.552 288.162 256.886 288.25 257.298 288.25C257.766 288.25 258.138 288.151 258.414 287.952C258.692 287.75 258.832 287.509 258.832 287.227C258.832 287 258.752 286.81 258.593 286.656C258.434 286.5 258.19 286.384 257.86 286.307L256.769 286.051C256.17 285.909 255.729 285.689 255.448 285.391C255.17 285.089 255.031 284.713 255.031 284.261C255.031 283.892 255.134 283.565 255.342 283.281C255.552 282.997 255.837 282.774 256.198 282.612C256.562 282.45 256.974 282.369 257.434 282.369C258.082 282.369 258.59 282.511 258.96 282.795C259.332 283.08 259.596 283.455 259.752 283.92Z" fill="#667085"/>
<circle cx="303" cy="285" r="5" fill="#DCDEF9"/>
<path d="M315.415 289H314.307L317.511 280.273H318.602L321.807 289H320.699L318.091 281.653H318.023L315.415 289ZM315.824 285.591H320.29V286.528H315.824V285.591ZM325.689 289.136C325.075 289.136 324.547 288.991 324.104 288.702C323.661 288.412 323.32 288.013 323.081 287.504C322.842 286.996 322.723 286.415 322.723 285.761C322.723 285.097 322.845 284.51 323.089 284.001C323.337 283.49 323.68 283.091 324.121 282.804C324.564 282.514 325.081 282.369 325.672 282.369C326.132 282.369 326.547 282.455 326.916 282.625C327.286 282.795 327.588 283.034 327.824 283.341C328.06 283.648 328.206 284.006 328.263 284.415H327.257C327.18 284.116 327.01 283.852 326.746 283.622C326.484 283.389 326.132 283.273 325.689 283.273C325.297 283.273 324.953 283.375 324.658 283.58C324.365 283.781 324.136 284.067 323.972 284.436C323.81 284.803 323.729 285.233 323.729 285.727C323.729 286.233 323.808 286.673 323.967 287.048C324.129 287.423 324.357 287.714 324.649 287.922C324.945 288.129 325.291 288.233 325.689 288.233C325.95 288.233 326.188 288.188 326.401 288.097C326.614 288.006 326.794 287.875 326.942 287.705C327.089 287.534 327.195 287.33 327.257 287.091H328.263C328.206 287.477 328.065 287.825 327.841 288.135C327.619 288.442 327.325 288.686 326.959 288.868C326.595 289.047 326.172 289.136 325.689 289.136ZM332.58 282.455V283.307H329.188V282.455H332.58ZM330.176 280.886H331.182V287.125C331.182 287.409 331.223 287.622 331.305 287.764C331.391 287.903 331.499 287.997 331.629 288.045C331.763 288.091 331.903 288.114 332.051 288.114C332.162 288.114 332.253 288.108 332.324 288.097C332.395 288.082 332.452 288.071 332.494 288.062L332.699 288.966C332.631 288.991 332.536 289.017 332.413 289.043C332.291 289.071 332.136 289.085 331.949 289.085C331.665 289.085 331.386 289.024 331.114 288.902C330.844 288.78 330.619 288.594 330.44 288.344C330.264 288.094 330.176 287.778 330.176 287.398V280.886ZM338.217 286.324V282.455H339.223V289H338.217V287.892H338.149C337.996 288.224 337.757 288.507 337.433 288.74C337.109 288.97 336.7 289.085 336.206 289.085C335.797 289.085 335.433 288.996 335.115 288.817C334.797 288.635 334.547 288.362 334.365 287.999C334.183 287.632 334.092 287.17 334.092 286.614V282.455H335.098V286.545C335.098 287.023 335.232 287.403 335.499 287.688C335.768 287.972 336.112 288.114 336.53 288.114C336.78 288.114 337.034 288.05 337.293 287.922C337.554 287.794 337.773 287.598 337.949 287.334C338.128 287.07 338.217 286.733 338.217 286.324ZM342.991 289.153C342.576 289.153 342.2 289.075 341.862 288.919C341.524 288.76 341.255 288.531 341.056 288.233C340.858 287.932 340.758 287.568 340.758 287.142C340.758 286.767 340.832 286.463 340.98 286.23C341.127 285.994 341.325 285.81 341.572 285.676C341.819 285.543 342.092 285.443 342.39 285.378C342.691 285.31 342.994 285.256 343.298 285.216C343.696 285.165 344.018 285.126 344.265 285.101C344.515 285.072 344.697 285.026 344.811 284.96C344.927 284.895 344.985 284.781 344.985 284.619V284.585C344.985 284.165 344.87 283.838 344.64 283.605C344.413 283.372 344.068 283.256 343.605 283.256C343.125 283.256 342.748 283.361 342.475 283.571C342.203 283.781 342.011 284.006 341.9 284.244L340.946 283.903C341.116 283.506 341.343 283.196 341.627 282.974C341.914 282.75 342.227 282.594 342.565 282.506C342.906 282.415 343.241 282.369 343.571 282.369C343.781 282.369 344.022 282.395 344.295 282.446C344.571 282.494 344.836 282.595 345.092 282.749C345.35 282.902 345.565 283.134 345.735 283.443C345.906 283.753 345.991 284.168 345.991 284.688V289H344.985V288.114H344.934C344.866 288.256 344.752 288.408 344.593 288.57C344.434 288.732 344.223 288.869 343.958 288.983C343.694 289.097 343.372 289.153 342.991 289.153ZM343.145 288.25C343.542 288.25 343.877 288.172 344.15 288.016C344.426 287.859 344.633 287.658 344.772 287.411C344.914 287.163 344.985 286.903 344.985 286.631V285.71C344.943 285.761 344.849 285.808 344.704 285.851C344.562 285.891 344.397 285.926 344.21 285.957C344.025 285.986 343.845 286.011 343.669 286.034C343.495 286.054 343.355 286.071 343.247 286.085C342.985 286.119 342.741 286.175 342.514 286.251C342.289 286.325 342.108 286.437 341.968 286.588C341.832 286.736 341.764 286.937 341.764 287.193C341.764 287.543 341.893 287.807 342.152 287.986C342.413 288.162 342.744 288.25 343.145 288.25ZM348.832 280.273V289H347.827V280.273H348.832ZM356.879 289H354.186V280.273H356.998C357.845 280.273 358.569 280.447 359.172 280.797C359.774 281.143 360.235 281.642 360.556 282.293C360.877 282.94 361.038 283.716 361.038 284.619C361.038 285.528 360.876 286.311 360.552 286.967C360.228 287.621 359.757 288.124 359.137 288.476C358.518 288.825 357.765 289 356.879 289ZM355.243 288.062H356.811C357.532 288.062 358.13 287.923 358.605 287.645C359.079 287.366 359.433 286.97 359.666 286.456C359.899 285.942 360.015 285.33 360.015 284.619C360.015 283.915 359.9 283.308 359.67 282.8C359.44 282.288 359.096 281.896 358.639 281.624C358.181 281.348 357.612 281.21 356.93 281.21H355.243V288.062ZM365.419 289.136C364.788 289.136 364.244 288.997 363.787 288.719C363.332 288.438 362.981 288.045 362.734 287.543C362.49 287.037 362.368 286.449 362.368 285.778C362.368 285.108 362.49 284.517 362.734 284.006C362.981 283.491 363.325 283.091 363.765 282.804C364.208 282.514 364.725 282.369 365.316 282.369C365.657 282.369 365.994 282.426 366.326 282.54C366.659 282.653 366.961 282.838 367.234 283.094C367.507 283.347 367.724 283.682 367.886 284.099C368.048 284.517 368.129 285.031 368.129 285.642V286.068H363.083V285.199H367.106C367.106 284.83 367.032 284.5 366.885 284.21C366.74 283.92 366.532 283.692 366.262 283.524C365.995 283.357 365.68 283.273 365.316 283.273C364.916 283.273 364.569 283.372 364.277 283.571C363.987 283.767 363.764 284.023 363.608 284.338C363.451 284.653 363.373 284.991 363.373 285.352V285.932C363.373 286.426 363.458 286.845 363.629 287.189C363.802 287.53 364.042 287.79 364.349 287.969C364.656 288.145 365.012 288.233 365.419 288.233C365.683 288.233 365.922 288.196 366.135 288.122C366.35 288.045 366.537 287.932 366.693 287.781C366.849 287.628 366.97 287.437 367.055 287.21L368.027 287.483C367.924 287.812 367.752 288.102 367.511 288.352C367.27 288.599 366.971 288.793 366.616 288.932C366.261 289.068 365.862 289.136 365.419 289.136ZM369.659 291.455V282.455H370.63V283.494H370.75C370.824 283.381 370.926 283.236 371.056 283.06C371.19 282.881 371.38 282.722 371.627 282.582C371.877 282.44 372.216 282.369 372.642 282.369C373.193 282.369 373.679 282.507 374.099 282.783C374.52 283.058 374.848 283.449 375.083 283.955C375.319 284.46 375.437 285.057 375.437 285.744C375.437 286.438 375.319 287.038 375.083 287.547C374.848 288.053 374.521 288.445 374.103 288.723C373.686 288.999 373.204 289.136 372.659 289.136C372.238 289.136 371.902 289.067 371.649 288.928C371.396 288.786 371.201 288.625 371.065 288.446C370.929 288.264 370.824 288.114 370.75 287.994H370.664V291.455H369.659ZM370.647 285.727C370.647 286.222 370.72 286.658 370.865 287.036C371.01 287.411 371.221 287.705 371.5 287.918C371.778 288.128 372.119 288.233 372.522 288.233C372.943 288.233 373.294 288.122 373.575 287.901C373.859 287.676 374.072 287.375 374.214 286.997C374.359 286.616 374.431 286.193 374.431 285.727C374.431 285.267 374.36 284.852 374.218 284.483C374.079 284.111 373.868 283.817 373.583 283.601C373.302 283.382 372.949 283.273 372.522 283.273C372.113 283.273 371.77 283.376 371.491 283.584C371.213 283.788 371.002 284.075 370.86 284.445C370.718 284.811 370.647 285.239 370.647 285.727ZM379.63 289.136C379.039 289.136 378.521 288.996 378.075 288.714C377.632 288.433 377.285 288.04 377.035 287.534C376.788 287.028 376.664 286.437 376.664 285.761C376.664 285.08 376.788 284.484 377.035 283.976C377.285 283.467 377.632 283.072 378.075 282.791C378.521 282.51 379.039 282.369 379.63 282.369C380.221 282.369 380.738 282.51 381.181 282.791C381.627 283.072 381.974 283.467 382.221 283.976C382.471 284.484 382.596 285.08 382.596 285.761C382.596 286.437 382.471 287.028 382.221 287.534C381.974 288.04 381.627 288.433 381.181 288.714C380.738 288.996 380.221 289.136 379.63 289.136ZM379.63 288.233C380.079 288.233 380.449 288.118 380.738 287.888C381.028 287.658 381.243 287.355 381.382 286.98C381.521 286.605 381.591 286.199 381.591 285.761C381.591 285.324 381.521 284.916 381.382 284.538C381.243 284.161 381.028 283.855 380.738 283.622C380.449 283.389 380.079 283.273 379.63 283.273C379.181 283.273 378.812 283.389 378.522 283.622C378.233 283.855 378.018 284.161 377.879 284.538C377.74 284.916 377.67 285.324 377.67 285.761C377.67 286.199 377.74 286.605 377.879 286.98C378.018 287.355 378.233 287.658 378.522 287.888C378.812 288.118 379.181 288.233 379.63 288.233ZM388.768 283.92L387.864 284.176C387.808 284.026 387.724 283.879 387.613 283.737C387.505 283.592 387.357 283.473 387.17 283.379C386.982 283.286 386.742 283.239 386.45 283.239C386.049 283.239 385.715 283.331 385.448 283.516C385.184 283.697 385.052 283.929 385.052 284.21C385.052 284.46 385.143 284.658 385.325 284.803C385.506 284.947 385.79 285.068 386.177 285.165L387.148 285.403C387.734 285.545 388.17 285.763 388.457 286.055C388.744 286.345 388.887 286.719 388.887 287.176C388.887 287.551 388.779 287.886 388.563 288.182C388.35 288.477 388.052 288.71 387.668 288.881C387.285 289.051 386.839 289.136 386.33 289.136C385.663 289.136 385.11 288.991 384.673 288.702C384.235 288.412 383.958 287.989 383.842 287.432L384.796 287.193C384.887 287.545 385.059 287.81 385.312 287.986C385.567 288.162 385.901 288.25 386.313 288.25C386.782 288.25 387.154 288.151 387.43 287.952C387.708 287.75 387.847 287.509 387.847 287.227C387.847 287 387.768 286.81 387.609 286.656C387.45 286.5 387.205 286.384 386.876 286.307L385.785 286.051C385.185 285.909 384.745 285.689 384.464 285.391C384.185 285.089 384.046 284.713 384.046 284.261C384.046 283.892 384.15 283.565 384.357 283.281C384.567 282.997 384.853 282.774 385.214 282.612C385.577 282.45 385.989 282.369 386.45 282.369C387.097 282.369 387.606 282.511 387.975 282.795C388.347 283.08 388.612 283.455 388.768 283.92ZM390.401 289V282.455H391.407V289H390.401ZM390.912 281.364C390.716 281.364 390.547 281.297 390.405 281.163C390.266 281.03 390.196 280.869 390.196 280.682C390.196 280.494 390.266 280.334 390.405 280.2C390.547 280.067 390.716 280 390.912 280C391.108 280 391.276 280.067 391.415 280.2C391.557 280.334 391.628 280.494 391.628 280.682C391.628 280.869 391.557 281.03 391.415 281.163C391.276 281.297 391.108 281.364 390.912 281.364ZM396.095 282.455V283.307H392.703V282.455H396.095ZM393.692 280.886H394.697V287.125C394.697 287.409 394.739 287.622 394.821 287.764C394.906 287.903 395.014 287.997 395.145 288.045C395.278 288.091 395.419 288.114 395.567 288.114C395.678 288.114 395.768 288.108 395.839 288.097C395.911 288.082 395.967 288.071 396.01 288.062L396.214 288.966C396.146 288.991 396.051 289.017 395.929 289.043C395.807 289.071 395.652 289.085 395.464 289.085C395.18 289.085 394.902 289.024 394.629 288.902C394.359 288.78 394.135 288.594 393.956 288.344C393.78 288.094 393.692 287.778 393.692 287.398V280.886ZM402.127 283.92L401.224 284.176C401.167 284.026 401.083 283.879 400.972 283.737C400.864 283.592 400.717 283.473 400.529 283.379C400.342 283.286 400.102 283.239 399.809 283.239C399.408 283.239 399.075 283.331 398.808 283.516C398.543 283.697 398.411 283.929 398.411 284.21C398.411 284.46 398.502 284.658 398.684 284.803C398.866 284.947 399.15 285.068 399.536 285.165L400.508 285.403C401.093 285.545 401.529 285.763 401.816 286.055C402.103 286.345 402.246 286.719 402.246 287.176C402.246 287.551 402.138 287.886 401.923 288.182C401.71 288.477 401.411 288.71 401.028 288.881C400.644 289.051 400.198 289.136 399.69 289.136C399.022 289.136 398.469 288.991 398.032 288.702C397.594 288.412 397.317 287.989 397.201 287.432L398.156 287.193C398.246 287.545 398.418 287.81 398.671 287.986C398.927 288.162 399.261 288.25 399.673 288.25C400.141 288.25 400.513 288.151 400.789 287.952C401.067 287.75 401.207 287.509 401.207 287.227C401.207 287 401.127 286.81 400.968 286.656C400.809 286.5 400.565 286.384 400.235 286.307L399.144 286.051C398.545 285.909 398.104 285.689 397.823 285.391C397.545 285.089 397.406 284.713 397.406 284.261C397.406 283.892 397.509 283.565 397.717 283.281C397.927 282.997 398.212 282.774 398.573 282.612C398.937 282.45 399.349 282.369 399.809 282.369C400.457 282.369 400.965 282.511 401.335 282.795C401.707 283.08 401.971 283.455 402.127 283.92Z" fill="#667085"/>
<line x1="4.37114e-08" y1="263.5" x2="541" y2="263.5" stroke="#EAECF0"/>
<g filter="url(#filter0_b_627_369)">
<rect x="115" y="32" width="130" height="50" rx="8" fill="#8A929C" fill-opacity="0.9"/>
<path d="M122.696 51H121.298L124.439 42.2727H125.96L129.101 51H127.703L125.236 43.858H125.168L122.696 51ZM122.93 47.5824H127.464V48.6903H122.93V47.5824ZM130.259 53.4545V44.4545H131.503V45.5156H131.61C131.684 45.3793 131.79 45.2216 131.929 45.0426C132.069 44.8636 132.262 44.7074 132.509 44.5739C132.756 44.4375 133.083 44.3693 133.489 44.3693C134.017 44.3693 134.489 44.5028 134.904 44.7699C135.319 45.0369 135.644 45.4219 135.88 45.9247C136.118 46.4276 136.238 47.0327 136.238 47.7401C136.238 48.4474 136.12 49.054 135.884 49.5597C135.648 50.0625 135.324 50.4503 134.912 50.723C134.5 50.9929 134.03 51.1278 133.502 51.1278C133.104 51.1278 132.779 51.0611 132.526 50.9276C132.276 50.794 132.08 50.6378 131.938 50.4588C131.796 50.2798 131.686 50.1207 131.61 49.9815H131.533V53.4545H130.259ZM131.507 47.7273C131.507 48.1875 131.574 48.5909 131.708 48.9375C131.841 49.2841 132.034 49.5554 132.287 49.7514C132.54 49.9446 132.85 50.0412 133.216 50.0412C133.597 50.0412 133.915 49.9403 134.171 49.7386C134.426 49.5341 134.62 49.2571 134.75 48.9077C134.884 48.5582 134.951 48.1648 134.951 47.7273C134.951 47.2955 134.885 46.9077 134.755 46.5639C134.627 46.2202 134.434 45.9489 134.175 45.75C133.919 45.5511 133.6 45.4517 133.216 45.4517C132.847 45.4517 132.534 45.5469 132.279 45.7372C132.026 45.9276 131.834 46.1932 131.703 46.5341C131.573 46.875 131.507 47.2727 131.507 47.7273ZM137.665 51V44.4545H138.897V45.4943H138.965C139.084 45.142 139.294 44.8651 139.596 44.6634C139.9 44.4588 140.243 44.3565 140.627 44.3565C140.706 44.3565 140.8 44.3594 140.908 44.3651C141.019 44.3707 141.105 44.3778 141.168 44.3864V45.6051C141.117 45.5909 141.026 45.5753 140.895 45.5582C140.765 45.5384 140.634 45.5284 140.503 45.5284C140.202 45.5284 139.934 45.5923 139.698 45.7202C139.465 45.8452 139.28 46.0199 139.144 46.2443C139.007 46.4659 138.939 46.7187 138.939 47.0028V51H137.665ZM142.271 51V44.4545H143.545V51H142.271ZM142.914 43.4446C142.692 43.4446 142.502 43.3707 142.343 43.223C142.187 43.0724 142.109 42.8935 142.109 42.6861C142.109 42.4759 142.187 42.2969 142.343 42.1491C142.502 41.9986 142.692 41.9233 142.914 41.9233C143.136 41.9233 143.325 41.9986 143.481 42.1491C143.64 42.2969 143.719 42.4759 143.719 42.6861C143.719 42.8935 143.64 43.0724 143.481 43.223C143.325 43.3707 143.136 43.4446 142.914 43.4446ZM146.533 42.2727V51H145.259V42.2727H146.533Z" fill="white"/>
<circle cx="124" cy="67" r="3" fill="#1C2DD8"/>
<path d="M134.477 72.0909V61.1818H135.176V72.0909H134.477ZM136.83 64.4545C136.778 64.0227 136.571 63.6875 136.207 63.4489C135.844 63.2102 135.398 63.0909 134.869 63.0909C134.483 63.0909 134.145 63.1534 133.855 63.2784C133.568 63.4034 133.344 63.5753 133.182 63.794C133.023 64.0128 132.943 64.2614 132.943 64.5398C132.943 64.7727 132.999 64.973 133.109 65.1406C133.223 65.3054 133.368 65.4432 133.544 65.554C133.72 65.6619 133.905 65.7514 134.098 65.8224C134.291 65.8906 134.469 65.946 134.631 65.9886L135.517 66.2273C135.744 66.2869 135.997 66.3693 136.276 66.4744C136.557 66.5795 136.825 66.723 137.081 66.9048C137.339 67.0838 137.553 67.3139 137.72 67.5952C137.888 67.8764 137.972 68.2216 137.972 68.6307C137.972 69.1023 137.848 69.5284 137.601 69.9091C137.357 70.2898 136.999 70.5923 136.527 70.8168C136.058 71.0412 135.489 71.1534 134.818 71.1534C134.193 71.1534 133.652 71.0526 133.195 70.8509C132.74 70.6491 132.382 70.3679 132.121 70.0071C131.862 69.6463 131.716 69.2273 131.682 68.75H132.773C132.801 69.0795 132.912 69.3523 133.105 69.5682C133.301 69.7812 133.548 69.9403 133.847 70.0455C134.148 70.1477 134.472 70.1989 134.818 70.1989C135.222 70.1989 135.584 70.1335 135.905 70.0028C136.226 69.8693 136.48 69.6847 136.668 69.4489C136.855 69.2102 136.949 68.9318 136.949 68.6136C136.949 68.3239 136.868 68.0881 136.706 67.9062C136.544 67.7244 136.331 67.5767 136.067 67.4631C135.803 67.3494 135.517 67.25 135.21 67.1648L134.136 66.858C133.455 66.6619 132.915 66.3821 132.517 66.0185C132.119 65.6548 131.92 65.179 131.92 64.5909C131.92 64.1023 132.053 63.6761 132.317 63.3125C132.584 62.946 132.942 62.6619 133.391 62.4602C133.842 62.2557 134.347 62.1534 134.903 62.1534C135.466 62.1534 135.966 62.2543 136.403 62.456C136.841 62.6548 137.188 62.9276 137.443 63.2741C137.702 63.6207 137.838 64.0142 137.852 64.4545H136.83ZM142.624 62.2727V71H141.567V63.3807H141.516L139.385 64.7955V63.7216L141.567 62.2727H142.624ZM147.861 71.1193C147.361 71.1193 146.911 71.0199 146.51 70.821C146.11 70.6222 145.789 70.3494 145.547 70.0028C145.306 69.6562 145.174 69.2614 145.151 68.8182H146.174C146.213 69.2131 146.392 69.5398 146.711 69.7983C147.032 70.054 147.415 70.1818 147.861 70.1818C148.219 70.1818 148.537 70.098 148.816 69.9304C149.097 69.7628 149.317 69.5327 149.476 69.2401C149.638 68.9446 149.719 68.6108 149.719 68.2386C149.719 67.858 149.635 67.5185 149.468 67.2202C149.303 66.919 149.076 66.6818 148.786 66.5085C148.496 66.3352 148.165 66.2472 147.793 66.2443C147.526 66.2415 147.252 66.2827 146.971 66.3679C146.689 66.4503 146.458 66.5568 146.276 66.6875L145.287 66.5682L145.816 62.2727H150.35V63.2102H146.702L146.395 65.7841H146.446C146.625 65.642 146.85 65.5241 147.12 65.4304C147.39 65.3366 147.671 65.2898 147.963 65.2898C148.498 65.2898 148.973 65.4176 149.391 65.6733C149.811 65.9261 150.141 66.2727 150.38 66.7131C150.621 67.1534 150.742 67.6562 150.742 68.2216C150.742 68.7784 150.617 69.2756 150.367 69.7131C150.12 70.1477 149.779 70.4915 149.344 70.7443C148.909 70.9943 148.415 71.1193 147.861 71.1193ZM153.624 69.8068L153.555 70.267C153.507 70.5909 153.433 70.9375 153.334 71.3068C153.237 71.6761 153.136 72.0241 153.031 72.3509C152.926 72.6776 152.839 72.9375 152.771 73.1307H152.004C152.041 72.9489 152.089 72.7088 152.149 72.4105C152.209 72.1122 152.268 71.7784 152.328 71.4091C152.391 71.0426 152.442 70.6676 152.482 70.2841L152.533 69.8068H153.624ZM158.012 71.1193C157.37 71.1193 156.823 70.9446 156.371 70.5952C155.919 70.2429 155.574 69.733 155.336 69.0653C155.097 68.3949 154.978 67.5852 154.978 66.6364C154.978 65.6932 155.097 64.8878 155.336 64.2202C155.577 63.5497 155.924 63.0384 156.375 62.6861C156.83 62.331 157.375 62.1534 158.012 62.1534C158.648 62.1534 159.192 62.331 159.644 62.6861C160.098 63.0384 160.445 63.5497 160.684 64.2202C160.925 64.8878 161.046 65.6932 161.046 66.6364C161.046 67.5852 160.926 68.3949 160.688 69.0653C160.449 69.733 160.104 70.2429 159.652 70.5952C159.201 70.9446 158.654 71.1193 158.012 71.1193ZM158.012 70.1818C158.648 70.1818 159.142 69.875 159.495 69.2614C159.847 68.6477 160.023 67.7727 160.023 66.6364C160.023 65.8807 159.942 65.2372 159.78 64.706C159.621 64.1747 159.391 63.7699 159.09 63.4915C158.792 63.2131 158.432 63.0739 158.012 63.0739C157.381 63.0739 156.888 63.3849 156.533 64.0071C156.178 64.6264 156 65.5028 156 66.6364C156 67.392 156.08 68.0341 156.239 68.5625C156.398 69.0909 156.627 69.4929 156.925 69.7685C157.226 70.044 157.588 70.1818 158.012 70.1818ZM165.512 71.1193C164.87 71.1193 164.323 70.9446 163.871 70.5952C163.419 70.2429 163.074 69.733 162.836 69.0653C162.597 68.3949 162.478 67.5852 162.478 66.6364C162.478 65.6932 162.597 64.8878 162.836 64.2202C163.077 63.5497 163.424 63.0384 163.875 62.6861C164.33 62.331 164.875 62.1534 165.512 62.1534C166.148 62.1534 166.692 62.331 167.144 62.6861C167.598 63.0384 167.945 63.5497 168.184 64.2202C168.425 64.8878 168.546 65.6932 168.546 66.6364C168.546 67.5852 168.426 68.3949 168.188 69.0653C167.949 69.733 167.604 70.2429 167.152 70.5952C166.701 70.9446 166.154 71.1193 165.512 71.1193ZM165.512 70.1818C166.148 70.1818 166.642 69.875 166.995 69.2614C167.347 68.6477 167.523 67.7727 167.523 66.6364C167.523 65.8807 167.442 65.2372 167.28 64.706C167.121 64.1747 166.891 63.7699 166.59 63.4915C166.292 63.2131 165.932 63.0739 165.512 63.0739C164.881 63.0739 164.388 63.3849 164.033 64.0071C163.678 64.6264 163.5 65.5028 163.5 66.6364C163.5 67.392 163.58 68.0341 163.739 68.5625C163.898 69.0909 164.127 69.4929 164.425 69.7685C164.726 70.044 165.088 70.1818 165.512 70.1818ZM173.012 71.1193C172.37 71.1193 171.823 70.9446 171.371 70.5952C170.919 70.2429 170.574 69.733 170.336 69.0653C170.097 68.3949 169.978 67.5852 169.978 66.6364C169.978 65.6932 170.097 64.8878 170.336 64.2202C170.577 63.5497 170.924 63.0384 171.375 62.6861C171.83 62.331 172.375 62.1534 173.012 62.1534C173.648 62.1534 174.192 62.331 174.644 62.6861C175.098 63.0384 175.445 63.5497 175.684 64.2202C175.925 64.8878 176.046 65.6932 176.046 66.6364C176.046 67.5852 175.926 68.3949 175.688 69.0653C175.449 69.733 175.104 70.2429 174.652 70.5952C174.201 70.9446 173.654 71.1193 173.012 71.1193ZM173.012 70.1818C173.648 70.1818 174.142 69.875 174.495 69.2614C174.847 68.6477 175.023 67.7727 175.023 66.6364C175.023 65.8807 174.942 65.2372 174.78 64.706C174.621 64.1747 174.391 63.7699 174.09 63.4915C173.792 63.2131 173.432 63.0739 173.012 63.0739C172.381 63.0739 171.888 63.3849 171.533 64.0071C171.178 64.6264 171 65.5028 171 66.6364C171 67.392 171.08 68.0341 171.239 68.5625C171.398 69.0909 171.627 69.4929 171.925 69.7685C172.226 70.044 172.588 70.1818 173.012 70.1818Z" fill="white"/>
<circle cx="186" cy="67" r="3" fill="#DCDEF9"/>
<path d="M196.477 72.0909V61.1818H197.176V72.0909H196.477ZM198.83 64.4545C198.778 64.0227 198.571 63.6875 198.207 63.4489C197.844 63.2102 197.398 63.0909 196.869 63.0909C196.483 63.0909 196.145 63.1534 195.855 63.2784C195.568 63.4034 195.344 63.5753 195.182 63.794C195.023 64.0128 194.943 64.2614 194.943 64.5398C194.943 64.7727 194.999 64.973 195.109 65.1406C195.223 65.3054 195.368 65.4432 195.544 65.554C195.72 65.6619 195.905 65.7514 196.098 65.8224C196.291 65.8906 196.469 65.946 196.631 65.9886L197.517 66.2273C197.744 66.2869 197.997 66.3693 198.276 66.4744C198.557 66.5795 198.825 66.723 199.081 66.9048C199.339 67.0838 199.553 67.3139 199.72 67.5952C199.888 67.8764 199.972 68.2216 199.972 68.6307C199.972 69.1023 199.848 69.5284 199.601 69.9091C199.357 70.2898 198.999 70.5923 198.527 70.8168C198.058 71.0412 197.489 71.1534 196.818 71.1534C196.193 71.1534 195.652 71.0526 195.195 70.8509C194.74 70.6491 194.382 70.3679 194.121 70.0071C193.862 69.6463 193.716 69.2273 193.682 68.75H194.773C194.801 69.0795 194.912 69.3523 195.105 69.5682C195.301 69.7812 195.548 69.9403 195.847 70.0455C196.148 70.1477 196.472 70.1989 196.818 70.1989C197.222 70.1989 197.584 70.1335 197.905 70.0028C198.226 69.8693 198.48 69.6847 198.668 69.4489C198.855 69.2102 198.949 68.9318 198.949 68.6136C198.949 68.3239 198.868 68.0881 198.706 67.9062C198.544 67.7244 198.331 67.5767 198.067 67.4631C197.803 67.3494 197.517 67.25 197.21 67.1648L196.136 66.858C195.455 66.6619 194.915 66.3821 194.517 66.0185C194.119 65.6548 193.92 65.179 193.92 64.5909C193.92 64.1023 194.053 63.6761 194.317 63.3125C194.584 62.946 194.942 62.6619 195.391 62.4602C195.842 62.2557 196.347 62.1534 196.903 62.1534C197.466 62.1534 197.966 62.2543 198.403 62.456C198.841 62.6548 199.188 62.9276 199.443 63.2741C199.702 63.6207 199.838 64.0142 199.852 64.4545H198.83ZM204.624 62.2727V71H203.567V63.3807H203.516L201.385 64.7955V63.7216L203.567 62.2727H204.624ZM209.98 71.1193C209.338 71.1193 208.792 70.9446 208.34 70.5952C207.888 70.2429 207.543 69.733 207.304 69.0653C207.066 68.3949 206.946 67.5852 206.946 66.6364C206.946 65.6932 207.066 64.8878 207.304 64.2202C207.546 63.5497 207.892 63.0384 208.344 62.6861C208.799 62.331 209.344 62.1534 209.98 62.1534C210.617 62.1534 211.161 62.331 211.613 62.6861C212.067 63.0384 212.414 63.5497 212.652 64.2202C212.894 64.8878 213.015 65.6932 213.015 66.6364C213.015 67.5852 212.895 68.3949 212.657 69.0653C212.418 69.733 212.073 70.2429 211.621 70.5952C211.169 70.9446 210.623 71.1193 209.98 71.1193ZM209.98 70.1818C210.617 70.1818 211.111 69.875 211.463 69.2614C211.816 68.6477 211.992 67.7727 211.992 66.6364C211.992 65.8807 211.911 65.2372 211.749 64.706C211.59 64.1747 211.36 63.7699 211.059 63.4915C210.76 63.2131 210.401 63.0739 209.98 63.0739C209.35 63.0739 208.857 63.3849 208.502 64.0071C208.147 64.6264 207.969 65.5028 207.969 66.6364C207.969 67.392 208.049 68.0341 208.208 68.5625C208.367 69.0909 208.596 69.4929 208.894 69.7685C209.195 70.044 209.557 70.1818 209.98 70.1818ZM215.846 69.8068L215.778 70.267C215.73 70.5909 215.656 70.9375 215.556 71.3068C215.46 71.6761 215.359 72.0241 215.254 72.3509C215.149 72.6776 215.062 72.9375 214.994 73.1307H214.227C214.264 72.9489 214.312 72.7088 214.372 72.4105C214.431 72.1122 214.491 71.7784 214.551 71.4091C214.613 71.0426 214.664 70.6676 214.704 70.2841L214.755 69.8068H215.846ZM220.234 71.1193C219.592 71.1193 219.045 70.9446 218.594 70.5952C218.142 70.2429 217.797 69.733 217.558 69.0653C217.32 68.3949 217.2 67.5852 217.2 66.6364C217.2 65.6932 217.32 64.8878 217.558 64.2202C217.8 63.5497 218.146 63.0384 218.598 62.6861C219.053 62.331 219.598 62.1534 220.234 62.1534C220.871 62.1534 221.415 62.331 221.866 62.6861C222.321 63.0384 222.668 63.5497 222.906 64.2202C223.148 64.8878 223.268 65.6932 223.268 66.6364C223.268 67.5852 223.149 68.3949 222.911 69.0653C222.672 69.733 222.327 70.2429 221.875 70.5952C221.423 70.9446 220.876 71.1193 220.234 71.1193ZM220.234 70.1818C220.871 70.1818 221.365 69.875 221.717 69.2614C222.07 68.6477 222.246 67.7727 222.246 66.6364C222.246 65.8807 222.165 65.2372 222.003 64.706C221.844 64.1747 221.614 63.7699 221.312 63.4915C221.014 63.2131 220.655 63.0739 220.234 63.0739C219.604 63.0739 219.111 63.3849 218.756 64.0071C218.401 64.6264 218.223 65.5028 218.223 66.6364C218.223 67.392 218.303 68.0341 218.462 68.5625C218.621 69.0909 218.849 69.4929 219.148 69.7685C219.449 70.044 219.811 70.1818 220.234 70.1818ZM227.734 71.1193C227.092 71.1193 226.545 70.9446 226.094 70.5952C225.642 70.2429 225.297 69.733 225.058 69.0653C224.82 68.3949 224.7 67.5852 224.7 66.6364C224.7 65.6932 224.82 64.8878 225.058 64.2202C225.3 63.5497 225.646 63.0384 226.098 62.6861C226.553 62.331 227.098 62.1534 227.734 62.1534C228.371 62.1534 228.915 62.331 229.366 62.6861C229.821 63.0384 230.168 63.5497 230.406 64.2202C230.648 64.8878 230.768 65.6932 230.768 66.6364C230.768 67.5852 230.649 68.3949 230.411 69.0653C230.172 69.733 229.827 70.2429 229.375 70.5952C228.923 70.9446 228.376 71.1193 227.734 71.1193ZM227.734 70.1818C228.371 70.1818 228.865 69.875 229.217 69.2614C229.57 68.6477 229.746 67.7727 229.746 66.6364C229.746 65.8807 229.665 65.2372 229.503 64.706C229.344 64.1747 229.114 63.7699 228.812 63.4915C228.514 63.2131 228.155 63.0739 227.734 63.0739C227.104 63.0739 226.611 63.3849 226.256 64.0071C225.901 64.6264 225.723 65.5028 225.723 66.6364C225.723 67.392 225.803 68.0341 225.962 68.5625C226.121 69.0909 226.349 69.4929 226.648 69.7685C226.949 70.044 227.311 70.1818 227.734 70.1818ZM235.234 71.1193C234.592 71.1193 234.045 70.9446 233.594 70.5952C233.142 70.2429 232.797 69.733 232.558 69.0653C232.32 68.3949 232.2 67.5852 232.2 66.6364C232.2 65.6932 232.32 64.8878 232.558 64.2202C232.8 63.5497 233.146 63.0384 233.598 62.6861C234.053 62.331 234.598 62.1534 235.234 62.1534C235.871 62.1534 236.415 62.331 236.866 62.6861C237.321 63.0384 237.668 63.5497 237.906 64.2202C238.148 64.8878 238.268 65.6932 238.268 66.6364C238.268 67.5852 238.149 68.3949 237.911 69.0653C237.672 69.733 237.327 70.2429 236.875 70.5952C236.423 70.9446 235.876 71.1193 235.234 71.1193ZM235.234 70.1818C235.871 70.1818 236.365 69.875 236.717 69.2614C237.07 68.6477 237.246 67.7727 237.246 66.6364C237.246 65.8807 237.165 65.2372 237.003 64.706C236.844 64.1747 236.614 63.7699 236.312 63.4915C236.014 63.2131 235.655 63.0739 235.234 63.0739C234.604 63.0739 234.111 63.3849 233.756 64.0071C233.401 64.6264 233.223 65.5028 233.223 66.6364C233.223 67.392 233.303 68.0341 233.462 68.5625C233.621 69.0909 233.849 69.4929 234.148 69.7685C234.449 70.044 234.811 70.1818 235.234 70.1818Z" fill="white"/>
</g>
<g filter="url(#filter1_b_627_369)">
<path d="M182 86L186.33 81.5H177.67L182 86Z" fill="#8A929C" fill-opacity="0.9"/>
</g>
<defs>
<filter id="filter0_b_627_369" x="105" y="22" width="150" height="70" filterUnits="userSpaceOnUse" color-interpolation-filters="sRGB">
<feFlood flood-opacity="0" result="BackgroundImageFix"/>
<feGaussianBlur in="BackgroundImageFix" stdDeviation="5"/>
<feComposite in2="SourceAlpha" operator="in" result="effect1_backgroundBlur_627_369"/>
<feBlend mode="normal" in="SourceGraphic" in2="effect1_backgroundBlur_627_369" result="shape"/>
</filter>
<filter id="filter1_b_627_369" x="167.67" y="71.5" width="28.6602" height="24.5" filterUnits="userSpaceOnUse" color-interpolation-filters="sRGB">
<feFlood flood-opacity="0" result="BackgroundImageFix"/>
<feGaussianBlur in="BackgroundImageFix" stdDeviation="5"/>
<feComposite in2="SourceAlpha" operator="in" result="effect1_backgroundBlur_627_369"/>
<feBlend mode="normal" in="SourceGraphic" in2="effect1_backgroundBlur_627_369" result="shape"/>
</filter>
</defs>
</svg>
