<svg width="542" height="304" viewBox="0 0 542 304" fill="none" xmlns="http://www.w3.org/2000/svg">
<path d="M0.903409 69V68.233L3.78409 65.0795C4.12216 64.7102 4.40057 64.3892 4.61932 64.1165C4.83807 63.8409 5 63.5824 5.10511 63.3409C5.21307 63.0966 5.26705 62.8409 5.26705 62.5739C5.26705 62.267 5.19318 62.0014 5.04545 61.777C4.90057 61.5526 4.7017 61.3793 4.44886 61.2571C4.19602 61.1349 3.91193 61.0739 3.59659 61.0739C3.26136 61.0739 2.96875 61.1435 2.71875 61.2827C2.47159 61.419 2.27983 61.6108 2.14347 61.858C2.00994 62.1051 1.94318 62.3949 1.94318 62.7273H0.9375C0.9375 62.2159 1.0554 61.767 1.29119 61.3807C1.52699 60.9943 1.84801 60.6932 2.25426 60.4773C2.66335 60.2614 3.12216 60.1534 3.63068 60.1534C4.14205 60.1534 4.59517 60.2614 4.99006 60.4773C5.38494 60.6932 5.6946 60.9844 5.91903 61.3509C6.14347 61.7173 6.25568 62.125 6.25568 62.5739C6.25568 62.8949 6.19744 63.2088 6.08097 63.5156C5.96733 63.8196 5.76847 64.1591 5.48438 64.5341C5.20312 64.9062 4.8125 65.3608 4.3125 65.8977L2.35227 67.9943V68.0625H6.40909V69H0.903409ZM11.0156 69.1193C10.3736 69.1193 9.8267 68.9446 9.375 68.5952C8.9233 68.2429 8.57813 67.733 8.33949 67.0653C8.10085 66.3949 7.98153 65.5852 7.98153 64.6364C7.98153 63.6932 8.10085 62.8878 8.33949 62.2202C8.58097 61.5497 8.92756 61.0384 9.37926 60.6861C9.83381 60.331 10.3793 60.1534 11.0156 60.1534C11.652 60.1534 12.196 60.331 12.6477 60.6861C13.1023 61.0384 13.4489 61.5497 13.6875 62.2202C13.929 62.8878 14.0497 63.6932 14.0497 64.6364C14.0497 65.5852 13.9304 66.3949 13.6918 67.0653C13.4531 67.733 13.108 68.2429 12.6562 68.5952C12.2045 68.9446 11.6577 69.1193 11.0156 69.1193ZM11.0156 68.1818C11.652 68.1818 12.1463 67.875 12.4986 67.2614C12.8509 66.6477 13.027 65.7727 13.027 64.6364C13.027 63.8807 12.946 63.2372 12.7841 62.706C12.625 62.1747 12.3949 61.7699 12.0938 61.4915C11.7955 61.2131 11.4361 61.0739 11.0156 61.0739C10.3849 61.0739 9.89205 61.3849 9.53693 62.0071C9.18182 62.6264 9.00426 63.5028 9.00426 64.6364C9.00426 65.392 9.08381 66.0341 9.2429 66.5625C9.40199 67.0909 9.63068 67.4929 9.92898 67.7685C10.2301 68.044 10.5923 68.1818 11.0156 68.1818Z" fill="#667085"/>
<path d="M5.97159 102.023V110.75H4.91477V103.131H4.86364L2.73295 104.545V103.472L4.91477 102.023H5.97159ZM11.2088 110.869C10.7088 110.869 10.2585 110.77 9.85795 110.571C9.45739 110.372 9.13636 110.099 8.89489 109.753C8.65341 109.406 8.52131 109.011 8.49858 108.568H9.52131C9.56108 108.963 9.74006 109.29 10.0582 109.548C10.3793 109.804 10.7628 109.932 11.2088 109.932C11.5668 109.932 11.8849 109.848 12.1634 109.68C12.4446 109.513 12.6648 109.283 12.8239 108.99C12.9858 108.695 13.0668 108.361 13.0668 107.989C13.0668 107.608 12.983 107.268 12.8153 106.97C12.6506 106.669 12.4233 106.432 12.1335 106.259C11.8438 106.085 11.5128 105.997 11.1406 105.994C10.8736 105.991 10.5994 106.033 10.3182 106.118C10.0369 106.2 9.8054 106.307 9.62358 106.438L8.63494 106.318L9.16335 102.023H13.6974V102.96H10.0497L9.7429 105.534H9.79403C9.97301 105.392 10.1974 105.274 10.4673 105.18C10.7372 105.087 11.0185 105.04 11.3111 105.04C11.8452 105.04 12.321 105.168 12.7386 105.423C13.1591 105.676 13.4886 106.023 13.7273 106.463C13.9688 106.903 14.0895 107.406 14.0895 107.972C14.0895 108.528 13.9645 109.026 13.7145 109.463C13.4673 109.898 13.1264 110.241 12.6918 110.494C12.2571 110.744 11.7628 110.869 11.2088 110.869Z" fill="#667085"/>
<path d="M4.97159 143.773V152.5H3.91477V144.881H3.86364L1.73295 146.295V145.222L3.91477 143.773H4.97159ZM10.3281 152.619C9.68608 152.619 9.1392 152.445 8.6875 152.095C8.2358 151.743 7.89063 151.233 7.65199 150.565C7.41335 149.895 7.29403 149.085 7.29403 148.136C7.29403 147.193 7.41335 146.388 7.65199 145.72C7.89347 145.05 8.24006 144.538 8.69176 144.186C9.14631 143.831 9.69176 143.653 10.3281 143.653C10.9645 143.653 11.5085 143.831 11.9602 144.186C12.4148 144.538 12.7614 145.05 13 145.72C13.2415 146.388 13.3622 147.193 13.3622 148.136C13.3622 149.085 13.2429 149.895 13.0043 150.565C12.7656 151.233 12.4205 151.743 11.9688 152.095C11.517 152.445 10.9702 152.619 10.3281 152.619ZM10.3281 151.682C10.9645 151.682 11.4588 151.375 11.8111 150.761C12.1634 150.148 12.3395 149.273 12.3395 148.136C12.3395 147.381 12.2585 146.737 12.0966 146.206C11.9375 145.675 11.7074 145.27 11.4062 144.991C11.108 144.713 10.7486 144.574 10.3281 144.574C9.69744 144.574 9.20455 144.885 8.84943 145.507C8.49432 146.126 8.31676 147.003 8.31676 148.136C8.31676 148.892 8.39631 149.534 8.5554 150.062C8.71449 150.591 8.94318 150.993 9.24148 151.268C9.54261 151.544 9.90483 151.682 10.3281 151.682Z" fill="#667085"/>
<path d="M10.6307 194.369C10.1307 194.369 9.6804 194.27 9.27983 194.071C8.87926 193.872 8.55824 193.599 8.31676 193.253C8.07528 192.906 7.94318 192.511 7.92045 192.068H8.94318C8.98295 192.463 9.16193 192.79 9.48011 193.048C9.80114 193.304 10.1847 193.432 10.6307 193.432C10.9886 193.432 11.3068 193.348 11.5852 193.18C11.8665 193.013 12.0866 192.783 12.2457 192.49C12.4077 192.195 12.4886 191.861 12.4886 191.489C12.4886 191.108 12.4048 190.768 12.2372 190.47C12.0724 190.169 11.8452 189.932 11.5554 189.759C11.2656 189.585 10.9347 189.497 10.5625 189.494C10.2955 189.491 10.0213 189.533 9.74006 189.618C9.45881 189.7 9.22727 189.807 9.04545 189.938L8.05682 189.818L8.58523 185.523H13.1193V186.46H9.47159L9.16477 189.034H9.21591C9.39489 188.892 9.61932 188.774 9.8892 188.68C10.1591 188.587 10.4403 188.54 10.733 188.54C11.267 188.54 11.7429 188.668 12.1605 188.923C12.581 189.176 12.9105 189.523 13.1491 189.963C13.3906 190.403 13.5114 190.906 13.5114 191.472C13.5114 192.028 13.3864 192.526 13.1364 192.963C12.8892 193.398 12.5483 193.741 12.1136 193.994C11.679 194.244 11.1847 194.369 10.6307 194.369Z" fill="#667085"/>
<path d="M10.75 236.119C10.108 236.119 9.56108 235.945 9.10938 235.595C8.65767 235.243 8.3125 234.733 8.07386 234.065C7.83523 233.395 7.71591 232.585 7.71591 231.636C7.71591 230.693 7.83523 229.888 8.07386 229.22C8.31534 228.55 8.66193 228.038 9.11364 227.686C9.56818 227.331 10.1136 227.153 10.75 227.153C11.3864 227.153 11.9304 227.331 12.3821 227.686C12.8366 228.038 13.1832 228.55 13.4219 229.22C13.6634 229.888 13.7841 230.693 13.7841 231.636C13.7841 232.585 13.6648 233.395 13.4261 234.065C13.1875 234.733 12.8423 235.243 12.3906 235.595C11.9389 235.945 11.392 236.119 10.75 236.119ZM10.75 235.182C11.3864 235.182 11.8807 234.875 12.233 234.261C12.5852 233.648 12.7614 232.773 12.7614 231.636C12.7614 230.881 12.6804 230.237 12.5185 229.706C12.3594 229.175 12.1293 228.77 11.8281 228.491C11.5298 228.213 11.1705 228.074 10.75 228.074C10.1193 228.074 9.62642 228.385 9.27131 229.007C8.91619 229.626 8.73864 230.503 8.73864 231.636C8.73864 232.392 8.81818 233.034 8.97727 233.562C9.13636 234.091 9.36506 234.493 9.66335 234.768C9.96449 235.044 10.3267 235.182 10.75 235.182Z" fill="#667085"/>
<path d="M31 65L541 65" stroke="#EAECF0" stroke-linecap="round" stroke-dasharray="5 4"/>
<path d="M31 106.75L541 106.75" stroke="#EAECF0" stroke-linecap="round" stroke-dasharray="5 4"/>
<path d="M31 148.5L541 148.5" stroke="#EAECF0" stroke-linecap="round" stroke-dasharray="5 4"/>
<path d="M31 190.25L541 190.25" stroke="#EAECF0" stroke-linecap="round" stroke-dasharray="5 4"/>
<path d="M31 232L541 232" stroke="#EAECF0" stroke-linecap="round" stroke-dasharray="5 4"/>
<path d="M45 197C45 192.582 48.5817 189 53 189H79C83.4183 189 87 192.582 87 197V232H45V197Z" fill="#C4C8F5"/>
<path d="M91 173C91 168.582 94.5817 165 99 165H125C129.418 165 133 168.582 133 173V232H91V173Z" fill="#1C2DD8"/>
<path d="M147 174C147 169.582 150.582 166 155 166H181C185.418 166 189 169.582 189 174V232H147V174Z" fill="#C4C8F5"/>
<path d="M193 146C193 141.582 196.582 138 201 138H227C231.418 138 235 141.582 235 146V232H193V146Z" fill="#1C2DD8"/>
<path d="M249 99C249 94.5817 252.582 91 257 91H283C287.418 91 291 94.5817 291 99V232H249V99Z" fill="#C4C8F5"/>
<path d="M295 174C295 169.582 298.582 166 303 166H329C333.418 166 337 169.582 337 174V232H295V174Z" fill="#1C2DD8"/>
<path d="M351 197C351 192.582 354.582 189 359 189H385C389.418 189 393 192.582 393 197V232H351V197Z" fill="#C4C8F5"/>
<path d="M397 166C397 161.582 400.582 158 405 158H431C435.418 158 439 161.582 439 166V232H397V166Z" fill="#1C2DD8"/>
<path d="M453 119C453 114.582 456.582 111 461 111H487C491.418 111 495 114.582 495 119V232H453V119Z" fill="#C4C8F5"/>
<path d="M499 174C499 169.582 502.582 166 507 166H533C537.418 166 541 169.582 541 174V232H499V174Z" fill="#1C2DD8"/>
<path d="M65.1584 257V248.273H68.2095C68.8175 248.273 69.3189 248.378 69.7138 248.588C70.1087 248.795 70.4027 249.075 70.5959 249.428C70.7891 249.777 70.8857 250.165 70.8857 250.591C70.8857 250.966 70.8189 251.276 70.6854 251.52C70.5547 251.764 70.3814 251.957 70.1655 252.099C69.9524 252.241 69.7209 252.347 69.4709 252.415V252.5C69.7379 252.517 70.0064 252.611 70.2763 252.781C70.5462 252.952 70.772 253.196 70.9538 253.514C71.1357 253.832 71.2266 254.222 71.2266 254.682C71.2266 255.119 71.1271 255.513 70.9283 255.862C70.7294 256.212 70.4155 256.489 69.9865 256.693C69.5575 256.898 68.9993 257 68.3118 257H65.1584ZM66.2152 256.062H68.3118C69.0021 256.062 69.4922 255.929 69.782 255.662C70.0746 255.392 70.2209 255.065 70.2209 254.682C70.2209 254.386 70.1456 254.114 69.995 253.864C69.8445 253.611 69.63 253.409 69.3516 253.259C69.0732 253.105 68.7436 253.028 68.3629 253.028H66.2152V256.062ZM66.2152 252.108H68.1754C68.4936 252.108 68.7805 252.045 69.0362 251.92C69.2947 251.795 69.4993 251.619 69.6499 251.392C69.8033 251.165 69.88 250.898 69.88 250.591C69.88 250.207 69.7464 249.882 69.4794 249.615C69.2124 249.345 68.7891 249.21 68.2095 249.21H66.2152V252.108ZM72.8267 257V250.455H73.7983V251.443H73.8665C73.9858 251.119 74.2017 250.857 74.5142 250.655C74.8267 250.453 75.179 250.352 75.571 250.352C75.6449 250.352 75.7372 250.354 75.848 250.357C75.9588 250.359 76.0426 250.364 76.0994 250.369V251.392C76.0653 251.384 75.9872 251.371 75.8651 251.354C75.7457 251.334 75.6193 251.324 75.4858 251.324C75.1676 251.324 74.8835 251.391 74.6335 251.524C74.3864 251.655 74.1903 251.837 74.0455 252.07C73.9034 252.3 73.8324 252.562 73.8324 252.858V257H72.8267ZM79.2177 257.153C78.8029 257.153 78.4265 257.075 78.0884 256.919C77.7504 256.76 77.4819 256.531 77.283 256.233C77.0842 255.932 76.9847 255.568 76.9847 255.142C76.9847 254.767 77.0586 254.463 77.2063 254.23C77.354 253.994 77.5515 253.81 77.7987 253.676C78.0458 253.543 78.3185 253.443 78.6168 253.378C78.918 253.31 79.2205 253.256 79.5245 253.216C79.9222 253.165 80.2447 253.126 80.4918 253.101C80.7418 253.072 80.9237 253.026 81.0373 252.96C81.1538 252.895 81.212 252.781 81.212 252.619V252.585C81.212 252.165 81.0969 251.838 80.8668 251.605C80.6396 251.372 80.2944 251.256 79.8313 251.256C79.3512 251.256 78.9748 251.361 78.7021 251.571C78.4293 251.781 78.2376 252.006 78.1268 252.244L77.1722 251.903C77.3427 251.506 77.57 251.196 77.854 250.974C78.141 250.75 78.4535 250.594 78.7915 250.506C79.1325 250.415 79.4677 250.369 79.7972 250.369C80.0075 250.369 80.2489 250.395 80.5217 250.446C80.7972 250.494 81.0629 250.595 81.3185 250.749C81.5771 250.902 81.7915 251.134 81.962 251.443C82.1325 251.753 82.2177 252.168 82.2177 252.688V257H81.212V256.114H81.1609C81.0927 256.256 80.979 256.408 80.82 256.57C80.6609 256.732 80.4492 256.869 80.185 256.983C79.9208 257.097 79.5984 257.153 79.2177 257.153ZM79.3711 256.25C79.7688 256.25 80.104 256.172 80.3768 256.016C80.6523 255.859 80.8597 255.658 80.9989 255.411C81.141 255.163 81.212 254.903 81.212 254.631V253.71C81.1694 253.761 81.0756 253.808 80.9308 253.851C80.7887 253.891 80.6239 253.926 80.4364 253.957C80.2518 253.986 80.0714 254.011 79.8952 254.034C79.7219 254.054 79.5813 254.071 79.4734 254.085C79.212 254.119 78.9677 254.175 78.7404 254.251C78.516 254.325 78.3342 254.437 78.195 254.588C78.0586 254.736 77.9904 254.937 77.9904 255.193C77.9904 255.543 78.1197 255.807 78.3782 255.986C78.6396 256.162 78.9705 256.25 79.3711 256.25ZM85.0589 253.062V257H84.0533V250.455H85.0249V251.477H85.1101C85.2635 251.145 85.4964 250.878 85.8089 250.676C86.1214 250.472 86.5249 250.369 87.0192 250.369C87.4624 250.369 87.8501 250.46 88.1825 250.642C88.5149 250.821 88.7734 251.094 88.9581 251.46C89.1428 251.824 89.2351 252.284 89.2351 252.841V257H88.2294V252.909C88.2294 252.395 88.0959 251.994 87.8288 251.707C87.5618 251.418 87.1953 251.273 86.7294 251.273C86.4084 251.273 86.1214 251.342 85.8686 251.482C85.6186 251.621 85.4212 251.824 85.2763 252.091C85.1314 252.358 85.0589 252.682 85.0589 253.062ZM93.7319 257.136C93.1183 257.136 92.5898 256.991 92.1467 256.702C91.7035 256.412 91.3626 256.013 91.1239 255.504C90.8853 254.996 90.766 254.415 90.766 253.761C90.766 253.097 90.8881 252.51 91.1325 252.001C91.3796 251.49 91.7234 251.091 92.1637 250.804C92.6069 250.514 93.1239 250.369 93.7148 250.369C94.1751 250.369 94.5898 250.455 94.9592 250.625C95.3285 250.795 95.631 251.034 95.8668 251.341C96.1026 251.648 96.2489 252.006 96.3058 252.415H95.3001C95.2234 252.116 95.0529 251.852 94.7887 251.622C94.5273 251.389 94.1751 251.273 93.7319 251.273C93.3398 251.273 92.9961 251.375 92.7006 251.58C92.408 251.781 92.1793 252.067 92.0146 252.436C91.8526 252.803 91.7717 253.233 91.7717 253.727C91.7717 254.233 91.8512 254.673 92.0103 255.048C92.1722 255.423 92.3995 255.714 92.6921 255.922C92.9876 256.129 93.3342 256.233 93.7319 256.233C93.9933 256.233 94.2305 256.188 94.4435 256.097C94.6566 256.006 94.837 255.875 94.9847 255.705C95.1325 255.534 95.2376 255.33 95.3001 255.091H96.3058C96.2489 255.477 96.1083 255.825 95.8839 256.135C95.6623 256.442 95.3683 256.686 95.0018 256.868C94.6381 257.047 94.2148 257.136 93.7319 257.136ZM98.7816 253.062V257H97.7759V248.273H98.7816V251.477H98.8668C99.0202 251.139 99.2504 250.871 99.5572 250.672C99.8668 250.47 100.279 250.369 100.793 250.369C101.239 250.369 101.63 250.459 101.965 250.638C102.3 250.814 102.56 251.085 102.745 251.452C102.932 251.815 103.026 252.278 103.026 252.841V257H102.02V252.909C102.02 252.389 101.885 251.987 101.615 251.703C101.348 251.416 100.978 251.273 100.503 251.273C100.174 251.273 99.8782 251.342 99.6168 251.482C99.3583 251.621 99.1538 251.824 99.0032 252.091C98.8555 252.358 98.7816 252.682 98.7816 253.062ZM111.292 248.273V257H110.235V249.381H110.184L108.053 250.795V249.722L110.235 248.273H111.292Z" fill="#667085"/>
<path d="M165.315 257V248.273H168.366C168.974 248.273 169.475 248.378 169.87 248.588C170.265 248.795 170.559 249.075 170.752 249.428C170.945 249.777 171.042 250.165 171.042 250.591C171.042 250.966 170.975 251.276 170.842 251.52C170.711 251.764 170.538 251.957 170.322 252.099C170.109 252.241 169.877 252.347 169.627 252.415V252.5C169.894 252.517 170.163 252.611 170.433 252.781C170.702 252.952 170.928 253.196 171.11 253.514C171.292 253.832 171.383 254.222 171.383 254.682C171.383 255.119 171.283 255.513 171.085 255.862C170.886 256.212 170.572 256.489 170.143 256.693C169.714 256.898 169.156 257 168.468 257H165.315ZM166.371 256.062H168.468C169.158 256.062 169.648 255.929 169.938 255.662C170.231 255.392 170.377 255.065 170.377 254.682C170.377 254.386 170.302 254.114 170.151 253.864C170.001 253.611 169.786 253.409 169.508 253.259C169.229 253.105 168.9 253.028 168.519 253.028H166.371V256.062ZM166.371 252.108H168.332C168.65 252.108 168.937 252.045 169.192 251.92C169.451 251.795 169.656 251.619 169.806 251.392C169.96 251.165 170.036 250.898 170.036 250.591C170.036 250.207 169.903 249.882 169.636 249.615C169.369 249.345 168.945 249.21 168.366 249.21H166.371V252.108ZM172.983 257V250.455H173.955V251.443H174.023C174.142 251.119 174.358 250.857 174.67 250.655C174.983 250.453 175.335 250.352 175.727 250.352C175.801 250.352 175.893 250.354 176.004 250.357C176.115 250.359 176.199 250.364 176.256 250.369V251.392C176.222 251.384 176.143 251.371 176.021 251.354C175.902 251.334 175.776 251.324 175.642 251.324C175.324 251.324 175.04 251.391 174.79 251.524C174.543 251.655 174.347 251.837 174.202 252.07C174.06 252.3 173.989 252.562 173.989 252.858V257H172.983ZM179.374 257.153C178.959 257.153 178.583 257.075 178.245 256.919C177.907 256.76 177.638 256.531 177.439 256.233C177.24 255.932 177.141 255.568 177.141 255.142C177.141 254.767 177.215 254.463 177.363 254.23C177.51 253.994 177.708 253.81 177.955 253.676C178.202 253.543 178.475 253.443 178.773 253.378C179.074 253.31 179.377 253.256 179.681 253.216C180.078 253.165 180.401 253.126 180.648 253.101C180.898 253.072 181.08 253.026 181.194 252.96C181.31 252.895 181.368 252.781 181.368 252.619V252.585C181.368 252.165 181.253 251.838 181.023 251.605C180.796 251.372 180.451 251.256 179.988 251.256C179.507 251.256 179.131 251.361 178.858 251.571C178.586 251.781 178.394 252.006 178.283 252.244L177.328 251.903C177.499 251.506 177.726 251.196 178.01 250.974C178.297 250.75 178.61 250.594 178.948 250.506C179.289 250.415 179.624 250.369 179.953 250.369C180.164 250.369 180.405 250.395 180.678 250.446C180.953 250.494 181.219 250.595 181.475 250.749C181.733 250.902 181.948 251.134 182.118 251.443C182.289 251.753 182.374 252.168 182.374 252.688V257H181.368V256.114H181.317C181.249 256.256 181.135 256.408 180.976 256.57C180.817 256.732 180.605 256.869 180.341 256.983C180.077 257.097 179.755 257.153 179.374 257.153ZM179.527 256.25C179.925 256.25 180.26 256.172 180.533 256.016C180.809 255.859 181.016 255.658 181.155 255.411C181.297 255.163 181.368 254.903 181.368 254.631V253.71C181.326 253.761 181.232 253.808 181.087 253.851C180.945 253.891 180.78 253.926 180.593 253.957C180.408 253.986 180.228 254.011 180.051 254.034C179.878 254.054 179.738 254.071 179.63 254.085C179.368 254.119 179.124 254.175 178.897 254.251C178.672 254.325 178.49 254.437 178.351 254.588C178.215 254.736 178.147 254.937 178.147 255.193C178.147 255.543 178.276 255.807 178.534 255.986C178.796 256.162 179.127 256.25 179.527 256.25ZM185.215 253.062V257H184.21V250.455H185.181V251.477H185.266C185.42 251.145 185.653 250.878 185.965 250.676C186.278 250.472 186.681 250.369 187.175 250.369C187.619 250.369 188.006 250.46 188.339 250.642C188.671 250.821 188.93 251.094 189.114 251.46C189.299 251.824 189.391 252.284 189.391 252.841V257H188.386V252.909C188.386 252.395 188.252 251.994 187.985 251.707C187.718 251.418 187.352 251.273 186.886 251.273C186.565 251.273 186.278 251.342 186.025 251.482C185.775 251.621 185.577 251.824 185.433 252.091C185.288 252.358 185.215 252.682 185.215 253.062ZM193.888 257.136C193.275 257.136 192.746 256.991 192.303 256.702C191.86 256.412 191.519 256.013 191.28 255.504C191.042 254.996 190.922 254.415 190.922 253.761C190.922 253.097 191.044 252.51 191.289 252.001C191.536 251.49 191.88 251.091 192.32 250.804C192.763 250.514 193.28 250.369 193.871 250.369C194.331 250.369 194.746 250.455 195.115 250.625C195.485 250.795 195.787 251.034 196.023 251.341C196.259 251.648 196.405 252.006 196.462 252.415H195.456C195.38 252.116 195.209 251.852 194.945 251.622C194.684 251.389 194.331 251.273 193.888 251.273C193.496 251.273 193.152 251.375 192.857 251.58C192.564 251.781 192.336 252.067 192.171 252.436C192.009 252.803 191.928 253.233 191.928 253.727C191.928 254.233 192.007 254.673 192.167 255.048C192.328 255.423 192.556 255.714 192.848 255.922C193.144 256.129 193.49 256.233 193.888 256.233C194.15 256.233 194.387 256.188 194.6 256.097C194.813 256.006 194.993 255.875 195.141 255.705C195.289 255.534 195.394 255.33 195.456 255.091H196.462C196.405 255.477 196.265 255.825 196.04 256.135C195.819 256.442 195.525 256.686 195.158 256.868C194.794 257.047 194.371 257.136 193.888 257.136ZM198.938 253.062V257H197.932V248.273H198.938V251.477H199.023C199.176 251.139 199.407 250.871 199.713 250.672C200.023 250.47 200.435 250.369 200.949 250.369C201.395 250.369 201.786 250.459 202.121 250.638C202.456 250.814 202.716 251.085 202.901 251.452C203.088 251.815 203.182 252.278 203.182 252.841V257H202.176V252.909C202.176 252.389 202.042 251.987 201.772 251.703C201.505 251.416 201.134 251.273 200.659 251.273C200.33 251.273 200.034 251.342 199.773 251.482C199.515 251.621 199.31 251.824 199.159 252.091C199.012 252.358 198.938 252.682 198.938 253.062ZM208.38 257V256.233L211.261 253.08C211.599 252.71 211.877 252.389 212.096 252.116C212.315 251.841 212.477 251.582 212.582 251.341C212.69 251.097 212.744 250.841 212.744 250.574C212.744 250.267 212.67 250.001 212.522 249.777C212.377 249.553 212.178 249.379 211.925 249.257C211.673 249.135 211.388 249.074 211.073 249.074C210.738 249.074 210.445 249.143 210.195 249.283C209.948 249.419 209.756 249.611 209.62 249.858C209.487 250.105 209.42 250.395 209.42 250.727H208.414C208.414 250.216 208.532 249.767 208.768 249.381C209.004 248.994 209.325 248.693 209.731 248.477C210.14 248.261 210.599 248.153 211.107 248.153C211.619 248.153 212.072 248.261 212.467 248.477C212.862 248.693 213.171 248.984 213.396 249.351C213.62 249.717 213.732 250.125 213.732 250.574C213.732 250.895 213.674 251.209 213.558 251.516C213.444 251.82 213.245 252.159 212.961 252.534C212.68 252.906 212.289 253.361 211.789 253.898L209.829 255.994V256.062H213.886V257H208.38Z" fill="#667085"/>
<path d="M267.127 257V248.273H270.178C270.786 248.273 271.288 248.378 271.683 248.588C272.077 248.795 272.371 249.075 272.565 249.428C272.758 249.777 272.854 250.165 272.854 250.591C272.854 250.966 272.788 251.276 272.654 251.52C272.523 251.764 272.35 251.957 272.134 252.099C271.921 252.241 271.69 252.347 271.44 252.415V252.5C271.707 252.517 271.975 252.611 272.245 252.781C272.515 252.952 272.741 253.196 272.923 253.514C273.104 253.832 273.195 254.222 273.195 254.682C273.195 255.119 273.096 255.513 272.897 255.862C272.698 256.212 272.384 256.489 271.955 256.693C271.526 256.898 270.968 257 270.281 257H267.127ZM268.184 256.062H270.281C270.971 256.062 271.461 255.929 271.751 255.662C272.043 255.392 272.19 255.065 272.19 254.682C272.19 254.386 272.114 254.114 271.964 253.864C271.813 253.611 271.599 253.409 271.32 253.259C271.042 253.105 270.712 253.028 270.332 253.028H268.184V256.062ZM268.184 252.108H270.144C270.462 252.108 270.749 252.045 271.005 251.92C271.263 251.795 271.468 251.619 271.619 251.392C271.772 251.165 271.849 250.898 271.849 250.591C271.849 250.207 271.715 249.882 271.448 249.615C271.181 249.345 270.758 249.21 270.178 249.21H268.184V252.108ZM274.795 257V250.455H275.767V251.443H275.835C275.955 251.119 276.17 250.857 276.483 250.655C276.795 250.453 277.148 250.352 277.54 250.352C277.614 250.352 277.706 250.354 277.817 250.357C277.928 250.359 278.011 250.364 278.068 250.369V251.392C278.034 251.384 277.956 251.371 277.834 251.354C277.714 251.334 277.588 251.324 277.455 251.324C277.136 251.324 276.852 251.391 276.602 251.524C276.355 251.655 276.159 251.837 276.014 252.07C275.872 252.3 275.801 252.562 275.801 252.858V257H274.795ZM281.186 257.153C280.772 257.153 280.395 257.075 280.057 256.919C279.719 256.76 279.451 256.531 279.252 256.233C279.053 255.932 278.953 255.568 278.953 255.142C278.953 254.767 279.027 254.463 279.175 254.23C279.323 253.994 279.52 253.81 279.767 253.676C280.015 253.543 280.287 253.443 280.586 253.378C280.887 253.31 281.189 253.256 281.493 253.216C281.891 253.165 282.213 253.126 282.461 253.101C282.711 253.072 282.892 253.026 283.006 252.96C283.123 252.895 283.181 252.781 283.181 252.619V252.585C283.181 252.165 283.066 251.838 282.836 251.605C282.608 251.372 282.263 251.256 281.8 251.256C281.32 251.256 280.944 251.361 280.671 251.571C280.398 251.781 280.206 252.006 280.096 252.244L279.141 251.903C279.311 251.506 279.539 251.196 279.823 250.974C280.11 250.75 280.422 250.594 280.76 250.506C281.101 250.415 281.436 250.369 281.766 250.369C281.976 250.369 282.218 250.395 282.49 250.446C282.766 250.494 283.032 250.595 283.287 250.749C283.546 250.902 283.76 251.134 283.931 251.443C284.101 251.753 284.186 252.168 284.186 252.688V257H283.181V256.114H283.13C283.061 256.256 282.948 256.408 282.789 256.57C282.63 256.732 282.418 256.869 282.154 256.983C281.89 257.097 281.567 257.153 281.186 257.153ZM281.34 256.25C281.738 256.25 282.073 256.172 282.346 256.016C282.621 255.859 282.828 255.658 282.968 255.411C283.11 255.163 283.181 254.903 283.181 254.631V253.71C283.138 253.761 283.044 253.808 282.9 253.851C282.757 253.891 282.593 253.926 282.405 253.957C282.221 253.986 282.04 254.011 281.864 254.034C281.691 254.054 281.55 254.071 281.442 254.085C281.181 254.119 280.936 254.175 280.709 254.251C280.485 254.325 280.303 254.437 280.164 254.588C280.027 254.736 279.959 254.937 279.959 255.193C279.959 255.543 280.088 255.807 280.347 255.986C280.608 256.162 280.939 256.25 281.34 256.25ZM287.028 253.062V257H286.022V250.455H286.994V251.477H287.079C287.232 251.145 287.465 250.878 287.778 250.676C288.09 250.472 288.494 250.369 288.988 250.369C289.431 250.369 289.819 250.46 290.151 250.642C290.484 250.821 290.742 251.094 290.927 251.46C291.112 251.824 291.204 252.284 291.204 252.841V257H290.198V252.909C290.198 252.395 290.065 251.994 289.798 251.707C289.531 251.418 289.164 251.273 288.698 251.273C288.377 251.273 288.09 251.342 287.837 251.482C287.587 251.621 287.39 251.824 287.245 252.091C287.1 252.358 287.028 252.682 287.028 253.062ZM295.701 257.136C295.087 257.136 294.559 256.991 294.115 256.702C293.672 256.412 293.331 256.013 293.093 255.504C292.854 254.996 292.735 254.415 292.735 253.761C292.735 253.097 292.857 252.51 293.101 252.001C293.348 251.49 293.692 251.091 294.132 250.804C294.576 250.514 295.093 250.369 295.684 250.369C296.144 250.369 296.559 250.455 296.928 250.625C297.297 250.795 297.6 251.034 297.836 251.341C298.071 251.648 298.218 252.006 298.275 252.415H297.269C297.192 252.116 297.022 251.852 296.757 251.622C296.496 251.389 296.144 251.273 295.701 251.273C295.309 251.273 294.965 251.375 294.669 251.58C294.377 251.781 294.148 252.067 293.983 252.436C293.821 252.803 293.74 253.233 293.74 253.727C293.74 254.233 293.82 254.673 293.979 255.048C294.141 255.423 294.368 255.714 294.661 255.922C294.956 256.129 295.303 256.233 295.701 256.233C295.962 256.233 296.199 256.188 296.412 256.097C296.625 256.006 296.806 255.875 296.953 255.705C297.101 255.534 297.206 255.33 297.269 255.091H298.275C298.218 255.477 298.077 255.825 297.853 256.135C297.631 256.442 297.337 256.686 296.971 256.868C296.607 257.047 296.184 257.136 295.701 257.136ZM300.75 253.062V257H299.745V248.273H300.75V251.477H300.836C300.989 251.139 301.219 250.871 301.526 250.672C301.836 250.47 302.248 250.369 302.762 250.369C303.208 250.369 303.598 250.459 303.934 250.638C304.269 250.814 304.529 251.085 304.713 251.452C304.901 251.815 304.995 252.278 304.995 252.841V257H303.989V252.909C303.989 252.389 303.854 251.987 303.584 251.703C303.317 251.416 302.946 251.273 302.472 251.273C302.142 251.273 301.847 251.342 301.586 251.482C301.327 251.621 301.123 251.824 300.972 252.091C300.824 252.358 300.75 252.682 300.75 253.062ZM313.141 257.119C312.579 257.119 312.077 257.023 311.637 256.83C311.2 256.636 310.852 256.368 310.593 256.024C310.337 255.678 310.198 255.276 310.175 254.818H311.249C311.272 255.099 311.369 255.342 311.539 255.547C311.71 255.749 311.933 255.905 312.208 256.016C312.484 256.126 312.789 256.182 313.124 256.182C313.499 256.182 313.832 256.116 314.121 255.986C314.411 255.855 314.638 255.673 314.803 255.44C314.968 255.207 315.05 254.938 315.05 254.631C315.05 254.31 314.971 254.027 314.812 253.783C314.653 253.536 314.42 253.342 314.113 253.203C313.806 253.064 313.431 252.994 312.988 252.994H312.289V252.057H312.988C313.335 252.057 313.638 251.994 313.9 251.869C314.164 251.744 314.37 251.568 314.518 251.341C314.668 251.114 314.744 250.847 314.744 250.54C314.744 250.244 314.678 249.987 314.548 249.768C314.417 249.55 314.232 249.379 313.994 249.257C313.758 249.135 313.479 249.074 313.158 249.074C312.857 249.074 312.573 249.129 312.306 249.24C312.042 249.348 311.826 249.506 311.658 249.713C311.491 249.918 311.4 250.165 311.386 250.455H310.363C310.38 249.997 310.518 249.597 310.776 249.253C311.035 248.906 311.373 248.636 311.79 248.443C312.211 248.25 312.673 248.153 313.175 248.153C313.715 248.153 314.178 248.263 314.565 248.482C314.951 248.697 315.248 248.983 315.455 249.338C315.663 249.693 315.766 250.077 315.766 250.489C315.766 250.98 315.637 251.399 315.379 251.746C315.123 252.092 314.775 252.332 314.335 252.466V252.534C314.886 252.625 315.316 252.859 315.626 253.237C315.935 253.612 316.09 254.077 316.09 254.631C316.09 255.105 315.961 255.531 315.702 255.909C315.447 256.284 315.097 256.58 314.654 256.795C314.211 257.011 313.707 257.119 313.141 257.119Z" fill="#667085"/>
<path d="M369.098 257V248.273H372.149C372.757 248.273 373.258 248.378 373.653 248.588C374.048 248.795 374.342 249.075 374.535 249.428C374.729 249.777 374.825 250.165 374.825 250.591C374.825 250.966 374.758 251.276 374.625 251.52C374.494 251.764 374.321 251.957 374.105 252.099C373.892 252.241 373.66 252.347 373.41 252.415V252.5C373.677 252.517 373.946 252.611 374.216 252.781C374.486 252.952 374.711 253.196 374.893 253.514C375.075 253.832 375.166 254.222 375.166 254.682C375.166 255.119 375.067 255.513 374.868 255.862C374.669 256.212 374.355 256.489 373.926 256.693C373.497 256.898 372.939 257 372.251 257H369.098ZM370.155 256.062H372.251C372.942 256.062 373.432 255.929 373.721 255.662C374.014 255.392 374.16 255.065 374.16 254.682C374.16 254.386 374.085 254.114 373.934 253.864C373.784 253.611 373.569 253.409 373.291 253.259C373.013 253.105 372.683 253.028 372.302 253.028H370.155V256.062ZM370.155 252.108H372.115C372.433 252.108 372.72 252.045 372.976 251.92C373.234 251.795 373.439 251.619 373.589 251.392C373.743 251.165 373.819 250.898 373.819 250.591C373.819 250.207 373.686 249.882 373.419 249.615C373.152 249.345 372.729 249.21 372.149 249.21H370.155V252.108ZM376.766 257V250.455H377.738V251.443H377.806C377.925 251.119 378.141 250.857 378.454 250.655C378.766 250.453 379.118 250.352 379.51 250.352C379.584 250.352 379.677 250.354 379.787 250.357C379.898 250.359 379.982 250.364 380.039 250.369V251.392C380.005 251.384 379.927 251.371 379.805 251.354C379.685 251.334 379.559 251.324 379.425 251.324C379.107 251.324 378.823 251.391 378.573 251.524C378.326 251.655 378.13 251.837 377.985 252.07C377.843 252.3 377.772 252.562 377.772 252.858V257H376.766ZM383.157 257.153C382.742 257.153 382.366 257.075 382.028 256.919C381.69 256.76 381.421 256.531 381.222 256.233C381.024 255.932 380.924 255.568 380.924 255.142C380.924 254.767 380.998 254.463 381.146 254.23C381.294 253.994 381.491 253.81 381.738 253.676C381.985 253.543 382.258 253.443 382.556 253.378C382.857 253.31 383.16 253.256 383.464 253.216C383.862 253.165 384.184 253.126 384.431 253.101C384.681 253.072 384.863 253.026 384.977 252.96C385.093 252.895 385.151 252.781 385.151 252.619V252.585C385.151 252.165 385.036 251.838 384.806 251.605C384.579 251.372 384.234 251.256 383.771 251.256C383.291 251.256 382.914 251.361 382.642 251.571C382.369 251.781 382.177 252.006 382.066 252.244L381.112 251.903C381.282 251.506 381.509 251.196 381.794 250.974C382.08 250.75 382.393 250.594 382.731 250.506C383.072 250.415 383.407 250.369 383.737 250.369C383.947 250.369 384.188 250.395 384.461 250.446C384.737 250.494 385.002 250.595 385.258 250.749C385.517 250.902 385.731 251.134 385.901 251.443C386.072 251.753 386.157 252.168 386.157 252.688V257H385.151V256.114H385.1C385.032 256.256 384.919 256.408 384.759 256.57C384.6 256.732 384.389 256.869 384.124 256.983C383.86 257.097 383.538 257.153 383.157 257.153ZM383.311 256.25C383.708 256.25 384.044 256.172 384.316 256.016C384.592 255.859 384.799 255.658 384.938 255.411C385.08 255.163 385.151 254.903 385.151 254.631V253.71C385.109 253.761 385.015 253.808 384.87 253.851C384.728 253.891 384.563 253.926 384.376 253.957C384.191 253.986 384.011 254.011 383.835 254.034C383.661 254.054 383.521 254.071 383.413 254.085C383.151 254.119 382.907 254.175 382.68 254.251C382.455 254.325 382.274 254.437 382.134 254.588C381.998 254.736 381.93 254.937 381.93 255.193C381.93 255.543 382.059 255.807 382.318 255.986C382.579 256.162 382.91 256.25 383.311 256.25ZM388.998 253.062V257H387.993V250.455H388.964V251.477H389.05C389.203 251.145 389.436 250.878 389.748 250.676C390.061 250.472 390.464 250.369 390.959 250.369C391.402 250.369 391.79 250.46 392.122 250.642C392.454 250.821 392.713 251.094 392.898 251.46C393.082 251.824 393.175 252.284 393.175 252.841V257H392.169V252.909C392.169 252.395 392.035 251.994 391.768 251.707C391.501 251.418 391.135 251.273 390.669 251.273C390.348 251.273 390.061 251.342 389.808 251.482C389.558 251.621 389.361 251.824 389.216 252.091C389.071 252.358 388.998 252.682 388.998 253.062ZM397.671 257.136C397.058 257.136 396.529 256.991 396.086 256.702C395.643 256.412 395.302 256.013 395.063 255.504C394.825 254.996 394.705 254.415 394.705 253.761C394.705 253.097 394.828 252.51 395.072 252.001C395.319 251.49 395.663 251.091 396.103 250.804C396.546 250.514 397.063 250.369 397.654 250.369C398.115 250.369 398.529 250.455 398.899 250.625C399.268 250.795 399.57 251.034 399.806 251.341C400.042 251.648 400.188 252.006 400.245 252.415H399.24C399.163 252.116 398.992 251.852 398.728 251.622C398.467 251.389 398.115 251.273 397.671 251.273C397.279 251.273 396.936 251.375 396.64 251.58C396.347 251.781 396.119 252.067 395.954 252.436C395.792 252.803 395.711 253.233 395.711 253.727C395.711 254.233 395.791 254.673 395.95 255.048C396.112 255.423 396.339 255.714 396.632 255.922C396.927 256.129 397.274 256.233 397.671 256.233C397.933 256.233 398.17 256.188 398.383 256.097C398.596 256.006 398.776 255.875 398.924 255.705C399.072 255.534 399.177 255.33 399.24 255.091H400.245C400.188 255.477 400.048 255.825 399.823 256.135C399.602 256.442 399.308 256.686 398.941 256.868C398.578 257.047 398.154 257.136 397.671 257.136ZM402.721 253.062V257H401.715V248.273H402.721V251.477H402.806C402.96 251.139 403.19 250.871 403.497 250.672C403.806 250.47 404.218 250.369 404.732 250.369C405.178 250.369 405.569 250.459 405.904 250.638C406.24 250.814 406.499 251.085 406.684 251.452C406.872 251.815 406.965 252.278 406.965 252.841V257H405.96V252.909C405.96 252.389 405.825 251.987 405.555 251.703C405.288 251.416 404.917 251.273 404.443 251.273C404.113 251.273 403.818 251.342 403.556 251.482C403.298 251.621 403.093 251.824 402.943 252.091C402.795 252.358 402.721 252.682 402.721 253.062ZM411.959 255.21V254.341L415.794 248.273H416.425V249.619H415.998L413.101 254.205V254.273H418.265V255.21H411.959ZM416.067 257V254.946V254.541V248.273H417.072V257H416.067Z" fill="#667085"/>
<path d="M471.297 257V248.273H474.348C474.956 248.273 475.458 248.378 475.852 248.588C476.247 248.795 476.541 249.075 476.735 249.428C476.928 249.777 477.024 250.165 477.024 250.591C477.024 250.966 476.958 251.276 476.824 251.52C476.693 251.764 476.52 251.957 476.304 252.099C476.091 252.241 475.86 252.347 475.61 252.415V252.5C475.877 252.517 476.145 252.611 476.415 252.781C476.685 252.952 476.911 253.196 477.093 253.514C477.274 253.832 477.365 254.222 477.365 254.682C477.365 255.119 477.266 255.513 477.067 255.862C476.868 256.212 476.554 256.489 476.125 256.693C475.696 256.898 475.138 257 474.45 257H471.297ZM472.354 256.062H474.45C475.141 256.062 475.631 255.929 475.921 255.662C476.213 255.392 476.36 255.065 476.36 254.682C476.36 254.386 476.284 254.114 476.134 253.864C475.983 253.611 475.769 253.409 475.49 253.259C475.212 253.105 474.882 253.028 474.502 253.028H472.354V256.062ZM472.354 252.108H474.314C474.632 252.108 474.919 252.045 475.175 251.92C475.433 251.795 475.638 251.619 475.789 251.392C475.942 251.165 476.019 250.898 476.019 250.591C476.019 250.207 475.885 249.882 475.618 249.615C475.351 249.345 474.928 249.21 474.348 249.21H472.354V252.108ZM478.965 257V250.455H479.937V251.443H480.005C480.124 251.119 480.34 250.857 480.653 250.655C480.965 250.453 481.318 250.352 481.71 250.352C481.784 250.352 481.876 250.354 481.987 250.357C482.097 250.359 482.181 250.364 482.238 250.369V251.392C482.204 251.384 482.126 251.371 482.004 251.354C481.884 251.334 481.758 251.324 481.624 251.324C481.306 251.324 481.022 251.391 480.772 251.524C480.525 251.655 480.329 251.837 480.184 252.07C480.042 252.3 479.971 252.562 479.971 252.858V257H478.965ZM485.356 257.153C484.942 257.153 484.565 257.075 484.227 256.919C483.889 256.76 483.621 256.531 483.422 256.233C483.223 255.932 483.123 255.568 483.123 255.142C483.123 254.767 483.197 254.463 483.345 254.23C483.493 253.994 483.69 253.81 483.937 253.676C484.184 253.543 484.457 253.443 484.756 253.378C485.057 253.31 485.359 253.256 485.663 253.216C486.061 253.165 486.383 253.126 486.631 253.101C486.881 253.072 487.062 253.026 487.176 252.96C487.292 252.895 487.351 252.781 487.351 252.619V252.585C487.351 252.165 487.236 251.838 487.006 251.605C486.778 251.372 486.433 251.256 485.97 251.256C485.49 251.256 485.113 251.361 484.841 251.571C484.568 251.781 484.376 252.006 484.265 252.244L483.311 251.903C483.481 251.506 483.709 251.196 483.993 250.974C484.28 250.75 484.592 250.594 484.93 250.506C485.271 250.415 485.606 250.369 485.936 250.369C486.146 250.369 486.388 250.395 486.66 250.446C486.936 250.494 487.202 250.595 487.457 250.749C487.716 250.902 487.93 251.134 488.101 251.443C488.271 251.753 488.356 252.168 488.356 252.688V257H487.351V256.114H487.3C487.231 256.256 487.118 256.408 486.959 256.57C486.8 256.732 486.588 256.869 486.324 256.983C486.059 257.097 485.737 257.153 485.356 257.153ZM485.51 256.25C485.907 256.25 486.243 256.172 486.515 256.016C486.791 255.859 486.998 255.658 487.138 255.411C487.28 255.163 487.351 254.903 487.351 254.631V253.71C487.308 253.761 487.214 253.808 487.069 253.851C486.927 253.891 486.763 253.926 486.575 253.957C486.39 253.986 486.21 254.011 486.034 254.034C485.861 254.054 485.72 254.071 485.612 254.085C485.351 254.119 485.106 254.175 484.879 254.251C484.655 254.325 484.473 254.437 484.334 254.588C484.197 254.736 484.129 254.937 484.129 255.193C484.129 255.543 484.258 255.807 484.517 255.986C484.778 256.162 485.109 256.25 485.51 256.25ZM491.198 253.062V257H490.192V250.455H491.164V251.477H491.249C491.402 251.145 491.635 250.878 491.948 250.676C492.26 250.472 492.664 250.369 493.158 250.369C493.601 250.369 493.989 250.46 494.321 250.642C494.654 250.821 494.912 251.094 495.097 251.46C495.281 251.824 495.374 252.284 495.374 252.841V257H494.368V252.909C494.368 252.395 494.235 251.994 493.968 251.707C493.7 251.418 493.334 251.273 492.868 251.273C492.547 251.273 492.26 251.342 492.007 251.482C491.757 251.621 491.56 251.824 491.415 252.091C491.27 252.358 491.198 252.682 491.198 253.062ZM499.871 257.136C499.257 257.136 498.729 256.991 498.285 256.702C497.842 256.412 497.501 256.013 497.263 255.504C497.024 254.996 496.905 254.415 496.905 253.761C496.905 253.097 497.027 252.51 497.271 252.001C497.518 251.49 497.862 251.091 498.302 250.804C498.746 250.514 499.263 250.369 499.854 250.369C500.314 250.369 500.729 250.455 501.098 250.625C501.467 250.795 501.77 251.034 502.006 251.341C502.241 251.648 502.388 252.006 502.444 252.415H501.439C501.362 252.116 501.192 251.852 500.927 251.622C500.666 251.389 500.314 251.273 499.871 251.273C499.479 251.273 499.135 251.375 498.839 251.58C498.547 251.781 498.318 252.067 498.153 252.436C497.991 252.803 497.91 253.233 497.91 253.727C497.91 254.233 497.99 254.673 498.149 255.048C498.311 255.423 498.538 255.714 498.831 255.922C499.126 256.129 499.473 256.233 499.871 256.233C500.132 256.233 500.369 256.188 500.582 256.097C500.795 256.006 500.976 255.875 501.123 255.705C501.271 255.534 501.376 255.33 501.439 255.091H502.444C502.388 255.477 502.247 255.825 502.023 256.135C501.801 256.442 501.507 256.686 501.14 256.868C500.777 257.047 500.354 257.136 499.871 257.136ZM504.92 253.062V257H503.915V248.273H504.92V251.477H505.006C505.159 251.139 505.389 250.871 505.696 250.672C506.006 250.47 506.417 250.369 506.932 250.369C507.378 250.369 507.768 250.459 508.104 250.638C508.439 250.814 508.699 251.085 508.883 251.452C509.071 251.815 509.165 252.278 509.165 252.841V257H508.159V252.909C508.159 252.389 508.024 251.987 507.754 251.703C507.487 251.416 507.116 251.273 506.642 251.273C506.312 251.273 506.017 251.342 505.756 251.482C505.497 251.621 505.292 251.824 505.142 252.091C504.994 252.358 504.92 252.682 504.92 253.062ZM517.09 257.119C516.59 257.119 516.139 257.02 515.739 256.821C515.338 256.622 515.017 256.349 514.776 256.003C514.534 255.656 514.402 255.261 514.379 254.818H515.402C515.442 255.213 515.621 255.54 515.939 255.798C516.26 256.054 516.644 256.182 517.09 256.182C517.448 256.182 517.766 256.098 518.044 255.93C518.325 255.763 518.546 255.533 518.705 255.24C518.867 254.945 518.948 254.611 518.948 254.239C518.948 253.858 518.864 253.518 518.696 253.22C518.531 252.919 518.304 252.682 518.014 252.509C517.725 252.335 517.394 252.247 517.021 252.244C516.754 252.241 516.48 252.283 516.199 252.368C515.918 252.45 515.686 252.557 515.504 252.688L514.516 252.568L515.044 248.273H519.578V249.21H515.931L515.624 251.784H515.675C515.854 251.642 516.078 251.524 516.348 251.43C516.618 251.337 516.899 251.29 517.192 251.29C517.726 251.29 518.202 251.418 518.619 251.673C519.04 251.926 519.369 252.273 519.608 252.713C519.85 253.153 519.97 253.656 519.97 254.222C519.97 254.778 519.845 255.276 519.595 255.713C519.348 256.148 519.007 256.491 518.573 256.744C518.138 256.994 517.644 257.119 517.09 257.119Z" fill="#667085"/>
<circle cx="155" cy="295" r="5" fill="#C4C8F5"/>
<path d="M173.977 290.273V299H172.955L168.199 292.148H168.114V299H167.057V290.273H168.08L172.852 297.142H172.938V290.273H173.977ZM178.7 299.136C178.069 299.136 177.525 298.997 177.068 298.719C176.613 298.438 176.262 298.045 176.015 297.543C175.771 297.037 175.649 296.449 175.649 295.778C175.649 295.108 175.771 294.517 176.015 294.006C176.262 293.491 176.606 293.091 177.047 292.804C177.49 292.514 178.007 292.369 178.598 292.369C178.939 292.369 179.275 292.426 179.608 292.54C179.94 292.653 180.243 292.838 180.515 293.094C180.788 293.347 181.005 293.682 181.167 294.099C181.329 294.517 181.41 295.031 181.41 295.642V296.068H176.365V295.199H180.387C180.387 294.83 180.314 294.5 180.166 294.21C180.021 293.92 179.814 293.692 179.544 293.524C179.277 293.357 178.961 293.273 178.598 293.273C178.197 293.273 177.85 293.372 177.558 293.571C177.268 293.767 177.045 294.023 176.889 294.338C176.733 294.653 176.654 294.991 176.654 295.352V295.932C176.654 296.426 176.74 296.845 176.91 297.189C177.083 297.53 177.324 297.79 177.63 297.969C177.937 298.145 178.294 298.233 178.7 298.233C178.964 298.233 179.203 298.196 179.416 298.122C179.632 298.045 179.818 297.932 179.974 297.781C180.13 297.628 180.251 297.437 180.336 297.21L181.308 297.483C181.206 297.812 181.034 298.102 180.792 298.352C180.551 298.599 180.252 298.793 179.897 298.932C179.542 299.068 179.143 299.136 178.7 299.136ZM184.423 299L182.429 292.455H183.485L184.9 297.466H184.968L186.366 292.455H187.44L188.821 297.449H188.889L190.304 292.455H191.36L189.366 299H188.377L186.946 293.972H186.843L185.412 299H184.423ZM196.559 299H195.451L198.656 290.273H199.747L202.951 299H201.843L199.235 291.653H199.167L196.559 299ZM196.968 295.591H201.434V296.528H196.968V295.591ZM206.833 299.136C206.22 299.136 205.691 298.991 205.248 298.702C204.805 298.412 204.464 298.013 204.225 297.504C203.987 296.996 203.868 296.415 203.868 295.761C203.868 295.097 203.99 294.51 204.234 294.001C204.481 293.49 204.825 293.091 205.265 292.804C205.708 292.514 206.225 292.369 206.816 292.369C207.277 292.369 207.691 292.455 208.061 292.625C208.43 292.795 208.733 293.034 208.968 293.341C209.204 293.648 209.35 294.006 209.407 294.415H208.402C208.325 294.116 208.154 293.852 207.89 293.622C207.629 293.389 207.277 293.273 206.833 293.273C206.441 293.273 206.098 293.375 205.802 293.58C205.51 293.781 205.281 294.067 205.116 294.436C204.954 294.803 204.873 295.233 204.873 295.727C204.873 296.233 204.953 296.673 205.112 297.048C205.274 297.423 205.501 297.714 205.794 297.922C206.089 298.129 206.436 298.233 206.833 298.233C207.095 298.233 207.332 298.188 207.545 298.097C207.758 298.006 207.939 297.875 208.086 297.705C208.234 297.534 208.339 297.33 208.402 297.091H209.407C209.35 297.477 209.21 297.825 208.985 298.135C208.764 298.442 208.47 298.686 208.103 298.868C207.74 299.047 207.316 299.136 206.833 299.136ZM213.537 299.136C212.923 299.136 212.395 298.991 211.951 298.702C211.508 298.412 211.167 298.013 210.929 297.504C210.69 296.996 210.571 296.415 210.571 295.761C210.571 295.097 210.693 294.51 210.937 294.001C211.184 293.49 211.528 293.091 211.968 292.804C212.412 292.514 212.929 292.369 213.52 292.369C213.98 292.369 214.395 292.455 214.764 292.625C215.133 292.795 215.436 293.034 215.672 293.341C215.907 293.648 216.054 294.006 216.11 294.415H215.105C215.028 294.116 214.858 293.852 214.593 293.622C214.332 293.389 213.98 293.273 213.537 293.273C213.145 293.273 212.801 293.375 212.505 293.58C212.213 293.781 211.984 294.067 211.819 294.436C211.657 294.803 211.576 295.233 211.576 295.727C211.576 296.233 211.656 296.673 211.815 297.048C211.977 297.423 212.204 297.714 212.497 297.922C212.792 298.129 213.139 298.233 213.537 298.233C213.798 298.233 214.035 298.188 214.248 298.097C214.461 298.006 214.642 297.875 214.789 297.705C214.937 297.534 215.042 297.33 215.105 297.091H216.11C216.054 297.477 215.913 297.825 215.689 298.135C215.467 298.442 215.173 298.686 214.806 298.868C214.443 299.047 214.02 299.136 213.537 299.136ZM220.24 299.136C219.649 299.136 219.13 298.996 218.684 298.714C218.241 298.433 217.895 298.04 217.645 297.534C217.397 297.028 217.274 296.437 217.274 295.761C217.274 295.08 217.397 294.484 217.645 293.976C217.895 293.467 218.241 293.072 218.684 292.791C219.13 292.51 219.649 292.369 220.24 292.369C220.831 292.369 221.348 292.51 221.791 292.791C222.237 293.072 222.583 293.467 222.831 293.976C223.081 294.484 223.206 295.08 223.206 295.761C223.206 296.437 223.081 297.028 222.831 297.534C222.583 298.04 222.237 298.433 221.791 298.714C221.348 298.996 220.831 299.136 220.24 299.136ZM220.24 298.233C220.689 298.233 221.058 298.118 221.348 297.888C221.637 297.658 221.852 297.355 221.991 296.98C222.13 296.605 222.2 296.199 222.2 295.761C222.2 295.324 222.13 294.916 221.991 294.538C221.852 294.161 221.637 293.855 221.348 293.622C221.058 293.389 220.689 293.273 220.24 293.273C219.791 293.273 219.422 293.389 219.132 293.622C218.842 293.855 218.627 294.161 218.488 294.538C218.349 294.916 218.279 295.324 218.279 295.761C218.279 296.199 218.349 296.605 218.488 296.98C218.627 297.355 218.842 297.658 219.132 297.888C219.422 298.118 219.791 298.233 220.24 298.233ZM228.866 296.324V292.455H229.871V299H228.866V297.892H228.798C228.644 298.224 228.406 298.507 228.082 298.74C227.758 298.97 227.349 299.085 226.854 299.085C226.445 299.085 226.082 298.996 225.763 298.817C225.445 298.635 225.195 298.362 225.013 297.999C224.832 297.632 224.741 297.17 224.741 296.614V292.455H225.746V296.545C225.746 297.023 225.88 297.403 226.147 297.688C226.417 297.972 226.761 298.114 227.178 298.114C227.428 298.114 227.683 298.05 227.941 297.922C228.202 297.794 228.421 297.598 228.597 297.334C228.776 297.07 228.866 296.733 228.866 296.324ZM232.719 295.062V299H231.713V292.455H232.685V293.477H232.77C232.924 293.145 233.157 292.878 233.469 292.676C233.782 292.472 234.185 292.369 234.679 292.369C235.123 292.369 235.51 292.46 235.843 292.642C236.175 292.821 236.434 293.094 236.618 293.46C236.803 293.824 236.895 294.284 236.895 294.841V299H235.89V294.909C235.89 294.395 235.756 293.994 235.489 293.707C235.222 293.418 234.855 293.273 234.39 293.273C234.069 293.273 233.782 293.342 233.529 293.482C233.279 293.621 233.081 293.824 232.936 294.091C232.792 294.358 232.719 294.682 232.719 295.062ZM241.58 292.455V293.307H238.188V292.455H241.58ZM239.176 290.886H240.182V297.125C240.182 297.409 240.223 297.622 240.305 297.764C240.391 297.903 240.499 297.997 240.629 298.045C240.763 298.091 240.903 298.114 241.051 298.114C241.162 298.114 241.253 298.108 241.324 298.097C241.395 298.082 241.452 298.071 241.494 298.062L241.699 298.966C241.631 298.991 241.536 299.017 241.413 299.043C241.291 299.071 241.136 299.085 240.949 299.085C240.665 299.085 240.386 299.024 240.114 298.902C239.844 298.78 239.619 298.594 239.44 298.344C239.264 298.094 239.176 297.778 239.176 297.398V290.886ZM247.612 293.92L246.708 294.176C246.651 294.026 246.567 293.879 246.457 293.737C246.349 293.592 246.201 293.473 246.013 293.379C245.826 293.286 245.586 293.239 245.293 293.239C244.893 293.239 244.559 293.331 244.292 293.516C244.028 293.697 243.896 293.929 243.896 294.21C243.896 294.46 243.987 294.658 244.168 294.803C244.35 294.947 244.634 295.068 245.021 295.165L245.992 295.403C246.577 295.545 247.013 295.763 247.3 296.055C247.587 296.345 247.731 296.719 247.731 297.176C247.731 297.551 247.623 297.886 247.407 298.182C247.194 298.477 246.896 298.71 246.512 298.881C246.129 299.051 245.683 299.136 245.174 299.136C244.506 299.136 243.954 298.991 243.516 298.702C243.079 298.412 242.802 297.989 242.685 297.432L243.64 297.193C243.731 297.545 243.903 297.81 244.156 297.986C244.411 298.162 244.745 298.25 245.157 298.25C245.626 298.25 245.998 298.151 246.273 297.952C246.552 297.75 246.691 297.509 246.691 297.227C246.691 297 246.612 296.81 246.452 296.656C246.293 296.5 246.049 296.384 245.719 296.307L244.629 296.051C244.029 295.909 243.589 295.689 243.308 295.391C243.029 295.089 242.89 294.713 242.89 294.261C242.89 293.892 242.994 293.565 243.201 293.281C243.411 292.997 243.697 292.774 244.058 292.612C244.421 292.45 244.833 292.369 245.293 292.369C245.941 292.369 246.45 292.511 246.819 292.795C247.191 293.08 247.455 293.455 247.612 293.92Z" fill="#667085"/>
<circle cx="284" cy="295" r="5" fill="#1C2DD8"/>
<path d="M303.08 293H302.023C301.96 292.696 301.851 292.429 301.695 292.199C301.541 291.969 301.354 291.776 301.132 291.619C300.913 291.46 300.67 291.341 300.403 291.261C300.136 291.182 299.858 291.142 299.568 291.142C299.04 291.142 298.561 291.276 298.132 291.543C297.706 291.81 297.366 292.203 297.114 292.723C296.864 293.243 296.739 293.881 296.739 294.636C296.739 295.392 296.864 296.03 297.114 296.55C297.366 297.07 297.706 297.463 298.132 297.73C298.561 297.997 299.04 298.131 299.568 298.131C299.858 298.131 300.136 298.091 300.403 298.011C300.67 297.932 300.913 297.814 301.132 297.658C301.354 297.499 301.541 297.304 301.695 297.074C301.851 296.841 301.96 296.574 302.023 296.273H303.08C303 296.719 302.855 297.118 302.645 297.47C302.435 297.822 302.173 298.122 301.861 298.369C301.548 298.614 301.197 298.8 300.808 298.928C300.422 299.055 300.009 299.119 299.568 299.119C298.824 299.119 298.162 298.938 297.582 298.574C297.003 298.21 296.547 297.693 296.214 297.023C295.882 296.352 295.716 295.557 295.716 294.636C295.716 293.716 295.882 292.92 296.214 292.25C296.547 291.58 297.003 291.062 297.582 290.699C298.162 290.335 298.824 290.153 299.568 290.153C300.009 290.153 300.422 290.217 300.808 290.345C301.197 290.473 301.548 290.661 301.861 290.908C302.173 291.152 302.435 291.45 302.645 291.803C302.855 292.152 303 292.551 303.08 293ZM305.657 290.273V299H304.651V290.273H305.657ZM310.158 299.136C309.567 299.136 309.048 298.996 308.602 298.714C308.159 298.433 307.812 298.04 307.562 297.534C307.315 297.028 307.192 296.437 307.192 295.761C307.192 295.08 307.315 294.484 307.562 293.976C307.812 293.467 308.159 293.072 308.602 292.791C309.048 292.51 309.567 292.369 310.158 292.369C310.749 292.369 311.266 292.51 311.709 292.791C312.155 293.072 312.501 293.467 312.749 293.976C312.999 294.484 313.124 295.08 313.124 295.761C313.124 296.437 312.999 297.028 312.749 297.534C312.501 298.04 312.155 298.433 311.709 298.714C311.266 298.996 310.749 299.136 310.158 299.136ZM310.158 298.233C310.607 298.233 310.976 298.118 311.266 297.888C311.555 297.658 311.77 297.355 311.909 296.98C312.048 296.605 312.118 296.199 312.118 295.761C312.118 295.324 312.048 294.916 311.909 294.538C311.77 294.161 311.555 293.855 311.266 293.622C310.976 293.389 310.607 293.273 310.158 293.273C309.709 293.273 309.339 293.389 309.05 293.622C308.76 293.855 308.545 294.161 308.406 294.538C308.267 294.916 308.197 295.324 308.197 295.761C308.197 296.199 308.267 296.605 308.406 296.98C308.545 297.355 308.76 297.658 309.05 297.888C309.339 298.118 309.709 298.233 310.158 298.233ZM319.295 293.92L318.392 294.176C318.335 294.026 318.251 293.879 318.14 293.737C318.032 293.592 317.885 293.473 317.697 293.379C317.51 293.286 317.27 293.239 316.977 293.239C316.576 293.239 316.243 293.331 315.975 293.516C315.711 293.697 315.579 293.929 315.579 294.21C315.579 294.46 315.67 294.658 315.852 294.803C316.034 294.947 316.318 295.068 316.704 295.165L317.676 295.403C318.261 295.545 318.697 295.763 318.984 296.055C319.271 296.345 319.414 296.719 319.414 297.176C319.414 297.551 319.306 297.886 319.091 298.182C318.877 298.477 318.579 298.71 318.196 298.881C317.812 299.051 317.366 299.136 316.858 299.136C316.19 299.136 315.637 298.991 315.2 298.702C314.762 298.412 314.485 297.989 314.369 297.432L315.324 297.193C315.414 297.545 315.586 297.81 315.839 297.986C316.095 298.162 316.429 298.25 316.841 298.25C317.309 298.25 317.681 298.151 317.957 297.952C318.235 297.75 318.375 297.509 318.375 297.227C318.375 297 318.295 296.81 318.136 296.656C317.977 296.5 317.733 296.384 317.403 296.307L316.312 296.051C315.713 295.909 315.272 295.689 314.991 295.391C314.713 295.089 314.574 294.713 314.574 294.261C314.574 293.892 314.677 293.565 314.885 293.281C315.095 292.997 315.38 292.774 315.741 292.612C316.105 292.45 316.517 292.369 316.977 292.369C317.625 292.369 318.133 292.511 318.502 292.795C318.875 293.08 319.139 293.455 319.295 293.92ZM323.673 299.136C323.042 299.136 322.498 298.997 322.04 298.719C321.586 298.438 321.235 298.045 320.988 297.543C320.744 297.037 320.621 296.449 320.621 295.778C320.621 295.108 320.744 294.517 320.988 294.006C321.235 293.491 321.579 293.091 322.019 292.804C322.462 292.514 322.979 292.369 323.57 292.369C323.911 292.369 324.248 292.426 324.58 292.54C324.913 292.653 325.215 292.838 325.488 293.094C325.761 293.347 325.978 293.682 326.14 294.099C326.302 294.517 326.383 295.031 326.383 295.642V296.068H321.337V295.199H325.36C325.36 294.83 325.286 294.5 325.138 294.21C324.994 293.92 324.786 293.692 324.516 293.524C324.249 293.357 323.934 293.273 323.57 293.273C323.17 293.273 322.823 293.372 322.531 293.571C322.241 293.767 322.018 294.023 321.862 294.338C321.705 294.653 321.627 294.991 321.627 295.352V295.932C321.627 296.426 321.712 296.845 321.883 297.189C322.056 297.53 322.296 297.79 322.603 297.969C322.91 298.145 323.266 298.233 323.673 298.233C323.937 298.233 324.175 298.196 324.388 298.122C324.604 298.045 324.79 297.932 324.947 297.781C325.103 297.628 325.224 297.437 325.309 297.21L326.281 297.483C326.178 297.812 326.006 298.102 325.765 298.352C325.523 298.599 325.225 298.793 324.87 298.932C324.515 299.068 324.116 299.136 323.673 299.136ZM330.384 299.136C329.839 299.136 329.357 298.999 328.94 298.723C328.522 298.445 328.195 298.053 327.96 297.547C327.724 297.038 327.606 296.438 327.606 295.744C327.606 295.057 327.724 294.46 327.96 293.955C328.195 293.449 328.523 293.058 328.944 292.783C329.364 292.507 329.85 292.369 330.401 292.369C330.827 292.369 331.164 292.44 331.411 292.582C331.661 292.722 331.852 292.881 331.982 293.06C332.116 293.236 332.219 293.381 332.293 293.494H332.379V290.273H333.384V299H332.413V297.994H332.293C332.219 298.114 332.114 298.264 331.978 298.446C331.842 298.625 331.647 298.786 331.394 298.928C331.141 299.067 330.805 299.136 330.384 299.136ZM330.521 298.233C330.924 298.233 331.265 298.128 331.543 297.918C331.822 297.705 332.033 297.411 332.178 297.036C332.323 296.658 332.396 296.222 332.396 295.727C332.396 295.239 332.325 294.811 332.183 294.445C332.04 294.075 331.83 293.788 331.552 293.584C331.273 293.376 330.93 293.273 330.521 293.273C330.094 293.273 329.739 293.382 329.455 293.601C329.174 293.817 328.962 294.111 328.82 294.483C328.681 294.852 328.612 295.267 328.612 295.727C328.612 296.193 328.683 296.616 328.825 296.997C328.969 297.375 329.183 297.676 329.464 297.901C329.748 298.122 330.1 298.233 330.521 298.233ZM339.235 299H338.127L341.332 290.273H342.423L345.627 299H344.519L341.911 291.653H341.843L339.235 299ZM339.644 295.591H344.11V296.528H339.644V295.591ZM349.509 299.136C348.896 299.136 348.367 298.991 347.924 298.702C347.481 298.412 347.14 298.013 346.901 297.504C346.663 296.996 346.543 296.415 346.543 295.761C346.543 295.097 346.665 294.51 346.91 294.001C347.157 293.49 347.501 293.091 347.941 292.804C348.384 292.514 348.901 292.369 349.492 292.369C349.952 292.369 350.367 292.455 350.737 292.625C351.106 292.795 351.408 293.034 351.644 293.341C351.88 293.648 352.026 294.006 352.083 294.415H351.077C351.001 294.116 350.83 293.852 350.566 293.622C350.305 293.389 349.952 293.273 349.509 293.273C349.117 293.273 348.773 293.375 348.478 293.58C348.185 293.781 347.957 294.067 347.792 294.436C347.63 294.803 347.549 295.233 347.549 295.727C347.549 296.233 347.629 296.673 347.788 297.048C347.95 297.423 348.177 297.714 348.469 297.922C348.765 298.129 349.112 298.233 349.509 298.233C349.771 298.233 350.008 298.188 350.221 298.097C350.434 298.006 350.614 297.875 350.762 297.705C350.91 297.534 351.015 297.33 351.077 297.091H352.083C352.026 297.477 351.886 297.825 351.661 298.135C351.44 298.442 351.146 298.686 350.779 298.868C350.415 299.047 349.992 299.136 349.509 299.136ZM356.212 299.136C355.599 299.136 355.07 298.991 354.627 298.702C354.184 298.412 353.843 298.013 353.604 297.504C353.366 296.996 353.246 296.415 353.246 295.761C353.246 295.097 353.369 294.51 353.613 294.001C353.86 293.49 354.204 293.091 354.644 292.804C355.087 292.514 355.604 292.369 356.195 292.369C356.656 292.369 357.07 292.455 357.44 292.625C357.809 292.795 358.112 293.034 358.347 293.341C358.583 293.648 358.729 294.006 358.786 294.415H357.781C357.704 294.116 357.533 293.852 357.269 293.622C357.008 293.389 356.656 293.273 356.212 293.273C355.82 293.273 355.477 293.375 355.181 293.58C354.888 293.781 354.66 294.067 354.495 294.436C354.333 294.803 354.252 295.233 354.252 295.727C354.252 296.233 354.332 296.673 354.491 297.048C354.653 297.423 354.88 297.714 355.173 297.922C355.468 298.129 355.815 298.233 356.212 298.233C356.474 298.233 356.711 298.188 356.924 298.097C357.137 298.006 357.317 297.875 357.465 297.705C357.613 297.534 357.718 297.33 357.781 297.091H358.786C358.729 297.477 358.589 297.825 358.364 298.135C358.143 298.442 357.849 298.686 357.482 298.868C357.119 299.047 356.695 299.136 356.212 299.136ZM362.915 299.136C362.325 299.136 361.806 298.996 361.36 298.714C360.917 298.433 360.57 298.04 360.32 297.534C360.073 297.028 359.95 296.437 359.95 295.761C359.95 295.08 360.073 294.484 360.32 293.976C360.57 293.467 360.917 293.072 361.36 292.791C361.806 292.51 362.325 292.369 362.915 292.369C363.506 292.369 364.023 292.51 364.467 292.791C364.913 293.072 365.259 293.467 365.506 293.976C365.756 294.484 365.881 295.08 365.881 295.761C365.881 296.437 365.756 297.028 365.506 297.534C365.259 298.04 364.913 298.433 364.467 298.714C364.023 298.996 363.506 299.136 362.915 299.136ZM362.915 298.233C363.364 298.233 363.734 298.118 364.023 297.888C364.313 297.658 364.528 297.355 364.667 296.98C364.806 296.605 364.876 296.199 364.876 295.761C364.876 295.324 364.806 294.916 364.667 294.538C364.528 294.161 364.313 293.855 364.023 293.622C363.734 293.389 363.364 293.273 362.915 293.273C362.467 293.273 362.097 293.389 361.808 293.622C361.518 293.855 361.303 294.161 361.164 294.538C361.025 294.916 360.955 295.324 360.955 295.761C360.955 296.199 361.025 296.605 361.164 296.98C361.303 297.355 361.518 297.658 361.808 297.888C362.097 298.118 362.467 298.233 362.915 298.233ZM371.542 296.324V292.455H372.547V299H371.542V297.892H371.473C371.32 298.224 371.081 298.507 370.757 298.74C370.434 298.97 370.025 299.085 369.53 299.085C369.121 299.085 368.757 298.996 368.439 298.817C368.121 298.635 367.871 298.362 367.689 297.999C367.507 297.632 367.417 297.17 367.417 296.614V292.455H368.422V296.545C368.422 297.023 368.556 297.403 368.823 297.688C369.093 297.972 369.436 298.114 369.854 298.114C370.104 298.114 370.358 298.05 370.617 297.922C370.878 297.794 371.097 297.598 371.273 297.334C371.452 297.07 371.542 296.733 371.542 296.324ZM375.395 295.062V299H374.389V292.455H375.361V293.477H375.446C375.599 293.145 375.832 292.878 376.145 292.676C376.457 292.472 376.861 292.369 377.355 292.369C377.798 292.369 378.186 292.46 378.518 292.642C378.851 292.821 379.109 293.094 379.294 293.46C379.479 293.824 379.571 294.284 379.571 294.841V299H378.565V294.909C378.565 294.395 378.432 293.994 378.165 293.707C377.898 293.418 377.531 293.273 377.065 293.273C376.744 293.273 376.457 293.342 376.205 293.482C375.955 293.621 375.757 293.824 375.612 294.091C375.467 294.358 375.395 294.682 375.395 295.062ZM384.255 292.455V293.307H380.863V292.455H384.255ZM381.852 290.886H382.858V297.125C382.858 297.409 382.899 297.622 382.981 297.764C383.066 297.903 383.174 297.997 383.305 298.045C383.439 298.091 383.579 298.114 383.727 298.114C383.838 298.114 383.929 298.108 384 298.097C384.071 298.082 384.127 298.071 384.17 298.062L384.375 298.966C384.306 298.991 384.211 299.017 384.089 299.043C383.967 299.071 383.812 299.085 383.625 299.085C383.341 299.085 383.062 299.024 382.789 298.902C382.52 298.78 382.295 298.594 382.116 298.344C381.94 298.094 381.852 297.778 381.852 297.398V290.886ZM390.287 293.92L389.384 294.176C389.327 294.026 389.243 293.879 389.132 293.737C389.025 293.592 388.877 293.473 388.689 293.379C388.502 293.286 388.262 293.239 387.969 293.239C387.569 293.239 387.235 293.331 386.968 293.516C386.703 293.697 386.571 293.929 386.571 294.21C386.571 294.46 386.662 294.658 386.844 294.803C387.026 294.947 387.31 295.068 387.696 295.165L388.668 295.403C389.253 295.545 389.689 295.763 389.976 296.055C390.263 296.345 390.407 296.719 390.407 297.176C390.407 297.551 390.299 297.886 390.083 298.182C389.87 298.477 389.571 298.71 389.188 298.881C388.804 299.051 388.358 299.136 387.85 299.136C387.182 299.136 386.63 298.991 386.192 298.702C385.755 298.412 385.478 297.989 385.361 297.432L386.316 297.193C386.407 297.545 386.578 297.81 386.831 297.986C387.087 298.162 387.421 298.25 387.833 298.25C388.301 298.25 388.674 298.151 388.949 297.952C389.228 297.75 389.367 297.509 389.367 297.227C389.367 297 389.287 296.81 389.128 296.656C388.969 296.5 388.725 296.384 388.395 296.307L387.304 296.051C386.705 295.909 386.265 295.689 385.983 295.391C385.705 295.089 385.566 294.713 385.566 294.261C385.566 293.892 385.669 293.565 385.877 293.281C386.087 292.997 386.373 292.774 386.733 292.612C387.097 292.45 387.509 292.369 387.969 292.369C388.617 292.369 389.125 292.511 389.495 292.795C389.867 293.08 390.131 293.455 390.287 293.92Z" fill="#667085"/>
<line x1="4.37114e-08" y1="273.5" x2="541" y2="273.5" stroke="#EAECF0"/>
<rect width="110" height="34" rx="8" fill="#EEEFFC"/>
<path d="M17.7841 21H14.9588V12.2727H17.8736C18.7287 12.2727 19.4631 12.4474 20.0767 12.7969C20.6903 13.1435 21.1605 13.642 21.4872 14.2926C21.8168 14.9403 21.9815 15.7173 21.9815 16.6236C21.9815 17.5327 21.8153 18.3139 21.483 18.9673C21.1534 19.6207 20.6761 20.1236 20.0511 20.4759C19.4261 20.8253 18.6705 21 17.7841 21ZM16.2756 19.8494H17.7116C18.3764 19.8494 18.929 19.7244 19.3693 19.4744C19.8097 19.2216 20.1392 18.8565 20.358 18.3793C20.5767 17.8991 20.6861 17.3139 20.6861 16.6236C20.6861 15.9389 20.5767 15.358 20.358 14.8807C20.142 14.4034 19.8196 14.0412 19.3906 13.794C18.9616 13.5469 18.429 13.4233 17.7926 13.4233H16.2756V19.8494ZM26.2738 21.1321C25.6602 21.1321 25.1246 20.9915 24.6673 20.7102C24.2099 20.429 23.8548 20.0355 23.6019 19.5298C23.3491 19.0241 23.2227 18.4332 23.2227 17.7571C23.2227 17.0781 23.3491 16.4844 23.6019 15.9759C23.8548 15.4673 24.2099 15.0724 24.6673 14.7912C25.1246 14.5099 25.6602 14.3693 26.2738 14.3693C26.8874 14.3693 27.4229 14.5099 27.8803 14.7912C28.3377 15.0724 28.6928 15.4673 28.9457 15.9759C29.1985 16.4844 29.3249 17.0781 29.3249 17.7571C29.3249 18.4332 29.1985 19.0241 28.9457 19.5298C28.6928 20.0355 28.3377 20.429 27.8803 20.7102C27.4229 20.9915 26.8874 21.1321 26.2738 21.1321ZM26.2781 20.0625C26.6758 20.0625 27.0053 19.9574 27.2667 19.7472C27.5281 19.5369 27.7212 19.2571 27.8462 18.9077C27.9741 18.5582 28.038 18.1733 28.038 17.7528C28.038 17.3352 27.9741 16.9517 27.8462 16.6023C27.7212 16.25 27.5281 15.9673 27.2667 15.7543C27.0053 15.5412 26.6758 15.4347 26.2781 15.4347C25.8775 15.4347 25.5451 15.5412 25.2809 15.7543C25.0195 15.9673 24.8249 16.25 24.6971 16.6023C24.5721 16.9517 24.5096 17.3352 24.5096 17.7528C24.5096 18.1733 24.5721 18.5582 24.6971 18.9077C24.8249 19.2571 25.0195 19.5369 25.2809 19.7472C25.5451 19.9574 25.8775 20.0625 26.2781 20.0625ZM32.0213 12.2727V21H30.7472V12.2727H32.0213ZM35.0096 12.2727V21H33.7354V12.2727H35.0096ZM38.6286 21.1449C38.2138 21.1449 37.8388 21.0682 37.5036 20.9148C37.1683 20.7585 36.9027 20.5327 36.7067 20.2372C36.5135 19.9418 36.4169 19.5795 36.4169 19.1506C36.4169 18.7812 36.4879 18.4773 36.63 18.2386C36.772 18 36.9638 17.8111 37.2053 17.6719C37.4467 17.5327 37.7166 17.4276 38.0149 17.3565C38.3132 17.2855 38.6172 17.2315 38.9268 17.1946C39.3189 17.1491 39.6371 17.1122 39.8814 17.0838C40.1257 17.0526 40.3033 17.0028 40.4141 16.9347C40.5249 16.8665 40.5803 16.7557 40.5803 16.6023V16.5724C40.5803 16.2003 40.4751 15.9119 40.2649 15.7074C40.0575 15.5028 39.7479 15.4006 39.3359 15.4006C38.907 15.4006 38.5689 15.4957 38.3217 15.6861C38.0774 15.8736 37.9084 16.0824 37.8146 16.3125L36.6172 16.0398C36.7592 15.642 36.9666 15.321 37.2393 15.0767C37.5149 14.8295 37.8317 14.6506 38.1896 14.5398C38.5476 14.4261 38.924 14.3693 39.3189 14.3693C39.5803 14.3693 39.8572 14.4006 40.1499 14.4631C40.4453 14.5227 40.7209 14.6335 40.9766 14.7955C41.2351 14.9574 41.4467 15.1889 41.6115 15.4901C41.7763 15.7884 41.8587 16.1761 41.8587 16.6534V21H40.6143V20.1051H40.5632C40.4808 20.2699 40.3572 20.4318 40.1925 20.5909C40.0277 20.75 39.8161 20.8821 39.5575 20.9872C39.299 21.0923 38.9893 21.1449 38.6286 21.1449ZM38.9055 20.1222C39.2578 20.1222 39.5589 20.0526 39.8089 19.9134C40.0618 19.7741 40.2536 19.5923 40.3842 19.3679C40.5178 19.1406 40.5845 18.8977 40.5845 18.6392V17.7955C40.5391 17.8409 40.451 17.8835 40.3203 17.9233C40.1925 17.9602 40.0462 17.9929 39.8814 18.0213C39.7166 18.0469 39.5561 18.071 39.3999 18.0938C39.2436 18.1136 39.1129 18.1307 39.0078 18.1449C38.7607 18.1761 38.5348 18.2287 38.3303 18.3026C38.1286 18.3764 37.9666 18.483 37.8445 18.6222C37.7251 18.7585 37.6655 18.9403 37.6655 19.1676C37.6655 19.483 37.782 19.7216 38.0149 19.8835C38.2479 20.0426 38.5447 20.1222 38.9055 20.1222ZM43.5558 21V14.4545H44.7873V15.4943H44.8555C44.9748 15.142 45.185 14.8651 45.4862 14.6634C45.7901 14.4588 46.1339 14.3565 46.5174 14.3565C46.5969 14.3565 46.6907 14.3594 46.7987 14.3651C46.9094 14.3707 46.9961 14.3778 47.0586 14.3864V15.6051C47.0075 15.5909 46.9165 15.5753 46.7859 15.5582C46.6552 15.5384 46.5245 15.5284 46.3938 15.5284C46.0927 15.5284 45.8242 15.5923 45.5884 15.7202C45.3555 15.8452 45.1708 16.0199 45.0344 16.2443C44.8981 16.4659 44.8299 16.7187 44.8299 17.0028V21H43.5558ZM52.1765 21H50.7788L53.9194 12.2727H55.4407L58.5813 21H57.1836L54.7163 13.858H54.6481L52.1765 21ZM52.4109 17.5824H56.945V18.6903H52.4109V17.5824ZM59.7393 21V14.4545H60.9624V15.5199H61.0433C61.1797 15.1591 61.4027 14.8778 61.7124 14.6761C62.022 14.4716 62.3928 14.3693 62.8246 14.3693C63.2621 14.3693 63.6286 14.4716 63.924 14.6761C64.2223 14.8807 64.4425 15.1619 64.5845 15.5199H64.6527C64.8089 15.1705 65.0575 14.892 65.3984 14.6847C65.7393 14.4744 66.1456 14.3693 66.6172 14.3693C67.2109 14.3693 67.6953 14.5554 68.0703 14.9276C68.4482 15.2997 68.6371 15.8608 68.6371 16.6108V21H67.3629V16.7301C67.3629 16.2869 67.2422 15.9659 67.0007 15.767C66.7592 15.5682 66.4709 15.4688 66.1357 15.4688C65.7209 15.4688 65.3984 15.5966 65.1683 15.8523C64.9382 16.1051 64.8232 16.4304 64.8232 16.8281V21H63.5533V16.6491C63.5533 16.294 63.4425 16.0085 63.2209 15.7926C62.9993 15.5767 62.7109 15.4688 62.3558 15.4688C62.1143 15.4688 61.8913 15.5327 61.6868 15.6605C61.4851 15.7855 61.3217 15.9602 61.1967 16.1847C61.0746 16.4091 61.0135 16.669 61.0135 16.9645V21H59.7393ZM73.1019 21.1321C72.4883 21.1321 71.9528 20.9915 71.4954 20.7102C71.038 20.429 70.6829 20.0355 70.43 19.5298C70.1772 19.0241 70.0508 18.4332 70.0508 17.7571C70.0508 17.0781 70.1772 16.4844 70.43 15.9759C70.6829 15.4673 71.038 15.0724 71.4954 14.7912C71.9528 14.5099 72.4883 14.3693 73.1019 14.3693C73.7156 14.3693 74.2511 14.5099 74.7085 14.7912C75.1658 15.0724 75.521 15.4673 75.7738 15.9759C76.0266 16.4844 76.1531 17.0781 76.1531 17.7571C76.1531 18.4332 76.0266 19.0241 75.7738 19.5298C75.521 20.0355 75.1658 20.429 74.7085 20.7102C74.2511 20.9915 73.7156 21.1321 73.1019 21.1321ZM73.1062 20.0625C73.5039 20.0625 73.8335 19.9574 74.0948 19.7472C74.3562 19.5369 74.5494 19.2571 74.6744 18.9077C74.8022 18.5582 74.8661 18.1733 74.8661 17.7528C74.8661 17.3352 74.8022 16.9517 74.6744 16.6023C74.5494 16.25 74.3562 15.9673 74.0948 15.7543C73.8335 15.5412 73.5039 15.4347 73.1062 15.4347C72.7056 15.4347 72.3732 15.5412 72.109 15.7543C71.8477 15.9673 71.6531 16.25 71.5252 16.6023C71.4002 16.9517 71.3377 17.3352 71.3377 17.7528C71.3377 18.1733 71.4002 18.5582 71.5252 18.9077C71.6531 19.2571 71.8477 19.5369 72.109 19.7472C72.3732 19.9574 72.7056 20.0625 73.1062 20.0625ZM81.7216 18.2855V14.4545H83V21H81.7472V19.8665H81.679C81.5284 20.2159 81.2869 20.5071 80.9545 20.7401C80.625 20.9702 80.2145 21.0852 79.723 21.0852C79.3026 21.0852 78.9304 20.9929 78.6065 20.8082C78.2855 20.6207 78.0327 20.3438 77.848 19.9773C77.6662 19.6108 77.5753 19.1577 77.5753 18.6179V14.4545H78.8494V18.4645C78.8494 18.9105 78.973 19.2656 79.2202 19.5298C79.4673 19.794 79.7884 19.9261 80.1832 19.9261C80.4219 19.9261 80.6591 19.8665 80.8949 19.7472C81.1335 19.6278 81.331 19.4474 81.4872 19.206C81.6463 18.9645 81.7244 18.6577 81.7216 18.2855ZM85.9862 17.1136V21H84.712V14.4545H85.935V15.5199H86.016C86.1665 15.1733 86.4023 14.8949 86.7234 14.6847C87.0472 14.4744 87.4549 14.3693 87.9464 14.3693C88.3924 14.3693 88.783 14.4631 89.1183 14.6506C89.4535 14.8352 89.7134 15.1108 89.8981 15.4773C90.0827 15.8437 90.1751 16.2969 90.1751 16.8366V21H88.9009V16.9901C88.9009 16.5156 88.7773 16.1449 88.5302 15.8778C88.283 15.608 87.9435 15.473 87.5117 15.473C87.2163 15.473 86.9535 15.5369 86.7234 15.6648C86.4961 15.7926 86.3157 15.9801 86.1822 16.2273C86.0515 16.4716 85.9862 16.767 85.9862 17.1136ZM94.9393 14.4545V15.4773H91.364V14.4545H94.9393ZM92.3228 12.8864H93.5969V19.0781C93.5969 19.3253 93.6339 19.5114 93.7077 19.6364C93.7816 19.7585 93.8768 19.8423 93.9933 19.8878C94.1126 19.9304 94.2418 19.9517 94.381 19.9517C94.4833 19.9517 94.5728 19.9446 94.6495 19.9304C94.7262 19.9162 94.7859 19.9048 94.8285 19.8963L95.0586 20.9489C94.9847 20.9773 94.8796 21.0057 94.7433 21.0341C94.6069 21.0653 94.4364 21.0824 94.2319 21.0852C93.8967 21.0909 93.5842 21.0312 93.2944 20.9062C93.0046 20.7812 92.7702 20.5881 92.5913 20.3267C92.4123 20.0653 92.3228 19.7372 92.3228 19.3423V12.8864Z" fill="#1C2DD8"/>
<path d="M132.207 15.1108H130.878C130.827 14.8267 130.732 14.5767 130.592 14.3608C130.453 14.1449 130.283 13.9616 130.081 13.8111C129.879 13.6605 129.653 13.5469 129.403 13.4702C129.156 13.3935 128.893 13.3551 128.615 13.3551C128.112 13.3551 127.662 13.4815 127.264 13.7344C126.869 13.9872 126.557 14.358 126.327 14.8466C126.099 15.3352 125.986 15.9318 125.986 16.6364C125.986 17.3466 126.099 17.946 126.327 18.4347C126.557 18.9233 126.871 19.2926 127.268 19.5426C127.666 19.7926 128.114 19.9176 128.611 19.9176C128.886 19.9176 129.148 19.8807 129.395 19.8068C129.645 19.7301 129.871 19.6179 130.072 19.4702C130.274 19.3224 130.445 19.142 130.584 18.929C130.726 18.7131 130.824 18.4659 130.878 18.1875L132.207 18.1918C132.136 18.6207 131.999 19.0156 131.794 19.3764C131.592 19.7344 131.332 20.044 131.014 20.3054C130.699 20.5639 130.338 20.7642 129.932 20.9062C129.526 21.0483 129.082 21.1193 128.602 21.1193C127.847 21.1193 127.173 20.9403 126.582 20.5824C125.991 20.2216 125.526 19.706 125.185 19.0355C124.847 18.3651 124.678 17.5653 124.678 16.6364C124.678 15.7045 124.848 14.9048 125.189 14.2372C125.53 13.5668 125.996 13.0526 126.587 12.6946C127.178 12.3338 127.849 12.1534 128.602 12.1534C129.065 12.1534 129.497 12.2202 129.898 12.3537C130.301 12.4844 130.663 12.6776 130.984 12.9332C131.305 13.1861 131.571 13.4957 131.781 13.8622C131.991 14.2259 132.134 14.642 132.207 15.1108ZM136.438 21.1321C135.824 21.1321 135.289 20.9915 134.831 20.7102C134.374 20.429 134.019 20.0355 133.766 19.5298C133.513 19.0241 133.387 18.4332 133.387 17.7571C133.387 17.0781 133.513 16.4844 133.766 15.9759C134.019 15.4673 134.374 15.0724 134.831 14.7912C135.289 14.5099 135.824 14.3693 136.438 14.3693C137.051 14.3693 137.587 14.5099 138.044 14.7912C138.502 15.0724 138.857 15.4673 139.11 15.9759C139.363 16.4844 139.489 17.0781 139.489 17.7571C139.489 18.4332 139.363 19.0241 139.11 19.5298C138.857 20.0355 138.502 20.429 138.044 20.7102C137.587 20.9915 137.051 21.1321 136.438 21.1321ZM136.442 20.0625C136.84 20.0625 137.169 19.9574 137.431 19.7472C137.692 19.5369 137.885 19.2571 138.01 18.9077C138.138 18.5582 138.202 18.1733 138.202 17.7528C138.202 17.3352 138.138 16.9517 138.01 16.6023C137.885 16.25 137.692 15.9673 137.431 15.7543C137.169 15.5412 136.84 15.4347 136.442 15.4347C136.042 15.4347 135.709 15.5412 135.445 15.7543C135.184 15.9673 134.989 16.25 134.861 16.6023C134.736 16.9517 134.674 17.3352 134.674 17.7528C134.674 18.1733 134.736 18.5582 134.861 18.9077C134.989 19.2571 135.184 19.5369 135.445 19.7472C135.709 19.9574 136.042 20.0625 136.442 20.0625ZM145.058 18.2855V14.4545H146.336V21H145.083V19.8665H145.015C144.864 20.2159 144.623 20.5071 144.29 20.7401C143.961 20.9702 143.55 21.0852 143.059 21.0852C142.638 21.0852 142.266 20.9929 141.942 20.8082C141.621 20.6207 141.369 20.3438 141.184 19.9773C141.002 19.6108 140.911 19.1577 140.911 18.6179V14.4545H142.185V18.4645C142.185 18.9105 142.309 19.2656 142.556 19.5298C142.803 19.794 143.124 19.9261 143.519 19.9261C143.758 19.9261 143.995 19.8665 144.231 19.7472C144.469 19.6278 144.667 19.4474 144.823 19.206C144.982 18.9645 145.06 18.6577 145.058 18.2855ZM149.322 17.1136V21H148.048V14.4545H149.271V15.5199H149.352C149.502 15.1733 149.738 14.8949 150.059 14.6847C150.383 14.4744 150.791 14.3693 151.282 14.3693C151.728 14.3693 152.119 14.4631 152.454 14.6506C152.789 14.8352 153.049 15.1108 153.234 15.4773C153.419 15.8437 153.511 16.2969 153.511 16.8366V21H152.237V16.9901C152.237 16.5156 152.113 16.1449 151.866 15.8778C151.619 15.608 151.279 15.473 150.848 15.473C150.552 15.473 150.289 15.5369 150.059 15.6648C149.832 15.7926 149.652 15.9801 149.518 16.2273C149.387 16.4716 149.322 16.767 149.322 17.1136ZM158.275 14.4545V15.4773H154.7V14.4545H158.275ZM155.659 12.8864H156.933V19.0781C156.933 19.3253 156.97 19.5114 157.044 19.6364C157.118 19.7585 157.213 19.8423 157.329 19.8878C157.449 19.9304 157.578 19.9517 157.717 19.9517C157.819 19.9517 157.909 19.9446 157.985 19.9304C158.062 19.9162 158.122 19.9048 158.164 19.8963L158.395 20.9489C158.321 20.9773 158.216 21.0057 158.079 21.0341C157.943 21.0653 157.772 21.0824 157.568 21.0852C157.233 21.0909 156.92 21.0312 156.63 20.9062C156.341 20.7812 156.106 20.5881 155.927 20.3267C155.748 20.0653 155.659 19.7372 155.659 19.3423V12.8864Z" fill="#667085"/>
</svg>
