<svg width="541" height="292" viewBox="0 0 541 292" fill="none" xmlns="http://www.w3.org/2000/svg">
<circle cx="123.5" cy="146" r="64" stroke="#D0D5DD" stroke-width="8"/>
<path d="M163.838 195.688C152.9 204.567 139.338 209.59 125.254 209.976C111.171 210.362 97.3539 206.091 85.9458 197.824C74.5376 189.557 66.1761 177.756 62.1581 164.253C58.14 150.749 58.6899 136.297 63.7225 123.138" stroke="#FD853A" stroke-width="8" stroke-linecap="round"/>
<path d="M185.319 129.436C188.595 141.662 188.172 154.586 184.104 166.572C180.035 178.558 172.503 189.069 162.461 196.775C152.418 204.48 140.317 209.035 127.686 209.863C115.055 210.691 102.462 207.755 91.5 201.426" stroke="#0BA5EC" stroke-width="8" stroke-linecap="round"/>
<path d="M123.5 82C131.905 82 140.227 83.6554 147.992 86.8717C155.757 90.088 162.812 94.8022 168.755 100.745C174.698 106.688 179.412 113.743 182.628 121.508C185.845 129.273 187.5 137.595 187.5 146" stroke="#1C2DD8" stroke-width="8" stroke-linecap="round"/>
<circle cx="238.5" cy="95" r="5" fill="#1C2DD8"/>
<path d="M253.284 99H250.459V90.2727H253.374C254.229 90.2727 254.963 90.4474 255.577 90.7969C256.19 91.1435 256.661 91.642 256.987 92.2926C257.317 92.9403 257.482 93.7173 257.482 94.6236C257.482 95.5327 257.315 96.3139 256.983 96.9673C256.653 97.6207 256.176 98.1236 255.551 98.4759C254.926 98.8253 254.17 99 253.284 99ZM251.776 97.8494H253.212C253.876 97.8494 254.429 97.7244 254.869 97.4744C255.31 97.2216 255.639 96.8565 255.858 96.3793C256.077 95.8991 256.186 95.3139 256.186 94.6236C256.186 93.9389 256.077 93.358 255.858 92.8807C255.642 92.4034 255.32 92.0412 254.891 91.794C254.462 91.5469 253.929 91.4233 253.293 91.4233H251.776V97.8494ZM261.838 99.1321C261.193 99.1321 260.637 98.9943 260.172 98.7188C259.708 98.4403 259.35 98.0497 259.098 97.5469C258.848 97.0412 258.723 96.4489 258.723 95.7699C258.723 95.0994 258.848 94.5085 259.098 93.9972C259.35 93.4858 259.703 93.0866 260.154 92.7997C260.609 92.5128 261.14 92.3693 261.748 92.3693C262.118 92.3693 262.475 92.4304 262.822 92.5526C263.169 92.6747 263.48 92.8665 263.755 93.1278C264.031 93.3892 264.248 93.7287 264.407 94.1463C264.566 94.5611 264.646 95.0653 264.646 95.6591V96.1108H259.443V95.1562H263.397C263.397 94.821 263.329 94.5241 263.193 94.2656C263.056 94.0043 262.865 93.7983 262.618 93.6477C262.373 93.4972 262.086 93.4219 261.757 93.4219C261.399 93.4219 261.086 93.5099 260.819 93.6861C260.555 93.8594 260.35 94.0866 260.206 94.3679C260.064 94.6463 259.993 94.9489 259.993 95.2756V96.0213C259.993 96.4588 260.069 96.831 260.223 97.1378C260.379 97.4446 260.596 97.679 260.875 97.8409C261.153 98 261.478 98.0795 261.85 98.0795C262.092 98.0795 262.312 98.0455 262.511 97.9773C262.71 97.9062 262.882 97.8011 263.027 97.6619C263.172 97.5227 263.282 97.3509 263.359 97.1463L264.565 97.3636C264.468 97.7187 264.295 98.0298 264.045 98.2969C263.798 98.5611 263.487 98.767 263.112 98.9148C262.74 99.0597 262.315 99.1321 261.838 99.1321ZM266.06 101.455V92.4545H267.304V93.5156H267.411C267.484 93.3793 267.591 93.2216 267.73 93.0426C267.869 92.8636 268.063 92.7074 268.31 92.5739C268.557 92.4375 268.884 92.3693 269.29 92.3693C269.818 92.3693 270.29 92.5028 270.705 92.7699C271.119 93.0369 271.445 93.4219 271.68 93.9247C271.919 94.4276 272.038 95.0327 272.038 95.7401C272.038 96.4474 271.92 97.054 271.685 97.5597C271.449 98.0625 271.125 98.4503 270.713 98.723C270.301 98.9929 269.831 99.1278 269.303 99.1278C268.905 99.1278 268.58 99.0611 268.327 98.9276C268.077 98.794 267.881 98.6378 267.739 98.4588C267.597 98.2798 267.487 98.1207 267.411 97.9815H267.334V101.455H266.06ZM267.308 95.7273C267.308 96.1875 267.375 96.5909 267.509 96.9375C267.642 97.2841 267.835 97.5554 268.088 97.7514C268.341 97.9446 268.651 98.0412 269.017 98.0412C269.398 98.0412 269.716 97.9403 269.972 97.7386C270.227 97.5341 270.42 97.2571 270.551 96.9077C270.685 96.5582 270.751 96.1648 270.751 95.7273C270.751 95.2955 270.686 94.9077 270.555 94.5639C270.428 94.2202 270.234 93.9489 269.976 93.75C269.72 93.5511 269.401 93.4517 269.017 93.4517C268.648 93.4517 268.335 93.5469 268.08 93.7372C267.827 93.9276 267.635 94.1932 267.504 94.5341C267.374 94.875 267.308 95.2727 267.308 95.7273ZM276.223 99.1321C275.609 99.1321 275.074 98.9915 274.616 98.7102C274.159 98.429 273.804 98.0355 273.551 97.5298C273.298 97.0241 273.172 96.4332 273.172 95.7571C273.172 95.0781 273.298 94.4844 273.551 93.9759C273.804 93.4673 274.159 93.0724 274.616 92.7912C275.074 92.5099 275.609 92.3693 276.223 92.3693C276.837 92.3693 277.372 92.5099 277.83 92.7912C278.287 93.0724 278.642 93.4673 278.895 93.9759C279.148 94.4844 279.274 95.0781 279.274 95.7571C279.274 96.4332 279.148 97.0241 278.895 97.5298C278.642 98.0355 278.287 98.429 277.83 98.7102C277.372 98.9915 276.837 99.1321 276.223 99.1321ZM276.227 98.0625C276.625 98.0625 276.955 97.9574 277.216 97.7472C277.477 97.5369 277.67 97.2571 277.795 96.9077C277.923 96.5582 277.987 96.1733 277.987 95.7528C277.987 95.3352 277.923 94.9517 277.795 94.6023C277.67 94.25 277.477 93.9673 277.216 93.7543C276.955 93.5412 276.625 93.4347 276.227 93.4347C275.827 93.4347 275.494 93.5412 275.23 93.7543C274.969 93.9673 274.774 94.25 274.646 94.6023C274.521 94.9517 274.459 95.3352 274.459 95.7528C274.459 96.1733 274.521 96.5582 274.646 96.9077C274.774 97.2571 274.969 97.5369 275.23 97.7472C275.494 97.9574 275.827 98.0625 276.227 98.0625ZM285.601 94.0526L284.446 94.2571C284.398 94.1094 284.321 93.9687 284.216 93.8352C284.114 93.7017 283.975 93.5923 283.799 93.5071C283.623 93.4219 283.402 93.3793 283.138 93.3793C282.777 93.3793 282.476 93.4602 282.235 93.6222C281.993 93.7812 281.873 93.9872 281.873 94.2401C281.873 94.4588 281.953 94.6349 282.115 94.7685C282.277 94.902 282.539 95.0114 282.9 95.0966L283.939 95.3352C284.542 95.4744 284.99 95.6889 285.286 95.9787C285.581 96.2685 285.729 96.6449 285.729 97.108C285.729 97.5 285.615 97.8494 285.388 98.1562C285.164 98.4602 284.85 98.6989 284.446 98.8722C284.046 99.0455 283.581 99.1321 283.053 99.1321C282.32 99.1321 281.722 98.9759 281.259 98.6634C280.796 98.348 280.512 97.9006 280.407 97.321L281.638 97.1335C281.715 97.4545 281.873 97.6974 282.111 97.8622C282.35 98.0241 282.661 98.1051 283.044 98.1051C283.462 98.1051 283.796 98.0185 284.046 97.8452C284.296 97.669 284.421 97.4545 284.421 97.2017C284.421 96.9972 284.344 96.8253 284.191 96.6861C284.04 96.5469 283.809 96.4418 283.496 96.3707L282.388 96.1278C281.777 95.9886 281.326 95.767 281.033 95.4631C280.743 95.1591 280.598 94.7741 280.598 94.3082C280.598 93.9219 280.706 93.5838 280.922 93.294C281.138 93.0043 281.436 92.7784 281.817 92.6165C282.198 92.4517 282.634 92.3693 283.125 92.3693C283.833 92.3693 284.39 92.5227 284.796 92.8295C285.202 93.1335 285.471 93.5412 285.601 94.0526ZM287.13 99V92.4545H288.404V99H287.13ZM287.773 91.4446C287.552 91.4446 287.362 91.3707 287.202 91.223C287.046 91.0724 286.968 90.8935 286.968 90.6861C286.968 90.4759 287.046 90.2969 287.202 90.1491C287.362 89.9986 287.552 89.9233 287.773 89.9233C287.995 89.9233 288.184 89.9986 288.34 90.1491C288.499 90.2969 288.579 90.4759 288.579 90.6861C288.579 90.8935 288.499 91.0724 288.34 91.223C288.184 91.3707 287.995 91.4446 287.773 91.4446ZM293.174 92.4545V93.4773H289.598V92.4545H293.174ZM290.557 90.8864H291.831V97.0781C291.831 97.3253 291.868 97.5114 291.942 97.6364C292.016 97.7585 292.111 97.8423 292.228 97.8878C292.347 97.9304 292.476 97.9517 292.615 97.9517C292.718 97.9517 292.807 97.9446 292.884 97.9304C292.961 97.9162 293.02 97.9048 293.063 97.8963L293.293 98.9489C293.219 98.9773 293.114 99.0057 292.978 99.0341C292.841 99.0653 292.671 99.0824 292.466 99.0852C292.131 99.0909 291.819 99.0312 291.529 98.9062C291.239 98.7812 291.005 98.5881 290.826 98.3267C290.647 98.0653 290.557 97.7372 290.557 97.3423V90.8864ZM299.382 94.0526L298.228 94.2571C298.179 94.1094 298.103 93.9687 297.998 93.8352C297.895 93.7017 297.756 93.5923 297.58 93.5071C297.404 93.4219 297.184 93.3793 296.919 93.3793C296.559 93.3793 296.257 93.4602 296.016 93.6222C295.775 93.7812 295.654 93.9872 295.654 94.2401C295.654 94.4588 295.735 94.6349 295.897 94.7685C296.059 94.902 296.32 95.0114 296.681 95.0966L297.721 95.3352C298.323 95.4744 298.772 95.6889 299.067 95.9787C299.363 96.2685 299.51 96.6449 299.51 97.108C299.51 97.5 299.397 97.8494 299.169 98.1562C298.945 98.4602 298.631 98.6989 298.228 98.8722C297.827 99.0455 297.363 99.1321 296.834 99.1321C296.101 99.1321 295.503 98.9759 295.04 98.6634C294.577 98.348 294.293 97.9006 294.188 97.321L295.419 97.1335C295.496 97.4545 295.654 97.6974 295.892 97.8622C296.131 98.0241 296.442 98.1051 296.826 98.1051C297.243 98.1051 297.577 98.0185 297.827 97.8452C298.077 97.669 298.202 97.4545 298.202 97.2017C298.202 96.9972 298.125 96.8253 297.972 96.6861C297.821 96.5469 297.59 96.4418 297.277 96.3707L296.169 96.1278C295.559 95.9886 295.107 95.767 294.814 95.4631C294.525 95.1591 294.38 94.7741 294.38 94.3082C294.38 93.9219 294.488 93.5838 294.703 93.294C294.919 93.0043 295.218 92.7784 295.598 92.6165C295.979 92.4517 296.415 92.3693 296.907 92.3693C297.614 92.3693 298.171 92.5227 298.577 92.8295C298.983 93.1335 299.252 93.5412 299.382 94.0526Z" fill="#1D2939"/>
<path d="M461.339 99V98.0455L464.293 94.9858C464.608 94.6534 464.868 94.3622 465.072 94.1122C465.28 93.8594 465.435 93.6193 465.537 93.392C465.639 93.1648 465.69 92.9233 465.69 92.6676C465.69 92.3778 465.622 92.1278 465.486 91.9176C465.349 91.7045 465.163 91.5412 464.928 91.4276C464.692 91.3111 464.426 91.2528 464.131 91.2528C463.818 91.2528 463.545 91.3168 463.312 91.4446C463.08 91.5724 462.901 91.7528 462.776 91.9858C462.651 92.2187 462.588 92.4915 462.588 92.804H461.331C461.331 92.2727 461.453 91.8082 461.697 91.4105C461.942 91.0128 462.277 90.7045 462.703 90.4858C463.129 90.2642 463.614 90.1534 464.156 90.1534C464.705 90.1534 465.188 90.2628 465.605 90.4815C466.026 90.6974 466.354 90.9929 466.589 91.3679C466.825 91.7401 466.943 92.1605 466.943 92.6293C466.943 92.9531 466.882 93.2699 466.76 93.5795C466.641 93.8892 466.432 94.2344 466.134 94.6151C465.835 94.9929 465.42 95.4517 464.889 95.9915L463.155 97.8068V97.8707H467.084V99H461.339ZM471.58 99.1193C471.045 99.1193 470.565 99.017 470.139 98.8125C469.716 98.6051 469.378 98.321 469.125 97.9602C468.872 97.5994 468.737 97.1875 468.72 96.7244H469.999C470.03 97.0994 470.196 97.4077 470.497 97.6491C470.798 97.8906 471.159 98.0114 471.58 98.0114C471.915 98.0114 472.212 97.9347 472.47 97.7812C472.732 97.625 472.936 97.4105 473.084 97.1378C473.234 96.8651 473.31 96.554 473.31 96.2045C473.31 95.8494 473.233 95.5327 473.08 95.2543C472.926 94.9759 472.714 94.7571 472.445 94.598C472.178 94.4389 471.871 94.358 471.524 94.3551C471.26 94.3551 470.994 94.4006 470.727 94.4915C470.46 94.5824 470.244 94.7017 470.08 94.8494L468.874 94.6705L469.364 90.2727H474.162V91.402H470.459L470.182 93.8438H470.233C470.403 93.679 470.629 93.5412 470.911 93.4304C471.195 93.3196 471.499 93.2642 471.822 93.2642C472.354 93.2642 472.827 93.3906 473.241 93.6435C473.659 93.8963 473.987 94.2415 474.226 94.679C474.467 95.1136 474.587 95.6136 474.584 96.179C474.587 96.7443 474.459 97.2486 474.2 97.6918C473.945 98.1349 473.589 98.4844 473.135 98.7401C472.683 98.9929 472.165 99.1193 471.58 99.1193ZM480.696 97.3636V96.9034C480.696 96.5739 480.764 96.2727 480.9 96C481.039 95.7244 481.241 95.5043 481.505 95.3395C481.772 95.1719 482.095 95.0881 482.473 95.0881C482.859 95.0881 483.183 95.1705 483.444 95.3352C483.706 95.5 483.903 95.7202 484.037 95.9957C484.173 96.2713 484.241 96.5739 484.241 96.9034V97.3636C484.241 97.6932 484.173 97.9957 484.037 98.2713C483.9 98.544 483.7 98.7642 483.436 98.9318C483.174 99.0966 482.853 99.179 482.473 99.179C482.089 99.179 481.765 99.0966 481.501 98.9318C481.237 98.7642 481.037 98.544 480.9 98.2713C480.764 97.9957 480.696 97.6932 480.696 97.3636ZM481.689 96.9034V97.3636C481.689 97.608 481.747 97.8295 481.863 98.0284C481.98 98.2273 482.183 98.3267 482.473 98.3267C482.76 98.3267 482.96 98.2273 483.074 98.0284C483.187 97.8295 483.244 97.608 483.244 97.3636V96.9034C483.244 96.6591 483.189 96.4375 483.078 96.2386C482.97 96.0398 482.768 95.9403 482.473 95.9403C482.189 95.9403 481.987 96.0398 481.868 96.2386C481.748 96.4375 481.689 96.6591 481.689 96.9034ZM476.306 92.3693V91.9091C476.306 91.5795 476.375 91.277 476.511 91.0014C476.65 90.7259 476.852 90.5057 477.116 90.3409C477.383 90.1761 477.706 90.0938 478.083 90.0938C478.47 90.0938 478.794 90.1761 479.055 90.3409C479.316 90.5057 479.514 90.7259 479.647 91.0014C479.781 91.277 479.848 91.5795 479.848 91.9091V92.3693C479.848 92.6989 479.779 93.0014 479.643 93.277C479.51 93.5497 479.311 93.7699 479.047 93.9375C478.785 94.1023 478.464 94.1847 478.083 94.1847C477.697 94.1847 477.372 94.1023 477.108 93.9375C476.846 93.7699 476.647 93.5497 476.511 93.277C476.375 93.0014 476.306 92.6989 476.306 92.3693ZM477.304 91.9091V92.3693C477.304 92.6136 477.36 92.8352 477.474 93.0341C477.591 93.233 477.794 93.3324 478.083 93.3324C478.368 93.3324 478.566 93.233 478.68 93.0341C478.797 92.8352 478.855 92.6136 478.855 92.3693V91.9091C478.855 91.6648 478.799 91.4432 478.689 91.2443C478.578 91.0455 478.376 90.946 478.083 90.946C477.799 90.946 477.598 91.0455 477.478 91.2443C477.362 91.4432 477.304 91.6648 477.304 91.9091ZM476.711 99L482.711 90.2727H483.73L477.73 99H476.711Z" fill="#1D2939"/>
<path d="M485.5 111H233.5V113H485.5V111Z" fill="#EAECF0" mask="url(#path-5-inside-1_468_3069)"/>
<circle cx="238.5" cy="129" r="5" fill="#0BA5EC"/>
<path d="M255.219 126.565C255.173 126.162 254.986 125.849 254.656 125.628C254.327 125.403 253.912 125.291 253.412 125.291C253.054 125.291 252.744 125.348 252.483 125.462C252.222 125.572 252.018 125.726 251.874 125.922C251.732 126.115 251.661 126.335 251.661 126.582C251.661 126.79 251.709 126.969 251.805 127.119C251.905 127.27 252.034 127.396 252.193 127.499C252.355 127.598 252.528 127.682 252.713 127.75C252.898 127.815 253.075 127.869 253.246 127.912L254.098 128.134C254.376 128.202 254.662 128.294 254.955 128.411C255.247 128.527 255.518 128.68 255.768 128.871C256.018 129.061 256.22 129.297 256.374 129.578C256.53 129.859 256.608 130.196 256.608 130.588C256.608 131.082 256.48 131.521 256.224 131.905C255.972 132.288 255.604 132.591 255.121 132.812C254.641 133.034 254.06 133.145 253.378 133.145C252.724 133.145 252.159 133.041 251.682 132.834C251.205 132.626 250.831 132.332 250.561 131.952C250.291 131.568 250.142 131.114 250.114 130.588H251.435C251.46 130.903 251.563 131.166 251.741 131.376C251.923 131.584 252.155 131.739 252.436 131.841C252.72 131.94 253.031 131.99 253.369 131.99C253.741 131.99 254.072 131.932 254.362 131.815C254.655 131.696 254.885 131.531 255.053 131.321C255.22 131.108 255.304 130.859 255.304 130.575C255.304 130.317 255.23 130.105 255.082 129.94C254.938 129.776 254.74 129.639 254.49 129.531C254.243 129.423 253.963 129.328 253.651 129.246L252.619 128.964C251.92 128.774 251.366 128.494 250.957 128.125C250.551 127.756 250.348 127.267 250.348 126.659C250.348 126.156 250.484 125.717 250.757 125.342C251.03 124.967 251.399 124.676 251.865 124.469C252.331 124.259 252.857 124.153 253.442 124.153C254.033 124.153 254.554 124.257 255.006 124.464C255.46 124.672 255.818 124.957 256.08 125.321C256.341 125.682 256.477 126.097 256.489 126.565H255.219ZM259.984 133.145C259.569 133.145 259.194 133.068 258.859 132.915C258.524 132.759 258.258 132.533 258.062 132.237C257.869 131.942 257.772 131.58 257.772 131.151C257.772 130.781 257.843 130.477 257.985 130.239C258.127 130 258.319 129.811 258.561 129.672C258.802 129.533 259.072 129.428 259.37 129.357C259.669 129.286 259.973 129.232 260.282 129.195C260.674 129.149 260.993 129.112 261.237 129.084C261.481 129.053 261.659 129.003 261.77 128.935C261.88 128.866 261.936 128.756 261.936 128.602V128.572C261.936 128.2 261.831 127.912 261.62 127.707C261.413 127.503 261.103 127.401 260.691 127.401C260.262 127.401 259.924 127.496 259.677 127.686C259.433 127.874 259.264 128.082 259.17 128.312L257.973 128.04C258.115 127.642 258.322 127.321 258.595 127.077C258.87 126.83 259.187 126.651 259.545 126.54C259.903 126.426 260.279 126.369 260.674 126.369C260.936 126.369 261.213 126.401 261.505 126.463C261.801 126.523 262.076 126.634 262.332 126.795C262.591 126.957 262.802 127.189 262.967 127.49C263.132 127.788 263.214 128.176 263.214 128.653V133H261.97V132.105H261.919C261.836 132.27 261.713 132.432 261.548 132.591C261.383 132.75 261.172 132.882 260.913 132.987C260.654 133.092 260.345 133.145 259.984 133.145ZM260.261 132.122C260.613 132.122 260.914 132.053 261.164 131.913C261.417 131.774 261.609 131.592 261.74 131.368C261.873 131.141 261.94 130.898 261.94 130.639V129.795C261.895 129.841 261.806 129.884 261.676 129.923C261.548 129.96 261.402 129.993 261.237 130.021C261.072 130.047 260.912 130.071 260.755 130.094C260.599 130.114 260.468 130.131 260.363 130.145C260.116 130.176 259.89 130.229 259.686 130.303C259.484 130.376 259.322 130.483 259.2 130.622C259.081 130.759 259.021 130.94 259.021 131.168C259.021 131.483 259.137 131.722 259.37 131.884C259.603 132.043 259.9 132.122 260.261 132.122ZM270.276 126.455L267.903 133H266.539L264.161 126.455H265.529L267.187 131.491H267.255L268.908 126.455H270.276ZM271.474 133V126.455H272.748V133H271.474ZM272.117 125.445C271.896 125.445 271.705 125.371 271.546 125.223C271.39 125.072 271.312 124.893 271.312 124.686C271.312 124.476 271.39 124.297 271.546 124.149C271.705 123.999 271.896 123.923 272.117 123.923C272.339 123.923 272.528 123.999 272.684 124.149C272.843 124.297 272.923 124.476 272.923 124.686C272.923 124.893 272.843 125.072 272.684 125.223C272.528 125.371 272.339 125.445 272.117 125.445ZM275.736 129.114V133H274.462V126.455H275.685V127.52H275.766C275.917 127.173 276.152 126.895 276.473 126.685C276.797 126.474 277.205 126.369 277.696 126.369C278.142 126.369 278.533 126.463 278.868 126.651C279.203 126.835 279.463 127.111 279.648 127.477C279.833 127.844 279.925 128.297 279.925 128.837V133H278.651V128.99C278.651 128.516 278.527 128.145 278.28 127.878C278.033 127.608 277.694 127.473 277.262 127.473C276.966 127.473 276.703 127.537 276.473 127.665C276.246 127.793 276.066 127.98 275.932 128.227C275.801 128.472 275.736 128.767 275.736 129.114ZM284.378 135.591C283.858 135.591 283.411 135.523 283.036 135.386C282.664 135.25 282.36 135.07 282.124 134.845C281.888 134.621 281.712 134.375 281.596 134.108L282.691 133.656C282.767 133.781 282.87 133.913 282.998 134.053C283.128 134.195 283.304 134.315 283.526 134.415C283.75 134.514 284.039 134.564 284.391 134.564C284.874 134.564 285.273 134.446 285.588 134.21C285.904 133.977 286.061 133.605 286.061 133.094V131.807H285.98C285.904 131.946 285.793 132.101 285.648 132.271C285.506 132.442 285.31 132.589 285.06 132.714C284.81 132.839 284.485 132.902 284.084 132.902C283.567 132.902 283.101 132.781 282.686 132.54C282.275 132.295 281.948 131.936 281.706 131.462C281.468 130.984 281.348 130.398 281.348 129.702C281.348 129.006 281.466 128.409 281.702 127.912C281.941 127.415 282.267 127.034 282.682 126.77C283.097 126.503 283.567 126.369 284.093 126.369C284.499 126.369 284.827 126.438 285.077 126.574C285.327 126.707 285.522 126.864 285.661 127.043C285.803 127.222 285.912 127.379 285.989 127.516H286.083V126.455H287.331V133.145C287.331 133.707 287.201 134.169 286.939 134.53C286.678 134.891 286.324 135.158 285.878 135.331C285.435 135.504 284.935 135.591 284.378 135.591ZM284.365 131.845C284.732 131.845 285.042 131.76 285.294 131.589C285.55 131.416 285.743 131.169 285.874 130.848C286.007 130.524 286.074 130.136 286.074 129.685C286.074 129.244 286.009 128.857 285.878 128.521C285.748 128.186 285.556 127.925 285.303 127.737C285.05 127.547 284.738 127.452 284.365 127.452C283.982 127.452 283.662 127.551 283.407 127.75C283.151 127.946 282.958 128.213 282.827 128.551C282.699 128.889 282.635 129.267 282.635 129.685C282.635 130.114 282.701 130.49 282.831 130.814C282.962 131.138 283.155 131.391 283.411 131.572C283.669 131.754 283.988 131.845 284.365 131.845ZM293.945 128.053L292.79 128.257C292.742 128.109 292.665 127.969 292.56 127.835C292.458 127.702 292.319 127.592 292.142 127.507C291.966 127.422 291.746 127.379 291.482 127.379C291.121 127.379 290.82 127.46 290.578 127.622C290.337 127.781 290.216 127.987 290.216 128.24C290.216 128.459 290.297 128.635 290.459 128.768C290.621 128.902 290.882 129.011 291.243 129.097L292.283 129.335C292.885 129.474 293.334 129.689 293.63 129.979C293.925 130.268 294.073 130.645 294.073 131.108C294.073 131.5 293.959 131.849 293.732 132.156C293.507 132.46 293.194 132.699 292.79 132.872C292.39 133.045 291.925 133.132 291.397 133.132C290.664 133.132 290.066 132.976 289.603 132.663C289.14 132.348 288.855 131.901 288.75 131.321L289.982 131.134C290.059 131.455 290.216 131.697 290.455 131.862C290.694 132.024 291.005 132.105 291.388 132.105C291.806 132.105 292.14 132.018 292.39 131.845C292.64 131.669 292.765 131.455 292.765 131.202C292.765 130.997 292.688 130.825 292.534 130.686C292.384 130.547 292.152 130.442 291.84 130.371L290.732 130.128C290.121 129.989 289.669 129.767 289.377 129.463C289.087 129.159 288.942 128.774 288.942 128.308C288.942 127.922 289.05 127.584 289.266 127.294C289.482 127.004 289.78 126.778 290.161 126.616C290.542 126.452 290.978 126.369 291.469 126.369C292.176 126.369 292.733 126.523 293.14 126.83C293.546 127.134 293.814 127.541 293.945 128.053Z" fill="#1D2939"/>
<path d="M455.378 133.119C454.793 133.119 454.27 133.018 453.81 132.817C453.352 132.615 452.99 132.335 452.723 131.977C452.459 131.616 452.317 131.199 452.297 130.724H453.635C453.652 130.983 453.739 131.207 453.895 131.398C454.054 131.585 454.261 131.73 454.517 131.832C454.773 131.935 455.057 131.986 455.369 131.986C455.713 131.986 456.017 131.926 456.281 131.807C456.548 131.687 456.757 131.521 456.908 131.308C457.058 131.092 457.134 130.844 457.134 130.562C457.134 130.27 457.058 130.013 456.908 129.791C456.76 129.567 456.543 129.391 456.256 129.263C455.972 129.135 455.628 129.071 455.224 129.071H454.487V127.997H455.224C455.548 127.997 455.832 127.939 456.077 127.822C456.324 127.706 456.517 127.544 456.656 127.337C456.795 127.126 456.865 126.881 456.865 126.599C456.865 126.33 456.804 126.095 456.682 125.896C456.563 125.695 456.392 125.537 456.17 125.423C455.952 125.31 455.693 125.253 455.395 125.253C455.111 125.253 454.845 125.305 454.598 125.411C454.354 125.513 454.155 125.661 454.001 125.854C453.848 126.044 453.766 126.273 453.754 126.54H452.48C452.494 126.068 452.634 125.653 452.898 125.295C453.165 124.937 453.517 124.658 453.955 124.456C454.392 124.254 454.878 124.153 455.412 124.153C455.972 124.153 456.455 124.263 456.861 124.482C457.27 124.697 457.585 124.986 457.807 125.347C458.031 125.707 458.142 126.102 458.139 126.531C458.142 127.02 458.006 127.435 457.73 127.776C457.457 128.116 457.094 128.345 456.639 128.462V128.53C457.219 128.618 457.668 128.848 457.986 129.22C458.307 129.592 458.466 130.054 458.463 130.605C458.466 131.085 458.332 131.516 458.062 131.896C457.795 132.277 457.43 132.577 456.967 132.795C456.504 133.011 455.974 133.119 455.378 133.119ZM459.891 131.295V130.23L463.662 124.273H464.501V125.841H463.969L461.271 130.111V130.179H466.44V131.295H459.891ZM464.028 133V130.972L464.037 130.486V124.273H465.286V133H464.028ZM468.454 133.081C468.221 133.081 468.021 132.999 467.853 132.834C467.685 132.666 467.602 132.464 467.602 132.229C467.602 131.996 467.685 131.797 467.853 131.632C468.021 131.464 468.221 131.381 468.454 131.381C468.687 131.381 468.887 131.464 469.055 131.632C469.222 131.797 469.306 131.996 469.306 132.229C469.306 132.385 469.266 132.528 469.187 132.659C469.11 132.787 469.008 132.889 468.88 132.966C468.752 133.043 468.61 133.081 468.454 133.081ZM473.252 124.273V133H471.931V125.594H471.88L469.792 126.957V125.696L471.969 124.273H473.252ZM480.168 131.364V130.903C480.168 130.574 480.237 130.273 480.373 130C480.512 129.724 480.714 129.504 480.978 129.339C481.245 129.172 481.567 129.088 481.945 129.088C482.332 129.088 482.656 129.17 482.917 129.335C483.178 129.5 483.376 129.72 483.509 129.996C483.646 130.271 483.714 130.574 483.714 130.903V131.364C483.714 131.693 483.646 131.996 483.509 132.271C483.373 132.544 483.173 132.764 482.908 132.932C482.647 133.097 482.326 133.179 481.945 133.179C481.562 133.179 481.238 133.097 480.974 132.932C480.71 132.764 480.509 132.544 480.373 132.271C480.237 131.996 480.168 131.693 480.168 131.364ZM481.161 130.903V131.364C481.161 131.608 481.219 131.83 481.336 132.028C481.452 132.227 481.656 132.327 481.945 132.327C482.232 132.327 482.433 132.227 482.546 132.028C482.66 131.83 482.717 131.608 482.717 131.364V130.903C482.717 130.659 482.661 130.437 482.55 130.239C482.442 130.04 482.241 129.94 481.945 129.94C481.661 129.94 481.46 130.04 481.34 130.239C481.221 130.437 481.161 130.659 481.161 130.903ZM475.779 126.369V125.909C475.779 125.58 475.847 125.277 475.984 125.001C476.123 124.726 476.325 124.506 476.589 124.341C476.856 124.176 477.178 124.094 477.556 124.094C477.942 124.094 478.266 124.176 478.528 124.341C478.789 124.506 478.987 124.726 479.12 125.001C479.254 125.277 479.32 125.58 479.32 125.909V126.369C479.32 126.699 479.252 127.001 479.116 127.277C478.982 127.55 478.783 127.77 478.519 127.938C478.258 128.102 477.937 128.185 477.556 128.185C477.17 128.185 476.844 128.102 476.58 127.938C476.319 127.77 476.12 127.55 475.984 127.277C475.847 127.001 475.779 126.699 475.779 126.369ZM476.776 125.909V126.369C476.776 126.614 476.833 126.835 476.947 127.034C477.063 127.233 477.266 127.332 477.556 127.332C477.84 127.332 478.039 127.233 478.153 127.034C478.269 126.835 478.327 126.614 478.327 126.369V125.909C478.327 125.665 478.272 125.443 478.161 125.244C478.05 125.045 477.849 124.946 477.556 124.946C477.272 124.946 477.07 125.045 476.951 125.244C476.835 125.443 476.776 125.665 476.776 125.909ZM476.184 133L482.184 124.273H483.202L477.202 133H476.184Z" fill="#1D2939"/>
<path d="M485.5 145H233.5V147H485.5V145Z" fill="#EAECF0" mask="url(#path-10-inside-2_468_3069)"/>
<circle cx="238.5" cy="163" r="5" fill="#FD853A"/>
<path d="M250.459 158.273H252.057L254.835 165.057H254.938L257.716 158.273H259.314V167H258.061V160.685H257.98L255.406 166.987H254.366L251.793 160.68H251.712V167H250.459V158.273ZM263.883 167.132C263.27 167.132 262.734 166.991 262.277 166.71C261.819 166.429 261.464 166.036 261.211 165.53C260.958 165.024 260.832 164.433 260.832 163.757C260.832 163.078 260.958 162.484 261.211 161.976C261.464 161.467 261.819 161.072 262.277 160.791C262.734 160.51 263.27 160.369 263.883 160.369C264.497 160.369 265.032 160.51 265.49 160.791C265.947 161.072 266.302 161.467 266.555 161.976C266.808 162.484 266.934 163.078 266.934 163.757C266.934 164.433 266.808 165.024 266.555 165.53C266.302 166.036 265.947 166.429 265.49 166.71C265.032 166.991 264.497 167.132 263.883 167.132ZM263.887 166.062C264.285 166.062 264.615 165.957 264.876 165.747C265.137 165.537 265.331 165.257 265.456 164.908C265.583 164.558 265.647 164.173 265.647 163.753C265.647 163.335 265.583 162.952 265.456 162.602C265.331 162.25 265.137 161.967 264.876 161.754C264.615 161.541 264.285 161.435 263.887 161.435C263.487 161.435 263.154 161.541 262.89 161.754C262.629 161.967 262.434 162.25 262.306 162.602C262.181 162.952 262.119 163.335 262.119 163.753C262.119 164.173 262.181 164.558 262.306 164.908C262.434 165.257 262.629 165.537 262.89 165.747C263.154 165.957 263.487 166.062 263.887 166.062ZM269.631 163.114V167H268.357V160.455H269.58V161.52H269.661C269.811 161.173 270.047 160.895 270.368 160.685C270.692 160.474 271.099 160.369 271.591 160.369C272.037 160.369 272.428 160.463 272.763 160.651C273.098 160.835 273.358 161.111 273.543 161.477C273.727 161.844 273.82 162.297 273.82 162.837V167H272.545V162.99C272.545 162.516 272.422 162.145 272.175 161.878C271.928 161.608 271.588 161.473 271.156 161.473C270.861 161.473 270.598 161.537 270.368 161.665C270.141 161.793 269.96 161.98 269.827 162.227C269.696 162.472 269.631 162.767 269.631 163.114ZM278.349 167.132C277.705 167.132 277.149 166.994 276.683 166.719C276.22 166.44 275.862 166.05 275.609 165.547C275.359 165.041 275.234 164.449 275.234 163.77C275.234 163.099 275.359 162.509 275.609 161.997C275.862 161.486 276.214 161.087 276.666 160.8C277.121 160.513 277.652 160.369 278.26 160.369C278.629 160.369 278.987 160.43 279.334 160.553C279.68 160.675 279.991 160.866 280.267 161.128C280.543 161.389 280.76 161.729 280.919 162.146C281.078 162.561 281.158 163.065 281.158 163.659V164.111H275.955V163.156H279.909C279.909 162.821 279.841 162.524 279.705 162.266C279.568 162.004 279.376 161.798 279.129 161.648C278.885 161.497 278.598 161.422 278.268 161.422C277.911 161.422 277.598 161.51 277.331 161.686C277.067 161.859 276.862 162.087 276.717 162.368C276.575 162.646 276.504 162.949 276.504 163.276V164.021C276.504 164.459 276.581 164.831 276.734 165.138C276.891 165.445 277.108 165.679 277.386 165.841C277.665 166 277.99 166.08 278.362 166.08C278.604 166.08 278.824 166.045 279.023 165.977C279.222 165.906 279.393 165.801 279.538 165.662C279.683 165.523 279.794 165.351 279.871 165.146L281.077 165.364C280.98 165.719 280.807 166.03 280.557 166.297C280.31 166.561 279.999 166.767 279.624 166.915C279.251 167.06 278.827 167.132 278.349 167.132ZM283.189 169.455C282.999 169.455 282.826 169.439 282.669 169.408C282.513 169.379 282.397 169.348 282.32 169.314L282.627 168.27C282.86 168.332 283.067 168.359 283.249 168.351C283.431 168.342 283.591 168.274 283.73 168.146C283.873 168.018 283.998 167.81 284.105 167.52L284.263 167.085L281.868 160.455H283.232L284.89 165.534H284.958L286.615 160.455H287.983L285.286 167.874C285.161 168.214 285.002 168.503 284.809 168.739C284.615 168.977 284.385 169.156 284.118 169.276C283.851 169.395 283.542 169.455 283.189 169.455ZM292.459 158.273H294.057L296.835 165.057H296.938L299.716 158.273H301.314V167H300.061V160.685H299.98L297.406 166.987H296.366L293.793 160.68H293.712V167H292.459V158.273ZM305.031 167.145C304.616 167.145 304.241 167.068 303.906 166.915C303.571 166.759 303.305 166.533 303.109 166.237C302.916 165.942 302.819 165.58 302.819 165.151C302.819 164.781 302.89 164.477 303.032 164.239C303.174 164 303.366 163.811 303.608 163.672C303.849 163.533 304.119 163.428 304.417 163.357C304.716 163.286 305.02 163.232 305.329 163.195C305.721 163.149 306.039 163.112 306.284 163.084C306.528 163.053 306.706 163.003 306.816 162.935C306.927 162.866 306.983 162.756 306.983 162.602V162.572C306.983 162.2 306.877 161.912 306.667 161.707C306.46 161.503 306.15 161.401 305.738 161.401C305.309 161.401 304.971 161.496 304.724 161.686C304.48 161.874 304.311 162.082 304.217 162.312L303.02 162.04C303.162 161.642 303.369 161.321 303.642 161.077C303.917 160.83 304.234 160.651 304.592 160.54C304.95 160.426 305.326 160.369 305.721 160.369C305.983 160.369 306.26 160.401 306.552 160.463C306.848 160.523 307.123 160.634 307.379 160.795C307.637 160.957 307.849 161.189 308.014 161.49C308.179 161.788 308.261 162.176 308.261 162.653V167H307.017V166.105H306.966C306.883 166.27 306.76 166.432 306.595 166.591C306.43 166.75 306.218 166.882 305.96 166.987C305.701 167.092 305.392 167.145 305.031 167.145ZM305.308 166.122C305.66 166.122 305.961 166.053 306.211 165.913C306.464 165.774 306.656 165.592 306.787 165.368C306.92 165.141 306.987 164.898 306.987 164.639V163.795C306.941 163.841 306.853 163.884 306.723 163.923C306.595 163.96 306.449 163.993 306.284 164.021C306.119 164.047 305.958 164.071 305.802 164.094C305.646 164.114 305.515 164.131 305.41 164.145C305.163 164.176 304.937 164.229 304.733 164.303C304.531 164.376 304.369 164.483 304.247 164.622C304.127 164.759 304.068 164.94 304.068 165.168C304.068 165.483 304.184 165.722 304.417 165.884C304.65 166.043 304.947 166.122 305.308 166.122ZM309.958 167V160.455H311.19V161.494H311.258C311.377 161.142 311.587 160.865 311.888 160.663C312.192 160.459 312.536 160.357 312.92 160.357C312.999 160.357 313.093 160.359 313.201 160.365C313.312 160.371 313.398 160.378 313.461 160.386V161.605C313.41 161.591 313.319 161.575 313.188 161.558C313.058 161.538 312.927 161.528 312.796 161.528C312.495 161.528 312.227 161.592 311.991 161.72C311.758 161.845 311.573 162.02 311.437 162.244C311.3 162.466 311.232 162.719 311.232 163.003V167H309.958ZM315.735 164.78L315.727 163.224H315.949L318.556 160.455H320.082L317.108 163.608H316.907L315.735 164.78ZM314.564 167V158.273H315.838V167H314.564ZM318.697 167L316.353 163.889L317.231 162.999L320.261 167H318.697ZM323.795 167.132C323.15 167.132 322.594 166.994 322.129 166.719C321.665 166.44 321.308 166.05 321.055 165.547C320.805 165.041 320.68 164.449 320.68 163.77C320.68 163.099 320.805 162.509 321.055 161.997C321.308 161.486 321.66 161.087 322.112 160.8C322.566 160.513 323.097 160.369 323.705 160.369C324.075 160.369 324.433 160.43 324.779 160.553C325.126 160.675 325.437 160.866 325.712 161.128C325.988 161.389 326.205 161.729 326.364 162.146C326.523 162.561 326.603 163.065 326.603 163.659V164.111H321.4V163.156H325.354C325.354 162.821 325.286 162.524 325.15 162.266C325.013 162.004 324.822 161.798 324.575 161.648C324.33 161.497 324.043 161.422 323.714 161.422C323.356 161.422 323.043 161.51 322.776 161.686C322.512 161.859 322.308 162.087 322.163 162.368C322.021 162.646 321.95 162.949 321.95 163.276V164.021C321.95 164.459 322.026 164.831 322.18 165.138C322.336 165.445 322.553 165.679 322.832 165.841C323.11 166 323.435 166.08 323.808 166.08C324.049 166.08 324.269 166.045 324.468 165.977C324.667 165.906 324.839 165.801 324.984 165.662C325.129 165.523 325.239 165.351 325.316 165.146L326.522 165.364C326.425 165.719 326.252 166.03 326.002 166.297C325.755 166.561 325.444 166.767 325.069 166.915C324.697 167.06 324.272 167.132 323.795 167.132ZM331.072 160.455V161.477H327.497V160.455H331.072ZM328.456 158.886H329.73V165.078C329.73 165.325 329.767 165.511 329.841 165.636C329.914 165.759 330.01 165.842 330.126 165.888C330.245 165.93 330.375 165.952 330.514 165.952C330.616 165.952 330.706 165.945 330.782 165.93C330.859 165.916 330.919 165.905 330.961 165.896L331.191 166.949C331.118 166.977 331.012 167.006 330.876 167.034C330.74 167.065 330.569 167.082 330.365 167.085C330.029 167.091 329.717 167.031 329.427 166.906C329.137 166.781 328.903 166.588 328.724 166.327C328.545 166.065 328.456 165.737 328.456 165.342V158.886Z" fill="#1D2939"/>
<path d="M451.339 167V166.045L454.293 162.986C454.608 162.653 454.868 162.362 455.072 162.112C455.28 161.859 455.435 161.619 455.537 161.392C455.639 161.165 455.69 160.923 455.69 160.668C455.69 160.378 455.622 160.128 455.486 159.918C455.349 159.705 455.163 159.541 454.928 159.428C454.692 159.311 454.426 159.253 454.131 159.253C453.818 159.253 453.545 159.317 453.312 159.445C453.08 159.572 452.901 159.753 452.776 159.986C452.651 160.219 452.588 160.491 452.588 160.804H451.331C451.331 160.273 451.453 159.808 451.697 159.411C451.942 159.013 452.277 158.705 452.703 158.486C453.129 158.264 453.614 158.153 454.156 158.153C454.705 158.153 455.188 158.263 455.605 158.482C456.026 158.697 456.354 158.993 456.589 159.368C456.825 159.74 456.943 160.161 456.943 160.629C456.943 160.953 456.882 161.27 456.76 161.58C456.641 161.889 456.432 162.234 456.134 162.615C455.835 162.993 455.42 163.452 454.889 163.991L453.155 165.807V165.871H457.084V167H451.339ZM458.699 167V166.045L461.652 162.986C461.967 162.653 462.227 162.362 462.432 162.112C462.639 161.859 462.794 161.619 462.896 161.392C462.999 161.165 463.05 160.923 463.05 160.668C463.05 160.378 462.982 160.128 462.845 159.918C462.709 159.705 462.523 159.541 462.287 159.428C462.051 159.311 461.786 159.253 461.49 159.253C461.178 159.253 460.905 159.317 460.672 159.445C460.439 159.572 460.26 159.753 460.135 159.986C460.01 160.219 459.947 160.491 459.947 160.804H458.69C458.69 160.273 458.813 159.808 459.057 159.411C459.301 159.013 459.636 158.705 460.062 158.486C460.489 158.264 460.973 158.153 461.516 158.153C462.064 158.153 462.547 158.263 462.964 158.482C463.385 158.697 463.713 158.993 463.949 159.368C464.185 159.74 464.303 160.161 464.303 160.629C464.303 160.953 464.241 161.27 464.119 161.58C464 161.889 463.791 162.234 463.493 162.615C463.195 162.993 462.78 163.452 462.249 163.991L460.514 165.807V165.871H464.443V167H458.699ZM466.915 167.081C466.682 167.081 466.482 166.999 466.314 166.834C466.146 166.666 466.062 166.464 466.062 166.229C466.062 165.996 466.146 165.797 466.314 165.632C466.482 165.464 466.682 165.381 466.915 165.381C467.148 165.381 467.348 165.464 467.516 165.632C467.683 165.797 467.767 165.996 467.767 166.229C467.767 166.385 467.727 166.528 467.648 166.659C467.571 166.787 467.469 166.889 467.341 166.966C467.213 167.043 467.071 167.081 466.915 167.081ZM469.528 167L473.338 159.466V159.402H468.931V158.273H474.701V159.44L470.904 167H469.528ZM480.739 165.364V164.903C480.739 164.574 480.807 164.273 480.943 164C481.082 163.724 481.284 163.504 481.548 163.339C481.815 163.172 482.138 163.088 482.516 163.088C482.902 163.088 483.226 163.17 483.487 163.335C483.749 163.5 483.946 163.72 484.08 163.996C484.216 164.271 484.284 164.574 484.284 164.903V165.364C484.284 165.693 484.216 165.996 484.08 166.271C483.943 166.544 483.743 166.764 483.479 166.932C483.217 167.097 482.896 167.179 482.516 167.179C482.132 167.179 481.808 167.097 481.544 166.932C481.28 166.764 481.08 166.544 480.943 166.271C480.807 165.996 480.739 165.693 480.739 165.364ZM481.732 164.903V165.364C481.732 165.608 481.79 165.83 481.906 166.028C482.023 166.227 482.226 166.327 482.516 166.327C482.803 166.327 483.003 166.227 483.116 166.028C483.23 165.83 483.287 165.608 483.287 165.364V164.903C483.287 164.659 483.232 164.437 483.121 164.239C483.013 164.04 482.811 163.94 482.516 163.94C482.232 163.94 482.03 164.04 481.911 164.239C481.791 164.437 481.732 164.659 481.732 164.903ZM476.349 160.369V159.909C476.349 159.58 476.418 159.277 476.554 159.001C476.693 158.726 476.895 158.506 477.159 158.341C477.426 158.176 477.749 158.094 478.126 158.094C478.513 158.094 478.837 158.176 479.098 158.341C479.359 158.506 479.557 158.726 479.69 159.001C479.824 159.277 479.891 159.58 479.891 159.909V160.369C479.891 160.699 479.822 161.001 479.686 161.277C479.553 161.55 479.354 161.77 479.089 161.938C478.828 162.102 478.507 162.185 478.126 162.185C477.74 162.185 477.415 162.102 477.151 161.938C476.889 161.77 476.69 161.55 476.554 161.277C476.418 161.001 476.349 160.699 476.349 160.369ZM477.347 159.909V160.369C477.347 160.614 477.403 160.835 477.517 161.034C477.634 161.233 477.837 161.332 478.126 161.332C478.411 161.332 478.609 161.233 478.723 161.034C478.839 160.835 478.898 160.614 478.898 160.369V159.909C478.898 159.665 478.842 159.443 478.732 159.244C478.621 159.045 478.419 158.946 478.126 158.946C477.842 158.946 477.641 159.045 477.521 159.244C477.405 159.443 477.347 159.665 477.347 159.909ZM476.754 167L482.754 158.273H483.773L477.773 167H476.754Z" fill="#1D2939"/>
<path d="M485.5 179H233.5V181H485.5V179Z" fill="#EAECF0" mask="url(#path-15-inside-3_468_3069)"/>
<circle cx="238.5" cy="197" r="5" fill="#D0D5DD"/>
<path d="M251.776 192.273V201H250.459V192.273H251.776ZM254.865 197.114V201H253.591V194.455H254.814V195.52H254.895C255.045 195.173 255.281 194.895 255.602 194.685C255.926 194.474 256.334 194.369 256.825 194.369C257.271 194.369 257.662 194.463 257.997 194.651C258.332 194.835 258.592 195.111 258.777 195.477C258.962 195.844 259.054 196.297 259.054 196.837V201H257.78V196.99C257.78 196.516 257.656 196.145 257.409 195.878C257.162 195.608 256.822 195.473 256.391 195.473C256.095 195.473 255.832 195.537 255.602 195.665C255.375 195.793 255.195 195.98 255.061 196.227C254.93 196.472 254.865 196.767 254.865 197.114ZM263.818 194.455V195.477H260.243V194.455H263.818ZM261.202 192.886H262.476V199.078C262.476 199.325 262.513 199.511 262.587 199.636C262.661 199.759 262.756 199.842 262.872 199.888C262.991 199.93 263.121 199.952 263.26 199.952C263.362 199.952 263.452 199.945 263.528 199.93C263.605 199.916 263.665 199.905 263.707 199.896L263.938 200.949C263.864 200.977 263.759 201.006 263.622 201.034C263.486 201.065 263.315 201.082 263.111 201.085C262.776 201.091 262.463 201.031 262.173 200.906C261.884 200.781 261.649 200.588 261.47 200.327C261.291 200.065 261.202 199.737 261.202 199.342V192.886ZM267.978 201.132C267.333 201.132 266.778 200.994 266.312 200.719C265.849 200.44 265.491 200.05 265.238 199.547C264.988 199.041 264.863 198.449 264.863 197.77C264.863 197.099 264.988 196.509 265.238 195.997C265.491 195.486 265.843 195.087 266.295 194.8C266.75 194.513 267.281 194.369 267.889 194.369C268.258 194.369 268.616 194.43 268.963 194.553C269.309 194.675 269.62 194.866 269.896 195.128C270.172 195.389 270.389 195.729 270.548 196.146C270.707 196.561 270.787 197.065 270.787 197.659V198.111H265.583V197.156H269.538C269.538 196.821 269.47 196.524 269.333 196.266C269.197 196.004 269.005 195.798 268.758 195.648C268.514 195.497 268.227 195.422 267.897 195.422C267.539 195.422 267.227 195.51 266.96 195.686C266.696 195.859 266.491 196.087 266.346 196.368C266.204 196.646 266.133 196.949 266.133 197.276V198.021C266.133 198.459 266.21 198.831 266.363 199.138C266.52 199.445 266.737 199.679 267.015 199.841C267.294 200 267.619 200.08 267.991 200.08C268.233 200.08 268.453 200.045 268.652 199.977C268.85 199.906 269.022 199.801 269.167 199.662C269.312 199.523 269.423 199.351 269.5 199.146L270.706 199.364C270.609 199.719 270.436 200.03 270.186 200.297C269.939 200.561 269.627 200.767 269.252 200.915C268.88 201.06 268.456 201.132 267.978 201.132ZM272.2 201V194.455H273.432V195.494H273.5C273.619 195.142 273.83 194.865 274.131 194.663C274.435 194.459 274.778 194.357 275.162 194.357C275.241 194.357 275.335 194.359 275.443 194.365C275.554 194.371 275.641 194.378 275.703 194.386V195.605C275.652 195.591 275.561 195.575 275.43 195.558C275.3 195.538 275.169 195.528 275.038 195.528C274.737 195.528 274.469 195.592 274.233 195.72C274 195.845 273.815 196.02 273.679 196.244C273.543 196.466 273.474 196.719 273.474 197.003V201H272.2ZM279.392 201.132C278.748 201.132 278.192 200.994 277.726 200.719C277.263 200.44 276.905 200.05 276.652 199.547C276.402 199.041 276.277 198.449 276.277 197.77C276.277 197.099 276.402 196.509 276.652 195.997C276.905 195.486 277.257 195.087 277.709 194.8C278.164 194.513 278.695 194.369 279.303 194.369C279.672 194.369 280.03 194.43 280.377 194.553C280.723 194.675 281.034 194.866 281.31 195.128C281.586 195.389 281.803 195.729 281.962 196.146C282.121 196.561 282.201 197.065 282.201 197.659V198.111H276.998V197.156H280.952C280.952 196.821 280.884 196.524 280.748 196.266C280.611 196.004 280.419 195.798 280.172 195.648C279.928 195.497 279.641 195.422 279.311 195.422C278.953 195.422 278.641 195.51 278.374 195.686C278.11 195.859 277.905 196.087 277.76 196.368C277.618 196.646 277.547 196.949 277.547 197.276V198.021C277.547 198.459 277.624 198.831 277.777 199.138C277.934 199.445 278.151 199.679 278.429 199.841C278.708 200 279.033 200.08 279.405 200.08C279.647 200.08 279.867 200.045 280.066 199.977C280.265 199.906 280.436 199.801 280.581 199.662C280.726 199.523 280.837 199.351 280.914 199.146L282.12 199.364C282.023 199.719 281.85 200.03 281.6 200.297C281.353 200.561 281.042 200.767 280.667 200.915C280.294 201.06 279.87 201.132 279.392 201.132ZM288.519 196.053L287.364 196.257C287.316 196.109 287.239 195.969 287.134 195.835C287.032 195.702 286.893 195.592 286.717 195.507C286.54 195.422 286.32 195.379 286.056 195.379C285.695 195.379 285.394 195.46 285.153 195.622C284.911 195.781 284.79 195.987 284.79 196.24C284.79 196.459 284.871 196.635 285.033 196.768C285.195 196.902 285.457 197.011 285.817 197.097L286.857 197.335C287.46 197.474 287.908 197.689 288.204 197.979C288.499 198.268 288.647 198.645 288.647 199.108C288.647 199.5 288.533 199.849 288.306 200.156C288.082 200.46 287.768 200.699 287.364 200.872C286.964 201.045 286.499 201.132 285.971 201.132C285.238 201.132 284.64 200.976 284.177 200.663C283.714 200.348 283.43 199.901 283.325 199.321L284.556 199.134C284.633 199.455 284.79 199.697 285.029 199.862C285.268 200.024 285.579 200.105 285.962 200.105C286.38 200.105 286.714 200.018 286.964 199.845C287.214 199.669 287.339 199.455 287.339 199.202C287.339 198.997 287.262 198.825 287.109 198.686C286.958 198.547 286.727 198.442 286.414 198.371L285.306 198.128C284.695 197.989 284.244 197.767 283.951 197.463C283.661 197.159 283.516 196.774 283.516 196.308C283.516 195.922 283.624 195.584 283.84 195.294C284.056 195.004 284.354 194.778 284.735 194.616C285.116 194.452 285.552 194.369 286.043 194.369C286.751 194.369 287.308 194.523 287.714 194.83C288.12 195.134 288.388 195.541 288.519 196.053ZM293.103 194.455V195.477H289.528V194.455H293.103ZM290.487 192.886H291.761V199.078C291.761 199.325 291.798 199.511 291.872 199.636C291.946 199.759 292.041 199.842 292.157 199.888C292.277 199.93 292.406 199.952 292.545 199.952C292.647 199.952 292.737 199.945 292.814 199.93C292.89 199.916 292.95 199.905 292.993 199.896L293.223 200.949C293.149 200.977 293.044 201.006 292.907 201.034C292.771 201.065 292.6 201.082 292.396 201.085C292.061 201.091 291.748 201.031 291.458 200.906C291.169 200.781 290.934 200.588 290.755 200.327C290.576 200.065 290.487 199.737 290.487 199.342V192.886ZM297.791 201V192.273H300.987C301.606 192.273 302.119 192.375 302.525 192.58C302.931 192.781 303.235 193.055 303.437 193.402C303.639 193.746 303.74 194.134 303.74 194.565C303.74 194.929 303.673 195.236 303.539 195.486C303.406 195.733 303.227 195.932 303.002 196.082C302.781 196.23 302.537 196.338 302.27 196.406V196.491C302.559 196.506 302.842 196.599 303.118 196.773C303.396 196.943 303.626 197.186 303.808 197.501C303.99 197.817 304.081 198.2 304.081 198.652C304.081 199.098 303.975 199.499 303.765 199.854C303.558 200.206 303.237 200.486 302.802 200.693C302.368 200.898 301.812 201 301.136 201H297.791ZM299.108 199.871H301.008C301.639 199.871 302.091 199.749 302.363 199.504C302.636 199.26 302.772 198.955 302.772 198.588C302.772 198.312 302.703 198.06 302.564 197.83C302.424 197.599 302.225 197.416 301.967 197.28C301.711 197.143 301.407 197.075 301.055 197.075H299.108V199.871ZM299.108 196.048H300.872C301.167 196.048 301.433 195.991 301.669 195.878C301.907 195.764 302.096 195.605 302.235 195.401C302.377 195.193 302.449 194.949 302.449 194.668C302.449 194.307 302.322 194.004 302.069 193.76C301.816 193.516 301.429 193.393 300.906 193.393H299.108V196.048ZM308.361 201.132C307.716 201.132 307.161 200.994 306.695 200.719C306.232 200.44 305.874 200.05 305.621 199.547C305.371 199.041 305.246 198.449 305.246 197.77C305.246 197.099 305.371 196.509 305.621 195.997C305.874 195.486 306.226 195.087 306.678 194.8C307.132 194.513 307.664 194.369 308.272 194.369C308.641 194.369 308.999 194.43 309.346 194.553C309.692 194.675 310.003 194.866 310.279 195.128C310.554 195.389 310.772 195.729 310.931 196.146C311.09 196.561 311.169 197.065 311.169 197.659V198.111H305.966V197.156H309.921C309.921 196.821 309.853 196.524 309.716 196.266C309.58 196.004 309.388 195.798 309.141 195.648C308.897 195.497 308.61 195.422 308.28 195.422C307.922 195.422 307.61 195.51 307.343 195.686C307.078 195.859 306.874 196.087 306.729 196.368C306.587 196.646 306.516 196.949 306.516 197.276V198.021C306.516 198.459 306.593 198.831 306.746 199.138C306.902 199.445 307.12 199.679 307.398 199.841C307.676 200 308.002 200.08 308.374 200.08C308.615 200.08 308.836 200.045 309.034 199.977C309.233 199.906 309.405 199.801 309.55 199.662C309.695 199.523 309.806 199.351 309.882 199.146L311.088 199.364C310.992 199.719 310.819 200.03 310.569 200.297C310.321 200.561 310.01 200.767 309.635 200.915C309.263 201.06 308.838 201.132 308.361 201.132ZM314.488 201.145C314.073 201.145 313.698 201.068 313.363 200.915C313.028 200.759 312.762 200.533 312.566 200.237C312.373 199.942 312.276 199.58 312.276 199.151C312.276 198.781 312.347 198.477 312.489 198.239C312.631 198 312.823 197.811 313.065 197.672C313.306 197.533 313.576 197.428 313.874 197.357C314.173 197.286 314.477 197.232 314.786 197.195C315.178 197.149 315.496 197.112 315.741 197.084C315.985 197.053 316.163 197.003 316.273 196.935C316.384 196.866 316.44 196.756 316.44 196.602V196.572C316.44 196.2 316.335 195.912 316.124 195.707C315.917 195.503 315.607 195.401 315.195 195.401C314.766 195.401 314.428 195.496 314.181 195.686C313.937 195.874 313.768 196.082 313.674 196.312L312.477 196.04C312.619 195.642 312.826 195.321 313.099 195.077C313.374 194.83 313.691 194.651 314.049 194.54C314.407 194.426 314.783 194.369 315.178 194.369C315.44 194.369 315.717 194.401 316.009 194.463C316.305 194.523 316.58 194.634 316.836 194.795C317.094 194.957 317.306 195.189 317.471 195.49C317.636 195.788 317.718 196.176 317.718 196.653V201H316.474V200.105H316.423C316.34 200.27 316.217 200.432 316.052 200.591C315.887 200.75 315.675 200.882 315.417 200.987C315.158 201.092 314.849 201.145 314.488 201.145ZM314.765 200.122C315.117 200.122 315.418 200.053 315.668 199.913C315.921 199.774 316.113 199.592 316.244 199.368C316.377 199.141 316.444 198.898 316.444 198.639V197.795C316.398 197.841 316.31 197.884 316.18 197.923C316.052 197.96 315.906 197.993 315.741 198.021C315.576 198.047 315.415 198.071 315.259 198.094C315.103 198.114 314.972 198.131 314.867 198.145C314.62 198.176 314.394 198.229 314.19 198.303C313.988 198.376 313.826 198.483 313.704 198.622C313.585 198.759 313.525 198.94 313.525 199.168C313.525 199.483 313.641 199.722 313.874 199.884C314.107 200.043 314.404 200.122 314.765 200.122ZM319.415 201V194.455H320.647V195.494H320.715C320.834 195.142 321.044 194.865 321.346 194.663C321.65 194.459 321.993 194.357 322.377 194.357C322.456 194.357 322.55 194.359 322.658 194.365C322.769 194.371 322.855 194.378 322.918 194.386V195.605C322.867 195.591 322.776 195.575 322.645 195.558C322.515 195.538 322.384 195.528 322.253 195.528C321.952 195.528 321.684 195.592 321.448 195.72C321.215 195.845 321.03 196.02 320.894 196.244C320.757 196.466 320.689 196.719 320.689 197.003V201H319.415ZM324.021 201V194.455H325.295V201H324.021ZM324.664 193.445C324.442 193.445 324.252 193.371 324.093 193.223C323.937 193.072 323.859 192.893 323.859 192.686C323.859 192.476 323.937 192.297 324.093 192.149C324.252 191.999 324.442 191.923 324.664 191.923C324.886 191.923 325.075 191.999 325.231 192.149C325.39 192.297 325.469 192.476 325.469 192.686C325.469 192.893 325.39 193.072 325.231 193.223C325.075 193.371 324.886 193.445 324.664 193.445ZM328.283 197.114V201H327.009V194.455H328.232V195.52H328.313C328.463 195.173 328.699 194.895 329.02 194.685C329.344 194.474 329.752 194.369 330.243 194.369C330.689 194.369 331.08 194.463 331.415 194.651C331.75 194.835 332.01 195.111 332.195 195.477C332.38 195.844 332.472 196.297 332.472 196.837V201H331.198V196.99C331.198 196.516 331.074 196.145 330.827 195.878C330.58 195.608 330.24 195.473 329.809 195.473C329.513 195.473 329.25 195.537 329.02 195.665C328.793 195.793 328.613 195.98 328.479 196.227C328.348 196.472 328.283 196.767 328.283 197.114ZM336.925 203.591C336.405 203.591 335.958 203.523 335.583 203.386C335.211 203.25 334.907 203.07 334.671 202.845C334.435 202.621 334.259 202.375 334.142 202.108L335.238 201.656C335.314 201.781 335.417 201.913 335.544 202.053C335.675 202.195 335.851 202.315 336.073 202.415C336.297 202.514 336.586 202.564 336.938 202.564C337.421 202.564 337.82 202.446 338.135 202.21C338.451 201.977 338.608 201.605 338.608 201.094V199.807H338.527C338.451 199.946 338.34 200.101 338.195 200.271C338.053 200.442 337.857 200.589 337.607 200.714C337.357 200.839 337.032 200.902 336.631 200.902C336.114 200.902 335.648 200.781 335.233 200.54C334.821 200.295 334.495 199.936 334.253 199.462C334.015 198.984 333.895 198.398 333.895 197.702C333.895 197.006 334.013 196.409 334.249 195.912C334.488 195.415 334.814 195.034 335.229 194.77C335.644 194.503 336.114 194.369 336.64 194.369C337.046 194.369 337.374 194.438 337.624 194.574C337.874 194.707 338.069 194.864 338.208 195.043C338.35 195.222 338.459 195.379 338.536 195.516H338.63V194.455H339.878V201.145C339.878 201.707 339.748 202.169 339.486 202.53C339.225 202.891 338.871 203.158 338.425 203.331C337.982 203.504 337.482 203.591 336.925 203.591ZM336.912 199.845C337.279 199.845 337.588 199.76 337.841 199.589C338.097 199.416 338.29 199.169 338.421 198.848C338.554 198.524 338.621 198.136 338.621 197.685C338.621 197.244 338.556 196.857 338.425 196.521C338.294 196.186 338.103 195.925 337.85 195.737C337.597 195.547 337.284 195.452 336.912 195.452C336.529 195.452 336.209 195.551 335.953 195.75C335.698 195.946 335.505 196.213 335.374 196.551C335.246 196.889 335.182 197.267 335.182 197.685C335.182 198.114 335.248 198.49 335.378 198.814C335.509 199.138 335.702 199.391 335.958 199.572C336.216 199.754 336.534 199.845 336.912 199.845Z" fill="#1D2939"/>
<path d="M455.651 192.273V201H454.33V193.594H454.278L452.19 194.957V193.696L454.368 192.273H455.651ZM460.96 201.119C460.349 201.119 459.81 201.014 459.341 200.804C458.875 200.594 458.51 200.304 458.246 199.935C457.982 199.565 457.851 199.145 457.854 198.673C457.851 198.304 457.926 197.964 458.08 197.655C458.236 197.342 458.447 197.082 458.714 196.875C458.982 196.665 459.28 196.531 459.609 196.474V196.423C459.175 196.318 458.827 196.085 458.565 195.724C458.304 195.364 458.175 194.949 458.178 194.48C458.175 194.034 458.293 193.636 458.531 193.287C458.773 192.935 459.104 192.658 459.524 192.456C459.945 192.254 460.423 192.153 460.96 192.153C461.491 192.153 461.966 192.256 462.384 192.46C462.804 192.662 463.135 192.939 463.376 193.291C463.618 193.641 463.74 194.037 463.743 194.48C463.74 194.949 463.607 195.364 463.342 195.724C463.078 196.085 462.734 196.318 462.311 196.423V196.474C462.638 196.531 462.932 196.665 463.193 196.875C463.457 197.082 463.668 197.342 463.824 197.655C463.983 197.964 464.064 198.304 464.067 198.673C464.064 199.145 463.93 199.565 463.666 199.935C463.402 200.304 463.036 200.594 462.567 200.804C462.101 201.014 461.565 201.119 460.96 201.119ZM460.96 200.041C461.321 200.041 461.634 199.982 461.898 199.862C462.162 199.74 462.366 199.571 462.511 199.355C462.656 199.136 462.73 198.881 462.733 198.588C462.73 198.284 462.651 198.016 462.494 197.783C462.341 197.55 462.132 197.366 461.868 197.233C461.604 197.099 461.301 197.033 460.96 197.033C460.616 197.033 460.311 197.099 460.044 197.233C459.777 197.366 459.567 197.55 459.413 197.783C459.26 198.016 459.185 198.284 459.188 198.588C459.185 198.881 459.254 199.136 459.396 199.355C459.541 199.571 459.747 199.74 460.014 199.862C460.281 199.982 460.597 200.041 460.96 200.041ZM460.96 195.98C461.25 195.98 461.507 195.922 461.732 195.805C461.956 195.689 462.132 195.527 462.26 195.32C462.391 195.112 462.457 194.869 462.46 194.591C462.457 194.318 462.392 194.08 462.264 193.875C462.139 193.67 461.964 193.513 461.74 193.402C461.516 193.288 461.256 193.232 460.96 193.232C460.659 193.232 460.395 193.288 460.168 193.402C459.943 193.513 459.768 193.67 459.643 193.875C459.518 194.08 459.457 194.318 459.46 194.591C459.457 194.869 459.52 195.112 459.648 195.32C459.776 195.527 459.952 195.689 460.176 195.805C460.403 195.922 460.665 195.98 460.96 195.98ZM466.192 201.081C465.959 201.081 465.759 200.999 465.591 200.834C465.424 200.666 465.34 200.464 465.34 200.229C465.34 199.996 465.424 199.797 465.591 199.632C465.759 199.464 465.959 199.381 466.192 199.381C466.425 199.381 466.625 199.464 466.793 199.632C466.961 199.797 467.044 199.996 467.044 200.229C467.044 200.385 467.005 200.528 466.925 200.659C466.848 200.787 466.746 200.889 466.618 200.966C466.49 201.043 466.348 201.081 466.192 201.081ZM468.734 201V200.045L471.687 196.986C472.002 196.653 472.262 196.362 472.467 196.112C472.674 195.859 472.829 195.619 472.931 195.392C473.034 195.165 473.085 194.923 473.085 194.668C473.085 194.378 473.017 194.128 472.88 193.918C472.744 193.705 472.558 193.541 472.322 193.428C472.086 193.311 471.821 193.253 471.525 193.253C471.213 193.253 470.94 193.317 470.707 193.445C470.474 193.572 470.295 193.753 470.17 193.986C470.045 194.219 469.983 194.491 469.983 194.804H468.725C468.725 194.273 468.848 193.808 469.092 193.411C469.336 193.013 469.672 192.705 470.098 192.486C470.524 192.264 471.008 192.153 471.551 192.153C472.099 192.153 472.582 192.263 473 192.482C473.42 192.697 473.748 192.993 473.984 193.368C474.22 193.74 474.338 194.161 474.338 194.629C474.338 194.953 474.277 195.27 474.154 195.58C474.035 195.889 473.826 196.234 473.528 196.615C473.23 196.993 472.815 197.452 472.284 197.991L470.549 199.807V199.871H474.478V201H468.734ZM480.649 199.364V198.903C480.649 198.574 480.717 198.273 480.853 198C480.993 197.724 481.194 197.504 481.458 197.339C481.725 197.172 482.048 197.088 482.426 197.088C482.812 197.088 483.136 197.17 483.397 197.335C483.659 197.5 483.856 197.72 483.99 197.996C484.126 198.271 484.194 198.574 484.194 198.903V199.364C484.194 199.693 484.126 199.996 483.99 200.271C483.853 200.544 483.653 200.764 483.389 200.932C483.127 201.097 482.806 201.179 482.426 201.179C482.042 201.179 481.718 201.097 481.454 200.932C481.19 200.764 480.99 200.544 480.853 200.271C480.717 199.996 480.649 199.693 480.649 199.364ZM481.642 198.903V199.364C481.642 199.608 481.7 199.83 481.816 200.028C481.933 200.227 482.136 200.327 482.426 200.327C482.713 200.327 482.913 200.227 483.027 200.028C483.14 199.83 483.197 199.608 483.197 199.364V198.903C483.197 198.659 483.142 198.437 483.031 198.239C482.923 198.04 482.721 197.94 482.426 197.94C482.142 197.94 481.94 198.04 481.821 198.239C481.701 198.437 481.642 198.659 481.642 198.903ZM476.26 194.369V193.909C476.26 193.58 476.328 193.277 476.464 193.001C476.603 192.726 476.805 192.506 477.069 192.341C477.336 192.176 477.659 192.094 478.037 192.094C478.423 192.094 478.747 192.176 479.008 192.341C479.27 192.506 479.467 192.726 479.6 193.001C479.734 193.277 479.801 193.58 479.801 193.909V194.369C479.801 194.699 479.733 195.001 479.596 195.277C479.463 195.55 479.264 195.77 479 195.938C478.738 196.102 478.417 196.185 478.037 196.185C477.65 196.185 477.325 196.102 477.061 195.938C476.799 195.77 476.6 195.55 476.464 195.277C476.328 195.001 476.26 194.699 476.26 194.369ZM477.257 193.909V194.369C477.257 194.614 477.314 194.835 477.427 195.034C477.544 195.233 477.747 195.332 478.037 195.332C478.321 195.332 478.52 195.233 478.633 195.034C478.75 194.835 478.808 194.614 478.808 194.369V193.909C478.808 193.665 478.752 193.443 478.642 193.244C478.531 193.045 478.329 192.946 478.037 192.946C477.752 192.946 477.551 193.045 477.431 193.244C477.315 193.443 477.257 193.665 477.257 193.909ZM476.664 201L482.664 192.273H483.683L477.683 201H476.664Z" fill="#1D2939"/>
</svg>
