<svg width="307" height="307" viewBox="0 0 307 307" fill="none" xmlns="http://www.w3.org/2000/svg">
<path d="M306.85 0H0V306.85H306.85V0Z" fill="#0029E3"/>
<path d="M208.92 57.12V111.58C200.08 106.33 189.89 103.68 178.58 103.68C161.32 103.68 146.81 110.53 135.43 124.04C124.28 137.3 118.62 155.34 118.62 177.68C118.62 199.21 123.67 216.68 133.64 229.61C143.92 242.96 158.55 249.73 177.11 249.73C188.93 249.73 199.61 245.94 208.92 238.44V246.67H242.32V57.12H208.92ZM208.92 202.52C199.76 214.94 189.72 221.23 179.07 221.23C170.87 221.23 164.89 218.02 160.24 211.13C155.28 203.78 152.76 192.52 152.76 177.69C152.76 161.99 155.43 150.19 160.69 142.6C165.68 135.42 171.83 132.07 180.05 132.07C190.69 132.07 200.4 136.33 208.93 144.74V202.52H208.92Z" fill="white"/>
<path d="M64.5303 108.12L98.0503 92.48V57.12H64.5303V108.12Z" fill="white"/>
<path d="M64.5303 246.68H98.0503V106.61L64.5303 122.25V246.68Z" fill="white"/>
</svg>
