<svg width="411" height="83" viewBox="0 0 411 83" fill="none" xmlns="http://www.w3.org/2000/svg">
<path d="M111.2 20.86C103 20.86 96.24 23.65 91.12 29.14C86.04 34.59 83.46 42.14 83.46 51.57C83.46 61.09 86.12 68.67 91.38 74.09C96.65 79.53 103.68 82.29 112.27 82.29C118.94 82.29 124.69 80.62 129.38 77.32C134.21 73.92 137.09 69.04 137.92 62.82L138.25 60.34H123.62L123.53 62.44C123.42 64.92 122.38 66.71 120.25 68.06C117.89 69.55 115.2 70.31 112.25 70.31C108.33 70.31 105.13 69.02 102.47 66.37C100.19 64.1 98.73 60.64 98.12 56.09H138.95V51.59C138.95 41.98 136.41 34.39 131.4 29.02C126.38 23.61 119.57 20.86 111.2 20.86ZM98.58 44.09C99.39 40.59 100.79 37.91 102.73 36.1C105.11 33.88 107.88 32.81 111.2 32.81C114.62 32.81 117.42 33.89 119.76 36.11C121.68 37.94 123.07 40.62 123.91 44.1H98.58V44.09Z" fill="#0029E3"/>
<path d="M175.83 20.86C170.75 20.86 166.02 22.61 161.73 26.08V19.9L147.63 26.48V81H161.73V40.57C166.03 35.69 170.27 33.21 174.34 33.21C177.26 33.21 179.33 33.93 180.48 35.33C181.72 36.85 182.37 39.69 182.37 43.55V81H196.47V43.15C196.47 28.57 189.33 20.86 175.83 20.86Z" fill="#0029E3"/>
<path d="M226.89 69.78C225.86 69.78 225.14 69.52 224.61 68.96C224.58 68.92 223.78 68.02 223.78 63.34V34.08H232.62V22.1H223.78V8.53H209.73V22.1H203V34.09H209.73V62.83C209.73 66.78 209.97 69.99 210.44 72.35C210.99 75.1 212.42 77.38 214.7 79.13C216.96 80.87 220.26 81.72 224.77 81.72C227.4 81.72 229.87 81.5 232.13 81.06L233.9 80.72V68.95L231.33 69.41C229.92 69.66 228.43 69.78 226.89 69.78Z" fill="#0029E3"/>
<path d="M239.79 22.73L253.88 16.15V1.28998H239.79V22.73Z" fill="#0029E3"/>
<path d="M239.79 81H253.88V22.1L239.79 28.68V81Z" fill="#0029E3"/>
<path d="M60.72 24.19C57 21.98 52.72 20.87 47.96 20.87C40.7 20.87 34.6 23.75 29.82 29.43C25.13 35 22.75 42.59 22.75 51.99C22.75 61.04 24.87 68.39 29.07 73.83C33.39 79.44 39.54 82.29 47.35 82.29C52.32 82.29 56.81 80.69 60.73 77.54V81H74.78V1.28H60.73V24.19H60.72ZM60.72 62.43C56.87 67.65 52.64 70.3 48.16 70.3C44.71 70.3 42.2 68.95 40.24 66.05C38.15 62.96 37.09 58.22 37.09 51.99C37.09 45.39 38.21 40.42 40.42 37.23C42.52 34.21 45.1 32.8 48.56 32.8C53.03 32.8 57.12 34.59 60.7 38.13V62.43H60.72Z" fill="#0029E3"/>
<path d="M0 22.73L14.1 16.15V1.28998H0V22.73Z" fill="#0029E3"/>
<path d="M0 81H14.1V22.1L0 28.68V81Z" fill="#0029E3"/>
<path d="M281.72 19.56C281.72 16.2 282.36 14.76 282.9 14.14C283.62 13.32 284.8 12.92 286.51 12.92C288.36 12.92 290.2 13.08 291.98 13.4L294.56 13.86V1.08L292.88 0.679993C290.98 0.219993 288.44 0 285.12 0C273.7 0 267.67 6.73001 267.67 19.46V22.1H259.65V34.09H267.67V81H281.72V34.08H292.05V22.1H281.72V19.56Z" fill="#0029E3"/>
<path d="M321.69 20.86C313.49 20.86 306.73 23.65 301.61 29.14C296.53 34.59 293.95 42.14 293.95 51.57C293.95 61.09 296.61 68.67 301.87 74.09C307.14 79.53 314.17 82.29 322.76 82.29C329.42 82.29 335.18 80.62 339.87 77.32C344.7 73.92 347.58 69.04 348.41 62.82L348.74 60.34H334.11L334.02 62.44C333.91 64.92 332.87 66.71 330.74 68.06C328.38 69.55 325.69 70.31 322.74 70.31C318.82 70.31 315.62 69.02 312.96 66.37C310.68 64.1 309.22 60.64 308.61 56.09H349.44V51.59C349.44 41.98 346.9 34.39 341.89 29.02C336.87 23.61 330.07 20.86 321.69 20.86ZM309.07 44.09C309.88 40.59 311.28 37.91 313.22 36.1C315.6 33.88 318.37 32.81 321.69 32.81C325.11 32.81 327.91 33.89 330.25 36.11C332.17 37.94 333.56 40.62 334.4 44.1H309.07V44.09Z" fill="#0029E3"/>
<path d="M410.2 51.58C410.2 41.97 407.66 34.38 402.65 29.01C397.6 23.61 390.79 20.87 382.42 20.87C374.22 20.87 367.46 23.66 362.34 29.15C357.26 34.6 354.68 42.15 354.68 51.58C354.68 61.1 357.34 68.68 362.6 74.1C367.87 79.54 374.9 82.3 383.49 82.3C390.16 82.3 395.91 80.63 400.6 77.33C405.43 73.93 408.31 69.05 409.14 62.83L409.47 60.35H394.84L394.75 62.45C394.64 64.93 393.6 66.72 391.47 68.07C389.11 69.56 386.42 70.32 383.47 70.32C379.55 70.32 376.35 69.03 373.69 66.38C371.41 64.11 369.95 60.65 369.34 56.1H410.17V51.58H410.2ZM369.79 44.09C370.6 40.59 372 37.91 373.94 36.1C376.32 33.88 379.09 32.81 382.41 32.81C385.83 32.81 388.63 33.89 390.97 36.11C392.89 37.94 394.28 40.62 395.12 44.1H369.79V44.09Z" fill="#0029E3"/>
</svg>
