<svg id="Layer_1" data-name="Layer 1" xmlns="http://www.w3.org/2000/svg" viewBox="0 0 855.32 286.73"><defs><style>.cls-1{fill:#fff;}</style></defs><title>Logo SVG Format</title><path class="cls-1" d="M835.72,1119.92H596V880.15H835.72v19.22a4.53,4.53,0,0,0,4.53,4.53h14.43a4.53,4.53,0,0,0,4.53-4.53v-31a11.74,11.74,0,0,0-11.74-11.74H584.22a11.74,11.74,0,0,0-11.74,11.74v263.25a11.74,11.74,0,0,0,11.74,11.74H847.46a11.74,11.74,0,0,0,11.74-11.74v-31a4.53,4.53,0,0,0-4.53-4.53H840.25a4.53,4.53,0,0,0-4.53,4.53v19.22Z" transform="translate(-572.47 -856.67)"/><path class="cls-1" d="M753,940.25a4.73,4.73,0,0,1,4.68,4.68v13.52a4.73,4.73,0,0,1-4.68,4.68h-14.9a4.73,4.73,0,0,1-4.68-4.68V944.93a4.73,4.73,0,0,1,4.68-4.68H753Zm3.81,118.35a4.73,4.73,0,0,1-4.68,4.68H739a4.74,4.74,0,0,1-4.68-4.68V977.85a4.74,4.74,0,0,1,4.68-4.68h13.17a4.73,4.73,0,0,1,4.68,4.68v80.75Z" transform="translate(-572.47 -856.67)"/><path class="cls-1" d="M810.22,971.44a40.57,40.57,0,0,1,9.61,1,37.49,37.49,0,0,1,7.45,2.6,28.58,28.58,0,0,1,5.46,3.38,30.7,30.7,0,0,1,3.64,3.38V944.93a4.74,4.74,0,0,1,4.68-4.68h13.17a4.73,4.73,0,0,1,4.68,4.68V1058.6a4.73,4.73,0,0,1-4.68,4.68H841.07a4.74,4.74,0,0,1-4.68-4.68v-4a30.64,30.64,0,0,1-3.64,3.38,28.55,28.55,0,0,1-5.46,3.38,37.47,37.47,0,0,1-7.45,2.6,40.55,40.55,0,0,1-9.61,1,35.7,35.7,0,0,1-15.68-3.38,37.1,37.1,0,0,1-12-9,43.22,43.22,0,0,1-7.8-13,47.83,47.83,0,0,1-3.2-15.34q-0.17-2.6-.17-6.06t0.17-6.07a47.87,47.87,0,0,1,3.2-15.34,43.3,43.3,0,0,1,7.8-13,37.14,37.14,0,0,1,12-9A35.7,35.7,0,0,1,810.22,971.44Zm-16.12,41.93a45.13,45.13,0,0,0,0,9.7q1,11.27,6.93,16.2a21.62,21.62,0,0,0,14.38,4.94,21.07,21.07,0,0,0,14.3-5q5.8-5,6.67-14.38a62.33,62.33,0,0,0,0-13.17q-0.87-9-6.67-14.21a20.65,20.65,0,0,0-14.3-5.2A21.63,21.63,0,0,0,801,997.18Q795.15,1002.11,794.11,1013.38Z" transform="translate(-572.47 -856.67)"/><path class="cls-1" d="M873.12,1018.23a55.82,55.82,0,0,1,2.95-18.28,44,44,0,0,1,8.49-14.9,39.82,39.82,0,0,1,13.43-10,41.46,41.46,0,0,1,17.59-3.64A42.38,42.38,0,0,1,933.17,975a41.12,41.12,0,0,1,13.43,9.53,42.26,42.26,0,0,1,8.58,14,47.6,47.6,0,0,1,3,16.9v7.8a4.74,4.74,0,0,1-4.68,4.68H895.65a14.45,14.45,0,0,0,1.65,7,15.66,15.66,0,0,0,4.42,5.11,19.5,19.5,0,0,0,6.41,3.12,27,27,0,0,0,7.45,1,29.77,29.77,0,0,0,9-1.13,18.89,18.89,0,0,0,5.72-2.86,17.21,17.21,0,0,1,3.12-1.91,8.52,8.52,0,0,1,3.29-.52h13.86a4.79,4.79,0,0,1,3.38,1.39,3.87,3.87,0,0,1,1.3,3.29q-0.17,2.43-2.69,6.24a29.8,29.8,0,0,1-7.54,7.45,48.74,48.74,0,0,1-12.39,6.24,51.2,51.2,0,0,1-17.07,2.6,44.19,44.19,0,0,1-17.59-3.38,37.44,37.44,0,0,1-13.43-9.62,43,43,0,0,1-8.49-14.81A58,58,0,0,1,873.12,1018.23Zm42.45-26a22.41,22.41,0,0,0-8.58,1.47,18.93,18.93,0,0,0-6,3.81,16.88,16.88,0,0,0-3.73,5.2,19.39,19.39,0,0,0-1.65,5.46h39.16a30.17,30.17,0,0,0-1.3-5.46,14.27,14.27,0,0,0-3.12-5.2,16,16,0,0,0-5.72-3.81A24,24,0,0,0,915.58,992.24Z" transform="translate(-572.47 -856.67)"/><path class="cls-1" d="M1056.45,1058.6a4.73,4.73,0,0,1-4.68,4.68h-13.17a4.74,4.74,0,0,1-4.68-4.68v-44q0-10.4-4.85-16.64t-14.9-6.24q-9.19,0-14.47,6.24t-5.28,16.64v44a4.73,4.73,0,0,1-4.68,4.68H976.57a4.74,4.74,0,0,1-4.68-4.68V977.85a4.74,4.74,0,0,1,4.68-4.68h13.17a4.73,4.73,0,0,1,4.68,4.68v4a38.79,38.79,0,0,1,10.57-7.45,32.64,32.64,0,0,1,14.38-2.95q10.57,0,17.67,3.29a30.48,30.48,0,0,1,11.44,8.84,33.9,33.9,0,0,1,6.15,12.91,64.46,64.46,0,0,1,1.82,15.51v46.61Z" transform="translate(-572.47 -856.67)"/><path class="cls-1" d="M1103.76,1030.7a12.4,12.4,0,0,0,2.86,8.58q2.86,3.21,10.66,3.21h10.57a4.73,4.73,0,0,1,4.68,4.68v11.44a4.73,4.73,0,0,1-4.68,4.68H1115q-16.29,0-25-7.88t-8.75-24.17V994h-11.44a4.73,4.73,0,0,1-4.68-4.68V977.85a4.73,4.73,0,0,1,4.68-4.68h11.44V944.93a4.73,4.73,0,0,1,4.68-4.68h13.17a4.73,4.73,0,0,1,4.68,4.68v28.24h22.35a4.73,4.73,0,0,1,4.68,4.68v11.44a4.73,4.73,0,0,1-4.68,4.68h-22.35v36.74Z" transform="translate(-572.47 -856.67)"/><path class="cls-1" d="M1163,940.25a4.73,4.73,0,0,1,4.68,4.68v13.52a4.73,4.73,0,0,1-4.68,4.68h-14.9a4.73,4.73,0,0,1-4.68-4.68V944.93a4.73,4.73,0,0,1,4.68-4.68H1163Zm3.81,118.35a4.73,4.73,0,0,1-4.68,4.68H1149a4.74,4.74,0,0,1-4.68-4.68V977.85a4.74,4.74,0,0,1,4.68-4.68h13.17a4.73,4.73,0,0,1,4.68,4.68v80.75Z" transform="translate(-572.47 -856.67)"/><path class="cls-1" d="M1216,973.18h24.09a4.73,4.73,0,0,1,4.68,4.68v11.44a4.73,4.73,0,0,1-4.68,4.68H1216v64.63a4.73,4.73,0,0,1-4.68,4.68h-13.17a4.74,4.74,0,0,1-4.68-4.68V994h-11.44a4.74,4.74,0,0,1-4.68-4.68V977.85a4.74,4.74,0,0,1,4.68-4.68h11.44v-7.8a36.6,36.6,0,0,1,2.43-14.12,23.55,23.55,0,0,1,6.93-9.44,27.39,27.39,0,0,1,10.83-5.2,59.13,59.13,0,0,1,14.12-1.56h14a4.74,4.74,0,0,1,4.68,4.68v11.44a4.74,4.74,0,0,1-4.68,4.68h-12.3q-6.59,0-10.05,2.34t-3.47,8.92v6.06Z" transform="translate(-572.47 -856.67)"/><path class="cls-1" d="M1248.44,1018.23a55.82,55.82,0,0,1,2.95-18.28,44,44,0,0,1,8.49-14.9,39.82,39.82,0,0,1,13.43-10,41.46,41.46,0,0,1,17.59-3.64,42.38,42.38,0,0,1,17.59,3.55,41.12,41.12,0,0,1,13.43,9.53,42.26,42.26,0,0,1,8.58,14,47.6,47.6,0,0,1,3,16.9v7.8a4.74,4.74,0,0,1-4.68,4.68H1271a14.45,14.45,0,0,0,1.65,7,15.66,15.66,0,0,0,4.42,5.11,19.5,19.5,0,0,0,6.41,3.12,27,27,0,0,0,7.45,1,29.77,29.77,0,0,0,9-1.13,18.89,18.89,0,0,0,5.72-2.86,17.21,17.21,0,0,1,3.12-1.91,8.52,8.52,0,0,1,3.29-.52h13.86a4.79,4.79,0,0,1,3.38,1.39,3.87,3.87,0,0,1,1.3,3.29q-0.17,2.43-2.69,6.24a29.8,29.8,0,0,1-7.54,7.45,48.74,48.74,0,0,1-12.39,6.24,51.2,51.2,0,0,1-17.07,2.6,44.19,44.19,0,0,1-17.59-3.38,37.44,37.44,0,0,1-13.43-9.62,43,43,0,0,1-8.49-14.81A58,58,0,0,1,1248.44,1018.23Zm42.45-26a22.41,22.41,0,0,0-8.58,1.47,18.93,18.93,0,0,0-6,3.81,16.88,16.88,0,0,0-3.73,5.2,19.39,19.39,0,0,0-1.65,5.46h39.16a30.17,30.17,0,0,0-1.3-5.46,14.28,14.28,0,0,0-3.12-5.2,16,16,0,0,0-5.72-3.81A24,24,0,0,0,1290.9,992.24Z" transform="translate(-572.47 -856.67)"/><path class="cls-1" d="M1342.71,1018.23a55.82,55.82,0,0,1,2.95-18.28,44,44,0,0,1,8.49-14.9,39.83,39.83,0,0,1,13.43-10,41.46,41.46,0,0,1,17.59-3.64,42.38,42.38,0,0,1,17.59,3.55,41.12,41.12,0,0,1,13.43,9.53,42.26,42.26,0,0,1,8.58,14,47.61,47.61,0,0,1,3,16.9v7.8a4.74,4.74,0,0,1-4.68,4.68h-57.88a14.45,14.45,0,0,0,1.65,7,15.66,15.66,0,0,0,4.42,5.11,19.5,19.5,0,0,0,6.41,3.12,27,27,0,0,0,7.45,1,29.76,29.76,0,0,0,9-1.13,18.89,18.89,0,0,0,5.72-2.86,17.22,17.22,0,0,1,3.12-1.91,8.52,8.52,0,0,1,3.29-.52h13.86a4.79,4.79,0,0,1,3.38,1.39,3.87,3.87,0,0,1,1.3,3.29q-0.17,2.43-2.69,6.24a29.8,29.8,0,0,1-7.54,7.45,48.74,48.74,0,0,1-12.39,6.24,51.2,51.2,0,0,1-17.07,2.6,44.19,44.19,0,0,1-17.59-3.38,37.45,37.45,0,0,1-13.43-9.62,43,43,0,0,1-8.49-14.81A58,58,0,0,1,1342.71,1018.23Zm42.45-26a22.41,22.41,0,0,0-8.58,1.47,18.93,18.93,0,0,0-6,3.81,16.89,16.89,0,0,0-3.73,5.2,19.39,19.39,0,0,0-1.65,5.46h39.16a30.19,30.19,0,0,0-1.3-5.46,14.28,14.28,0,0,0-3.12-5.2,16,16,0,0,0-5.72-3.81A24,24,0,0,0,1385.16,992.24Z" transform="translate(-572.47 -856.67)"/></svg>