<svg viewBox="0 0 320 80">
            <defs>
              <path
                id="prefix__a"
                d="M7.62 1.433l.884.884-2.652 2.651L8.504 7.62l-.884.884-2.652-2.652-2.651 2.652-.884-.884 2.652-2.652-2.652-2.651.884-.884 2.651 2.652L7.62 1.433z"
              ></path>
            </defs>
            <g fill="none" fillRule="evenodd">
              <path fill="#EEE" d="M0 0H320V80H0z"></path>
              <path fill="#FFF" d="M0 0H320V22H0z"></path>
              <g fillRule="nonzero">
                <path
                  fill="#EEE"
                  d="M6.832 13.552c3.71 0 6.72-3.009 6.72-6.72s-3.01-6.72-6.72-6.72C3.12.112.112 3.121.112 6.832s3.008 6.72 6.72 6.72z"
                  transform="translate(297 4)"
                ></path>
                <path
                  fill="#CBCCCD"
                  d="M11.689 11.476c-1.224 1.28-2.948 2.076-4.858 2.076-1.91 0-3.633-.797-4.857-2.076.907-1.76 2.741-2.964 4.857-2.964 2.117 0 3.951 1.204 4.858 2.964zM9.351 4.732c0 1.392-1.127 2.52-2.52 2.52-1.391 0-2.52-1.128-2.52-2.52 0-1.392 1.129-2.52 2.52-2.52 1.393 0 2.52 1.128 2.52 2.52z"
                  transform="translate(297 4)"
                ></path>
              </g>
              <path fill="#E5E5E5" d="M0 0H320V1H0zM0 21H320V22H0z"></path>
              <rect
                width="8"
                height="8"
                x="283"
                y="7"
                fill="#EEE"
                rx="4"
              ></rect>
              <rect
                width="6"
                height="6"
                x="268"
                y="8"
                fill="#FFDF5C"
                stroke="#FFDF5C"
                strokeWidth="2"
                rx="3"
              ></rect>
              <g transform="translate(156 31)">
                <rect
                  width="154"
                  height="36"
                  x="4"
                  y="4"
                  fill="#CBCCCD"
                  rx="2"
                ></rect>
                <rect
                  width="154"
                  height="36"
                  fill="#FFF"
                  stroke="#B9BABB"
                  strokeLinejoin="round"
                  strokeWidth="2"
                  rx="2"
                ></rect>
                <g transform="translate(133 13)">
                  <mask id="prefix__b" fill="#fff">
                    <use xlinkHref="#prefix__a"></use>
                  </mask>
                  <use
                    fill="#404346"
                    fillRule="nonzero"
                    xlinkHref="#prefix__a"
                  ></use>
                  <g fill="#CBCCCD" mask="url(#prefix__b)">
                    <path d="M0 0H10V10H0z"></path>
                  </g>
                </g>
                <path
                  fill="#CBCCCD"
                  d="M13 13H123V16H13zM13 21H67V24H13z"
                ></path>
              </g>
              <path fill="#E5E5E5" d="M319 0H320V80H319z"></path>
            </g>
          </svg>