<svg width="20" height="20" viewBox="0 0 20 20" fill="none" xmlns="http://www.w3.org/2000/svg">
<circle cx="10" cy="10" r="10" fill="#DEE2EA"/>
<path d="M13.5 8.25H13V5.75H8V8.25H7.61C7.335 7.945 6.945 7.75 6.5 7.75C5.67 7.75 5 8.42 5 9.25V12.75C5 13.58 5.67 14.25 6.5 14.25C6.945 14.25 7.335 14.055 7.61 13.75H15V9.75C15 8.92 14.33 8.25 13.5 8.25ZM7 12.75C7 13.025 6.775 13.25 6.5 13.25C6.225 13.25 6 13.025 6 12.75V9.25C6 8.975 6.225 8.75 6.5 8.75C6.775 8.75 7 8.975 7 9.25V12.75ZM9 6.75H12V8.25H9V6.75ZM14 12.75H8V9.25H13.5C13.775 9.25 14 9.475 14 9.75V12.75Z" fill="#111B51"/>
<path d="M11.5 10.75C11.7761 10.75 12 10.5261 12 10.25C12 9.97386 11.7761 9.75 11.5 9.75C11.2239 9.75 11 9.97386 11 10.25C11 10.5261 11.2239 10.75 11.5 10.75Z" fill="#111B51"/>
<path d="M13 10.75C13.2761 10.75 13.5 10.5261 13.5 10.25C13.5 9.97386 13.2761 9.75 13 9.75C12.7239 9.75 12.5 9.97386 12.5 10.25C12.5 10.5261 12.7239 10.75 13 10.75Z" fill="#111B51"/>
<path d="M11.5 12.25C11.7761 12.25 12 12.0261 12 11.75C12 11.4739 11.7761 11.25 11.5 11.25C11.2239 11.25 11 11.4739 11 11.75C11 12.0261 11.2239 12.25 11.5 12.25Z" fill="#111B51"/>
<path d="M13 12.25C13.2761 12.25 13.5 12.0261 13.5 11.75C13.5 11.4739 13.2761 11.25 13 11.25C12.7239 11.25 12.5 11.4739 12.5 11.75C12.5 12.0261 12.7239 12.25 13 12.25Z" fill="#111B51"/>
<path d="M10.5 9.75H8.5V12.25H10.5V9.75Z" fill="#111B51"/>
</svg>