<svg width="64" height="64" viewBox="0 0 64 64" fill="none" xmlns="http://www.w3.org/2000/svg">
<path d="M29.375 47.75H34.625V42.5H29.375V47.75ZM32 5.75C17.51 5.75 5.75 17.51 5.75 32C5.75 46.49 17.51 58.25 32 58.25C46.49 58.25 58.25 46.49 58.25 32C58.25 17.51 46.49 5.75 32 5.75ZM32 53C20.4237 53 11 43.5762 11 32C11 20.4237 20.4237 11 32 11C43.5762 11 53 20.4237 53 32C53 43.5762 43.5762 53 32 53ZM32 16.25C26.1987 16.25 21.5 20.9487 21.5 26.75H26.75C26.75 23.8625 29.1125 21.5 32 21.5C34.8875 21.5 37.25 23.8625 37.25 26.75C37.25 32 29.375 31.3438 29.375 39.875H34.625C34.625 33.9688 42.5 33.3125 42.5 26.75C42.5 20.9487 37.8013 16.25 32 16.25Z" fill="#111B51"/>
</svg>
