<svg viewBox="0 0 30 30" width="24" height="24" xmlns="http://www.w3.org/2000/svg" fill-rule="evenodd" clip-rule="evenodd" stroke-linejoin="round" stroke-miterlimit="1.414"><path d="M23.167 1H6.833A5.834 5.834 0 0 0 1 6.833v16.334A5.834 5.834 0 0 0 6.833 29h16.334A5.833 5.833 0 0 0 29 23.167V6.833A5.833 5.833 0 0 0 23.167 1zM10.333 23.167h-3.5V10.333h3.5v12.834zM8.583 8.854a2.05 2.05 0 0 1-2.041-2.058 2.05 2.05 0 0 1 2.041-2.058 2.05 2.05 0 0 1 2.042 2.058 2.05 2.05 0 0 1-2.042 2.058zm15.75 14.313h-3.5v-6.538c0-3.93-4.666-3.632-4.666 0v6.538h-3.5V10.333h3.5v2.06c1.628-3.017 8.166-3.24 8.166 2.888v7.886z" fill="#0077b5" fill-rule="nonzero"/></svg>