<svg width="20" height="20" viewBox="0 0 20 20" fill="none" xmlns="http://www.w3.org/2000/svg">
<circle cx="10" cy="10" r="10" fill="#DEE2EA"/>
<path d="M10 5C8.065 5 6.5 6.565 6.5 8.5C6.5 11.125 10 15 10 15C10 15 13.5 11.125 13.5 8.5C13.5 6.565 11.935 5 10 5ZM7.5 8.5C7.5 7.12 8.62 6 10 6C11.38 6 12.5 7.12 12.5 8.5C12.5 9.94 11.06 12.095 10 13.44C8.96 12.105 7.5 9.925 7.5 8.5Z" fill="#111B51"/>
<path d="M10 9.75C10.6904 9.75 11.25 9.19036 11.25 8.5C11.25 7.80964 10.6904 7.25 10 7.25C9.30964 7.25 8.75 7.80964 8.75 8.5C8.75 9.19036 9.30964 9.75 10 9.75Z" fill="#111B51"/>
</svg>