<svg width="20" height="20" viewBox="0 0 20 20" fill="none" xmlns="http://www.w3.org/2000/svg">
<circle cx="10" cy="10" r="10" fill="#DEE2EA"/>
<path d="M6.25 8.23633H5.75V8.73633H6.25V8.23633ZM6.25 5.5L6.55581 5.10443L5.75 4.48147V5.5H6.25ZM7.20042 8.23633V8.73633H7.52826L7.65896 8.43566L7.20042 8.23633ZM8.24317 7.04088L8.50327 7.4679L9.12398 7.08983L8.54898 6.64531L8.24317 7.04088ZM6.25 8.28638V7.78638H5.75V8.28638H6.25ZM6.25 11.4238H5.75V11.9238H6.25V11.4238ZM7.17928 8.28638L7.64188 8.47611L7.92475 7.78638H7.17928V8.28638ZM8.09856 11.4238V11.9238H9.67846L8.38623 11.0149L8.09856 11.4238ZM6.25 11.4739V10.9739H5.75V11.4739H6.25ZM6.25 14.4349H5.75V15.186L6.44293 14.8962L6.25 14.4349ZM13.3297 11.4739L13.5227 11.9352L13.3297 10.9739V11.4739ZM11.0355 11.4739V10.9739H10.8866L10.7619 11.0554L11.0355 11.4739ZM8.17236 11.4739L8.44596 11.0554L8.3213 10.9739H8.17236V11.4739ZM11.1093 11.4238L10.8217 11.0149L9.52945 11.9238H11.1093V11.4238ZM13.4494 11.4238V11.9238H13.5498L13.6423 11.8851L13.4494 11.4238ZM13.75 11.2981L13.9429 11.7594L14.7354 11.4279L14.0558 10.9025L13.75 11.2981ZM12.1136 10.033L12.4194 9.63746L11.8436 9.19233L11.6347 9.88948L12.1136 10.033ZM6.75 8.23633V5.5H5.75V8.23633H6.75ZM7.20042 7.73633H6.25V8.73633H7.20042V7.73633ZM7.98307 6.61386C7.43613 6.94701 6.99977 7.44373 6.74187 8.03699L7.65896 8.43566C7.83397 8.03308 8.13091 7.69471 8.50327 7.4679L7.98307 6.61386ZM5.94419 5.89557L7.93736 7.43646L8.54898 6.64531L6.55581 5.10443L5.94419 5.89557ZM5.75 8.28638V11.4238H6.75V8.28638H5.75ZM7.17928 7.78638H6.25V8.78638H7.17928V7.78638ZM7.48438 9.27973C7.48438 8.99433 7.54051 8.72328 7.64188 8.47611L6.71667 8.09666C6.56677 8.46216 6.48438 8.86195 6.48438 9.27973H7.48438ZM8.38623 11.0149C7.83977 10.6305 7.48438 9.99659 7.48438 9.27973H6.48438C6.48438 10.3358 7.00963 11.2692 7.8109 11.8328L8.38623 11.0149ZM6.25 11.9238H8.09856V10.9238H6.25V11.9238ZM5.75 11.4739V14.4349H6.75V11.4739H5.75ZM6.44293 14.8962L13.5227 11.9352L13.1368 11.0126L6.05707 13.9736L6.44293 14.8962ZM13.3297 10.9739H11.0355V11.9739H13.3297V10.9739ZM10.7619 11.0554C10.4293 11.2729 10.0322 11.3993 9.60395 11.3993V12.3993C10.2324 12.3993 10.8188 12.213 11.3092 11.8924L10.7619 11.0554ZM9.60395 11.3993C9.17574 11.3993 8.77859 11.2729 8.44596 11.0554L7.89875 11.8924C8.3891 12.213 8.97552 12.3993 9.60395 12.3993V11.3993ZM8.17236 10.9739H6.25V11.9739H8.17236V10.9739ZM11.1093 11.9238H13.4494V10.9238H11.1093V11.9238ZM13.6423 11.8851L13.9429 11.7594L13.5571 10.8368L13.2565 10.9625L13.6423 11.8851ZM14.0558 10.9025L12.4194 9.63746L11.8078 10.4286L13.4442 11.6937L14.0558 10.9025ZM11.6347 9.88948C11.4969 10.349 11.2066 10.7441 10.8217 11.0149L11.397 11.8328C11.9617 11.4356 12.3891 10.8553 12.5925 10.1766L11.6347 9.88948Z" fill="#111B51"/>
</svg>