<svg width="20" height="20" viewBox="0 0 20 20" fill="none" xmlns="http://www.w3.org/2000/svg">
<circle cx="10" cy="10" r="10" fill="#DEE2EA"/>
<path d="M7.27 6.5C7.3 6.945 7.375 7.38 7.495 7.795L6.895 8.395C6.69 7.795 6.56 7.16 6.515 6.5H7.27ZM12.2 12.51C12.625 12.63 13.06 12.705 13.5 12.735V13.48C12.84 13.435 12.205 13.305 11.6 13.105L12.2 12.51ZM7.75 5.5H6C5.725 5.5 5.5 5.725 5.5 6C5.5 10.695 9.305 14.5 14 14.5C14.275 14.5 14.5 14.275 14.5 14V12.255C14.5 11.98 14.275 11.755 14 11.755C13.38 11.755 12.775 11.655 12.215 11.47C12.165 11.45 12.11 11.445 12.06 11.445C11.93 11.445 11.805 11.495 11.705 11.59L10.605 12.69C9.19 11.965 8.03 10.81 7.31 9.395L8.41 8.295C8.55 8.155 8.59 7.96 8.535 7.785C8.35 7.225 8.25 6.625 8.25 6C8.25 5.725 8.025 5.5 7.75 5.5Z" fill="#111B51"/>
</svg>