<svg width="37" height="45" viewBox="0 0 37 45" fill="none" xmlns="http://www.w3.org/2000/svg">
<path d="M4.70674 0C2.15086 0 0.000112105 2.00188 0.000112105 4.59184L0 40.3313C0 42.8871 2.07878 45 4.66874 45H32.0678C34.6237 45 36.7365 42.9212 36.7365 40.3313V10.8534C36.7365 10.8534 36.8047 10.0015 36.4298 9.1495C36.0891 8.36569 35.3572 7.69132 35.3572 7.69132L28.6991 1.26275C28.6991 1.26275 28.2883 0.834046 27.4363 0.459184C26.414 0.016164 25.2954 5.5064e-06 25.2954 5.5064e-06L4.70674 0Z" fill="#0E1748"/>
<path fill-rule="evenodd" clip-rule="evenodd" d="M22.4236 17.6836C22.8436 17.6836 23.1841 18.0241 23.1841 18.4441V26.5564C23.1841 26.9764 22.8436 27.3169 22.4236 27.3169C22.0036 27.3169 21.6631 26.9764 21.6631 26.5564V18.4441C21.6631 18.0241 22.0036 17.6836 22.4236 17.6836Z" fill="white"/>
<path fill-rule="evenodd" clip-rule="evenodd" d="M18.3679 20.7256C18.788 20.7256 19.1285 21.0661 19.1285 21.4861V26.5563C19.1285 26.9763 18.788 27.3168 18.3679 27.3168C17.9479 27.3168 17.6074 26.9763 17.6074 26.5563V21.4861C17.6074 21.0661 17.9479 20.7256 18.3679 20.7256Z" fill="white"/>
<path fill-rule="evenodd" clip-rule="evenodd" d="M14.3113 22.7539C14.7313 22.7539 15.0718 23.0944 15.0718 23.5144V26.5565C15.0718 26.9765 14.7313 27.317 14.3113 27.317C13.8913 27.317 13.5508 26.9765 13.5508 26.5565V23.5144C13.5508 23.0944 13.8913 22.7539 14.3113 22.7539Z" fill="white"/>
<path fill-rule="evenodd" clip-rule="evenodd" d="M10.0015 14.1343V30.8658H26.733V14.1343H10.0015ZM8.48047 13.9822C8.48047 13.2262 9.09337 12.6133 9.84941 12.6133H26.8851C27.6412 12.6133 28.2541 13.2262 28.2541 13.9822V31.0179C28.2541 31.774 27.6412 32.3869 26.8851 32.3869H9.84941C9.09339 32.3869 8.48047 31.774 8.48047 31.0179V13.9822Z" fill="white"/>
</svg>
