<svg width="20" height="20" viewBox="0 0 20 20" fill="none" xmlns="http://www.w3.org/2000/svg">
<circle cx="10" cy="10" r="10" fill="#DEE2EA"/>
<path d="M10 5C7.24 5 5 7.24 5 10C5 12.76 7.24 15 10 15C12.76 15 15 12.76 15 10C15 7.24 12.76 5 10 5ZM10 14C7.795 14 6 12.205 6 10C6 7.795 7.795 6 10 6C12.205 6 14 7.795 14 10C14 12.205 12.205 14 10 14ZM10.155 9.57C9.27 9.345 8.985 9.1 8.985 8.735C8.985 8.315 9.38 8.02 10.035 8.02C10.725 8.02 10.985 8.35 11.005 8.84H11.86C11.835 8.17 11.425 7.555 10.615 7.355V6.5H9.45V7.345C8.695 7.505 8.09 7.995 8.09 8.75C8.09 9.645 8.835 10.095 9.92 10.355C10.895 10.585 11.09 10.93 11.09 11.29C11.09 11.555 10.895 11.985 10.04 11.985C9.24 11.985 8.925 11.625 8.88 11.165H8.02C8.07 12.015 8.7 12.495 9.45 12.65V13.5H10.62V12.665C11.38 12.52 11.98 12.085 11.985 11.28C11.98 10.18 11.035 9.8 10.155 9.57Z" fill="#111B51"/>
</svg>