<svg width="20" height="20" viewBox="0 0 20 20" fill="none" xmlns="http://www.w3.org/2000/svg">
<circle cx="10" cy="10" r="10" fill="#DEE2EA"/>
<rect x="5.25" y="7.5" width="9.5" height="5" stroke="#111B51"/>
<path d="M8.2084 9.37933C8.19509 9.26437 8.13796 9.17506 8.03702 9.1114C7.93608 9.04774 7.79908 9.01591 7.62604 9.01591C7.50846 9.01591 7.40918 9.03017 7.3282 9.05867C7.24723 9.08622 7.18511 9.1247 7.14185 9.17411C7.09969 9.22352 7.07862 9.27957 7.07862 9.34228C7.0764 9.39454 7.08916 9.44014 7.11689 9.4791C7.14573 9.51805 7.18511 9.55178 7.23502 9.58028C7.28494 9.60784 7.34262 9.63207 7.40807 9.65297C7.47352 9.67292 7.5434 9.69002 7.61772 9.70428L7.92388 9.76698C8.07252 9.79549 8.20896 9.83349 8.33319 9.881C8.45743 9.9285 8.56503 9.98694 8.65599 10.0563C8.74695 10.1257 8.81739 10.2074 8.8673 10.3014C8.91833 10.3955 8.9444 10.5033 8.94551 10.6249C8.9444 10.8036 8.89115 10.9584 8.78577 11.0895C8.6815 11.2197 8.53064 11.3209 8.33319 11.3931C8.13686 11.4644 7.90003 11.5 7.62271 11.5C7.34762 11.5 7.10801 11.4639 6.90391 11.3917C6.70092 11.3195 6.54229 11.2126 6.42804 11.071C6.31489 10.9285 6.25555 10.7523 6.25 10.5423H6.94717C6.95494 10.6401 6.98766 10.7219 7.04534 10.7874C7.10413 10.852 7.18233 10.9009 7.27995 10.9342C7.37867 10.9665 7.49016 10.9827 7.61439 10.9827C7.73641 10.9827 7.84235 10.9675 7.9322 10.9371C8.02316 10.9067 8.09359 10.8644 8.14351 10.8102C8.19343 10.7561 8.21839 10.6938 8.21839 10.6235C8.21839 10.558 8.19565 10.5029 8.15017 10.4582C8.1058 10.4135 8.04035 10.3755 7.95383 10.3442C7.86841 10.3128 7.76359 10.2843 7.63935 10.2587L7.2683 10.1789C6.981 10.119 6.75416 10.0254 6.58777 9.8981C6.42138 9.77078 6.33874 9.59929 6.33985 9.38361C6.33874 9.20689 6.39365 9.05249 6.50458 8.92043C6.61661 8.78836 6.77024 8.68527 6.96547 8.61116C7.1607 8.53705 7.38256 8.5 7.63103 8.5C7.88394 8.5 8.10469 8.53705 8.29326 8.61116C8.48295 8.68527 8.63048 8.78836 8.73586 8.92043C8.84124 9.05249 8.89559 9.20546 8.89892 9.37933H8.2084Z" fill="#111B51"/>
<path d="M10.1506 8.5399V11.4587H9.43012V8.5399H10.1506Z" fill="#111B51"/>
<path d="M13.75 9.56176H13.0212C13.0079 9.481 12.9807 9.40926 12.9397 9.34656C12.8986 9.2829 12.846 9.22874 12.7816 9.18409C12.7173 9.13943 12.643 9.10523 12.5587 9.08147C12.4755 9.05772 12.3851 9.04584 12.2874 9.04584C12.1111 9.04584 11.9574 9.08337 11.8265 9.15843C11.6956 9.23254 11.5941 9.34086 11.522 9.48337C11.4499 9.62494 11.4139 9.79691 11.4139 9.99929C11.4139 10.2074 11.4499 10.3822 11.522 10.5238C11.5953 10.6653 11.6973 10.7722 11.8282 10.8444C11.9591 10.9166 12.1105 10.9527 12.2824 10.9527C12.379 10.9527 12.4682 10.9418 12.5503 10.92C12.6335 10.8981 12.7073 10.8663 12.7716 10.8245C12.836 10.7817 12.8892 10.7299 12.9314 10.6691C12.9746 10.6083 13.0046 10.539 13.0212 10.461L13.75 10.4639C13.7311 10.5979 13.684 10.7271 13.6086 10.8515C13.5342 10.9751 13.4339 11.0857 13.3074 11.1836C13.1821 11.2805 13.0323 11.3575 12.8582 11.4145C12.6851 11.4705 12.4893 11.4986 12.2708 11.4986C11.9669 11.4986 11.6951 11.4397 11.4555 11.3219C11.217 11.204 11.0284 11.0335 10.8898 10.8102C10.7522 10.5869 10.6834 10.3166 10.6834 9.99929C10.6834 9.681 10.7533 9.41021 10.8931 9.18694C11.0329 8.96366 11.2225 8.79359 11.4621 8.67672C11.7017 8.55891 11.9713 8.5 12.2708 8.5C12.4682 8.5 12.6513 8.52375 12.8199 8.57126C12.9896 8.61876 13.1399 8.68812 13.2708 8.77933C13.4017 8.8696 13.5082 8.98028 13.5903 9.1114C13.6735 9.24252 13.7267 9.39264 13.75 9.56176Z" fill="#111B51"/>
</svg>