<svg width="20" height="20" viewBox="0 0 20 20" fill="none" xmlns="http://www.w3.org/2000/svg">
<circle cx="10" cy="10" r="10" fill="#DEE2EA"/>
<path d="M11.085 6.5L13.5 8.915V13.5H6.5V6.5H11.085ZM11.085 5.5H6.5C5.95 5.5 5.5 5.95 5.5 6.5V13.5C5.5 14.05 5.95 14.5 6.5 14.5H13.5C14.05 14.5 14.5 14.05 14.5 13.5V8.915C14.5 8.65 14.395 8.395 14.205 8.21L11.79 5.795C11.605 5.605 11.35 5.5 11.085 5.5ZM7.5 11.5H12.5V12.5H7.5V11.5ZM7.5 9.5H12.5V10.5H7.5V9.5ZM7.5 7.5H11V8.5H7.5V7.5Z" fill="#111B51"/>
</svg>