<svg width="24" height="24" viewBox="0 0 24 24" fill="none" xmlns="http://www.w3.org/2000/svg">
<circle cx="12" cy="12" r="12" fill="#188CD8"/>
<path d="M17.4762 8.74255C18.0597 8.36888 18.4461 7.85885 18.6353 7.21019C18.1024 7.51087 17.5305 7.72936 16.9374 7.85885C16.4298 7.2893 15.787 7 15.0164 7C14.2632 7 13.627 7.27573 13.1077 7.81214C12.857 8.06686 12.6587 8.3723 12.5251 8.70977C12.3915 9.04723 12.3253 9.4096 12.3306 9.77467C12.3306 10.0075 12.3588 10.2154 12.4151 10.3917C10.1937 10.3126 8.35504 9.35128 6.90634 7.50099C6.6608 7.95377 6.53803 8.41483 6.53803 8.89172C6.53803 9.87186 6.9345 10.6486 7.72602 11.2189C7.27465 11.179 6.87673 11.0599 6.53803 10.8648C6.53803 11.5647 6.73518 12.1493 7.13022 12.6639C7.51395 13.1653 8.05474 13.5096 8.65763 13.6365C8.43231 13.6967 8.19471 13.7254 7.95061 13.7254C7.72529 13.7254 7.56569 13.7058 7.47108 13.6628C7.63719 14.2331 7.95061 14.6957 8.40342 15.0498C8.85106 15.4044 9.39557 15.6005 9.95756 15.6095C8.99561 16.3968 7.89573 16.7863 6.65141 16.7863C6.34665 16.7863 6.13071 16.7818 6 16.7577C7.22554 17.5879 8.58975 18 10.0991 18C11.6439 18 13.0088 17.5917 14.1968 16.775C15.3848 15.9629 16.2615 14.9609 16.8248 13.7811C17.3818 12.6395 17.6719 11.3766 17.6712 10.0956V9.74303C18.1904 9.34369 18.6399 8.85414 19 8.2958C18.5137 8.51568 18.0011 8.66596 17.4762 8.74255Z" fill="white"/>
</svg>