<svg width="189" height="189" viewBox="0 0 189 189" fill="none" xmlns="http://www.w3.org/2000/svg">
<path d="M70.875 94.5C86.0738 94.5 98.4375 82.1362 98.4375 66.9375C98.4375 51.7388 86.0738 39.375 70.875 39.375C55.6763 39.375 43.3125 51.7388 43.3125 66.9375C43.3125 82.1362 55.6763 94.5 70.875 94.5ZM70.875 55.125C77.4113 55.125 82.6875 60.4013 82.6875 66.9375C82.6875 73.4738 77.4113 78.75 70.875 78.75C64.3387 78.75 59.0625 73.4738 59.0625 66.9375C59.0625 60.4013 64.3387 55.125 70.875 55.125ZM70.875 108.281C52.4475 108.281 15.75 117.495 15.75 135.844V149.625H126V135.844C126 117.495 89.3025 108.281 70.875 108.281ZM34.1775 133.875C40.7925 129.308 56.7788 124.031 70.875 124.031C84.9713 124.031 100.957 129.308 107.573 133.875H34.1775ZM126.315 108.754C135.45 115.369 141.75 124.189 141.75 135.844V149.625H173.25V135.844C173.25 119.936 145.688 110.88 126.315 108.754ZM118.125 94.5C133.324 94.5 145.688 82.1362 145.688 66.9375C145.688 51.7388 133.324 39.375 118.125 39.375C113.872 39.375 109.935 40.3987 106.312 42.1312C111.274 49.14 114.188 57.7238 114.188 66.9375C114.188 76.1512 111.274 84.735 106.312 91.7437C109.935 93.4762 113.872 94.5 118.125 94.5Z" fill="#D0D7DB"/>
</svg>