<svg width="20" height="20" viewBox="0 0 20 20" fill="none" xmlns="http://www.w3.org/2000/svg">
<circle cx="10" cy="10" r="10" fill="#DEE2EA"/>
<path d="M9.995 5C7.235 5 5 7.24 5 10C5 12.76 7.235 15 9.995 15C12.76 15 15 12.76 15 10C15 7.24 12.76 5 9.995 5ZM13.46 8H11.985C11.825 7.375 11.595 6.775 11.295 6.22C12.215 6.535 12.98 7.175 13.46 8ZM10 6.02C10.415 6.62 10.74 7.285 10.955 8H9.045C9.26 7.285 9.585 6.62 10 6.02ZM6.13 11C6.05 10.68 6 10.345 6 10C6 9.655 6.05 9.32 6.13 9H7.82C7.78 9.33 7.75 9.66 7.75 10C7.75 10.34 7.78 10.67 7.82 11H6.13ZM6.54 12H8.015C8.175 12.625 8.405 13.225 8.705 13.78C7.785 13.465 7.02 12.83 6.54 12ZM8.015 8H6.54C7.02 7.17 7.785 6.535 8.705 6.22C8.405 6.775 8.175 7.375 8.015 8ZM10 13.98C9.585 13.38 9.26 12.715 9.045 12H10.955C10.74 12.715 10.415 13.38 10 13.98ZM11.17 11H8.83C8.785 10.67 8.75 10.34 8.75 10C8.75 9.66 8.785 9.325 8.83 9H11.17C11.215 9.325 11.25 9.66 11.25 10C11.25 10.34 11.215 10.67 11.17 11ZM11.295 13.78C11.595 13.225 11.825 12.625 11.985 12H13.46C12.98 12.825 12.215 13.465 11.295 13.78ZM12.18 11C12.22 10.67 12.25 10.34 12.25 10C12.25 9.66 12.22 9.33 12.18 9H13.87C13.95 9.32 14 9.655 14 10C14 10.345 13.95 10.68 13.87 11H12.18Z" fill="#111B51"/>
</svg>
