<svg width="24" height="24" viewBox="0 0 24 24" fill="none" xmlns="http://www.w3.org/2000/svg">
<circle cx="12" cy="12" r="12" fill="#111B51"/>
<path d="M11.993 5.33301C8.31301 5.33301 5.33301 8.31967 5.33301 11.9997C5.33301 15.6797 8.31301 18.6663 11.993 18.6663C15.6797 18.6663 18.6663 15.6797 18.6663 11.9997C18.6663 8.31967 15.6797 5.33301 11.993 5.33301ZM16.613 9.33301H14.6463C14.433 8.49967 14.1263 7.69967 13.7263 6.95967C14.953 7.37967 15.973 8.23301 16.613 9.33301ZM11.9997 6.69301C12.553 7.49301 12.9863 8.37967 13.273 9.33301H10.7263C11.013 8.37967 11.4463 7.49301 11.9997 6.69301ZM6.83967 13.333C6.73301 12.9063 6.66634 12.4597 6.66634 11.9997C6.66634 11.5397 6.73301 11.093 6.83967 10.6663H9.09301C9.03967 11.1063 8.99967 11.5463 8.99967 11.9997C8.99967 12.453 9.03967 12.893 9.09301 13.333H6.83967ZM7.38634 14.6663H9.35301C9.56634 15.4997 9.87301 16.2997 10.273 17.0397C9.04634 16.6197 8.02634 15.773 7.38634 14.6663ZM9.35301 9.33301H7.38634C8.02634 8.22634 9.04634 7.37967 10.273 6.95967C9.87301 7.69967 9.56634 8.49967 9.35301 9.33301ZM11.9997 17.3063C11.4463 16.5063 11.013 15.6197 10.7263 14.6663H13.273C12.9863 15.6197 12.553 16.5063 11.9997 17.3063ZM13.5597 13.333H10.4397C10.3797 12.893 10.333 12.453 10.333 11.9997C10.333 11.5463 10.3797 11.0997 10.4397 10.6663H13.5597C13.6197 11.0997 13.6663 11.5463 13.6663 11.9997C13.6663 12.453 13.6197 12.893 13.5597 13.333ZM13.7263 17.0397C14.1263 16.2997 14.433 15.4997 14.6463 14.6663H16.613C15.973 15.7663 14.953 16.6197 13.7263 17.0397ZM14.9063 13.333C14.9597 12.893 14.9997 12.453 14.9997 11.9997C14.9997 11.5463 14.9597 11.1063 14.9063 10.6663H17.1597C17.2663 11.093 17.333 11.5397 17.333 11.9997C17.333 12.4597 17.2663 12.9063 17.1597 13.333H14.9063Z" fill="white"/>
</svg>