<svg width="161" height="196" viewBox="0 0 161 196" fill="none" xmlns="http://www.w3.org/2000/svg">
<path d="M20.6174 0C9.48514 0 0.117432 8.71929 0.117432 20L0.116943 175.665C0.116943 186.797 9.1712 196 20.4519 196H139.79C150.922 196 160.125 186.946 160.125 175.665V47.2727C160.125 47.2727 160.422 43.5619 158.789 39.8512C157.305 36.4373 154.117 33.5 154.117 33.5L125.117 5.5C125.117 5.5 123.328 3.63274 119.617 2C115.165 0.0704031 110.292 2.39834e-05 110.292 2.39834e-05L20.6174 0Z" fill="#00B2C2"/>
<path fill-rule="evenodd" clip-rule="evenodd" d="M45.1169 62C42.3555 62 40.1169 64.2386 40.1169 67V128.996C40.1169 131.758 42.3555 133.996 45.1169 133.996H115.117C117.878 133.996 120.117 131.758 120.117 128.996V67C120.117 64.2386 117.878 62 115.117 62H45.1169ZM108.117 116.998C108.117 119.759 105.878 121.998 103.117 121.998H57.1173C54.3559 121.998 52.1173 119.759 52.1173 116.998V104.071C52.1173 102.745 52.6441 101.473 53.5817 100.535L60.5816 93.5348C62.5342 91.582 65.7001 91.582 67.6528 93.5346L80.5815 106.463C82.5343 108.416 85.7003 108.416 87.6529 106.463L92.581 101.534C94.5337 99.5809 97.6999 99.5808 99.6526 101.534L106.652 108.535C107.59 109.472 108.117 110.744 108.117 112.07V116.998ZM92.1173 82C92.1173 86.4181 95.6984 89.9992 100.117 89.9992C104.535 89.9992 108.117 86.4181 108.117 82C108.117 77.5802 104.535 74.0004 100.117 74.0004C95.6985 74.0004 92.1173 77.5801 92.1173 82Z" fill="white"/>
</svg>
