<?xml version="1.0" encoding="UTF-8"?>
<svg enable-background="new 0 0 160 196.7" version="1.1" viewBox="0 0 160 196.7" xmlSpace="preserve" xmlns="http://www.w3.org/2000/svg" xmlnsXlink="http://www.w3.org/1999/xlink">
<style type="text/css">.st0{fill:#FF2116;}
	.st1{fill:#F5F5F5;}
	.st2{fill:#2C2C2C;}</style>
<g transform="translate(36.076 -93.732)">
<g transform="matrix(1.4843 0 0 1.4843 17.472 -90.244)">
<path class="st0" d="m-22.4 123.9c-7.5 0-13.7 6.1-13.7 13.7v105.1c0 7.5 6.1 13.7 13.7 13.7h80.4c7.5 0 13.7-6.1 13.7-13.7v-86.5s0.2-2.5-0.9-5c-1-2.3-2.7-3.9-2.7-3.9l-19.9-19.6s-1.7-1.6-4.2-2.7c-3-1.3-6-1.1-6-1.1h-60.4z"/>
<path class="st1" d="m-22.4 128.4h60.3s2.4 0 4.2 0.8c1.7 0.7 2.9 1.8 2.9 1.8l19.9 19.5s1.2 1.3 1.8 2.6c0.5 1.1 0.5 3 0.5 3v0.1 86.6c0 5.1-4.1 9.2-9.2 9.2h-80.4c-5.1 0-9.2-4.1-9.2-9.2v-105.2c0-5.1 4.1-9.2 9.2-9.2z"/>
<path class="st0" d="m-9.2 202.9c-3.1-3.1 0.3-7.3 9.3-11.9l5.7-2.8 2.2-4.9c1.2-2.7 3.1-7.1 4.1-9.7l1.8-4.8-1.3-3.6c-1.6-4.4-2.1-11-1.1-13.4 1.3-3.2 5.7-2.9 7.4 0.6 1.4 2.7 1.2 7.6-0.4 13.8l-1.3 5.1 1.2 2c0.6 1.1 2.5 3.7 4.1 5.7l3.1 3.8 3.8-0.5c12.2-1.6 16.3 1.1 16.3 5 0 4.9-9.6 5.3-17.6-0.3-1.8-1.3-3-2.5-3-2.5s-5 1-7.5 1.7c-2.6 0.7-3.8 1.1-7.6 2.4 0 0-1.3 1.9-2.2 3.3-3.2 5.2-6.9 9.4-9.6 11-2.7 1.4-5.8 1.5-7.4 0zm4.9-1.8c1.7-1.1 5.3-5.2 7.7-9.1l1-1.6-4.5 2.3c-6.9 3.5-10.1 6.8-8.5 8.8 0.9 1.1 2.1 1 4.3-0.4zm45.1-12.6c1.7-1.2 1.5-3.6-0.5-4.6-1.5-0.8-2.7-0.9-6.6-0.9-2.4 0.2-6.2 0.6-6.9 0.8 0 0 2.1 1.5 3 2 1.2 0.7 4.3 2 6.5 2.7s3.5 0.7 4.5 0zm-18.2-7.6c-1-1.1-2.8-3.3-3.9-5-1.5-1.9-2.2-3.2-2.2-3.2s-1.1 3.4-1.9 5.5l-2.7 6.7-0.8 1.5s4.2-1.4 6.3-1.9c2.3-0.6 6.8-1.5 6.8-1.5l-1.6-2.1zm-5.8-23.4c0.3-2.2 0.4-4.4-0.3-5.5-2-2.1-4.3-0.4-3.9 4.7 0.1 1.7 0.6 4.7 1.1 6.5l1 3.3 0.7-2.5c0.4-1.3 1-4.3 1.4-6.5z"/>
<path class="st2" d="m-3.9 217.2h5c1.6 0 2.9 0.2 3.9 0.5s1.8 1 2.5 2 1 2.3 1 3.7c0 1.3-0.3 2.5-0.8 3.4-0.6 1-1.3 1.7-2.2 2.1s-2.4 0.6-4.3 0.6h-1.7v7.9h-3.4v-20.2zm3.4 2.6v7.1h1.7c1.5 0 2.5-0.3 3.1-0.8 0.6-0.6 0.9-1.5 0.9-2.7 0-0.9-0.2-1.7-0.6-2.3s-0.8-0.9-1.2-1.1c-0.4-0.1-1.2-0.2-2.1-0.2h-1.8z"/>
<path class="st2" d="m11.2 217.2h4.6c2.2 0 4 0.4 5.3 1.2s2.3 1.9 3 3.5c0.7 1.5 1 3.3 1 5.1 0 2-0.3 3.8-0.9 5.3s-1.5 2.8-2.8 3.7c-1.2 1-3 1.4-5.4 1.4h-4.8v-20.2zm3.3 2.7v14.9h1.4c2 0 3.4-0.7 4.3-2 0.9-1.4 1.3-3.2 1.3-5.4 0-5-1.9-7.5-5.6-7.5h-1.4z"/>
<path class="st2" d="m28.3 217.2h11.3v2.7h-7.9v6.1h6.3v2.7h-6.3v8.8h-3.4v-20.3z"/>
</g>
</g>
</svg>
