<svg width="161" height="196" viewBox="0 0 161 196" fill="none" xmlns="http://www.w3.org/2000/svg">
<path d="M20.5005 0C9.3682 0 0.000488281 8.71929 0.000488281 20L0 175.665C0 186.797 9.05426 196 20.335 196H139.673C150.805 196 160.008 186.946 160.008 175.665V47.2727C160.008 47.2727 160.305 43.5619 158.672 39.8512C157.188 36.4373 154 33.5 154 33.5L125 5.5C125 5.5 123.211 3.63274 119.5 2C115.048 0.0704031 110.175 2.39834e-05 110.175 2.39834e-05L20.5005 0Z" fill="#FF2116"/>
<path fill-rule="evenodd" clip-rule="evenodd" d="M74.6667 58C69.7891 58 65.7778 62.0113 65.7778 66.8889C65.7778 72.9524 69.1468 80.4801 72.6944 87.5556C69.9214 96.2363 66.7746 105.539 62.75 113.389C54.5127 116.621 47.1666 119.023 42.75 122.583C42.6811 122.654 42.6162 122.728 42.5556 122.806C40.9416 124.456 40 126.703 40 129.111C40 133.989 44.0113 138 48.8889 138C51.2674 138 53.5632 137.112 55.2222 135.417C55.2796 135.373 55.3352 135.326 55.3889 135.278C58.64 131.396 62.4734 124.354 65.8889 117.917C73.7607 114.82 82.011 111.669 89.9722 109.778C95.7841 114.462 104.192 117.556 111.111 117.556C115.989 117.556 120 113.544 120 108.667C120 103.789 115.989 99.7778 111.111 99.7778C105.562 99.7778 97.4987 101.759 91.3333 103.833C86.3359 99.1419 81.7445 93.2826 78.4444 87.0556C80.8023 79.792 83.5556 72.5242 83.5556 66.8889C83.5556 62.0113 79.5443 58 74.6667 58ZM74.6665 63.3333C76.6618 63.3333 78.2221 64.8936 78.2221 66.8889C78.2221 69.5568 76.7934 74.4689 75.1388 79.75C72.9277 74.6124 71.111 69.6834 71.111 66.8889C71.111 64.8936 72.6713 63.3333 74.6665 63.3333ZM76.1945 93.75C78.868 98.0026 81.9991 101.96 85.4167 105.472C80.1454 106.914 74.9972 108.761 69.9167 110.694C72.3705 105.156 74.3349 99.4092 76.1945 93.75ZM111.111 105.111C113.106 105.111 114.667 106.671 114.667 108.667C114.667 110.662 113.106 112.222 111.111 112.222C107.105 112.222 101.412 110.414 96.8611 107.889C102.085 106.412 107.785 105.111 111.111 105.111ZM58.0556 121.028C55.556 125.49 53.0713 129.654 51.3334 131.75C50.7397 132.318 49.95 132.667 48.889 132.667C46.8937 132.667 45.3334 131.106 45.3334 129.111C45.3334 128.172 45.7325 127.24 46.2779 126.639C48.3631 125.025 52.8996 123.091 58.0556 121.028Z" fill="white"/>
</svg>
