<svg width="161" height="196" viewBox="0 0 161 196" fill="none" xmlns="http://www.w3.org/2000/svg">
<path d="M20.5881 0C9.45584 0 0.0881348 8.71929 0.0881348 20L0.0876465 175.665C0.0876465 186.797 9.14191 196 20.4226 196H139.761C150.893 196 160.096 186.946 160.096 175.665V47.2727C160.096 47.2727 160.393 43.5619 158.76 39.8512C157.276 36.4373 154.088 33.5 154.088 33.5L125.088 5.5C125.088 5.5 123.299 3.63274 119.588 2C115.135 0.0704031 110.263 2.39834e-05 110.263 2.39834e-05L20.5881 0Z" fill="#1ABF74"/>
<path fill-rule="evenodd" clip-rule="evenodd" d="M119.896 60.0064C119.486 58.8379 118.373 58 117.064 58H43.0876C41.4308 58 40.0876 59.3431 40.0876 61V64.6647H40.1111V77.7643H40.0876V84.429H40.1111V104.566H40.0925V111.231H40.1111V131.368H40.0974V135.033C40.0974 136.12 40.676 137.072 41.5422 137.598C41.9986 137.879 42.536 138.041 43.1111 138.041H46.7758V138.033H66.862V138.041H73.5267V138.033H86.718V138.041H93.3827V138.033H113.423V138.041H117.088C118.744 138.041 120.088 136.698 120.088 135.041V61.0644C120.088 60.692 120.02 60.3354 119.896 60.0064ZM113.423 131.368V111.231H93.3827V131.368H113.423ZM86.718 131.368V111.231H73.5267V131.368H86.718ZM66.862 131.368V111.231H46.7758V131.368H66.862ZM46.7758 104.566H66.862V84.429H46.7758V104.566ZM46.7758 77.7643H113.423V64.6647H46.7758V77.7643ZM113.423 84.429H93.3827V104.566H113.423V84.429ZM86.718 104.566V84.429H73.5267V104.566H86.718Z" fill="white"/>
</svg>
