<svg width="161" height="196" viewBox="0 0 161 196" fill="none" xmlns="http://www.w3.org/2000/svg">
<path d="M20.5588 0C9.42655 0 0.0588379 8.71929 0.0588379 20L0.0583496 175.665C0.0583496 186.797 9.11261 196 20.3933 196H139.731C150.864 196 160.066 186.946 160.066 175.665V47.2727C160.066 47.2727 160.363 43.5619 158.731 39.8512C157.246 36.4373 154.059 33.5 154.059 33.5L125.059 5.5C125.059 5.5 123.27 3.63274 119.559 2C115.106 0.0704031 110.234 2.39834e-05 110.234 2.39834e-05L20.5588 0Z" fill="#FD7541"/>
<path opacity="0.4" d="M77.6323 65.8611C77.6323 64.2042 76.2844 62.8486 74.6327 62.979C55.2789 64.5073 40.0583 80.6961 40.0583 100.435C40.0583 121.183 56.8841 138.009 77.6323 138.009C97.3713 138.009 113.568 122.78 115.097 103.426C115.228 101.774 113.872 100.426 112.215 100.426H80.6323C78.9755 100.426 77.6323 99.0829 77.6323 97.426V65.8611Z" fill="white"/>
<path d="M83.4843 91.583C83.4843 93.2398 84.8274 94.583 86.4843 94.583H118.06C119.716 94.583 121.071 93.2359 120.942 91.5846C119.499 73.219 104.849 58.5681 86.4839 57.1179C84.8321 56.9875 83.4843 58.3431 83.4843 60L83.4843 91.583Z" fill="white"/>
</svg>
