<svg width="37" height="45" viewBox="0 0 37 45" fill="none" xmlns="http://www.w3.org/2000/svg">
<path d="M4.70674 0C2.15086 0 0.000112105 2.00188 0.000112105 4.59184L0 40.3313C0 42.8871 2.07878 45 4.66874 45H32.0678C34.6237 45 36.7365 42.9212 36.7365 40.3313V10.8534C36.7365 10.8534 36.8047 10.0015 36.4298 9.1495C36.0891 8.36569 35.3572 7.69132 35.3572 7.69132L28.6991 1.26275C28.6991 1.26275 28.2883 0.834046 27.4363 0.459184C26.414 0.016164 25.2954 5.5064e-06 25.2954 5.5064e-06L4.70674 0Z" fill="#0A30EA"/>
<path d="M11.0966 33.5203H25.7904V16.3774H11.0966V33.5203ZM14.1088 22.353L15.8353 20.6264L18.4435 23.2223L21.0394 20.6264L22.7659 22.353L20.17 24.9489L22.7659 27.5448L21.0394 29.2713L18.4435 26.6754L15.8476 29.2713L14.121 27.5448L16.717 24.9489L14.1088 22.353ZM22.7292 12.704L21.5047 11.4795H15.3823L14.1578 12.704H9.87207V15.153H27.0149V12.704H22.7292Z" fill="white"/>
</svg>
