<svg width="161" height="196" viewBox="0 0 161 196" fill="none" xmlns="http://www.w3.org/2000/svg">
<path d="M20.6467 0C9.51444 0 0.146729 8.71929 0.146729 20L0.14624 175.665C0.14624 186.797 9.2005 196 20.4812 196H139.819C150.952 196 160.154 186.946 160.154 175.665V47.2727C160.154 47.2727 160.451 43.5619 158.818 39.8512C157.334 36.4373 154.147 33.5 154.147 33.5L125.147 5.5C125.147 5.5 123.357 3.63274 119.647 2C115.194 0.0704031 110.322 2.39834e-05 110.322 2.39834e-05L20.6467 0Z" fill="#7D40FF"/>
<path opacity="0.99" d="M94.7463 91.5076V105.219L117.122 118.565C118.455 119.36 120.146 118.4 120.146 116.847V79.9142C120.146 78.3629 118.457 77.4022 117.124 78.1953L94.7463 91.5076Z" fill="white"/>
<path opacity="0.99" fill-rule="evenodd" clip-rule="evenodd" d="M97.5862 72C100.348 72 102.586 74.2386 102.586 77V119.806C102.586 122.568 100.348 124.806 97.5862 124.806H45.1462C42.3848 124.806 40.1462 122.568 40.1462 119.806V77C40.1462 74.2386 42.3848 72 45.1462 72H97.5862ZM60.3861 111.2C60.3861 112.763 62.0992 113.722 63.4319 112.905L84.3267 100.088C85.5991 99.3076 85.5991 97.4588 84.3267 96.6783L63.4319 83.8618C62.0992 83.0444 60.3861 84.0033 60.3861 85.5667V111.2Z" fill="white"/>
</svg>
