<svg fill="none" xmlns="http://www.w3.org/2000/svg" viewBox="0 0 100 22" role="img" aria-hidden="true" width="100" height="22"><path fill-rule="evenodd" clip-rule="evenodd" d="M6.725 14.468c3.28 0 4.558-1.991 4.558-5.398 0-3.408-1.495-5.783-4.461-5.783H3.497v11.181h3.228ZM0 .312h7.256c4.606 0 7.572 3.695 7.572 8.758 0 2.783-.94 5.23-2.749 6.742-1.278 1.056-2.942 1.656-5.113 1.656H0V.312ZM24.817 11.325c0-2.4-1.134-4.031-3.135-4.031-2.026 0-3.135 1.631-3.135 4.03 0 2.4 1.109 4.008 3.135 4.008 2.001 0 3.135-1.608 3.135-4.007Zm-9.598 0c0-3.671 2.629-6.502 6.463-6.502 3.835 0 6.463 2.831 6.463 6.502s-2.628 6.503-6.463 6.503c-3.834 0-6.463-2.832-6.463-6.503ZM28.687 11.325c0-3.671 2.412-6.502 6.174-6.502 3.208 0 5.185 1.847 5.62 4.51h-3.208c-.217-1.08-1.062-1.895-2.267-1.895-1.978 0-2.99 1.512-2.99 3.887 0 2.328.94 3.887 2.942 3.887 1.326 0 2.267-.696 2.483-2.087h3.16c-.217 2.615-2.267 4.703-5.571 4.703-3.907 0-6.343-2.832-6.343-6.503ZM49.141 17.468v-1.44h-.072c-.845 1.128-1.81 1.776-3.546 1.776-2.749 0-4.292-1.752-4.292-4.44V5.16h3.255v7.654c0 1.44.652 2.231 2.05 2.231 1.544 0 2.484-1.151 2.484-2.783V5.159h3.28v12.309h-3.159ZM68.277 17.468h3.28V5.158h-3.28v12.31Zm0-14.03h3.28V.387h-3.28v3.05ZM81.578 10.773c0-1.8-.965-3.335-2.943-3.335-1.664 0-2.773 1.296-2.773 3.36 0 2.087 1.11 3.31 2.797 3.31 2.074 0 2.918-1.511 2.918-3.335Zm-8.658 7.055h3.255c.266.767.965 1.367 2.484 1.367 1.857 0 2.75-.887 2.75-2.567v-1.344h-.073c-.723.816-1.664 1.44-3.231 1.44-2.75 0-5.45-2.16-5.45-5.879 0-3.67 2.218-6.022 5.353-6.022 1.544 0 2.677.6 3.425 1.631h.048V5.16h3.16v11.373c0 1.727-.555 2.903-1.472 3.743-1.037.96-2.629 1.392-4.461 1.392-3.377 0-5.45-1.44-5.788-3.84ZM89.252 6.838h.073c.844-1.32 1.977-2.015 3.666-2.015 2.556 0 4.268 1.92 4.268 4.607v8.038h-3.28V9.91c0-1.32-.772-2.256-2.146-2.256-1.447 0-2.508 1.152-2.508 2.832v6.982h-3.28V5.158h3.207v1.68ZM60.804 7.126c-2.556-.552-3.762-.96-3.762-2.351 0-1.224 1.23-2.016 3.111-2.016 1.717 0 3.028.802 3.298 2.4h3.364C66.472 1.826 63.987 0 60.177 0c-3.834 0-6.608 1.751-6.608 5.135 0 3.575 2.822 4.39 5.909 5.087 2.629.6 4.269.935 4.269 2.615 0 1.584-1.568 2.207-3.353 2.207-2.46 0-3.641-.816-3.882-2.879h-3.425c.12 3.623 2.773 5.687 7.452 5.687 3.883 0 6.705-1.944 6.705-5.423 0-3.695-2.894-4.535-6.44-5.303ZM98.696 5.04c-.607 0-1.1.491-1.1 1.095 0 .603.493 1.094 1.1 1.094.606 0 1.1-.49 1.1-1.094 0-.604-.494-1.095-1.1-1.095Zm0 2.392c-.72 0-1.305-.582-1.305-1.298 0-.715.585-1.298 1.304-1.298.72 0 1.305.583 1.305 1.298 0 .716-.585 1.298-1.305 1.298Z" fill="#191823"></path><path fill-rule="evenodd" clip-rule="evenodd" d="M98.494 5.681v.416h.087c.085 0 .117-.002.164-.004.055-.002.234-.011.234-.205a.19.19 0 0 0-.105-.178c-.053-.027-.118-.029-.265-.029h-.115Zm-.248-.214h.425c.178.002.297.002.414.096a.403.403 0 0 1 .148.327.364.364 0 0 1-.263.364l.296.54h-.285l-.264-.493h-.223v.493h-.248V5.467Z" fill="#191823"></path></svg>