<?xml version="1.0" encoding="UTF-8"?>
<svg width="239px" height="74px" viewBox="0 0 239 74" version="1.1" xmlns="http://www.w3.org/2000/svg" xmlns:xlink="http://www.w3.org/1999/xlink">
    <!-- Generator: Sketch 62 (91390) - https://sketch.com -->
    <title>Group 12</title>
    <desc>Created with Sketch.</desc>
    <g id="Page-1" stroke="none" stroke-width="1" fill="none" fill-rule="evenodd">
        <g id="new-nav-desktop" transform="translate(-50.000000, 0.000000)">
            <g id="Group-12" transform="translate(50.000000, -57.000000)">
                <rect id="Rectangle" fill="#F44238" x="0" y="0" width="62" height="131" rx="8"></rect>
                <path d="M227.524314,106.210213 C228.405288,106.217666 229.277882,106.038326 230.084608,105.683838 C230.859911,105.342625 231.560733,104.851885 232.146808,104.240031 C232.741029,103.619327 233.21445,102.893348 233.543332,102.099593 C234.573501,99.5622758 234.02746,96.656729 232.146808,94.6672155 C231.556078,94.0523343 230.848739,93.5613609 230.065987,93.2231763 C228.431124,92.5214198 226.580031,92.5214198 224.9454,93.2231763 C224.169631,93.5641559 223.468809,94.0548963 222.882967,94.6672155 C222.288979,95.2900157 221.823239,96.0236808 221.512279,96.8262872 C220.863594,98.5241979 220.863594,100.401682 221.512279,102.099593 C221.826032,102.895212 222.291772,103.622122 222.882967,104.240031 C223.468809,104.852584 224.169631,105.343091 224.9454,105.683838 C225.75841,106.038792 226.637522,106.21557 227.524314,106.203459 L227.524314,106.210213 Z M227.524314,109.999652 C226.10661,110.011297 224.70194,109.730641 223.397354,109.175152 C220.881982,108.107029 218.878901,106.102842 217.811259,103.585323 C216.709867,100.949252 216.709867,97.9812857 217.811259,95.3452153 C218.870056,92.816982 220.874999,90.8032459 223.397354,89.734191 C226.031896,88.6318301 228.998112,88.6318301 231.632422,89.734191 C234.165948,90.7941625 236.180201,92.8099947 237.239464,95.3452153 C238.341089,97.9812857 238.341089,100.949252 237.239464,103.585323 C236.171124,106.109596 234.158966,108.115879 231.632422,109.175152 C230.332723,109.724586 228.934803,110.00268 227.524314,109.992665 L227.524314,109.999652 Z M205.179934,89.319612 L208.706156,89.319612 L208.706156,88.1550642 C208.678459,86.8365632 208.81043,85.5196925 209.099511,84.2331001 C209.306196,83.2982012 209.759601,82.4362029 210.412243,81.7360767 C211.098402,81.0711199 211.955867,80.6097261 212.888745,80.404067 C214.177271,80.1115326 215.49652,79.9769108 216.817632,80.0032296 L217.792871,80.0032296 L217.792871,83.7579646 L217.115557,83.7579646 C216.331642,83.7444559 215.547726,83.7942985 214.771725,83.9067938 C214.269674,83.9661858 213.801141,84.1904777 213.440372,84.544966 C213.113818,84.9278694 212.905271,85.3969492 212.839867,85.8958415 C212.727679,86.6537292 212.677637,87.4195358 212.690671,88.1853425 L212.690671,89.319612 L217.450723,89.319612 L217.450723,92.9532341 L212.681594,92.9532341 L212.681594,109.582744 L208.706156,109.582744 L208.706156,92.9532341 L205.179934,92.9532341 L205.179934,89.319612 Z M185.898596,89.319612 L189.874033,89.319612 L189.874033,92.1261722 C191.356443,90.0409329 193.778714,88.8307349 196.335283,88.8980457 C197.520932,88.8822079 198.698667,89.0925252 199.805645,89.5178181 C200.801366,89.9025847 201.698633,90.5058204 202.43111,91.2832725 C203.171965,92.0949623 203.734066,93.0536181 204.081335,94.0965871 C204.481905,95.2977017 204.678582,96.5572766 204.66322,97.8231401 L204.66322,109.582744 L200.564423,109.582744 L200.564423,98.1329098 C200.564423,96.4047209 200.126845,95.0282253 199.25169,94.0034233 C198.376303,92.9786212 197.088475,92.4655215 195.387975,92.4638911 C194.648515,92.4578354 193.914875,92.5989786 193.230346,92.8784701 C192.578867,93.1467819 191.991396,93.5492496 191.505639,94.0595545 C191.000795,94.6008363 190.611863,95.2394743 190.362817,95.9368055 C190.076762,96.7270677 189.936411,97.5627472 189.948282,98.4030849 L189.948282,109.582744 L185.898596,109.582744 L185.898596,89.319612 Z M178.287541,109.582744 L182.370046,109.582744 L182.370046,89.319612 L178.287541,89.319612 L178.287541,109.582744 Z M177.463592,83.2313561 C177.44055,82.4627546 177.731259,81.7176769 178.268921,81.1677774 C178.804022,80.6174121 179.545576,80.3174246 180.312501,80.3411814 C181.095951,80.308574 181.856823,80.6087945 182.407286,81.1677774 C182.944948,81.7176769 183.235658,82.4627546 183.212615,83.2313561 C183.235425,84.0001906 182.944715,84.7450354 182.407286,85.2951677 C181.856823,85.8541507 181.095951,86.1543711 180.312501,86.1217638 C179.538827,86.1527407 178.78866,85.8520545 178.250301,85.2951677 C177.723113,84.7399113 177.439851,83.9966969 177.463592,83.2313561 L177.463592,83.2313561 Z M144.012193,89.3219411 L148.024871,89.3219411 L148.024871,91.6487076 C148.643997,90.8034788 149.453282,90.1156969 150.387324,89.6410272 C151.437975,89.1297907 152.596392,88.8780155 153.764351,88.9073621 C155.389207,88.9073621 156.732895,89.2180635 157.795882,89.8390003 C158.846999,90.4529499 159.690267,91.3680516 160.216524,92.4662202 C160.868235,91.3894793 161.78482,90.4979015 162.879229,89.8764988 C164.082101,89.2066509 165.441152,88.8698637 166.817426,88.9006077 C168.044505,88.8747548 169.265765,89.0785506 170.41813,89.5012815 C171.396627,89.8657849 172.274343,90.458074 172.978423,91.2297033 C173.669935,92.0097174 174.18246,92.9318064 174.479454,93.9312213 C174.816947,95.0766705 174.981038,96.2659068 174.966142,97.4600341 L174.966142,109.582744 L170.792864,109.582744 L170.792864,97.6810652 C170.792864,96.1068295 170.430466,94.8435281 169.705903,93.8916267 C168.981107,92.9399582 167.817337,92.4638911 166.214593,92.4638911 C164.763605,92.4638911 163.607749,92.9297102 162.746559,93.8613485 C161.88537,94.7929867 161.453145,96.1904441 161.45012,98.0537205 L161.45012,109.582744 L157.365288,109.582744 L157.365288,97.4202065 C157.365288,95.8676314 157.009174,94.6541726 156.296947,93.7798301 C155.58472,92.9057205 154.452837,92.4671518 152.901067,92.4638911 C151.402131,92.4638911 150.220439,92.9460139 149.356224,93.9102595 C148.491776,94.8747379 148.060715,96.319476 148.061879,98.2447064 L148.061879,109.582744 L144.012193,109.582744 L144.012193,89.3219411 Z M131.07084,106.091525 C132.794849,106.100979 134.445307,105.394331 135.628395,104.139647 C136.199806,103.527095 136.656702,102.81742 136.978368,102.043461 C137.654984,100.383282 137.654984,98.5239649 136.978368,96.8637856 C136.655306,96.0865664 136.191194,95.3757264 135.609542,94.7675996 C135.028123,94.1625005 134.33405,93.6775828 133.566195,93.339631 C131.970201,92.6378745 130.153091,92.6378745 128.55733,93.339631 C127.016266,94.0316053 125.80548,95.2974688 125.182397,96.8684438 C124.530686,98.5335142 124.530686,100.383049 125.182397,102.048119 C125.494288,102.826969 125.95258,103.538508 126.53237,104.144306 C127.109135,104.746377 127.79669,105.231062 128.55733,105.572274 C129.348693,105.922337 130.205926,106.09865 131.07084,106.0891 L131.07084,106.091525 Z M131.07084,109.995069 C129.663609,110.000351 128.269879,109.719229 126.974603,109.168165 C124.440378,108.108193 122.42566,106.091429 121.36756,103.555277 C120.265936,100.926194 120.265936,97.9647491 121.36756,95.3358989 C122.426823,92.8006783 124.441076,90.7848461 126.974603,89.7251076 C129.602628,88.6225137 132.563026,88.6225137 135.190818,89.7251076 C137.724112,90.7848461 139.738597,92.8006783 140.797861,95.3358989 C141.899485,97.9647491 141.899485,100.926194 140.797861,103.555277 C139.739761,106.091429 137.72481,108.108193 135.190818,109.168165 C133.888094,109.721558 132.486217,110.001981 131.07084,109.992665 L131.07084,109.995069 Z M108.340321,106.091525 C110.064097,106.100979 111.714322,105.394331 112.897643,104.139647 C113.468822,103.527095 113.926183,102.81742 114.247616,102.043461 C114.923999,100.383282 114.923999,98.5239649 114.247616,96.8637856 C113.924554,96.0865664 113.460442,95.3757264 112.879023,94.7675996 C112.296673,94.1625005 111.601669,93.6775828 110.833116,93.339631 C109.23782,92.6378745 107.421641,92.6378745 105.826578,93.339631 C104.285514,94.0316053 103.074728,95.2974688 102.451646,96.8684438 C101.799935,98.5335142 101.799935,100.383049 102.451646,102.048119 C103.074728,103.619094 104.285514,104.884958 105.826578,105.576699 C106.618174,105.925365 107.475407,106.100047 108.340321,106.0891 L108.340321,106.091525 Z M108.340321,109.995157 C106.929134,110.002913 105.531213,109.72249 104.232213,109.170727 C101.697988,108.110522 99.68327,106.093759 98.6251705,103.557373 C97.523546,100.928523 97.523546,97.9670782 98.6251705,95.3379951 C99.6844338,92.8030074 101.698687,90.7871752 104.232213,89.7272038 C106.860006,88.6248428 109.820403,88.6248428 112.448428,89.7272038 C114.981722,90.7871752 116.996208,92.8030074 118.055471,95.3379951 C119.153837,97.967544 119.153837,100.927825 118.055471,103.557373 C116.997139,106.093759 114.982653,108.110522 112.448428,109.170727 C111.149196,109.721558 109.751275,110.001282 108.340321,109.992665 L108.340321,109.995157 Z M77,109.582744 L77,105.856191 L90.81162,92.8693866 L81.1220726,92.8693866 L81.1220726,95.4267336 L77.2234438,95.4267336 L77.2234438,89.319612 L96.0183262,89.319612 L96.0183262,93.046165 L82.3207555,105.958904 L92.3431411,105.958904 L92.3431411,103.352413 L96.2440975,103.352413 L96.2440975,109.582744 L77,109.582744 Z" id="Fill-1" fill="#000000"></path>
                <g id="Group-11" transform="translate(16.000000, 80.000000)" fill="#FFFFFF">
                    <path d="M26.3190352,26.1414356 L13.9254155,26.1414356 C13.6410438,26.1414356 13.4104887,26.3727709 13.4104887,26.6579435 L13.4104887,28.7028441 C13.4065105,28.9880166 13.6337146,29.2226593 13.9180863,29.2265179 L13.9254155,29.2265179 L28.8769142,29.2265179 C29.1601864,29.2265179 29.3899597,28.9962852 29.3899597,28.7120313 L29.3899597,28.7101939 L29.3899597,21.4779819 C29.3910551,21.1939118 29.1620187,20.9627603 28.8787464,20.9618416 L28.8769142,20.9618416 L26.8339091,20.9618416 C26.5495375,20.9618416 26.3190352,21.1928093 26.3190352,21.4779819 L26.3190352,26.1414356 Z" id="Path"></path>
                    <path d="M3.06908827,2.98953755 L16.7727965,2.98953755 C17.0560687,2.99064002 17.286571,2.76114224 17.2876704,2.47688838 L17.2876704,2.47523467 L17.2876704,0.508977043 C17.2845555,0.22637689 17.0546029,-0.000915950771 16.7727965,9.7465895e-14 L0.514873913,9.7465895e-14 C0.232884251,-0.000915950771 0.00293166641,0.22637689 1.83712694e-13,0.508977043 L1.83712694e-13,7.53355692 C1.83712694e-13,7.8187295 0.230502272,8.05006474 0.514873913,8.05006474 L2.55421436,8.05006474 C2.838586,8.05006474 3.06908827,7.8187295 3.06908827,7.53355692 L3.06908827,2.98953755 Z" id="Path"></path>
                    <path d="M21.6613502,-1.59872116e-13 L28.8750819,-1.59872116e-13 C29.1583541,-1.59872116e-13 29.3881235,0.230419285 29.3881235,0.5144894 L29.3881235,7.4416843 C29.3881235,7.72593816 29.1583541,7.95617093 28.8750819,7.95617093 L26.8339091,7.95617093 C26.5506369,7.9572734 26.3199514,7.72777562 26.3190352,7.4437055 L26.3190352,7.4416843 L26.3190352,5.30858601 L4.56973502,26.1487855 L9.04419088,26.1487855 C9.32856252,26.1487855 9.55906479,26.3801207 9.55906479,26.6652933 L9.55906479,28.7101939 C9.55906479,28.9953664 9.32856252,29.2265179 9.04419088,29.2265179 L0.514873913,29.2265179 C0.230502272,29.2265179 2.52429656e-13,28.9953664 2.52429656e-13,28.7101939 L2.52429656e-13,26.1581565 L24.1056271,3.07240665 L21.6613502,3.07240665 C21.3769786,3.07240665 21.1464763,2.84107141 21.1464763,2.55608257 L21.1464763,0.508977043 C21.1494079,0.22637689 21.3793605,-0.000915950772 21.6613502,-1.59872116e-13 L21.6613502,-1.59872116e-13 Z" id="Path"></path>
                </g>
            </g>
        </g>
    </g>
</svg>